<svg xmlns="http://www.w3.org/2000/svg">
<defs>
<font id="PT Sans">
<font-face  font-family="PT Sans" units-per-em="1000" ascent="750" descent="-250" font-style="normal" font-weight="400" font-stretch="normal" cap-height="700" x-height="500" underline-position="-75" underline-thickness="50" />

<glyph glyph-name="space" unicode="&#x20;" horiz-adv-x="267" d="" />
<glyph glyph-name="exclam" unicode="&#x21;" horiz-adv-x="305" d="M127 700 L210 700 L210 353 L193 177 L144 177 L127 353 L127 700 Z M110 46 Q110 73 125.5 88.5 Q141 104 167 104 Q194 104 210 88.5 Q226 73 226 46 Q226 20 210 4 Q194 -12 167 -12 Q141 -12 125.5 4 Q110 20 110 46 Z " />
<glyph glyph-name="quotedbl" unicode="&#x22;" horiz-adv-x="335" d="M207 700 L285 700 L254 507 L207 507 L207 700 Z M90 700 L168 700 L137 507 L90 507 L90 700 Z " />
<glyph glyph-name="numbersign" unicode="&#x23;" horiz-adv-x="545" d="M280 225 L175 225 L136 58 L67 58 L106 225 L28 225 L42 289 L121 289 L152 420 L78 420 L92 484 L167 484 L205 642 L274 642 L236 484 L341 484 L379 642 L448 642 L410 484 L487 484 L471 420 L395 420 L364 289 L437 289 L421 225 L349 225 L310 58 L241 58 L280 225 Z M190 289 L295 289 L326 420 L221 420 L190 289 Z " />
<glyph glyph-name="dollar" unicode="&#x24;" horiz-adv-x="545" d="M242 -12 Q187 -11 144.5 -2.5 Q102 6 76 20 L103 93 Q123 81 157.5 71 Q192 61 242 60 L242 330 Q212 345 182.5 362 Q153 379 130 402.5 Q107 426 93 458 Q79 490 79 534 Q79 606 119.5 652 Q160 698 242 709 L242 800 L310 800 L310 712 Q361 710 393.5 702.5 Q426 695 452 683 L428 613 Q408 623 380 630.5 Q352 638 310 640 L310 393 Q341 377 372 358.5 Q403 340 427.5 316 Q452 292 467 260 Q482 228 482 185 Q482 107 438.5 56.5 Q395 6 310 -8 L310 -100 L242 -100 L242 -12 Z M399 178 Q399 202 390.5 221 Q382 240 368 255 Q354 270 335 282 Q316 294 294 305 L294 62 Q340 69 369.5 97.5 Q399 126 399 178 Z M162 539 Q162 496 189.5 469 Q217 442 258 420 L258 639 Q205 633 183.5 604 Q162 575 162 539 Z " />
<glyph glyph-name="percent" unicode="&#x25;" horiz-adv-x="773" d="M70 542 Q70 587 82 619 Q94 651 114.5 672 Q135 693 163.5 702.5 Q192 712 225 712 Q258 712 286.5 703 Q315 694 335.5 674 Q356 654 368 621.5 Q380 589 380 542 Q380 495 368 462.5 Q356 430 335.5 410 Q315 390 286.5 381 Q258 372 225 372 Q192 372 163.5 381 Q135 390 114.5 410 Q94 430 82 462.5 Q70 495 70 542 Z M144 542 Q144 482 165.5 456 Q187 430 225 430 Q244 430 259 435.5 Q274 441 284.5 453.5 Q295 466 300.5 487.5 Q306 509 306 542 Q306 575 300.5 596.5 Q295 618 284.5 630.5 Q274 643 259 648.5 Q244 654 225 654 Q187 654 165.5 630.5 Q144 607 144 542 Z M427 171 Q427 216 439 248 Q451 280 471.5 301 Q492 322 520.5 331.5 Q549 341 582 341 Q615 341 643.5 332 Q672 323 692.5 303 Q713 283 725 250.5 Q737 218 737 171 Q737 124 725 91.5 Q713 59 692.5 39 Q672 19 643.5 10 Q615 1 582 1 Q549 1 520.5 10 Q492 19 471.5 39 Q451 59 439 91.5 Q427 124 427 171 Z M501 171 Q501 111 522.5 85 Q544 59 582 59 Q601 59 616 64.5 Q631 70 641.5 82.5 Q652 95 657.5 116.5 Q663 138 663 171 Q663 204 657.5 225.5 Q652 247 641.5 259.5 Q631 272 616 277.5 Q601 283 582 283 Q544 283 522.5 259.5 Q501 236 501 171 Z M637 713 L686 675 L173 -12 L123 27 L637 713 Z " />
<glyph glyph-name="ampersand" unicode="&#x26;" horiz-adv-x="814" d="M118 187 Q118 227 132 263.5 Q146 300 170 331 Q194 362 224.5 388 Q255 414 288 434 Q264 470 246.5 506 Q229 542 229 584 Q229 608 237 631 Q245 654 262.5 672 Q280 690 307.5 701 Q335 712 374 712 Q415 712 443 701.5 Q471 691 488 674 Q505 657 512.5 636 Q520 615 520 593 Q520 551 487.5 506.5 Q455 462 385 421 Q401 392 422.5 361.5 Q444 331 468 301 Q492 271 517 241.5 Q542 212 567 187 Q578 199 589 217.5 Q600 236 610.5 256.5 Q621 277 629.5 299 Q638 321 645 341 L707 312 Q701 295 690 271.5 Q679 248 665.5 223.5 Q652 199 638 176.5 Q624 154 612 139 Q633 119 650 104.5 Q667 90 681.5 79.5 Q696 69 709.5 60.5 Q723 52 737 44 L687 -12 Q634 14 566 81 Q548 63 526.5 46.5 Q505 30 478 17 Q451 4 418.5 -4 Q386 -12 347 -12 Q300 -12 258.5 1 Q217 14 186 39.5 Q155 65 136.5 102 Q118 139 118 187 Z M519 131 Q490 160 462 194 Q434 228 408.5 262 Q383 296 361.5 327.5 Q340 359 325 383 Q298 363 275 342 Q252 321 234.5 297.5 Q217 274 207.5 247 Q198 220 198 189 Q198 158 211 133.5 Q224 109 246.5 92.5 Q269 76 298 67 Q327 58 359 58 Q384 58 407.5 64.5 Q431 71 452 81 Q473 91 490.5 104 Q508 117 519 131 Z M307 584 Q307 554 319.5 524.5 Q332 495 352 466 Q405 500 425.5 528 Q446 556 446 577 Q446 609 430.5 629 Q415 649 377 649 Q341 649 324 631 Q307 613 307 584 Z " />
<glyph glyph-name="quotesingle" unicode="&#x27;" horiz-adv-x="218" d="M90 700 L168 700 L137 507 L90 507 L90 700 Z " />
<glyph glyph-name="parenleft" unicode="&#x28;" horiz-adv-x="280" d="M227 -220 Q181 -172 149 -114.5 Q117 -57 97.5 3.5 Q78 64 69 125.5 Q60 187 60 243 Q60 298 69 359 Q78 420 98 481.5 Q118 543 150.5 602 Q183 661 230 712 L278 677 Q238 626 211.5 571.5 Q185 517 169 461 Q153 405 146.5 349.5 Q140 294 140 243 Q140 195 147.5 138.5 Q155 82 171.5 25.5 Q188 -31 214.5 -85 Q241 -139 278 -183 L227 -220 Z " />
<glyph glyph-name="parenright" unicode="&#x29;" horiz-adv-x="280" d="M53 712 Q99 664 131 606.5 Q163 549 182.5 488.5 Q202 428 211 366.5 Q220 305 220 249 Q220 194 211 133 Q202 72 182 10.5 Q162 -51 129.5 -110 Q97 -169 50 -220 L2 -185 Q42 -134 69 -79 Q96 -24 111.5 32 Q127 88 133.5 143 Q140 198 140 249 Q140 297 132 353 Q124 409 107.5 466 Q91 523 65 577 Q39 631 2 675 L53 712 Z " />
<glyph glyph-name="asterisk" unicode="&#x2a;" horiz-adv-x="351" d="M130 715 L155 673 L173 617 L194 674 L218 714 L266 688 L240 645 L194 597 L262 609 L310 609 L310 553 L264 553 L200 565 L246 517 L269 478 L222 450 L196 492 L173 553 L154 495 L129 453 L79 481 L106 523 L148 565 L90 553 L40 553 L40 609 L90 609 L152 597 L107 641 L81 687 L130 715 Z " />
<glyph glyph-name="plus" unicode="&#x2b;" horiz-adv-x="505" d="M40 374 L216 374 L216 554 L288 554 L288 374 L464 374 L464 302 L288 302 L288 122 L216 122 L216 302 L40 302 L40 374 Z " />
<glyph glyph-name="comma" unicode="&#x2c;" horiz-adv-x="195" d="M49 43 Q49 67 65 82 Q81 97 106 97 Q137 97 156.5 75 Q176 53 176 11 Q176 -25 166 -52 Q156 -79 140 -98.5 Q124 -118 105 -130.5 Q86 -143 67 -149 L42 -110 Q78 -96 95.5 -66.5 Q113 -37 113 -7 Q104 -10 96 -10 Q76 -10 62.5 3.5 Q49 17 49 43 Z " />
<glyph glyph-name="hyphen" unicode="&#x2d;" horiz-adv-x="360" d="M59 325 L301 325 L301 251 L59 251 L59 325 Z " />
<glyph glyph-name="period" unicode="&#x2e;" horiz-adv-x="214" d="M49 46 Q49 73 64.5 88.5 Q80 104 106 104 Q133 104 149 88.5 Q165 73 165 46 Q165 20 149 4 Q133 -12 106 -12 Q80 -12 64.5 4 Q49 20 49 46 Z " />
<glyph glyph-name="slash" unicode="&#x2f;" horiz-adv-x="354" d="M328 712 L391 684 L26 -140 L-37 -112 L328 712 Z " />
<glyph glyph-name="zero" unicode="0" horiz-adv-x="545" d="M43 350 Q43 530 101.5 621 Q160 712 272 712 Q393 712 447.5 622.5 Q502 533 502 350 Q502 170 443.5 79 Q385 -12 272 -12 Q153 -12 98 83 Q43 178 43 350 Z M126 350 Q126 285 134.5 231.5 Q143 178 161 139.5 Q179 101 206.5 79.5 Q234 58 272 58 Q348 58 383.5 128.5 Q419 199 419 350 Q419 414 411.5 468 Q404 522 386.5 561 Q369 600 341 621 Q313 642 272 642 Q197 642 161.5 571 Q126 500 126 350 Z " />
<glyph glyph-name="one" unicode="1" horiz-adv-x="545" d="M108 74 L248 74 L248 558 L258 617 L218 570 L108 491 L70 542 L290 712 L326 712 L326 74 L463 74 L463 0 L108 0 L108 74 Z " />
<glyph glyph-name="two" unicode="2" horiz-adv-x="545" d="M446 541 Q446 488 426.5 432.5 Q407 377 375.5 321 Q344 265 305 211.5 Q266 158 227 110 L178 67 L178 63 L242 74 L460 74 L460 0 L62 0 L62 29 Q84 52 115 86 Q146 120 179.5 161.5 Q213 203 245.5 249.5 Q278 296 304.5 344 Q331 392 347 439 Q363 486 363 528 Q363 577 335 609.5 Q307 642 250 642 Q212 642 176 626.5 Q140 611 114 591 L81 648 Q116 678 164 695 Q212 712 267 712 Q310 712 343 699.5 Q376 687 399 664 Q422 641 434 609.5 Q446 578 446 541 Z " />
<glyph glyph-name="three" unicode="3" horiz-adv-x="545" d="M234 58 Q268 58 297 68 Q326 78 347 97.5 Q368 117 380 144 Q392 171 392 203 Q392 273 350.5 307 Q309 341 236 341 L162 341 L162 370 L306 592 L352 636 L287 626 L89 626 L89 700 L446 700 L446 671 L287 432 L252 403 L252 401 L286 408 Q326 407 360 393.5 Q394 380 419 354.5 Q444 329 458 293.5 Q472 258 472 213 Q472 159 453 117 Q434 75 401.5 46.5 Q369 18 325 3 Q281 -12 232 -12 Q187 -12 151 -5 Q115 2 88 13 L109 84 Q132 73 163.5 65.5 Q195 58 234 58 Z " />
<glyph glyph-name="four" unicode="4" horiz-adv-x="545" d="M524 215 L406 215 L406 0 L328 0 L328 215 L20 215 L20 248 L352 711 L406 711 L406 285 L524 285 L524 215 Z M328 503 L338 585 L335 585 L300 517 L159 326 L111 277 L181 285 L328 285 L328 503 Z " />
<glyph glyph-name="five" unicode="5" horiz-adv-x="545" d="M213 58 Q282 58 327 98 Q372 138 372 214 Q372 287 327.5 323 Q283 359 205 359 L121 354 L121 700 L433 700 L433 626 L196 626 L196 427 L239 429 Q338 428 395 374 Q452 320 452 219 Q452 163 433 119.5 Q414 76 381.5 47 Q349 18 305 3 Q261 -12 211 -12 Q166 -12 135 -7 Q104 -2 77 8 L98 76 Q121 67 147.5 62.5 Q174 58 213 58 Z " />
<glyph glyph-name="six" unicode="6" horiz-adv-x="545" d="M492 211 Q492 165 478 124.5 Q464 84 437 53.5 Q410 23 370 5.5 Q330 -12 279 -12 Q229 -12 189 4 Q149 20 120 51.5 Q91 83 75.5 129 Q60 175 60 235 Q60 334 85.5 417.5 Q111 501 156 563 Q201 625 262.5 663.5 Q324 702 396 712 L413 648 Q357 638 311 610 Q265 582 230.5 541 Q196 500 174 449 Q152 398 144 344 Q160 371 198 393.5 Q236 416 291 416 Q385 416 438.5 362 Q492 308 492 211 Z M409 203 Q409 274 376 310 Q343 346 274 346 Q225 346 189.5 322 Q154 298 140 268 Q138 254 138 245 Q138 236 138 225 Q138 194 146.5 164 Q155 134 173 110.5 Q191 87 217.5 72.5 Q244 58 280 58 Q309 58 332.5 69 Q356 80 373 99 Q390 118 399.5 145 Q409 172 409 203 Z " />
<glyph glyph-name="seven" unicode="7" horiz-adv-x="545" d="M110 0 L361 586 L405 635 L346 626 L61 626 L61 700 L479 700 L479 673 L191 0 L110 0 Z " />
<glyph glyph-name="eight" unicode="8" horiz-adv-x="545" d="M68 167 Q68 230 101 276.5 Q134 323 204 361 Q179 376 157.5 392.5 Q136 409 119.5 430 Q103 451 93.5 477 Q84 503 84 537 Q84 576 97.5 608 Q111 640 136.5 663 Q162 686 197.5 699 Q233 712 278 712 Q320 712 354 700 Q388 688 411.5 667 Q435 646 448 617 Q461 588 461 553 Q461 496 435 452.5 Q409 409 349 367 Q375 352 398.5 334 Q422 316 439.5 294 Q457 272 467 244.5 Q477 217 477 182 Q477 139 463 103.5 Q449 68 422 42.5 Q395 17 356 2.5 Q317 -12 267 -12 Q219 -12 182 2 Q145 16 119.5 40 Q94 64 81 96.5 Q68 129 68 167 Z M399 177 Q399 207 387 229.5 Q375 252 355.5 270.5 Q336 289 311 304 Q286 319 259 333 Q198 299 172 257 Q146 215 146 177 Q146 153 154 131 Q162 109 178 93 Q194 77 217.5 67.5 Q241 58 272 58 Q297 58 320 65.5 Q343 73 360.5 87.5 Q378 102 388.5 124.5 Q399 147 399 177 Z M162 539 Q162 511 173 489.5 Q184 468 202.5 451 Q221 434 245 419.5 Q269 405 295 392 Q340 427 361.5 461 Q383 495 383 536 Q383 587 351.5 614.5 Q320 642 276 642 Q249 642 228 633 Q207 624 192 610 Q177 596 169.5 577.5 Q162 559 162 539 Z " />
<glyph glyph-name="nine" unicode="9" horiz-adv-x="545" d="M52 488 Q52 536 66 577 Q80 618 107 648 Q134 678 174.5 695 Q215 712 269 712 Q371 712 428 646 Q485 580 485 460 Q485 347 459.5 262.5 Q434 178 389 120 Q344 62 282.5 29.5 Q221 -3 149 -12 L131 52 Q189 61 235.5 86 Q282 111 315.5 149 Q349 187 370 235.5 Q391 284 399 341 Q372 309 339.5 296.5 Q307 284 254 284 Q213 284 176.5 297.5 Q140 311 112 337 Q84 363 68 401 Q52 439 52 488 Z M135 496 Q135 425 172.5 389.5 Q210 354 271 354 Q320 354 355 370 Q390 386 405 412 Q407 425 407 435 Q407 445 407 456 Q407 492 398.5 525.5 Q390 559 373 585.5 Q356 612 328.5 627 Q301 642 264 642 Q203 642 169 603.5 Q135 565 135 496 Z " />
<glyph glyph-name="colon" unicode="&#x3a;" horiz-adv-x="219" d="M91 449 Q91 476 106.5 491.5 Q122 507 148 507 Q175 507 191 491.5 Q207 476 207 449 Q207 423 191 407 Q175 391 148 391 Q122 391 106.5 407 Q91 423 91 449 Z M91 46 Q91 73 106.5 88.5 Q122 104 148 104 Q175 104 191 88.5 Q207 73 207 46 Q207 20 191 4 Q175 -12 148 -12 Q122 -12 106.5 4 Q91 20 91 46 Z " />
<glyph glyph-name="semicolon" unicode="&#x3b;" horiz-adv-x="256" d="M89 43 Q89 67 105 82 Q121 97 146 97 Q177 97 196.5 75 Q216 53 216 11 Q216 -25 206 -52 Q196 -79 180 -98.5 Q164 -118 145 -130.5 Q126 -143 107 -149 L82 -110 Q118 -96 135.5 -66.5 Q153 -37 153 -7 Q144 -10 136 -10 Q116 -10 102.5 3.5 Q89 17 89 43 Z M96 449 Q96 476 111.5 491.5 Q127 507 153 507 Q180 507 196 491.5 Q212 476 212 449 Q212 423 196 407 Q180 391 153 391 Q127 391 111.5 407 Q96 423 96 449 Z " />
<glyph glyph-name="less" unicode="&#x3c;" horiz-adv-x="505" d="M42 305 L42 334 L420 565 L458 503 L221 358 L130 320 L220 288 L463 144 L425 84 L42 305 Z " />
<glyph glyph-name="equal" unicode="&#x3d;" horiz-adv-x="505" d="M40 457 L464 457 L464 385 L40 385 L40 457 Z M40 291 L464 291 L464 219 L40 219 L40 291 Z " />
<glyph glyph-name="greater" unicode="&#x3e;" horiz-adv-x="505" d="M463 344 L463 315 L85 84 L47 145 L284 290 L375 328 L285 360 L42 504 L80 565 L463 344 Z " />
<glyph glyph-name="question" unicode="&#x3f;" horiz-adv-x="436" d="M150 177 Q149 182 149 188 Q149 194 149 199 Q149 241 161.5 273 Q174 305 192.5 331.5 Q211 358 232.5 381 Q254 404 272.5 427.5 Q291 451 303.5 477.5 Q316 504 316 538 Q316 584 289.5 613 Q263 642 201 642 Q165 642 128 629.5 Q91 617 64 600 L37 662 Q75 685 117 698.5 Q159 712 221 712 Q265 712 298.5 699.5 Q332 687 354.5 665 Q377 643 388 613 Q399 583 399 549 Q399 504 385.5 470.5 Q372 437 351.5 409.5 Q331 382 307.5 358 Q284 334 263.5 307.5 Q243 281 229.5 250 Q216 219 216 177 L150 177 Z M130 46 Q130 73 145.5 88.5 Q161 104 187 104 Q214 104 230 88.5 Q246 73 246 46 Q246 20 230 4 Q214 -12 187 -12 Q161 -12 145.5 4 Q130 20 130 46 Z " />
<glyph glyph-name="at" unicode="&#x40;" horiz-adv-x="1064" d="M707 491 L741 491 L690 204 Q685 178 682.5 157.5 Q680 137 680 121 Q680 96 688.5 84.5 Q697 73 718 73 Q752 73 785.5 91 Q819 109 845 142 Q871 175 887.5 221.5 Q904 268 904 326 Q904 403 878 462 Q852 521 805 561.5 Q758 602 693 623 Q628 644 550 644 Q469 644 397.5 614 Q326 584 273.5 531 Q221 478 190.5 404 Q160 330 160 243 Q160 154 187.5 84 Q215 14 266 -34 Q317 -82 388 -107 Q459 -132 546 -132 Q575 -132 612 -125.5 Q649 -119 679 -104 L699 -168 Q654 -187 616 -193.5 Q578 -200 534 -200 Q441 -200 359.5 -172 Q278 -144 217.5 -89 Q157 -34 122 47.5 Q87 129 87 236 Q87 345 124.5 433 Q162 521 226 583 Q290 645 375 678.5 Q460 712 555 712 Q645 712 722 685.5 Q799 659 855.5 609.5 Q912 560 944.5 488.5 Q977 417 977 326 Q977 262 955 203.5 Q933 145 895.5 101 Q858 57 808 30.5 Q758 4 702 4 Q660 4 635 22 Q610 40 610 89 Q610 98 611 108.5 Q612 119 614 131 L610 131 Q596 108 577 85.5 Q558 63 534.5 45 Q511 27 484.5 15.5 Q458 4 429 4 Q405 4 383 14.5 Q361 25 345 45 Q329 65 319.5 92.5 Q310 120 310 155 Q310 219 331 281 Q352 343 387.5 391 Q423 439 470.5 468.5 Q518 498 571 498 Q608 498 630 487 Q652 476 673 460 L707 491 Z M650 393 Q633 413 616 420.5 Q599 428 573 428 Q534 428 500 404.5 Q466 381 441.5 343.5 Q417 306 402.5 259.5 Q388 213 388 168 Q388 129 404 101.5 Q420 74 462 74 Q482 74 503.5 87 Q525 100 546 122.5 Q567 145 586 173 Q605 201 620 230 L650 393 Z " />
<glyph glyph-name="A" unicode="A" horiz-adv-x="585" d="M418 194 L160 194 L90 0 L8 0 L273 711 L311 711 L577 0 L490 0 L418 194 Z M187 266 L393 266 L315 479 L290 585 L289 585 L264 477 L187 266 Z " />
<glyph glyph-name="B" unicode="B" horiz-adv-x="584" d="M507 540 Q507 515 499 489 Q491 463 475 440.5 Q459 418 434 401 Q409 384 375 375 L375 371 Q405 366 432.5 354 Q460 342 481 321 Q502 300 515 270 Q528 240 528 199 Q528 145 505.5 105.5 Q483 66 446.5 41 Q410 16 363 4 Q316 -8 267 -8 Q250 -8 227 -8 Q204 -8 179 -6.5 Q154 -5 129 -2.5 Q104 0 85 5 L85 694 Q122 700 171 704 Q220 708 278 708 Q317 708 357.5 701.5 Q398 695 431 676.5 Q464 658 485.5 625 Q507 592 507 540 Z M275 64 Q307 64 337 71.5 Q367 79 390 95.5 Q413 112 426.5 136 Q440 160 440 193 Q440 234 423.5 259 Q407 284 380.5 298 Q354 312 321 317 Q288 322 255 322 L168 322 L168 71 Q175 69 188 68 Q201 67 216 66 Q231 65 247 64.5 Q263 64 275 64 Z M220 392 Q237 392 261 393 Q285 394 301 396 Q325 404 346 415.5 Q367 427 383.5 442.5 Q400 458 409.5 478.5 Q419 499 419 523 Q419 556 406.5 577.5 Q394 599 373 612 Q352 625 325 630.5 Q298 636 270 636 Q237 636 209.5 634.5 Q182 633 168 630 L168 392 L220 392 Z " />
<glyph glyph-name="C" unicode="C" horiz-adv-x="571" d="M533 29 Q503 6 457 -3 Q411 -12 359 -12 Q296 -12 241 9.5 Q186 31 145 75 Q104 119 80 187.5 Q56 256 56 350 Q56 448 82.5 516.5 Q109 585 152.5 628.5 Q196 672 250 692 Q304 712 360 712 Q420 712 458 705.5 Q496 699 523 688 L503 615 Q455 638 366 638 Q325 638 285 623 Q245 608 213.5 574 Q182 540 163 485 Q144 430 144 350 Q144 278 162 224 Q180 170 211.5 134 Q243 98 285.5 80 Q328 62 378 62 Q423 62 456.5 71 Q490 80 513 94 L533 29 Z " />
<glyph glyph-name="D" unicode="D" horiz-adv-x="654" d="M85 700 Q104 703 127.5 704.5 Q151 706 176.5 706.5 Q202 707 226.5 707.5 Q251 708 272 708 Q356 708 417.5 682 Q479 656 519 609.5 Q559 563 578.5 498 Q598 433 598 355 Q598 284 579.5 218.5 Q561 153 521 102.5 Q481 52 417 21.5 Q353 -9 262 -9 Q246 -9 220.5 -8.5 Q195 -8 168 -6.5 Q141 -5 118 -4 Q95 -3 85 -1 L85 700 Z M274 634 Q261 634 245.5 634 Q230 634 215 633 Q200 632 187.5 631 Q175 630 168 629 L168 69 Q173 68 187 67.5 Q201 67 216 66.5 Q231 66 245 65.5 Q259 65 264 65 Q334 65 381.5 89 Q429 113 457.5 153.5 Q486 194 498 246.5 Q510 299 510 355 Q510 404 499 453.5 Q488 503 461 543 Q434 583 388.5 608.5 Q343 634 274 634 Z " />
<glyph glyph-name="E" unicode="E" horiz-adv-x="536" d="M85 700 L466 700 L466 626 L168 626 L168 397 L441 397 L441 323 L168 323 L168 74 L471 74 L471 0 L85 0 L85 700 Z " />
<glyph glyph-name="F" unicode="F" horiz-adv-x="517" d="M85 700 L466 700 L466 626 L168 626 L168 387 L446 387 L446 313 L168 313 L168 0 L85 0 L85 700 Z " />
<glyph glyph-name="G" unicode="G" horiz-adv-x="612" d="M321 349 L556 349 L556 41 Q540 29 517.5 19 Q495 9 469.5 2 Q444 -5 416.5 -8.5 Q389 -12 363 -12 Q296 -12 240 9.5 Q184 31 143 75.5 Q102 120 79 188.5 Q56 257 56 350 Q56 447 84 516 Q112 585 157 628.5 Q202 672 258 692 Q314 712 370 712 Q430 712 469 705.5 Q508 699 535 688 L514 615 Q466 638 377 638 Q335 638 293.5 623.5 Q252 609 219 575 Q186 541 165 486 Q144 431 144 350 Q144 276 161 222 Q178 168 208.5 132.5 Q239 97 282 79.5 Q325 62 376 62 Q440 62 485 87 L485 282 L321 302 L321 349 Z " />
<glyph glyph-name="H" unicode="H" horiz-adv-x="672" d="M504 321 L168 321 L168 0 L85 0 L85 700 L168 700 L168 395 L504 395 L504 700 L587 700 L587 0 L504 0 L504 321 Z " />
<glyph glyph-name="I" unicode="I" horiz-adv-x="291" d="M104 700 L187 700 L187 0 L104 0 L104 700 Z " />
<glyph glyph-name="J" unicode="J" horiz-adv-x="291" d="M112 700 L195 700 L195 154 Q195 74 159.5 32 Q124 -10 52 -10 Q44 -10 32 -9 Q20 -8 8 -6 Q-4 -4 -15.5 -1 Q-27 2 -34 6 L-18 77 Q10 64 43 64 Q85 64 98.5 93.5 Q112 123 112 174 L112 700 Z " />
<glyph glyph-name="K" unicode="K" horiz-adv-x="610" d="M215 324 L168 324 L168 0 L85 0 L85 700 L168 700 L168 374 L213 388 L448 700 L544 700 L310 399 L268 366 L319 326 L575 0 L470 0 L215 324 Z " />
<glyph glyph-name="L" unicode="L" horiz-adv-x="517" d="M499 0 L85 0 L85 700 L168 700 L168 74 L499 74 L499 0 Z " />
<glyph glyph-name="M" unicode="M" horiz-adv-x="791" d="M623 470 L633 575 L628 575 L590 479 L408 163 L383 163 L190 480 L154 575 L149 575 L163 471 L163 0 L85 0 L85 700 L147 700 L366 342 L399 264 L401 264 L432 344 L641 700 L706 700 L706 0 L623 0 L623 470 Z " />
<glyph glyph-name="N" unicode="N" horiz-adv-x="673" d="M211 458 L157 559 L153 559 L163 458 L163 0 L85 0 L85 711 L129 711 L464 244 L516 148 L521 148 L510 244 L510 700 L588 700 L588 -11 L544 -11 L211 458 Z " />
<glyph glyph-name="O" unicode="O" horiz-adv-x="684" d="M56 350 Q56 525 130 618.5 Q204 712 341 712 Q415 712 469 686 Q523 660 558.5 612.5 Q594 565 611 498.5 Q628 432 628 350 Q628 175 553.5 81.5 Q479 -12 341 -12 Q268 -12 214.5 14 Q161 40 125.5 87.5 Q90 135 73 201.5 Q56 268 56 350 Z M144 350 Q144 292 155.5 240 Q167 188 191 148.5 Q215 109 252.5 85.5 Q290 62 341 62 Q434 62 487 132.5 Q540 203 540 350 Q540 407 528.5 459.5 Q517 512 492.5 551.5 Q468 591 430.5 614.5 Q393 638 341 638 Q249 638 196.5 567.5 Q144 497 144 350 Z " />
<glyph glyph-name="P" unicode="P" horiz-adv-x="559" d="M85 693 Q123 702 167 705 Q211 708 254 708 Q300 708 347.5 699 Q395 690 434 666 Q473 642 497.5 600 Q522 558 522 493 Q522 429 499 385 Q476 341 438 313.5 Q400 286 351 274 Q302 262 250 262 Q245 262 233.5 262 Q222 262 209.5 262.5 Q197 263 185 264 Q173 265 168 266 L168 0 L85 0 L85 693 Z M256 636 Q230 636 206 635 Q182 634 168 630 L168 340 Q173 338 184 337.5 Q195 337 207 336.5 Q219 336 230 336 Q241 336 246 336 Q280 336 313.5 342.5 Q347 349 374 366 Q401 383 417.5 414 Q434 445 434 493 Q434 534 418.5 561.5 Q403 589 377.5 605.5 Q352 622 320 629 Q288 636 256 636 Z " />
<glyph glyph-name="Q" unicode="Q" horiz-adv-x="684" d="M704 -171 Q680 -178 657 -180.5 Q634 -183 611 -183 Q561 -183 513.5 -172.5 Q466 -162 421.5 -149.5 Q377 -137 336 -126.5 Q295 -116 258 -116 Q234 -116 212 -122 L212 -49 Q226 -46 239 -44 Q252 -42 266 -42 Q308 -42 349.5 -52.5 Q391 -63 434 -75.5 Q477 -88 522 -98.5 Q567 -109 617 -109 Q661 -109 704 -99 L704 -171 Z M56 350 Q56 525 130 618.5 Q204 712 341 712 Q415 712 469 686 Q523 660 558.5 612.5 Q594 565 611 498.5 Q628 432 628 350 Q628 175 553.5 81.5 Q479 -12 341 -12 Q268 -12 214.5 14 Q161 40 125.5 87.5 Q90 135 73 201.5 Q56 268 56 350 Z M144 350 Q144 292 155.5 240 Q167 188 191 148.5 Q215 109 252.5 85.5 Q290 62 341 62 Q434 62 487 132.5 Q540 203 540 350 Q540 407 528.5 459.5 Q517 512 492.5 551.5 Q468 591 430.5 614.5 Q393 638 341 638 Q249 638 196.5 567.5 Q144 497 144 350 Z " />
<glyph glyph-name="R" unicode="R" horiz-adv-x="595" d="M85 693 Q123 700 172.5 704 Q222 708 263 708 Q309 708 350.5 698 Q392 688 423.5 665 Q455 642 474 605 Q493 568 493 515 Q493 433 448 382 Q403 331 334 314 L382 277 L556 0 L459 0 L266 302 L168 317 L168 0 L85 0 L85 693 Z M265 636 Q252 636 238 636 Q224 636 211 635 Q198 634 186.5 633 Q175 632 168 630 L168 372 L246 372 Q315 372 360 406 Q405 440 405 512 Q405 566 368 601 Q331 636 265 636 Z " />
<glyph glyph-name="S" unicode="S" horiz-adv-x="531" d="M401 178 Q401 220 376 246.5 Q351 273 313.5 293.5 Q276 314 232 332 Q188 350 150.5 375.5 Q113 401 88 438.5 Q63 476 63 534 Q63 616 120 664 Q177 712 282 712 Q343 712 393 703 Q443 694 471 680 L446 607 Q423 618 378.5 628 Q334 638 278 638 Q212 638 179 608.5 Q146 579 146 539 Q146 500 171 474 Q196 448 233.5 427.5 Q271 407 315 387 Q359 367 396.5 340.5 Q434 314 459 277 Q484 240 484 185 Q484 140 468 104 Q452 68 421 42 Q390 16 346 2 Q302 -12 246 -12 Q171 -12 122 -0.5 Q73 11 46 25 L74 100 Q97 87 142 74.5 Q187 62 243 62 Q276 62 305 68.5 Q334 75 355 89.5 Q376 104 388.5 126 Q401 148 401 178 Z " />
<glyph glyph-name="T" unicode="T" horiz-adv-x="555" d="M537 626 L319 626 L319 0 L236 0 L236 626 L18 626 L18 700 L537 700 L537 626 Z " />
<glyph glyph-name="U" unicode="U" horiz-adv-x="652" d="M487 700 L567 700 L567 233 Q567 170 550.5 124 Q534 78 503.5 48.5 Q473 19 430 5 Q387 -9 335 -9 Q211 -9 148 47 Q85 103 85 217 L85 700 L168 700 L168 256 Q168 203 178.5 166.5 Q189 130 210 107.5 Q231 85 262.5 75 Q294 65 336 65 Q417 65 452 109.5 Q487 154 487 256 L487 700 Z " />
<glyph glyph-name="V" unicode="V" horiz-adv-x="568" d="M267 219 L291 113 L292 113 L318 221 L487 700 L570 700 L305 -11 L268 -11 L-2 700 L89 700 L267 219 Z " />
<glyph glyph-name="W" unicode="W" horiz-adv-x="828" d="M222 231 L238 115 L239 115 L256 233 L400 700 L440 700 L585 231 L602 115 L603 115 L621 233 L739 700 L820 700 L625 -11 L579 -11 L437 458 L419 564 L414 564 L396 457 L254 -11 L208 -11 L8 700 L96 700 L222 231 Z " />
<glyph glyph-name="X" unicode="X" horiz-adv-x="618" d="M259 356 L46 700 L146 700 L288 463 L313 406 L337 463 L487 700 L579 700 L359 363 L589 0 L492 0 L334 251 L307 311 L281 251 L119 0 L26 0 L259 356 Z " />
<glyph glyph-name="Y" unicode="Y" horiz-adv-x="558" d="M239 278 L8 700 L105 700 L269 394 L286 333 L287 333 L305 396 L462 700 L551 700 L322 279 L322 0 L239 0 L239 278 Z " />
<glyph glyph-name="Z" unicode="Z" horiz-adv-x="545" d="M38 75 L391 586 L433 626 L38 626 L38 700 L508 700 L508 625 L153 111 L111 74 L508 74 L508 0 L38 0 L38 75 Z " />
<glyph glyph-name="bracketleft" unicode="&#x5b;" horiz-adv-x="304" d="M85 700 L266 700 L266 630 L163 630 L163 -160 L266 -160 L266 -230 L85 -230 L85 700 Z " />
<glyph glyph-name="backslash" unicode="&#x5c;" horiz-adv-x="380" d="M399 -111 L333 -140 L-37 684 L30 712 L399 -111 Z " />
<glyph glyph-name="bracketright" unicode="&#x5d;" horiz-adv-x="304" d="M220 -230 L38 -230 L38 -160 L142 -160 L142 630 L38 630 L38 700 L220 700 L220 -230 Z " />
<glyph glyph-name="asciicircum" unicode="&#x5e;" horiz-adv-x="500" d="M234 711 L263 711 L432 435 L350 435 L270 570 L247 639 L216 569 L124 435 L48 435 L234 711 Z " />
<glyph glyph-name="underscore" unicode="&#x5f;" horiz-adv-x="408" d="M0 -135 L408 -135 L408 -205 L0 -205 L0 -135 Z " />
<glyph glyph-name="grave" unicode="&#x60;" horiz-adv-x="280" d="M220 571 L175 571 L60 699 L60 720 L155 720 L220 571 Z " />
<glyph glyph-name="a" unicode="a" horiz-adv-x="496" d="M69 463 Q107 486 157.5 497 Q208 508 263 508 Q315 508 346.5 494 Q378 480 394.5 457.5 Q411 435 416.5 408 Q422 381 422 354 Q422 294 419 237 Q416 180 416 129 Q416 92 419 59 Q422 26 430 -2 L371 -2 L350 68 L345 68 Q336 54 322.5 40.5 Q309 27 290 16.5 Q271 6 246 -1 Q221 -8 189 -8 Q157 -8 129.5 2 Q102 12 82 30.5 Q62 49 50.5 75 Q39 101 39 134 Q39 178 57 207.5 Q75 237 107.5 254.5 Q140 272 185.5 279.5 Q231 287 286 287 Q300 287 313.5 287 Q327 287 341 285 Q344 315 344 339 Q344 394 322 416 Q300 438 242 438 Q225 438 205.5 435.5 Q186 433 165.5 428.5 Q145 424 126.5 417.5 Q108 411 94 403 L69 463 Z M211 62 Q239 62 261 69.5 Q283 77 299 88.5 Q315 100 325.5 114 Q336 128 341 141 L341 224 Q327 225 312.5 225.5 Q298 226 284 226 Q253 226 223.5 222.5 Q194 219 171.5 209.5 Q149 200 135.5 183.5 Q122 167 122 142 Q122 107 147 84.5 Q172 62 211 62 Z " />
<glyph glyph-name="b" unicode="b" horiz-adv-x="540" d="M77 700 L157 700 L157 451 L161 451 Q184 480 219.5 496 Q255 512 297 512 Q394 512 442.5 450 Q491 388 491 258 Q491 127 427 59 Q363 -9 247 -9 Q191 -9 145.5 3 Q100 15 77 29 L77 700 Z M283 442 Q233 442 202 414 Q171 386 157 335 L157 83 Q176 72 203 66.5 Q230 61 259 61 Q327 61 367.5 109 Q408 157 408 259 Q408 298 401 332 Q394 366 379 390 Q364 414 340.5 428 Q317 442 283 442 Z " />
<glyph glyph-name="c" unicode="c" horiz-adv-x="451" d="M418 33 Q388 11 347 -0.5 Q306 -12 261 -12 Q203 -12 163 6.5 Q123 25 97.5 59.5 Q72 94 60.5 142.5 Q49 191 49 250 Q49 377 105 444.5 Q161 512 266 512 Q314 512 347.5 504.5 Q381 497 408 483 L385 414 Q362 427 334 434.5 Q306 442 274 442 Q132 442 132 250 Q132 212 139.5 177.5 Q147 143 164.5 116.5 Q182 90 210.5 74 Q239 58 281 58 Q317 58 345.5 69 Q374 80 392 94 L418 33 Z " />
<glyph glyph-name="d" unicode="d" horiz-adv-x="538" d="M461 172 Q461 121 462 79.5 Q463 38 471 -2 L417 -2 L397 69 L393 69 Q373 34 335 11 Q297 -12 246 -12 Q146 -12 97.5 51 Q49 114 49 248 Q49 376 109.5 442.5 Q170 509 276 509 Q313 509 334.5 505 Q356 501 381 492 L381 700 L461 700 L461 172 Z M259 58 Q310 58 340 84.5 Q370 111 381 165 L381 413 Q363 427 340 433 Q317 439 279 439 Q210 439 171 393.5 Q132 348 132 248 Q132 207 138.5 172 Q145 137 160 112 Q175 87 199.5 72.5 Q224 58 259 58 Z " />
<glyph glyph-name="e" unicode="e" horiz-adv-x="508" d="M442 40 Q412 16 366.5 2 Q321 -12 270 -12 Q213 -12 171 6.5 Q129 25 102 59.5 Q75 94 62 142 Q49 190 49 250 Q49 378 106 445 Q163 512 269 512 Q303 512 337 504.5 Q371 497 398 476 Q425 455 442 416.5 Q459 378 459 315 Q459 282 453 242 L132 242 Q132 198 141 164 Q150 130 169 106.5 Q188 83 218.5 70.5 Q249 58 293 58 Q327 58 361 70 Q395 82 412 98 L442 40 Z M270 442 Q211 442 175.5 411 Q140 380 133 305 L381 305 Q381 381 352 411.5 Q323 442 270 442 Z " />
<glyph glyph-name="f" unicode="f" horiz-adv-x="319" d="M22 500 L100 500 L100 528 Q100 574 107.5 608 Q115 642 132 663.5 Q149 685 176 695.5 Q203 706 243 706 Q275 706 299.5 702 Q324 698 351 687 L333 620 Q310 630 289.5 633 Q269 636 251 636 Q225 636 210.5 628 Q196 620 189.5 604.5 Q183 589 181.5 566.5 Q180 544 180 514 L180 500 L313 500 L313 430 L180 430 L180 0 L100 0 L100 430 L22 430 L22 500 Z " />
<glyph glyph-name="g" unicode="g" horiz-adv-x="537" d="M460 -23 Q460 -120 408.5 -166 Q357 -212 256 -212 Q196 -212 159.5 -204.5 Q123 -197 97 -185 L118 -117 Q141 -126 169 -134 Q197 -142 242 -142 Q284 -142 310.5 -134.5 Q337 -127 353 -109.5 Q369 -92 375 -64.5 Q381 -37 381 1 L381 49 L377 49 Q357 20 326 4.5 Q295 -11 245 -11 Q144 -11 96.5 52 Q49 115 49 248 Q49 376 110 442.5 Q171 509 290 509 Q347 509 387.5 500 Q428 491 460 479 L460 -23 Z M259 59 Q310 59 339 84.5 Q368 110 380 164 L380 420 Q340 439 278 439 Q210 439 171 393 Q132 347 132 249 Q132 207 139 172 Q146 137 161 112 Q176 87 200 73 Q224 59 259 59 Z " />
<glyph glyph-name="h" unicode="h" horiz-adv-x="547" d="M398 0 L398 285 Q398 324 393.5 353.5 Q389 383 377 402.5 Q365 422 344.5 432 Q324 442 291 442 Q244 442 206 411.5 Q168 381 157 333 L157 0 L77 0 L77 700 L157 700 L157 444 L161 444 Q187 475 223.5 493.5 Q260 512 314 512 Q356 512 387 502.5 Q418 493 438.5 469 Q459 445 468.5 404.5 Q478 364 478 302 L478 0 L398 0 Z " />
<glyph glyph-name="i" unicode="i" horiz-adv-x="268" d="M94 500 L174 500 L174 0 L94 0 L94 500 Z M77 652 Q77 675 92.5 691.5 Q108 708 132 708 Q156 708 173 691.5 Q190 675 190 652 Q190 629 173 614 Q156 599 132 599 Q108 599 92.5 614 Q77 629 77 652 Z " />
<glyph glyph-name="j" unicode="j" horiz-adv-x="267" d="M93 500 L173 500 L173 -27 Q173 -120 141 -166 Q109 -212 39 -212 Q31 -212 24 -211.5 Q17 -211 9 -210 L9 -142 Q37 -142 53.5 -133.5 Q70 -125 79 -107 Q88 -89 90.5 -61.5 Q93 -34 93 3 L93 500 Z M76 652 Q76 675 91.5 691.5 Q107 708 131 708 Q155 708 172 691.5 Q189 675 189 652 Q189 629 172 614 Q155 599 131 599 Q107 599 91.5 614 Q76 629 76 652 Z " />
<glyph glyph-name="k" unicode="k" horiz-adv-x="479" d="M203 225 L157 225 L157 0 L77 0 L77 700 L157 700 L157 274 L198 288 L353 500 L446 500 L293 299 L252 266 L302 226 L469 0 L370 0 L203 225 Z " />
<glyph glyph-name="l" unicode="l" horiz-adv-x="292" d="M166 123 Q166 88 178 73 Q190 58 212 58 Q225 58 240 60 Q255 62 274 69 L283 6 Q267 -2 238.5 -7 Q210 -12 189 -12 Q144 -12 115 13.5 Q86 39 86 100 L86 700 L166 700 L166 123 Z " />
<glyph glyph-name="m" unicode="m" horiz-adv-x="812" d="M370 0 L370 283 Q370 323 366.5 352.5 Q363 382 353 402 Q343 422 324.5 432 Q306 442 276 442 Q230 442 199.5 414 Q169 386 157 344 L157 0 L77 0 L77 500 L133 500 L148 439 L152 439 Q179 471 214.5 491.5 Q250 512 307 512 Q355 512 385.5 493.5 Q416 475 433 429 Q456 468 496.5 490 Q537 512 588 512 Q630 512 659 502.5 Q688 493 707 469 Q726 445 734.5 404 Q743 363 743 300 L743 0 L663 0 L663 301 Q663 337 659.5 363.5 Q656 390 645.5 407.5 Q635 425 616.5 433.5 Q598 442 568 442 Q518 442 490 414 Q462 386 450 334 L450 0 L370 0 Z " />
<glyph glyph-name="n" unicode="n" horiz-adv-x="547" d="M398 0 L398 285 Q398 363 375.5 402.5 Q353 442 293 442 Q240 442 205.5 413.5 Q171 385 157 342 L157 0 L77 0 L77 500 L133 500 L148 439 L152 439 Q176 471 216.5 491.5 Q257 512 313 512 Q354 512 385 502.5 Q416 493 436.5 469 Q457 445 467.5 404.5 Q478 364 478 302 L478 0 L398 0 Z " />
<glyph glyph-name="o" unicode="o" horiz-adv-x="536" d="M49 250 Q49 377 105.5 444.5 Q162 512 268 512 Q324 512 365.5 493.5 Q407 475 434 440.5 Q461 406 474 357.5 Q487 309 487 250 Q487 123 430.5 55.5 Q374 -12 268 -12 Q212 -12 170.5 6.5 Q129 25 102 59.5 Q75 94 62 142.5 Q49 191 49 250 Z M132 250 Q132 212 139.5 177 Q147 142 163 116 Q179 90 205 74 Q231 58 268 58 Q404 57 404 250 Q404 289 396.5 324 Q389 359 373 385 Q357 411 331 426.5 Q305 442 268 442 Q132 443 132 250 Z " />
<glyph glyph-name="p" unicode="p" horiz-adv-x="541" d="M77 500 L132 500 L147 440 L151 440 Q174 475 210.5 493.5 Q247 512 294 512 Q394 512 443 453 Q492 394 492 260 Q492 197 475.5 146.5 Q459 96 429 61 Q399 26 356.5 7 Q314 -12 262 -12 Q225 -12 203.5 -7.5 Q182 -3 157 8 L157 -200 L77 -200 L77 500 Z M279 442 Q228 442 198.5 415.5 Q169 389 157 335 L157 87 Q175 73 198 65.5 Q221 58 259 58 Q328 58 368.5 109.5 Q409 161 409 261 Q409 302 402 335.5 Q395 369 379.5 392.5 Q364 416 339.5 429 Q315 442 279 442 Z " />
<glyph glyph-name="q" unicode="q" horiz-adv-x="537" d="M460 -200 L380 -200 L380 50 L376 50 Q356 20 325.5 4 Q295 -12 245 -12 Q145 -12 97 51.5 Q49 115 49 248 Q49 377 111 443 Q173 509 292 509 Q345 509 391.5 499 Q438 489 460 478 L460 -200 Z M259 58 Q310 58 339 84 Q368 110 380 164 L380 420 Q343 439 278 439 Q209 439 170.5 392.5 Q132 346 132 249 Q132 207 139 171.5 Q146 136 161 111 Q176 86 200 72 Q224 58 259 58 Z " />
<glyph glyph-name="r" unicode="r" horiz-adv-x="340" d="M313 423 Q283 433 256 433 Q213 433 188 409.5 Q163 386 157 350 L157 0 L77 0 L77 500 L133 500 L148 439 L152 439 Q171 473 197.5 491.5 Q224 510 265 510 Q294 510 330 500 L313 423 Z " />
<glyph glyph-name="s" unicode="s" horiz-adv-x="421" d="M297 136 Q297 166 279 183 Q261 200 234.5 211.5 Q208 223 176.5 233.5 Q145 244 118.5 260.5 Q92 277 74 303 Q56 329 56 373 Q56 445 97 478.5 Q138 512 211 512 Q265 512 301.5 502.5 Q338 493 365 480 L346 414 Q323 425 290.5 433.5 Q258 442 221 442 Q177 442 156.5 427 Q136 412 136 375 Q136 349 154 334.5 Q172 320 198.5 308.5 Q225 297 256.5 286 Q288 275 314.5 257 Q341 239 359 211.5 Q377 184 377 139 Q377 107 366.5 79 Q356 51 334 31 Q312 11 279.5 -0.5 Q247 -12 203 -12 Q146 -12 106 -1 Q66 10 39 25 L63 93 Q86 80 123 69 Q160 58 198 58 Q241 58 269 75 Q297 92 297 136 Z " />
<glyph glyph-name="t" unicode="t" horiz-adv-x="339" d="M11 500 L89 500 L89 599 L169 622 L169 500 L305 500 L305 430 L169 430 L169 153 Q169 101 182 79.5 Q195 58 226 58 Q252 58 270 63.5 Q288 69 310 78 L328 17 Q301 4 269 -4 Q237 -12 200 -12 Q139 -12 114 22.5 Q89 57 89 138 L89 430 L11 430 L11 500 Z " />
<glyph glyph-name="u" unicode="u" horiz-adv-x="539" d="M149 500 L149 215 Q149 176 153.5 146.5 Q158 117 169 97.5 Q180 78 199 68 Q218 58 247 58 Q274 58 295 66.5 Q316 75 332.5 90 Q349 105 361.5 124.5 Q374 144 382 166 L382 500 L462 500 L462 142 Q462 106 464.5 67.5 Q467 29 473 0 L418 0 L398 79 L393 79 Q370 40 331 14 Q292 -12 232 -12 Q192 -12 161.5 -2.5 Q131 7 110.5 31 Q90 55 79.5 95.5 Q69 136 69 198 L69 500 L149 500 Z " />
<glyph glyph-name="v" unicode="v" horiz-adv-x="482" d="M221 207 L249 112 L250 112 L275 209 L387 500 L473 500 L260 -11 L226 -11 L9 500 L101 500 L221 207 Z " />
<glyph glyph-name="w" unicode="w" horiz-adv-x="735" d="M401 500 L516 208 L541 112 L543 112 L562 210 L651 500 L727 500 L559 -11 L520 -11 L389 319 L370 401 L367 401 L347 318 L221 -11 L182 -11 L8 500 L95 500 L194 209 L211 112 L212 112 L236 211 L343 500 L401 500 Z " />
<glyph glyph-name="x" unicode="x" horiz-adv-x="515" d="M208 256 L40 500 L138 500 L233 362 L261 305 L290 362 L387 500 L477 500 L308 260 L487 0 L392 0 L286 152 L256 212 L225 152 L117 0 L28 0 L208 256 Z " />
<glyph glyph-name="y" unicode="y" horiz-adv-x="466" d="M224 176 L252 80 L257 80 L279 177 L376 500 L457 500 L309 51 Q292 2 275.5 -44 Q259 -90 239 -126 Q219 -162 194 -183.5 Q169 -205 136 -205 Q100 -205 77 -195 L91 -126 Q104 -131 116 -131 Q144 -131 170 -101.5 Q196 -72 213 0 L12 500 L104 500 L224 176 Z " />
<glyph glyph-name="z" unicode="z" horiz-adv-x="447" d="M42 70 L273 388 L315 430 L42 430 L42 500 L398 500 L398 430 L165 109 L124 70 L398 70 L398 0 L42 0 L42 70 Z " />
<glyph glyph-name="braceleft" unicode="&#x7b;" horiz-adv-x="346" d="M137 112 Q137 163 116 181.5 Q95 200 57 200 L57 270 Q95 270 116 290 Q137 310 137 354 L137 596 Q137 643 160.5 672 Q184 701 232 701 L317 701 L317 631 L267 631 Q240 631 227.5 617.5 Q215 604 215 572 L215 335 Q215 291 194 268 Q173 245 145 240 L145 234 Q172 230 193.5 203.5 Q215 177 215 135 L215 -101 Q215 -132 227 -146 Q239 -160 268 -160 L317 -160 L317 -230 L232 -230 Q187 -230 162 -203.5 Q137 -177 137 -126 L137 112 Z " />
<glyph glyph-name="bar" unicode="&#x7c;" horiz-adv-x="238" d="M85 700 L153 700 L153 -130 L85 -130 L85 700 Z " />
<glyph glyph-name="braceright" unicode="&#x7d;" horiz-adv-x="346" d="M235 359 Q235 308 256 289.5 Q277 271 315 271 L315 201 Q277 201 256 181 Q235 161 235 117 L235 -125 Q235 -172 211.5 -201 Q188 -230 140 -230 L55 -230 L55 -160 L105 -160 Q132 -160 144.5 -146.5 Q157 -133 157 -101 L157 136 Q157 180 177.5 203 Q198 226 226 231 L226 237 Q199 241 178 267.5 Q157 294 157 336 L157 572 Q157 603 145 617 Q133 631 105 631 L55 631 L55 701 L141 701 Q185 701 210 674.5 Q235 648 235 597 L235 359 Z " />
<glyph glyph-name="asciitilde" unicode="&#x7e;" horiz-adv-x="505" d="M31 361 Q74 394 109 407 Q144 420 173 420 Q201 420 225 411.5 Q249 403 271 392.5 Q293 382 314 373.5 Q335 365 358 365 Q377 365 397 373 Q417 381 440 401 L474 340 Q436 314 405.5 303.5 Q375 293 350 293 Q323 293 300.5 301.5 Q278 310 257.5 320.5 Q237 331 216.5 339.5 Q196 348 172 348 Q149 348 123 337.5 Q97 327 65 301 L31 361 Z " />
<glyph glyph-name="uni00A0" unicode="&#xa0;" horiz-adv-x="267" d="" />
<glyph glyph-name="exclamdown" unicode="&#xa1;" horiz-adv-x="304" d="M176 -200 L93 -200 L93 147 L110 323 L159 323 L176 147 L176 -200 Z M74 453 Q74 480 89.5 495.5 Q105 511 131 511 Q158 511 174 495.5 Q190 480 190 453 Q190 427 174 411 Q158 395 131 395 Q105 395 89.5 411 Q74 427 74 453 Z " />
<glyph glyph-name="cent" unicode="&#xa2;" horiz-adv-x="545" d="M461 33 Q437 16 406.5 5.5 Q376 -5 341 -9 L341 -100 L270 -100 L270 -10 Q220 -5 185.5 15.5 Q151 36 129 69.5 Q107 103 97 149 Q87 195 87 250 Q87 365 134.5 431.5 Q182 498 270 509 L270 600 L341 600 L341 511 Q376 509 403 501.5 Q430 494 452 483 L429 415 Q409 425 384.5 432 Q360 439 334 441 L334 58 Q366 60 392 70.5 Q418 81 435 94 L461 33 Z M170 250 Q170 217 175.5 186.5 Q181 156 194 130.5 Q207 105 228 87 Q249 69 280 62 L280 439 Q170 418 170 250 Z " />
<glyph glyph-name="sterling" unicode="&#xa3;" horiz-adv-x="545" d="M42 383 L108 383 Q96 409 88 440 Q80 471 80 513 Q80 611 136 661.5 Q192 712 289 712 Q350 712 395 703 Q440 694 469 680 L443 609 Q420 620 381.5 629 Q343 638 288 638 Q228 638 195.5 605.5 Q163 573 163 518 Q163 476 173 444 Q183 412 197 383 L358 383 L358 313 L227 313 Q235 290 240 265 Q245 240 245 210 Q245 180 236 148.5 Q227 117 209 97 L170 64 L170 60 L232 74 L488 74 L488 0 L42 0 L42 72 Q74 72 96.5 83.5 Q119 95 133.5 113.5 Q148 132 155 155.5 Q162 179 162 203 Q162 236 155.5 262.5 Q149 289 139 313 L42 313 L42 383 Z " />
<glyph glyph-name="currency" unicode="&#xa4;" horiz-adv-x="545" d="M70 596 L148 519 L169 484 Q211 517 272 517 Q331 517 375 484 L397 519 L475 596 L524 547 L447 469 L412 447 Q444 404 444 345 Q444 285 412 242 L447 221 L524 143 L475 95 L397 172 L376 205 Q333 174 272 174 Q210 174 169 205 L148 172 L70 95 L21 143 L98 221 L132 243 Q101 285 101 345 Q101 374 109.5 400 Q118 426 132 448 L98 469 L21 547 L70 596 Z M170 345 Q170 300 198.5 270 Q227 240 272 240 Q317 240 346 270 Q375 300 375 345 Q375 390 346 420.5 Q317 451 272 451 Q227 451 198.5 420.5 Q170 390 170 345 Z " />
<glyph glyph-name="yen" unicode="&#xa5;" horiz-adv-x="545" d="M111 328 L205 328 L2 700 L99 700 L263 394 L280 333 L281 333 L299 396 L456 700 L545 700 L342 328 L436 328 L436 268 L315 268 L315 205 L436 205 L436 145 L315 145 L315 0 L232 0 L232 145 L111 145 L111 205 L232 205 L232 268 L111 268 L111 328 Z " />
<glyph glyph-name="brokenbar" unicode="&#xa6;" horiz-adv-x="238" d="M85 206 L153 206 L153 -130 L85 -130 L85 206 Z M153 364 L85 364 L85 700 L153 700 L153 364 Z " />
<glyph glyph-name="section" unicode="&#xa7;" horiz-adv-x="497" d="M57 353 Q57 384 72.5 413.5 Q88 443 114 466 L155 480 Q129 496 111.5 520.5 Q94 545 94 586 Q94 642 135.5 677 Q177 712 251 712 Q305 712 342.5 703 Q380 694 407 681 L388 614 Q364 625 331 633.5 Q298 642 262 642 Q217 642 195.5 626 Q174 610 174 583 Q174 557 193.5 542.5 Q213 528 243 517 Q273 506 307 495 Q341 484 371 466.5 Q401 449 420.5 420.5 Q440 392 440 347 Q440 316 425 287 Q410 258 384 235 L339 221 Q366 205 384.5 180 Q403 155 403 114 Q403 83 391 59.5 Q379 36 357.5 20 Q336 4 307 -4 Q278 -12 245 -12 Q189 -12 153 -2.5 Q117 7 89 21 L109 86 Q132 75 164.5 66.5 Q197 58 235 58 Q277 58 300 71.5 Q323 85 323 117 Q323 143 303.5 158 Q284 173 254 184 Q224 195 190 206 Q156 217 126 234.5 Q96 252 76.5 280 Q57 308 57 353 Z M360 345 Q360 370 347 386 Q334 402 312.5 413.5 Q291 425 264 433.5 Q237 442 210 452 Q181 439 159 415 Q137 391 137 355 Q137 330 150 314 Q163 298 183.5 286.5 Q204 275 230.5 267 Q257 259 284 249 Q298 255 311.5 265 Q325 275 336 287.5 Q347 300 353.5 314.5 Q360 329 360 345 Z " />
<glyph glyph-name="dieresis" unicode="&#xa8;" horiz-adv-x="411" d="M60 653 Q60 676 73.5 690 Q87 704 109 704 Q131 704 144.5 690 Q158 676 158 653 Q158 632 144.5 618 Q131 604 109 604 Q87 604 73.5 618 Q60 632 60 653 Z M252 653 Q252 676 265.5 690 Q279 704 301 704 Q324 704 337.5 690 Q351 676 351 653 Q351 632 337.5 618 Q324 604 301 604 Q279 604 265.5 618 Q252 632 252 653 Z " />
<glyph glyph-name="copyright" unicode="&#xa9;" horiz-adv-x="806" d="M51 290 Q51 373 79 438.5 Q107 504 155 549 Q203 594 267 618 Q331 642 403 642 Q475 642 539 618 Q603 594 651 549 Q699 504 727 438.5 Q755 373 755 290 Q755 207 727 141.5 Q699 76 651 31 Q603 -14 539 -38 Q475 -62 403 -62 Q323 -62 258 -38 Q193 -14 147 31 Q101 76 76 141.5 Q51 207 51 290 Z M121 290 Q121 221 143 167.5 Q165 114 203 78 Q241 42 292.5 23 Q344 4 403 4 Q462 4 513.5 23 Q565 42 603 78 Q641 114 663 167.5 Q685 221 685 290 Q685 359 663 412.5 Q641 466 603 502 Q565 538 513.5 557 Q462 576 403 576 Q344 576 292.5 557 Q241 538 203 502 Q165 466 143 412.5 Q121 359 121 290 Z M519 127 Q496 114 467.5 107 Q439 100 401 100 Q320 100 277.5 151 Q235 202 235 290 Q235 381 280.5 430.5 Q326 480 401 480 Q419 480 433.5 478 Q448 476 460.5 472.5 Q473 469 485 464 Q497 459 512 453 L486 392 Q464 403 444 407 Q424 411 410 411 Q368 411 341.5 385 Q315 359 315 290 Q315 232 341 200.5 Q367 169 418 168 Q465 168 498 186 L519 127 Z " />
<glyph glyph-name="ordfeminine" unicode="&#xaa;" horiz-adv-x="386" d="M68 677 Q93 690 134 699 Q175 708 225 708 Q287 708 310 682 Q333 656 333 607 Q333 569 331.5 534 Q330 499 330 467 Q330 443 331.5 421 Q333 399 338 380 L283 380 L270 426 L266 426 Q253 409 229 392.5 Q205 376 162 376 Q110 376 79 401.5 Q48 427 48 471 Q48 502 63 523 Q78 544 103.5 557 Q129 570 163.5 576 Q198 582 238 582 Q245 582 251.5 581.5 Q258 581 265 581 Q266 587 266 592.5 Q266 598 266 603 Q266 630 254 641 Q242 652 208 652 Q168 652 135 644.5 Q102 637 83 627 L68 677 Z M173 432 Q194 432 209.5 437 Q225 442 236 450.5 Q247 459 254 468.5 Q261 478 265 487 L265 529 Q254 530 244 530 Q234 530 223 530 Q202 530 183 528 Q164 526 149.5 520 Q135 514 126.5 503.5 Q118 493 118 476 Q118 456 132.5 444 Q147 432 173 432 Z " />
<glyph glyph-name="guillemotleft" unicode="&#xab;" horiz-adv-x="478" d="M222 259 L380 487 L433 445 L336 301 L288 260 L336 224 L439 83 L387 40 L222 259 Z M39 259 L199 489 L253 446 L155 301 L107 260 L155 224 L259 82 L205 38 L39 259 Z " />
<glyph glyph-name="logicalnot" unicode="&#xac;" horiz-adv-x="505" d="M41 392 L465 392 L465 200 L393 200 L393 320 L41 320 L41 392 Z " />
<glyph glyph-name="uni00AD" unicode="&#xad;" horiz-adv-x="360" d="M59 325 L301 325 L301 251 L59 251 L59 325 Z " />
<glyph glyph-name="registered" unicode="&#xae;" horiz-adv-x="700" d="M85 451 Q85 515 106 564.5 Q127 614 163.5 647.5 Q200 681 248 698.5 Q296 716 350 716 Q405 716 453.5 698.5 Q502 681 538 647.5 Q574 614 594.5 564.5 Q615 515 615 451 Q615 387 594 337.5 Q573 288 536.5 254.5 Q500 221 452 203.5 Q404 186 350 186 Q294 186 246 203.5 Q198 221 162 254.5 Q126 288 105.5 337.5 Q85 387 85 451 Z M148 451 Q148 399 164 360.5 Q180 322 207.5 296.5 Q235 271 272 258 Q309 245 350 245 Q393 245 430 257.5 Q467 270 494 295.5 Q521 321 536.5 359.5 Q552 398 552 451 Q552 503 536 541.5 Q520 580 492.5 605.5 Q465 631 428.5 644 Q392 657 350 657 Q306 657 269 644 Q232 631 205 605.5 Q178 580 163 541.5 Q148 503 148 451 Z M247 581 Q263 586 292 588.5 Q321 591 347 591 Q389 591 419 573.5 Q449 556 449 513 Q449 481 428.5 464 Q408 447 378 445 L406 431 L480 322 L419 322 L347 426 L299 441 L299 322 L247 322 L247 581 Z M336 546 Q325 546 315 545.5 Q305 545 299 542 L299 471 L333 471 Q362 471 378 480 Q394 489 394 511 Q394 546 336 546 Z " />
<glyph glyph-name="overscore" unicode="&#xaf;" horiz-adv-x="416" d="M60 643 L356 643 L356 581 L60 581 L60 643 Z " />
<glyph glyph-name="degree" unicode="&#xb0;" horiz-adv-x="425" d="M85 571 Q85 602 96 628 Q107 654 126 672.5 Q145 691 171 701.5 Q197 712 226 712 Q255 712 281 702.5 Q307 693 326 674.5 Q345 656 356 630 Q367 604 367 571 Q367 538 356 512 Q345 486 326 467.5 Q307 449 281 439.5 Q255 430 226 430 Q197 430 171 439.5 Q145 449 126 467.5 Q107 486 96 512 Q85 538 85 571 Z M148 571 Q148 533 171.5 511.5 Q195 490 226 490 Q257 490 280.5 511.5 Q304 533 304 571 Q304 609 280.5 630.5 Q257 652 226 652 Q195 652 171.5 630.5 Q148 609 148 571 Z " />
<glyph glyph-name="plusminus" unicode="&#xb1;" horiz-adv-x="505" d="M40 494 L216 494 L216 674 L288 674 L288 494 L464 494 L464 422 L288 422 L288 301 L216 301 L216 422 L40 422 L40 494 Z M40 250 L464 250 L464 178 L40 178 L40 250 Z " />
<glyph glyph-name="twosuperior" unicode="&#xb2;" horiz-adv-x="394" d="M319 690 Q319 659 308.5 630 Q298 601 280.5 573 Q263 545 239 517.5 Q215 490 188 462 L142 430 L142 428 L199 443 L339 443 L339 380 L48 380 L48 413 Q71 432 105.5 464 Q140 496 172 533 Q204 570 226.5 609 Q249 648 249 681 Q249 712 229 727.5 Q209 743 180 743 Q153 743 127.5 733.5 Q102 724 83 712 L61 769 Q87 787 121.5 797 Q156 807 192 807 Q255 807 287 776 Q319 745 319 690 Z " />
<glyph glyph-name="threesuperior" unicode="&#xb3;" horiz-adv-x="395" d="M169 433 Q217 433 242.5 452 Q268 471 268 508 Q268 540 245 560 Q222 580 171 580 L116 580 L116 603 L213 719 L247 746 L198 740 L68 740 L68 800 L324 800 L324 767 L221 644 L196 626 L196 624 L219 627 Q274 626 306 594 Q338 562 338 508 Q338 447 293.5 410 Q249 373 175 373 Q139 373 113 379 Q87 385 67 392 L82 452 Q99 444 121 438.5 Q143 433 169 433 Z " />
<glyph glyph-name="acute" unicode="&#xb4;" horiz-adv-x="268" d="M119 720 L208 720 L208 699 L107 571 L60 571 L119 720 Z " />
<glyph glyph-name="&amp;#xb5;" unicode="&#xb5;" horiz-adv-x="552" d="M148 500 L148 217 Q148 138 172.5 98 Q197 58 258 58 Q313 58 351 90.5 Q389 123 404 176 L404 500 L484 500 L484 163 Q484 122 486.5 80.5 Q489 39 499 0 L444 0 L416 74 L412 74 Q392 39 350.5 13.5 Q309 -12 249 -12 Q201 -12 175.5 2 Q150 16 132 38 L127 38 L148 -67 L148 -200 L68 -200 L68 500 L148 500 Z " />
<glyph glyph-name="&amp;#x3bc;" unicode="&#x3bc;" horiz-adv-x="552" d="M148 500 L148 217 Q148 138 172.5 98 Q197 58 258 58 Q313 58 351 90.5 Q389 123 404 176 L404 500 L484 500 L484 163 Q484 122 486.5 80.5 Q489 39 499 0 L444 0 L416 74 L412 74 Q392 39 350.5 13.5 Q309 -12 249 -12 Q201 -12 175.5 2 Q150 16 132 38 L127 38 L148 -67 L148 -200 L68 -200 L68 500 L148 500 Z " />
<glyph glyph-name="paragraph" unicode="&#xb6;" horiz-adv-x="494" d="M341 700 L409 700 L409 -130 L341 -130 L341 700 Z M185 310 Q153 310 126 326.5 Q99 343 79.5 370.5 Q60 398 48.5 433.5 Q37 469 37 506 Q37 543 48.5 578 Q60 613 82 640 Q104 667 136 683.5 Q168 700 208 700 L253 700 L253 -130 L185 -130 L185 310 Z " />
<glyph glyph-name="middot" unicode="&#xb7;" horiz-adv-x="267" d="M76 296 Q76 323 91.5 338.5 Q107 354 133 354 Q160 354 176 338.5 Q192 323 192 296 Q192 270 176 254 Q160 238 133 238 Q107 238 91.5 254 Q76 270 76 296 Z " />
<glyph glyph-name="cedilla" unicode="&#xb8;" horiz-adv-x="287" d="M148 -43 Q190 -51 208.5 -69 Q227 -87 227 -118 Q227 -159 194 -183.5 Q161 -208 105 -208 Q94 -208 83 -207 Q72 -206 60 -204 L67 -155 Q73 -156 78 -156.5 Q83 -157 101 -158 Q113 -158 124.5 -156.5 Q136 -155 142.5 -150 Q149 -145 151 -139 Q153 -133 153 -127 Q154 -98 67 -90 L115 0 L172 0 L148 -43 Z " />
<glyph glyph-name="onesuperior" unicode="&#xb9;" horiz-adv-x="394" d="M72 441 L178 441 L178 695 L185 731 L158 703 L80 656 L53 705 L207 807 L248 807 L248 441 L343 441 L343 380 L72 380 L72 441 Z " />
<glyph glyph-name="ordmasculine" unicode="&#xba;" horiz-adv-x="398" d="M44 542 Q44 587 56 619 Q68 651 88.5 672 Q109 693 137.5 702.5 Q166 712 199 712 Q232 712 260.5 703 Q289 694 309.5 674 Q330 654 342 621.5 Q354 589 354 542 Q354 495 342 462.5 Q330 430 309.5 410 Q289 390 260.5 381 Q232 372 199 372 Q166 372 137.5 381 Q109 390 88.5 410 Q68 430 56 462.5 Q44 495 44 542 Z M118 542 Q118 482 139.5 456 Q161 430 199 430 Q218 430 233 435.5 Q248 441 258.5 453.5 Q269 466 274.5 487.5 Q280 509 280 542 Q280 575 274.5 596.5 Q269 618 258.5 630.5 Q248 643 233 648.5 Q218 654 199 654 Q161 654 139.5 630.5 Q118 607 118 542 Z " />
<glyph glyph-name="guillemotright" unicode="&#xbb;" horiz-adv-x="478" d="M257 268 L97 40 L45 82 L141 226 L190 267 L141 303 L39 444 L91 487 L257 268 Z M439 268 L279 38 L225 81 L323 226 L371 267 L323 303 L219 445 L272 489 L439 268 Z " />
<glyph glyph-name="onequarter" unicode="&#xbc;" horiz-adv-x="837" d="M648 713 L700 678 L213 -12 L161 24 L648 713 Z M797 96 L714 96 L714 0 L647 0 L647 96 L443 96 L443 133 L669 435 L714 435 L714 155 L797 155 L797 96 Z M647 283 L653 332 L651 332 L629 286 L551 181 L518 150 L568 155 L647 155 L647 283 Z M179 595 L186 631 L158 603 L80 556 L53 605 L207 707 L249 707 L249 280 L179 280 L179 595 Z " />
<glyph glyph-name="onehalf" unicode="&#xbd;" horiz-adv-x="850" d="M648 713 L700 678 L213 -12 L161 24 L648 713 Z M790 310 Q790 279 779.5 250 Q769 221 751.5 193 Q734 165 710 137.5 Q686 110 659 82 L613 50 L613 48 L670 63 L810 63 L810 0 L519 0 L519 33 Q542 52 576.5 84 Q611 116 643 153 Q675 190 697.5 229 Q720 268 720 301 Q720 332 700 347.5 Q680 363 651 363 Q624 363 598.5 353.5 Q573 344 554 332 L532 389 Q558 407 592.5 417 Q627 427 663 427 Q726 427 758 396 Q790 365 790 310 Z M179 595 L186 631 L158 603 L80 556 L53 605 L207 707 L249 707 L249 280 L179 280 L179 595 Z " />
<glyph glyph-name="threequarters" unicode="&#xbe;" horiz-adv-x="876" d="M687 713 L739 678 L252 -12 L200 24 L687 713 Z M836 96 L753 96 L753 0 L686 0 L686 96 L482 96 L482 133 L708 435 L753 435 L753 155 L836 155 L836 96 Z M686 283 L692 332 L690 332 L668 286 L590 181 L557 150 L607 155 L686 155 L686 283 Z M178 333 Q226 333 251.5 352 Q277 371 277 408 Q277 440 254 460 Q231 480 180 480 L125 480 L125 503 L222 619 L256 646 L207 640 L77 640 L77 700 L333 700 L333 667 L230 544 L205 526 L205 524 L228 527 Q283 526 315 494 Q347 462 347 408 Q347 347 302.5 310 Q258 273 184 273 Q148 273 122 279 Q96 285 76 292 L91 352 Q108 344 130 338.5 Q152 333 178 333 Z " />
<glyph glyph-name="questiondown" unicode="&#xbf;" horiz-adv-x="436" d="M286 323 Q287 318 287 312 Q287 306 287 301 Q287 259 274.5 227 Q262 195 243.5 168.5 Q225 142 203.5 119 Q182 96 163.5 72.5 Q145 49 132.5 22.5 Q120 -4 120 -38 Q120 -84 146.5 -113 Q173 -142 235 -142 Q271 -142 308 -129.5 Q345 -117 372 -100 L399 -162 Q361 -185 319 -198.5 Q277 -212 215 -212 Q171 -212 137.5 -199.5 Q104 -187 81.5 -165 Q59 -143 48 -113.5 Q37 -84 37 -49 Q37 -4 50.5 29.5 Q64 63 84.5 90.5 Q105 118 128.5 142 Q152 166 172.5 192.5 Q193 219 206.5 250 Q220 281 220 323 L286 323 Z M191 454 Q191 481 206.5 496.5 Q222 512 248 512 Q275 512 291 496.5 Q307 481 307 454 Q307 428 291 412 Q275 396 248 396 Q222 396 206.5 412 Q191 428 191 454 Z " />
<glyph glyph-name="Agrave" unicode="&#xc0;" horiz-adv-x="585" d="M418 194 L160 194 L90 0 L8 0 L273 711 L311 711 L577 0 L490 0 L418 194 Z M187 266 L393 266 L315 479 L290 585 L289 585 L264 477 L187 266 Z M367 752 L293 752 L135 849 L135 870 L249 870 L367 752 Z " />
<glyph glyph-name="Aacute" unicode="&#xc1;" horiz-adv-x="585" d="M418 194 L160 194 L90 0 L8 0 L273 711 L311 711 L577 0 L490 0 L418 194 Z M187 266 L393 266 L315 479 L290 585 L289 585 L264 477 L187 266 Z M331 870 L445 870 L445 849 L282 752 L213 752 L331 870 Z " />
<glyph glyph-name="Acircumflex" unicode="&#xc2;" horiz-adv-x="585" d="M418 194 L160 194 L90 0 L8 0 L273 711 L311 711 L577 0 L490 0 L418 194 Z M187 266 L393 266 L315 479 L290 585 L289 585 L264 477 L187 266 Z M265 870 L325 870 L452 768 L452 747 L371 747 L311 796 L294 831 L275 797 L211 747 L132 747 L132 769 L265 870 Z " />
<glyph glyph-name="Atilde" unicode="&#xc3;" horiz-adv-x="585" d="M418 194 L160 194 L90 0 L8 0 L273 711 L311 711 L577 0 L490 0 L418 194 Z M187 266 L393 266 L315 479 L290 585 L289 585 L264 477 L187 266 Z M135 785 Q166 817 192.5 828.5 Q219 840 243 840 Q262 840 280 835 Q298 830 314.5 823.5 Q331 817 347 812 Q363 807 378 807 Q404 807 428 828 L453 785 Q426 760 402 750.5 Q378 741 357 741 Q338 741 321 746 Q304 751 287.5 757.5 Q271 764 255 769 Q239 774 223 774 Q207 774 191.5 767.5 Q176 761 159 744 L135 785 Z " />
<glyph glyph-name="Adieresis" unicode="&#xc4;" horiz-adv-x="585" d="M418 194 L160 194 L90 0 L8 0 L273 711 L311 711 L577 0 L490 0 L418 194 Z M187 266 L393 266 L315 479 L290 585 L289 585 L264 477 L187 266 Z M144 794 Q144 815 159 828 Q174 841 198 841 Q221 841 235.5 828 Q250 815 250 794 Q250 774 235.5 761 Q221 748 198 748 Q174 748 159 761 Q144 774 144 794 Z M336 794 Q336 815 350.5 828 Q365 841 388 841 Q412 841 427 828 Q442 815 442 794 Q442 774 427 761 Q412 748 388 748 Q365 748 350.5 761 Q336 774 336 794 Z " />
<glyph glyph-name="Aring" unicode="&#xc5;" horiz-adv-x="585" d="M188 768 Q188 805 213 829 Q238 853 293 853 Q343 853 371 831.5 Q399 810 399 768 Q399 736 379 714.5 Q359 693 320 687 L577 0 L490 0 L418 194 L160 194 L90 0 L8 0 L264 687 Q226 693 207 714.5 Q188 736 188 768 Z M187 266 L393 266 L315 479 L290 585 L289 585 L264 477 L187 266 Z M249 768 Q249 751 259.5 739.5 Q270 728 293 728 Q315 728 326.5 739 Q338 750 338 768 Q338 787 327 798.5 Q316 810 293 810 Q271 810 260 798.5 Q249 787 249 768 Z " />
<glyph glyph-name="AE" unicode="&#xc6;" horiz-adv-x="846" d="M391 600 L357 497 L224 268 L395 268 L395 600 L391 600 Z M395 198 L181 198 L69 0 L-22 0 L393 700 L776 700 L776 626 L478 626 L478 397 L751 397 L751 323 L478 323 L478 74 L781 74 L781 0 L395 0 L395 198 Z " />
<glyph glyph-name="Ccedilla" unicode="&#xc7;" horiz-adv-x="571" d="M533 29 Q507 9 469 0 Q431 -9 386 -11 L369 -43 Q411 -51 429.5 -69 Q448 -87 448 -118 Q448 -157 416 -182.5 Q384 -208 326 -208 Q315 -208 304 -207 Q293 -206 281 -204 L290 -165 Q296 -166 301 -166 Q306 -166 311 -166 Q333 -166 345.5 -162 Q358 -158 364.5 -152.5 Q371 -147 372.5 -140 Q374 -133 374 -127 Q374 -99 288 -90 L330 -10 Q272 -6 222 17.5 Q172 41 135 85 Q98 129 77 195 Q56 261 56 350 Q56 448 82.5 516.5 Q109 585 152.5 628.5 Q196 672 250 692 Q304 712 360 712 Q420 712 458 705.5 Q496 699 523 688 L503 615 Q455 638 366 638 Q325 638 285 623 Q245 608 213.5 574 Q182 540 163 485 Q144 430 144 350 Q144 278 162 224 Q180 170 211.5 134 Q243 98 285.5 80 Q328 62 378 62 Q423 62 456.5 71 Q490 80 513 94 L533 29 Z " />
<glyph glyph-name="Egrave" unicode="&#xc8;" horiz-adv-x="536" d="M85 700 L466 700 L466 626 L168 626 L168 397 L441 397 L441 323 L168 323 L168 74 L471 74 L471 0 L85 0 L85 700 Z M326 752 L252 752 L94 849 L94 870 L208 870 L326 752 Z " />
<glyph glyph-name="Eacute" unicode="&#xc9;" horiz-adv-x="536" d="M85 700 L466 700 L466 626 L168 626 L168 397 L441 397 L441 323 L168 323 L168 74 L471 74 L471 0 L85 0 L85 700 Z M330 870 L444 870 L444 849 L281 752 L212 752 L330 870 Z " />
<glyph glyph-name="Ecircumflex" unicode="&#xca;" horiz-adv-x="536" d="M85 700 L466 700 L466 626 L168 626 L168 397 L441 397 L441 323 L168 323 L168 74 L471 74 L471 0 L85 0 L85 700 Z M242 870 L302 870 L429 768 L429 747 L348 747 L288 796 L271 831 L252 797 L188 747 L109 747 L109 769 L242 870 Z " />
<glyph glyph-name="Edieresis" unicode="&#xcb;" horiz-adv-x="536" d="M85 700 L466 700 L466 626 L168 626 L168 397 L441 397 L441 323 L168 323 L168 74 L471 74 L471 0 L85 0 L85 700 Z M120 794 Q120 815 135 828 Q150 841 174 841 Q197 841 211.5 828 Q226 815 226 794 Q226 774 211.5 761 Q197 748 174 748 Q150 748 135 761 Q120 774 120 794 Z M312 794 Q312 815 326.5 828 Q341 841 364 841 Q388 841 403 828 Q418 815 418 794 Q418 774 403 761 Q388 748 364 748 Q341 748 326.5 761 Q312 774 312 794 Z " />
<glyph glyph-name="Igrave" unicode="&#xcc;" horiz-adv-x="291" d="M104 700 L187 700 L187 0 L104 0 L104 700 Z M195 752 L121 752 L-37 849 L-37 870 L77 870 L195 752 Z " />
<glyph glyph-name="Iacute" unicode="&#xcd;" horiz-adv-x="291" d="M104 700 L187 700 L187 0 L104 0 L104 700 Z M180 870 L294 870 L294 849 L131 752 L62 752 L180 870 Z " />
<glyph glyph-name="Icircumflex" unicode="&#xce;" horiz-adv-x="291" d="M104 700 L187 700 L187 0 L104 0 L104 700 Z M118 870 L178 870 L305 768 L305 747 L224 747 L164 796 L147 831 L128 797 L64 747 L-15 747 L-15 769 L118 870 Z " />
<glyph glyph-name="Idieresis" unicode="&#xcf;" horiz-adv-x="291" d="M104 700 L187 700 L187 0 L104 0 L104 700 Z M-2 794 Q-2 815 13 828 Q28 841 52 841 Q75 841 89.5 828 Q104 815 104 794 Q104 774 89.5 761 Q75 748 52 748 Q28 748 13 761 Q-2 774 -2 794 Z M190 794 Q190 815 204.5 828 Q219 841 242 841 Q266 841 281 828 Q296 815 296 794 Q296 774 281 761 Q266 748 242 748 Q219 748 204.5 761 Q190 774 190 794 Z " />
<glyph glyph-name="Eth" unicode="&#xd0;" horiz-adv-x="658" d="M-1 392 L89 392 L89 700 Q108 703 131.5 704.5 Q155 706 180.5 706.5 Q206 707 230.5 707.5 Q255 708 276 708 Q360 708 421.5 682 Q483 656 523 609.5 Q563 563 582.5 498 Q602 433 602 355 Q602 284 583.5 218.5 Q565 153 525 102.5 Q485 52 421 21.5 Q357 -9 266 -9 Q250 -9 224.5 -8.5 Q199 -8 172 -6.5 Q145 -5 122 -4 Q99 -3 89 -1 L89 332 L-1 332 L-1 392 Z M278 634 Q265 634 249.5 634 Q234 634 219 633 Q204 632 191.5 631 Q179 630 172 629 L172 392 L319 392 L319 332 L172 332 L172 69 Q177 68 191 67.5 Q205 67 220 66.5 Q235 66 249 65.5 Q263 65 268 65 Q338 65 385.5 89 Q433 113 461.5 153.5 Q490 194 502 246.5 Q514 299 514 355 Q514 404 503 453.5 Q492 503 465 543 Q438 583 392.5 608.5 Q347 634 278 634 Z " />
<glyph glyph-name="Ntilde" unicode="&#xd1;" horiz-adv-x="673" d="M211 458 L157 559 L153 559 L163 458 L163 0 L85 0 L85 711 L129 711 L464 244 L516 148 L521 148 L510 244 L510 700 L588 700 L588 -11 L544 -11 L211 458 Z M179 785 Q210 817 236.5 828.5 Q263 840 287 840 Q306 840 324 835 Q342 830 358.5 823.5 Q375 817 391 812 Q407 807 422 807 Q448 807 472 828 L497 785 Q470 760 446 750.5 Q422 741 401 741 Q382 741 365 746 Q348 751 331.5 757.5 Q315 764 299 769 Q283 774 267 774 Q251 774 235.5 767.5 Q220 761 203 744 L179 785 Z " />
<glyph glyph-name="Ograve" unicode="&#xd2;" horiz-adv-x="684" d="M56 350 Q56 525 130 618.5 Q204 712 341 712 Q415 712 469 686 Q523 660 558.5 612.5 Q594 565 611 498.5 Q628 432 628 350 Q628 175 553.5 81.5 Q479 -12 341 -12 Q268 -12 214.5 14 Q161 40 125.5 87.5 Q90 135 73 201.5 Q56 268 56 350 Z M144 350 Q144 292 155.5 240 Q167 188 191 148.5 Q215 109 252.5 85.5 Q290 62 341 62 Q434 62 487 132.5 Q540 203 540 350 Q540 407 528.5 459.5 Q517 512 492.5 551.5 Q468 591 430.5 614.5 Q393 638 341 638 Q249 638 196.5 567.5 Q144 497 144 350 Z M410 752 L336 752 L178 849 L178 870 L292 870 L410 752 Z " />
<glyph glyph-name="Oacute" unicode="&#xd3;" horiz-adv-x="684" d="M56 350 Q56 525 130 618.5 Q204 712 341 712 Q415 712 469 686 Q523 660 558.5 612.5 Q594 565 611 498.5 Q628 432 628 350 Q628 175 553.5 81.5 Q479 -12 341 -12 Q268 -12 214.5 14 Q161 40 125.5 87.5 Q90 135 73 201.5 Q56 268 56 350 Z M144 350 Q144 292 155.5 240 Q167 188 191 148.5 Q215 109 252.5 85.5 Q290 62 341 62 Q434 62 487 132.5 Q540 203 540 350 Q540 407 528.5 459.5 Q517 512 492.5 551.5 Q468 591 430.5 614.5 Q393 638 341 638 Q249 638 196.5 567.5 Q144 497 144 350 Z M415 870 L529 870 L529 849 L366 752 L297 752 L415 870 Z " />
<glyph glyph-name="Ocircumflex" unicode="&#xd4;" horiz-adv-x="684" d="M56 350 Q56 525 130 618.5 Q204 712 341 712 Q415 712 469 686 Q523 660 558.5 612.5 Q594 565 611 498.5 Q628 432 628 350 Q628 175 553.5 81.5 Q479 -12 341 -12 Q268 -12 214.5 14 Q161 40 125.5 87.5 Q90 135 73 201.5 Q56 268 56 350 Z M144 350 Q144 292 155.5 240 Q167 188 191 148.5 Q215 109 252.5 85.5 Q290 62 341 62 Q434 62 487 132.5 Q540 203 540 350 Q540 407 528.5 459.5 Q517 512 492.5 551.5 Q468 591 430.5 614.5 Q393 638 341 638 Q249 638 196.5 567.5 Q144 497 144 350 Z M312 870 L372 870 L499 768 L499 747 L418 747 L358 796 L341 831 L322 797 L258 747 L179 747 L179 769 L312 870 Z " />
<glyph glyph-name="Otilde" unicode="&#xd5;" horiz-adv-x="684" d="M56 350 Q56 525 130 618.5 Q204 712 341 712 Q415 712 469 686 Q523 660 558.5 612.5 Q594 565 611 498.5 Q628 432 628 350 Q628 175 553.5 81.5 Q479 -12 341 -12 Q268 -12 214.5 14 Q161 40 125.5 87.5 Q90 135 73 201.5 Q56 268 56 350 Z M144 350 Q144 292 155.5 240 Q167 188 191 148.5 Q215 109 252.5 85.5 Q290 62 341 62 Q434 62 487 132.5 Q540 203 540 350 Q540 407 528.5 459.5 Q517 512 492.5 551.5 Q468 591 430.5 614.5 Q393 638 341 638 Q249 638 196.5 567.5 Q144 497 144 350 Z M182 785 Q213 817 239.5 828.5 Q266 840 290 840 Q309 840 327 835 Q345 830 361.5 823.5 Q378 817 394 812 Q410 807 425 807 Q451 807 475 828 L500 785 Q473 760 449 750.5 Q425 741 404 741 Q385 741 368 746 Q351 751 334.5 757.5 Q318 764 302 769 Q286 774 270 774 Q254 774 238.5 767.5 Q223 761 206 744 L182 785 Z " />
<glyph glyph-name="Odieresis" unicode="&#xd6;" horiz-adv-x="684" d="M56 350 Q56 525 130 618.5 Q204 712 341 712 Q415 712 469 686 Q523 660 558.5 612.5 Q594 565 611 498.5 Q628 432 628 350 Q628 175 553.5 81.5 Q479 -12 341 -12 Q268 -12 214.5 14 Q161 40 125.5 87.5 Q90 135 73 201.5 Q56 268 56 350 Z M144 350 Q144 292 155.5 240 Q167 188 191 148.5 Q215 109 252.5 85.5 Q290 62 341 62 Q434 62 487 132.5 Q540 203 540 350 Q540 407 528.5 459.5 Q517 512 492.5 551.5 Q468 591 430.5 614.5 Q393 638 341 638 Q249 638 196.5 567.5 Q144 497 144 350 Z M190 794 Q190 815 205 828 Q220 841 244 841 Q267 841 281.5 828 Q296 815 296 794 Q296 774 281.5 761 Q267 748 244 748 Q220 748 205 761 Q190 774 190 794 Z M382 794 Q382 815 396.5 828 Q411 841 434 841 Q458 841 473 828 Q488 815 488 794 Q488 774 473 761 Q458 748 434 748 Q411 748 396.5 761 Q382 774 382 794 Z " />
<glyph glyph-name="multiply" unicode="&#xd7;" horiz-adv-x="505" d="M127 517 L253 390 L380 517 L431 464 L305 338 L431 211 L380 159 L253 287 L126 159 L74 210 L202 339 L76 464 L127 517 Z " />
<glyph glyph-name="Oslash" unicode="&#xd8;" horiz-adv-x="684" d="M122 91 Q88 139 72 204 Q56 269 56 350 Q56 525 130 618.5 Q204 712 341 712 Q398 712 442 697 Q486 682 520 653 L562 713 L614 678 L563 606 Q596 558 612 493.5 Q628 429 628 350 Q628 175 553.5 81.5 Q479 -12 341 -12 Q234 -12 166 44 L127 -12 L75 24 L122 91 Z M144 350 Q144 299 152.5 254 Q161 209 179 171 L469 582 Q446 608 414.5 623 Q383 638 341 638 Q249 638 196.5 567.5 Q144 497 144 350 Z M540 350 Q540 398 531.5 443 Q523 488 506 525 L216 114 Q239 89 270 75.5 Q301 62 341 62 Q434 62 487 132.5 Q540 203 540 350 Z " />
<glyph glyph-name="Ugrave" unicode="&#xd9;" horiz-adv-x="652" d="M487 700 L567 700 L567 233 Q567 170 550.5 124 Q534 78 503.5 48.5 Q473 19 430 5 Q387 -9 335 -9 Q211 -9 148 47 Q85 103 85 217 L85 700 L168 700 L168 256 Q168 203 178.5 166.5 Q189 130 210 107.5 Q231 85 262.5 75 Q294 65 336 65 Q417 65 452 109.5 Q487 154 487 256 L487 700 Z M407 752 L333 752 L175 849 L175 870 L289 870 L407 752 Z " />
<glyph glyph-name="Uacute" unicode="&#xda;" horiz-adv-x="652" d="M487 700 L567 700 L567 233 Q567 170 550.5 124 Q534 78 503.5 48.5 Q473 19 430 5 Q387 -9 335 -9 Q211 -9 148 47 Q85 103 85 217 L85 700 L168 700 L168 256 Q168 203 178.5 166.5 Q189 130 210 107.5 Q231 85 262.5 75 Q294 65 336 65 Q417 65 452 109.5 Q487 154 487 256 L487 700 Z M390 870 L504 870 L504 849 L341 752 L272 752 L390 870 Z " />
<glyph glyph-name="Ucircumflex" unicode="&#xdb;" horiz-adv-x="652" d="M487 700 L567 700 L567 233 Q567 170 550.5 124 Q534 78 503.5 48.5 Q473 19 430 5 Q387 -9 335 -9 Q211 -9 148 47 Q85 103 85 217 L85 700 L168 700 L168 256 Q168 203 178.5 166.5 Q189 130 210 107.5 Q231 85 262.5 75 Q294 65 336 65 Q417 65 452 109.5 Q487 154 487 256 L487 700 Z M301 870 L361 870 L488 768 L488 747 L407 747 L347 796 L330 831 L311 797 L247 747 L168 747 L168 769 L301 870 Z " />
<glyph glyph-name="Udieresis" unicode="&#xdc;" horiz-adv-x="652" d="M487 700 L567 700 L567 233 Q567 170 550.5 124 Q534 78 503.5 48.5 Q473 19 430 5 Q387 -9 335 -9 Q211 -9 148 47 Q85 103 85 217 L85 700 L168 700 L168 256 Q168 203 178.5 166.5 Q189 130 210 107.5 Q231 85 262.5 75 Q294 65 336 65 Q417 65 452 109.5 Q487 154 487 256 L487 700 Z M178 794 Q178 815 193 828 Q208 841 232 841 Q255 841 269.5 828 Q284 815 284 794 Q284 774 269.5 761 Q255 748 232 748 Q208 748 193 761 Q178 774 178 794 Z M370 794 Q370 815 384.5 828 Q399 841 422 841 Q446 841 461 828 Q476 815 476 794 Q476 774 461 761 Q446 748 422 748 Q399 748 384.5 761 Q370 774 370 794 Z " />
<glyph glyph-name="Yacute" unicode="&#xdd;" horiz-adv-x="558" d="M239 278 L8 700 L105 700 L269 394 L286 333 L287 333 L305 396 L462 700 L551 700 L322 279 L322 0 L239 0 L239 278 Z M355 870 L469 870 L469 849 L306 752 L237 752 L355 870 Z " />
<glyph glyph-name="Thorn" unicode="&#xde;" horiz-adv-x="559" d="M85 800 L168 800 L168 625 Q210 628 254 628 Q300 628 347.5 619 Q395 610 434 586 Q473 562 497.5 520 Q522 478 522 413 Q522 349 499 305 Q476 261 438 233.5 Q400 206 351 194 Q302 182 250 182 Q245 182 233.5 182 Q222 182 209.5 182.5 Q197 183 185 184 Q173 185 168 186 L168 0 L85 0 L85 800 Z M256 556 Q230 556 206 555 Q182 554 168 550 L168 260 Q173 258 184 257.5 Q195 257 207 256.5 Q219 256 230 256 Q241 256 246 256 Q280 256 313.5 262.5 Q347 269 374 286 Q401 303 417.5 334 Q434 365 434 413 Q434 454 418.5 481.5 Q403 509 377.5 525.5 Q352 542 320 549 Q288 556 256 556 Z " />
<glyph glyph-name="germandbls" unicode="&#xdf;" horiz-adv-x="592" d="M384 559 Q384 576 374.5 590 Q365 604 350 614.5 Q335 625 317 630.5 Q299 636 282 636 Q254 636 234.5 629 Q215 622 202.5 606 Q190 590 185 563.5 Q180 537 180 498 L180 0 L100 0 L100 430 L22 430 L22 500 L100 500 L100 523 Q100 620 147.5 663 Q195 706 279 706 Q320 706 354 695.5 Q388 685 412.5 665.5 Q437 646 450.5 619.5 Q464 593 464 560 Q464 522 445 499 Q426 476 403.5 458 Q381 440 362 423 Q343 406 343 381 Q343 359 358 346 Q373 333 396 323 Q419 313 445 302.5 Q471 292 494 275 Q517 258 532 230.5 Q547 203 547 159 Q547 127 535 96.5 Q523 66 500.5 42 Q478 18 444 3 Q410 -12 367 -12 Q344 -12 326.5 -10.5 Q309 -9 294.5 -5.5 Q280 -2 267 3 Q254 8 241 16 L264 83 Q276 77 285 72 Q294 67 304.5 64 Q315 61 328 59.5 Q341 58 360 58 Q381 58 400.5 65.5 Q420 73 435 86 Q450 99 458.5 116.5 Q467 134 467 156 Q467 186 452 203.5 Q437 221 414.5 233 Q392 245 365.5 254.5 Q339 264 316.5 278.5 Q294 293 279 315.5 Q264 338 264 376 Q264 415 282.5 438.5 Q301 462 324.5 480.5 Q348 499 366 516 Q384 533 384 559 Z " />
<glyph glyph-name="agrave" unicode="&#xe0;" horiz-adv-x="496" d="M69 463 Q107 486 157.5 497 Q208 508 263 508 Q315 508 346.5 494 Q378 480 394.5 457.5 Q411 435 416.5 408 Q422 381 422 354 Q422 294 419 237 Q416 180 416 129 Q416 92 419 59 Q422 26 430 -2 L371 -2 L350 68 L345 68 Q336 54 322.5 40.5 Q309 27 290 16.5 Q271 6 246 -1 Q221 -8 189 -8 Q157 -8 129.5 2 Q102 12 82 30.5 Q62 49 50.5 75 Q39 101 39 134 Q39 178 57 207.5 Q75 237 107.5 254.5 Q140 272 185.5 279.5 Q231 287 286 287 Q300 287 313.5 287 Q327 287 341 285 Q344 315 344 339 Q344 394 322 416 Q300 438 242 438 Q225 438 205.5 435.5 Q186 433 165.5 428.5 Q145 424 126.5 417.5 Q108 411 94 403 L69 463 Z M211 62 Q239 62 261 69.5 Q283 77 299 88.5 Q315 100 325.5 114 Q336 128 341 141 L341 224 Q327 225 312.5 225.5 Q298 226 284 226 Q253 226 223.5 222.5 Q194 219 171.5 209.5 Q149 200 135.5 183.5 Q122 167 122 142 Q122 107 147 84.5 Q172 62 211 62 Z M305 571 L260 571 L145 699 L145 720 L240 720 L305 571 Z " />
<glyph glyph-name="aacute" unicode="&#xe1;" horiz-adv-x="496" d="M69 463 Q107 486 157.5 497 Q208 508 263 508 Q315 508 346.5 494 Q378 480 394.5 457.5 Q411 435 416.5 408 Q422 381 422 354 Q422 294 419 237 Q416 180 416 129 Q416 92 419 59 Q422 26 430 -2 L371 -2 L350 68 L345 68 Q336 54 322.5 40.5 Q309 27 290 16.5 Q271 6 246 -1 Q221 -8 189 -8 Q157 -8 129.5 2 Q102 12 82 30.5 Q62 49 50.5 75 Q39 101 39 134 Q39 178 57 207.5 Q75 237 107.5 254.5 Q140 272 185.5 279.5 Q231 287 286 287 Q300 287 313.5 287 Q327 287 341 285 Q344 315 344 339 Q344 394 322 416 Q300 438 242 438 Q225 438 205.5 435.5 Q186 433 165.5 428.5 Q145 424 126.5 417.5 Q108 411 94 403 L69 463 Z M211 62 Q239 62 261 69.5 Q283 77 299 88.5 Q315 100 325.5 114 Q336 128 341 141 L341 224 Q327 225 312.5 225.5 Q298 226 284 226 Q253 226 223.5 222.5 Q194 219 171.5 209.5 Q149 200 135.5 183.5 Q122 167 122 142 Q122 107 147 84.5 Q172 62 211 62 Z M238 720 L327 720 L327 699 L226 571 L179 571 L238 720 Z " />
<glyph glyph-name="acircumflex" unicode="&#xe2;" horiz-adv-x="496" d="M69 463 Q107 486 157.5 497 Q208 508 263 508 Q315 508 346.5 494 Q378 480 394.5 457.5 Q411 435 416.5 408 Q422 381 422 354 Q422 294 419 237 Q416 180 416 129 Q416 92 419 59 Q422 26 430 -2 L371 -2 L350 68 L345 68 Q336 54 322.5 40.5 Q309 27 290 16.5 Q271 6 246 -1 Q221 -8 189 -8 Q157 -8 129.5 2 Q102 12 82 30.5 Q62 49 50.5 75 Q39 101 39 134 Q39 178 57 207.5 Q75 237 107.5 254.5 Q140 272 185.5 279.5 Q231 287 286 287 Q300 287 313.5 287 Q327 287 341 285 Q344 315 344 339 Q344 394 322 416 Q300 438 242 438 Q225 438 205.5 435.5 Q186 433 165.5 428.5 Q145 424 126.5 417.5 Q108 411 94 403 L69 463 Z M211 62 Q239 62 261 69.5 Q283 77 299 88.5 Q315 100 325.5 114 Q336 128 341 141 L341 224 Q327 225 312.5 225.5 Q298 226 284 226 Q253 226 223.5 222.5 Q194 219 171.5 209.5 Q149 200 135.5 183.5 Q122 167 122 142 Q122 107 147 84.5 Q172 62 211 62 Z M239 732 L271 732 L382 550 L310 550 L271 616 L250 674 L228 616 L183 550 L116 550 L239 732 Z " />
<glyph glyph-name="atilde" unicode="&#xe3;" horiz-adv-x="496" d="M69 463 Q107 486 157.5 497 Q208 508 263 508 Q315 508 346.5 494 Q378 480 394.5 457.5 Q411 435 416.5 408 Q422 381 422 354 Q422 294 419 237 Q416 180 416 129 Q416 92 419 59 Q422 26 430 -2 L371 -2 L350 68 L345 68 Q336 54 322.5 40.5 Q309 27 290 16.5 Q271 6 246 -1 Q221 -8 189 -8 Q157 -8 129.5 2 Q102 12 82 30.5 Q62 49 50.5 75 Q39 101 39 134 Q39 178 57 207.5 Q75 237 107.5 254.5 Q140 272 185.5 279.5 Q231 287 286 287 Q300 287 313.5 287 Q327 287 341 285 Q344 315 344 339 Q344 394 322 416 Q300 438 242 438 Q225 438 205.5 435.5 Q186 433 165.5 428.5 Q145 424 126.5 417.5 Q108 411 94 403 L69 463 Z M211 62 Q239 62 261 69.5 Q283 77 299 88.5 Q315 100 325.5 114 Q336 128 341 141 L341 224 Q327 225 312.5 225.5 Q298 226 284 226 Q253 226 223.5 222.5 Q194 219 171.5 209.5 Q149 200 135.5 183.5 Q122 167 122 142 Q122 107 147 84.5 Q172 62 211 62 Z M109 656 Q138 689 162 701.5 Q186 714 206 714 Q223 714 237.5 707.5 Q252 701 265.5 693.5 Q279 686 291.5 680 Q304 674 318 674 Q340 674 364 698 L388 655 Q362 626 340.5 615.5 Q319 605 301 605 Q285 605 271 611 Q257 617 243.5 624.5 Q230 632 216.5 638.5 Q203 645 189 645 Q176 645 162.5 638 Q149 631 132 614 L109 656 Z " />
<glyph glyph-name="adieresis" unicode="&#xe4;" horiz-adv-x="496" d="M69 463 Q107 486 157.5 497 Q208 508 263 508 Q315 508 346.5 494 Q378 480 394.5 457.5 Q411 435 416.5 408 Q422 381 422 354 Q422 294 419 237 Q416 180 416 129 Q416 92 419 59 Q422 26 430 -2 L371 -2 L350 68 L345 68 Q336 54 322.5 40.5 Q309 27 290 16.5 Q271 6 246 -1 Q221 -8 189 -8 Q157 -8 129.5 2 Q102 12 82 30.5 Q62 49 50.5 75 Q39 101 39 134 Q39 178 57 207.5 Q75 237 107.5 254.5 Q140 272 185.5 279.5 Q231 287 286 287 Q300 287 313.5 287 Q327 287 341 285 Q344 315 344 339 Q344 394 322 416 Q300 438 242 438 Q225 438 205.5 435.5 Q186 433 165.5 428.5 Q145 424 126.5 417.5 Q108 411 94 403 L69 463 Z M211 62 Q239 62 261 69.5 Q283 77 299 88.5 Q315 100 325.5 114 Q336 128 341 141 L341 224 Q327 225 312.5 225.5 Q298 226 284 226 Q253 226 223.5 222.5 Q194 219 171.5 209.5 Q149 200 135.5 183.5 Q122 167 122 142 Q122 107 147 84.5 Q172 62 211 62 Z M105 653 Q105 676 118.5 690 Q132 704 154 704 Q176 704 189.5 690 Q203 676 203 653 Q203 632 189.5 618 Q176 604 154 604 Q132 604 118.5 618 Q105 632 105 653 Z M297 653 Q297 676 310.5 690 Q324 704 346 704 Q369 704 382.5 690 Q396 676 396 653 Q396 632 382.5 618 Q369 604 346 604 Q324 604 310.5 618 Q297 632 297 653 Z " />
<glyph glyph-name="aring" unicode="&#xe5;" horiz-adv-x="496" d="M69 463 Q107 486 157.5 497 Q208 508 263 508 Q315 508 346.5 494 Q378 480 394.5 457.5 Q411 435 416.5 408 Q422 381 422 354 Q422 294 419 237 Q416 180 416 129 Q416 92 419 59 Q422 26 430 -2 L371 -2 L350 68 L345 68 Q336 54 322.5 40.5 Q309 27 290 16.5 Q271 6 246 -1 Q221 -8 189 -8 Q157 -8 129.5 2 Q102 12 82 30.5 Q62 49 50.5 75 Q39 101 39 134 Q39 178 57 207.5 Q75 237 107.5 254.5 Q140 272 185.5 279.5 Q231 287 286 287 Q300 287 313.5 287 Q327 287 341 285 Q344 315 344 339 Q344 394 322 416 Q300 438 242 438 Q225 438 205.5 435.5 Q186 433 165.5 428.5 Q145 424 126.5 417.5 Q108 411 94 403 L69 463 Z M211 62 Q239 62 261 69.5 Q283 77 299 88.5 Q315 100 325.5 114 Q336 128 341 141 L341 224 Q327 225 312.5 225.5 Q298 226 284 226 Q253 226 223.5 222.5 Q194 219 171.5 209.5 Q149 200 135.5 183.5 Q122 167 122 142 Q122 107 147 84.5 Q172 62 211 62 Z M152 643 Q152 685 178.5 709.5 Q205 734 249 734 Q291 734 319 712 Q347 690 347 643 Q347 604 319 578.5 Q291 553 249 553 Q207 553 179.5 576.5 Q152 600 152 643 Z M206 643 Q206 623 219 612 Q232 601 249 601 Q268 601 280.5 611 Q293 621 293 643 Q293 665 279.5 675.5 Q266 686 249 686 Q232 686 219 676 Q206 666 206 643 Z " />
<glyph glyph-name="ae" unicode="&#xe6;" horiz-adv-x="796" d="M211 62 Q239 62 261 69.5 Q283 77 299 88.5 Q315 100 325.5 114 Q336 128 341 141 L341 224 Q327 225 312.5 225.5 Q298 226 284 226 Q253 226 223.5 222.5 Q194 219 171.5 209.5 Q149 200 135.5 183.5 Q122 167 122 142 Q122 107 147 84.5 Q172 62 211 62 Z M367 84 Q354 66 337 49.5 Q320 33 298.5 20.5 Q277 8 249.5 0 Q222 -8 189 -8 Q157 -8 129.5 2 Q102 12 82 30.5 Q62 49 50.5 75 Q39 101 39 134 Q39 178 57 207.5 Q75 237 107.5 254.5 Q140 272 185.5 279.5 Q231 287 286 287 Q300 287 313.5 287 Q327 287 341 285 Q342 300 343 313.5 Q344 327 344 339 Q344 394 322 416.5 Q300 439 242 438 Q225 438 205.5 435.5 Q186 433 165.5 428.5 Q145 424 126.5 417.5 Q108 411 94 403 L69 463 Q107 486 157.5 497 Q208 508 263 508 Q368 508 399 443 Q425 479 469 495.5 Q513 512 557 512 Q591 512 625 504.5 Q659 497 686 475.5 Q713 454 730 415 Q747 376 747 313 Q747 297 745.5 279.5 Q744 262 742 242 L419 242 Q419 155 455.5 106.5 Q492 58 580 58 Q615 58 648.5 70.5 Q682 83 700 98 L730 40 Q700 16 654.5 2 Q609 -12 558 -12 Q497 -12 447.5 13 Q398 38 374 84 L367 84 Z M558 442 Q499 442 463 411 Q427 380 421 305 L669 305 L669 317 Q669 385 638.5 413.5 Q608 442 558 442 Z " />
<glyph glyph-name="ccedilla" unicode="&#xe7;" horiz-adv-x="451" d="M418 33 Q369 -2 297 -10 L279 -43 Q321 -51 339.5 -69 Q358 -87 358 -118 Q358 -157 326 -182.5 Q294 -208 236 -208 Q225 -208 214 -207 Q203 -206 191 -204 L200 -165 Q206 -166 211 -166 Q216 -166 221 -166 Q243 -166 255.5 -162 Q268 -158 274.5 -152.5 Q281 -147 282.5 -140 Q284 -133 284 -127 Q284 -99 198 -90 L240 -11 Q188 -8 152 12 Q116 32 93 66 Q70 100 59.5 146.5 Q49 193 49 250 Q49 377 105 444.5 Q161 512 266 512 Q314 512 347.5 504.5 Q381 497 408 483 L385 414 Q362 427 334 434.5 Q306 442 274 442 Q132 442 132 250 Q132 212 139.5 177.5 Q147 143 164.5 116.5 Q182 90 210.5 74.5 Q239 59 281 59 Q317 59 345.5 69.5 Q374 80 392 94 L418 33 Z " />
<glyph glyph-name="egrave" unicode="&#xe8;" horiz-adv-x="508" d="M442 40 Q412 16 366.5 2 Q321 -12 270 -12 Q213 -12 171 6.5 Q129 25 102 59.5 Q75 94 62 142 Q49 190 49 250 Q49 378 106 445 Q163 512 269 512 Q303 512 337 504.5 Q371 497 398 476 Q425 455 442 416.5 Q459 378 459 315 Q459 282 453 242 L132 242 Q132 198 141 164 Q150 130 169 106.5 Q188 83 218.5 70.5 Q249 58 293 58 Q327 58 361 70 Q395 82 412 98 L442 40 Z M270 442 Q211 442 175.5 411 Q140 380 133 305 L381 305 Q381 381 352 411.5 Q323 442 270 442 Z M330 571 L285 571 L170 699 L170 720 L265 720 L330 571 Z " />
<glyph glyph-name="eacute" unicode="&#xe9;" horiz-adv-x="508" d="M442 40 Q412 16 366.5 2 Q321 -12 270 -12 Q213 -12 171 6.5 Q129 25 102 59.5 Q75 94 62 142 Q49 190 49 250 Q49 378 106 445 Q163 512 269 512 Q303 512 337 504.5 Q371 497 398 476 Q425 455 442 416.5 Q459 378 459 315 Q459 282 453 242 L132 242 Q132 198 141 164 Q150 130 169 106.5 Q188 83 218.5 70.5 Q249 58 293 58 Q327 58 361 70 Q395 82 412 98 L442 40 Z M270 442 Q211 442 175.5 411 Q140 380 133 305 L381 305 Q381 381 352 411.5 Q323 442 270 442 Z M291 720 L380 720 L380 699 L279 571 L232 571 L291 720 Z " />
<glyph glyph-name="ecircumflex" unicode="&#xea;" horiz-adv-x="508" d="M442 40 Q412 16 366.5 2 Q321 -12 270 -12 Q213 -12 171 6.5 Q129 25 102 59.5 Q75 94 62 142 Q49 190 49 250 Q49 378 106 445 Q163 512 269 512 Q303 512 337 504.5 Q371 497 398 476 Q425 455 442 416.5 Q459 378 459 315 Q459 282 453 242 L132 242 Q132 198 141 164 Q150 130 169 106.5 Q188 83 218.5 70.5 Q249 58 293 58 Q327 58 361 70 Q395 82 412 98 L442 40 Z M270 442 Q211 442 175.5 411 Q140 380 133 305 L381 305 Q381 381 352 411.5 Q323 442 270 442 Z M245 732 L277 732 L388 550 L316 550 L277 616 L256 674 L234 616 L189 550 L122 550 L245 732 Z " />
<glyph glyph-name="edieresis" unicode="&#xeb;" horiz-adv-x="508" d="M442 40 Q412 16 366.5 2 Q321 -12 270 -12 Q213 -12 171 6.5 Q129 25 102 59.5 Q75 94 62 142 Q49 190 49 250 Q49 378 106 445 Q163 512 269 512 Q303 512 337 504.5 Q371 497 398 476 Q425 455 442 416.5 Q459 378 459 315 Q459 282 453 242 L132 242 Q132 198 141 164 Q150 130 169 106.5 Q188 83 218.5 70.5 Q249 58 293 58 Q327 58 361 70 Q395 82 412 98 L442 40 Z M270 442 Q211 442 175.5 411 Q140 380 133 305 L381 305 Q381 381 352 411.5 Q323 442 270 442 Z M119 653 Q119 676 132.5 690 Q146 704 168 704 Q190 704 203.5 690 Q217 676 217 653 Q217 632 203.5 618 Q190 604 168 604 Q146 604 132.5 618 Q119 632 119 653 Z M311 653 Q311 676 324.5 690 Q338 704 360 704 Q383 704 396.5 690 Q410 676 410 653 Q410 632 396.5 618 Q383 604 360 604 Q338 604 324.5 618 Q311 632 311 653 Z " />
<glyph glyph-name="igrave" unicode="&#xec;" horiz-adv-x="268" d="M94 500 L174 500 L174 0 L94 0 L94 500 Z M172 571 L127 571 L12 699 L12 720 L107 720 L172 571 Z " />
<glyph glyph-name="iacute" unicode="&#xed;" horiz-adv-x="268" d="M94 500 L174 500 L174 0 L94 0 L94 500 Z M154 720 L243 720 L243 699 L142 571 L95 571 L154 720 Z " />
<glyph glyph-name="icircumflex" unicode="&#xee;" horiz-adv-x="268" d="M94 500 L174 500 L174 0 L94 0 L94 500 Z M121 732 L153 732 L264 550 L192 550 L153 616 L132 674 L110 616 L65 550 L-2 550 L121 732 Z " />
<glyph glyph-name="idieresis" unicode="&#xef;" horiz-adv-x="268" d="M94 500 L174 500 L174 0 L94 0 L94 500 Z M-12 653 Q-12 676 1.5 690 Q15 704 37 704 Q59 704 72.5 690 Q86 676 86 653 Q86 632 72.5 618 Q59 604 37 604 Q15 604 1.5 618 Q-12 632 -12 653 Z M180 653 Q180 676 193.5 690 Q207 704 229 704 Q252 704 265.5 690 Q279 676 279 653 Q279 632 265.5 618 Q252 604 229 604 Q207 604 193.5 618 Q180 632 180 653 Z " />
<glyph glyph-name="eth" unicode="&#xf0;" horiz-adv-x="561" d="M220 596 L277 627 Q239 650 201 659 L236 713 Q254 706 282 694 Q310 682 340 661 L408 698 L434 653 L384 626 Q408 603 430 572.5 Q452 542 469 501.5 Q486 461 496 410 Q506 359 506 295 Q506 214 488 156 Q470 98 439.5 60.5 Q409 23 368.5 5.5 Q328 -12 282 -12 Q221 -12 178 9 Q135 30 108 66 Q81 102 68.5 149.5 Q56 197 56 251 Q56 303 70.5 350 Q85 397 113.5 432.5 Q142 468 183.5 489 Q225 510 280 510 Q325 510 359.5 496 Q394 482 408 464 Q397 501 374.5 534 Q352 567 323 593 L247 552 L220 596 Z M138 250 Q138 201 149 165 Q160 129 179.5 105 Q199 81 226.5 69.5 Q254 58 286 58 Q316 58 341.5 71 Q367 84 386 112 Q405 140 416 184 Q427 228 427 290 Q427 300 426.5 312.5 Q426 325 425.5 337.5 Q425 350 423.5 361.5 Q422 373 420 381 Q412 395 397.5 406 Q383 417 365 424.5 Q347 432 327 435.5 Q307 439 288 439 Q249 439 220.5 424.5 Q192 410 173.5 384.5 Q155 359 146.5 324.5 Q138 290 138 250 Z " />
<glyph glyph-name="ntilde" unicode="&#xf1;" horiz-adv-x="547" d="M398 0 L398 285 Q398 363 375.5 402.5 Q353 442 293 442 Q240 442 205.5 413.5 Q171 385 157 342 L157 0 L77 0 L77 500 L133 500 L148 439 L152 439 Q176 471 216.5 491.5 Q257 512 313 512 Q354 512 385 502.5 Q416 493 436.5 469 Q457 445 467.5 404.5 Q478 364 478 302 L478 0 L398 0 Z M134 656 Q163 689 187 701.5 Q211 714 231 714 Q248 714 262.5 707.5 Q277 701 290.5 693.5 Q304 686 316.5 680 Q329 674 343 674 Q365 674 389 698 L413 655 Q387 626 365.5 615.5 Q344 605 326 605 Q310 605 296 611 Q282 617 268.5 624.5 Q255 632 241.5 638.5 Q228 645 214 645 Q201 645 187.5 638 Q174 631 157 614 L134 656 Z " />
<glyph glyph-name="ograve" unicode="&#xf2;" horiz-adv-x="536" d="M49 250 Q49 377 105.5 444.5 Q162 512 268 512 Q324 512 365.5 493.5 Q407 475 434 440.5 Q461 406 474 357.5 Q487 309 487 250 Q487 123 430.5 55.5 Q374 -12 268 -12 Q212 -12 170.5 6.5 Q129 25 102 59.5 Q75 94 62 142.5 Q49 191 49 250 Z M132 250 Q132 212 139.5 177 Q147 142 163 116 Q179 90 205 74 Q231 58 268 58 Q404 57 404 250 Q404 289 396.5 324 Q389 359 373 385 Q357 411 331 426.5 Q305 442 268 442 Q132 443 132 250 Z M317 571 L272 571 L157 699 L157 720 L252 720 L317 571 Z " />
<glyph glyph-name="oacute" unicode="&#xf3;" horiz-adv-x="536" d="M49 250 Q49 377 105.5 444.5 Q162 512 268 512 Q324 512 365.5 493.5 Q407 475 434 440.5 Q461 406 474 357.5 Q487 309 487 250 Q487 123 430.5 55.5 Q374 -12 268 -12 Q212 -12 170.5 6.5 Q129 25 102 59.5 Q75 94 62 142.5 Q49 191 49 250 Z M132 250 Q132 212 139.5 177 Q147 142 163 116 Q179 90 205 74 Q231 58 268 58 Q404 57 404 250 Q404 289 396.5 324 Q389 359 373 385 Q357 411 331 426.5 Q305 442 268 442 Q132 443 132 250 Z M286 720 L375 720 L375 699 L274 571 L227 571 L286 720 Z " />
<glyph glyph-name="ocircumflex" unicode="&#xf4;" horiz-adv-x="536" d="M49 250 Q49 377 105.5 444.5 Q162 512 268 512 Q324 512 365.5 493.5 Q407 475 434 440.5 Q461 406 474 357.5 Q487 309 487 250 Q487 123 430.5 55.5 Q374 -12 268 -12 Q212 -12 170.5 6.5 Q129 25 102 59.5 Q75 94 62 142.5 Q49 191 49 250 Z M132 250 Q132 212 139.5 177 Q147 142 163 116 Q179 90 205 74 Q231 58 268 58 Q404 57 404 250 Q404 289 396.5 324 Q389 359 373 385 Q357 411 331 426.5 Q305 442 268 442 Q132 443 132 250 Z M258 732 L290 732 L401 550 L329 550 L290 616 L269 674 L247 616 L202 550 L135 550 L258 732 Z " />
<glyph glyph-name="otilde" unicode="&#xf5;" horiz-adv-x="536" d="M49 250 Q49 377 105.5 444.5 Q162 512 268 512 Q324 512 365.5 493.5 Q407 475 434 440.5 Q461 406 474 357.5 Q487 309 487 250 Q487 123 430.5 55.5 Q374 -12 268 -12 Q212 -12 170.5 6.5 Q129 25 102 59.5 Q75 94 62 142.5 Q49 191 49 250 Z M132 250 Q132 212 139.5 177 Q147 142 163 116 Q179 90 205 74 Q231 58 268 58 Q404 57 404 250 Q404 289 396.5 324 Q389 359 373 385 Q357 411 331 426.5 Q305 442 268 442 Q132 443 132 250 Z M129 656 Q158 689 182 701.5 Q206 714 226 714 Q243 714 257.5 707.5 Q272 701 285.5 693.5 Q299 686 311.5 680 Q324 674 338 674 Q360 674 384 698 L408 655 Q382 626 360.5 615.5 Q339 605 321 605 Q305 605 291 611 Q277 617 263.5 624.5 Q250 632 236.5 638.5 Q223 645 209 645 Q196 645 182.5 638 Q169 631 152 614 L129 656 Z " />
<glyph glyph-name="odieresis" unicode="&#xf6;" horiz-adv-x="536" d="M49 250 Q49 377 105.5 444.5 Q162 512 268 512 Q324 512 365.5 493.5 Q407 475 434 440.5 Q461 406 474 357.5 Q487 309 487 250 Q487 123 430.5 55.5 Q374 -12 268 -12 Q212 -12 170.5 6.5 Q129 25 102 59.5 Q75 94 62 142.5 Q49 191 49 250 Z M132 250 Q132 212 139.5 177 Q147 142 163 116 Q179 90 205 74 Q231 58 268 58 Q404 57 404 250 Q404 289 396.5 324 Q389 359 373 385 Q357 411 331 426.5 Q305 442 268 442 Q132 443 132 250 Z M124 653 Q124 676 137.5 690 Q151 704 173 704 Q195 704 208.5 690 Q222 676 222 653 Q222 632 208.5 618 Q195 604 173 604 Q151 604 137.5 618 Q124 632 124 653 Z M316 653 Q316 676 329.5 690 Q343 704 365 704 Q388 704 401.5 690 Q415 676 415 653 Q415 632 401.5 618 Q388 604 365 604 Q343 604 329.5 618 Q316 632 316 653 Z " />
<glyph glyph-name="divide" unicode="&#xf7;" horiz-adv-x="505" d="M40 374 L464 374 L464 302 L40 302 L40 374 Z M194 525 Q194 552 209.5 567.5 Q225 583 251 583 Q278 583 294 567.5 Q310 552 310 525 Q310 499 294 483 Q278 467 251 467 Q225 467 209.5 483 Q194 499 194 525 Z M194 150 Q194 177 209.5 192.5 Q225 208 251 208 Q278 208 294 192.5 Q310 177 310 150 Q310 124 294 108 Q278 92 251 92 Q225 92 209.5 108 Q194 124 194 150 Z " />
<glyph glyph-name="oslash" unicode="&#xf8;" horiz-adv-x="536" d="M49 250 Q49 377 105.5 444.5 Q162 512 268 512 Q341 512 390 480 L416 515 L466 478 L437 436 Q463 402 475 355 Q487 308 487 250 Q487 123 430.5 55.5 Q374 -12 268 -12 Q190 -12 140 23 L113 -14 L61 24 L94 70 Q71 104 60 149.5 Q49 195 49 250 Z M404 250 Q404 282 399 311.5 Q394 341 383 365 L184 88 Q200 75 220.5 66.5 Q241 58 268 58 Q404 57 404 250 Z M132 250 Q132 220 136.5 192 Q141 164 150 141 L347 415 Q332 427 312.5 434.5 Q293 442 268 442 Q132 443 132 250 Z " />
<glyph glyph-name="ugrave" unicode="&#xf9;" horiz-adv-x="539" d="M149 500 L149 215 Q149 176 153.5 146.5 Q158 117 169 97.5 Q180 78 199 68 Q218 58 247 58 Q274 58 295 66.5 Q316 75 332.5 90 Q349 105 361.5 124.5 Q374 144 382 166 L382 500 L462 500 L462 142 Q462 106 464.5 67.5 Q467 29 473 0 L418 0 L398 79 L393 79 Q370 40 331 14 Q292 -12 232 -12 Q192 -12 161.5 -2.5 Q131 7 110.5 31 Q90 55 79.5 95.5 Q69 136 69 198 L69 500 L149 500 Z M308 571 L263 571 L148 699 L148 720 L243 720 L308 571 Z " />
<glyph glyph-name="uacute" unicode="&#xfa;" horiz-adv-x="539" d="M149 500 L149 215 Q149 176 153.5 146.5 Q158 117 169 97.5 Q180 78 199 68 Q218 58 247 58 Q274 58 295 66.5 Q316 75 332.5 90 Q349 105 361.5 124.5 Q374 144 382 166 L382 500 L462 500 L462 142 Q462 106 464.5 67.5 Q467 29 473 0 L418 0 L398 79 L393 79 Q370 40 331 14 Q292 -12 232 -12 Q192 -12 161.5 -2.5 Q131 7 110.5 31 Q90 55 79.5 95.5 Q69 136 69 198 L69 500 L149 500 Z M285 720 L374 720 L374 699 L273 571 L226 571 L285 720 Z " />
<glyph glyph-name="ucircumflex" unicode="&#xfb;" horiz-adv-x="539" d="M149 500 L149 215 Q149 176 153.5 146.5 Q158 117 169 97.5 Q180 78 199 68 Q218 58 247 58 Q274 58 295 66.5 Q316 75 332.5 90 Q349 105 361.5 124.5 Q374 144 382 166 L382 500 L462 500 L462 142 Q462 106 464.5 67.5 Q467 29 473 0 L418 0 L398 79 L393 79 Q370 40 331 14 Q292 -12 232 -12 Q192 -12 161.5 -2.5 Q131 7 110.5 31 Q90 55 79.5 95.5 Q69 136 69 198 L69 500 L149 500 Z M260 732 L292 732 L403 550 L331 550 L292 616 L271 674 L249 616 L204 550 L137 550 L260 732 Z " />
<glyph glyph-name="udieresis" unicode="&#xfc;" horiz-adv-x="539" d="M149 500 L149 215 Q149 176 153.5 146.5 Q158 117 169 97.5 Q180 78 199 68 Q218 58 247 58 Q274 58 295 66.5 Q316 75 332.5 90 Q349 105 361.5 124.5 Q374 144 382 166 L382 500 L462 500 L462 142 Q462 106 464.5 67.5 Q467 29 473 0 L418 0 L398 79 L393 79 Q370 40 331 14 Q292 -12 232 -12 Q192 -12 161.5 -2.5 Q131 7 110.5 31 Q90 55 79.5 95.5 Q69 136 69 198 L69 500 L149 500 Z M125 653 Q125 676 138.5 690 Q152 704 174 704 Q196 704 209.5 690 Q223 676 223 653 Q223 632 209.5 618 Q196 604 174 604 Q152 604 138.5 618 Q125 632 125 653 Z M317 653 Q317 676 330.5 690 Q344 704 366 704 Q389 704 402.5 690 Q416 676 416 653 Q416 632 402.5 618 Q389 604 366 604 Q344 604 330.5 618 Q317 632 317 653 Z " />
<glyph glyph-name="yacute" unicode="&#xfd;" horiz-adv-x="466" d="M224 176 L252 80 L257 80 L279 177 L376 500 L457 500 L309 51 Q292 2 275.5 -44 Q259 -90 239 -126 Q219 -162 194 -183.5 Q169 -205 136 -205 Q100 -205 77 -195 L91 -126 Q104 -131 116 -131 Q144 -131 170 -101.5 Q196 -72 213 0 L12 500 L104 500 L224 176 Z M277 720 L366 720 L366 699 L265 571 L218 571 L277 720 Z " />
<glyph glyph-name="thorn" unicode="&#xfe;" horiz-adv-x="541" d="M77 700 L157 700 L157 450 L161 450 Q181 479 214 495.5 Q247 512 294 512 Q394 512 443 453 Q492 394 492 260 Q492 197 475.5 146.5 Q459 96 429 61 Q399 26 356.5 7 Q314 -12 262 -12 Q225 -12 203.5 -7.5 Q182 -3 157 8 L157 -200 L77 -200 L77 700 Z M279 442 Q181 443 157 335 L157 86 Q175 72 198 65 Q221 58 259 58 Q328 58 368.5 109.5 Q409 161 409 261 Q409 302 402 335.5 Q395 369 379.5 392.5 Q364 416 339.5 429 Q315 442 279 442 Z " />
<glyph glyph-name="ydieresis" unicode="&#xff;" horiz-adv-x="466" d="M224 176 L252 80 L257 80 L279 177 L376 500 L457 500 L309 51 Q292 2 275.5 -44 Q259 -90 239 -126 Q219 -162 194 -183.5 Q169 -205 136 -205 Q100 -205 77 -195 L91 -126 Q104 -131 116 -131 Q144 -131 170 -101.5 Q196 -72 213 0 L12 500 L104 500 L224 176 Z M89 653 Q89 676 102.5 690 Q116 704 138 704 Q160 704 173.5 690 Q187 676 187 653 Q187 632 173.5 618 Q160 604 138 604 Q116 604 102.5 618 Q89 632 89 653 Z M281 653 Q281 676 294.5 690 Q308 704 330 704 Q353 704 366.5 690 Q380 676 380 653 Q380 632 366.5 618 Q353 604 330 604 Q308 604 294.5 618 Q281 632 281 653 Z " />
<glyph glyph-name="Amacron" unicode="&#x100;" horiz-adv-x="585" d="M418 194 L160 194 L90 0 L8 0 L273 711 L311 711 L577 0 L490 0 L418 194 Z M187 266 L393 266 L315 479 L290 585 L289 585 L264 477 L187 266 Z M133 843 L449 843 L449 781 L133 781 L133 843 Z " />
<glyph glyph-name="amacron" unicode="&#x101;" horiz-adv-x="496" d="M69 463 Q107 486 157.5 497 Q208 508 263 508 Q315 508 346.5 494 Q378 480 394.5 457.5 Q411 435 416.5 408 Q422 381 422 354 Q422 294 419 237 Q416 180 416 129 Q416 92 419 59 Q422 26 430 -2 L371 -2 L350 68 L345 68 Q336 54 322.5 40.5 Q309 27 290 16.5 Q271 6 246 -1 Q221 -8 189 -8 Q157 -8 129.5 2 Q102 12 82 30.5 Q62 49 50.5 75 Q39 101 39 134 Q39 178 57 207.5 Q75 237 107.5 254.5 Q140 272 185.5 279.5 Q231 287 286 287 Q300 287 313.5 287 Q327 287 341 285 Q344 315 344 339 Q344 394 322 416 Q300 438 242 438 Q225 438 205.5 435.5 Q186 433 165.5 428.5 Q145 424 126.5 417.5 Q108 411 94 403 L69 463 Z M211 62 Q239 62 261 69.5 Q283 77 299 88.5 Q315 100 325.5 114 Q336 128 341 141 L341 224 Q327 225 312.5 225.5 Q298 226 284 226 Q253 226 223.5 222.5 Q194 219 171.5 209.5 Q149 200 135.5 183.5 Q122 167 122 142 Q122 107 147 84.5 Q172 62 211 62 Z M101 643 L397 643 L397 581 L101 581 L101 643 Z " />
<glyph glyph-name="Abreve" unicode="&#x102;" horiz-adv-x="585" d="M418 194 L160 194 L90 0 L8 0 L273 711 L311 711 L577 0 L490 0 L418 194 Z M187 266 L393 266 L315 479 L290 585 L289 585 L264 477 L187 266 Z M164 871 Q181 837 216 818.5 Q251 800 298 800 Q346 800 379 821 Q412 842 426 871 L466 852 Q457 823 440.5 800.5 Q424 778 401.5 762 Q379 746 352 738 Q325 730 297 730 Q270 730 243.5 737 Q217 744 194 758 Q171 772 152 794.5 Q133 817 121 847 L164 871 Z " />
<glyph glyph-name="abreve" unicode="&#x103;" horiz-adv-x="496" d="M69 463 Q107 486 157.5 497 Q208 508 263 508 Q315 508 346.5 494 Q378 480 394.5 457.5 Q411 435 416.5 408 Q422 381 422 354 Q422 294 419 237 Q416 180 416 129 Q416 92 419 59 Q422 26 430 -2 L371 -2 L350 68 L345 68 Q336 54 322.5 40.5 Q309 27 290 16.5 Q271 6 246 -1 Q221 -8 189 -8 Q157 -8 129.5 2 Q102 12 82 30.5 Q62 49 50.5 75 Q39 101 39 134 Q39 178 57 207.5 Q75 237 107.5 254.5 Q140 272 185.5 279.5 Q231 287 286 287 Q300 287 313.5 287 Q327 287 341 285 Q344 315 344 339 Q344 394 322 416 Q300 438 242 438 Q225 438 205.5 435.5 Q186 433 165.5 428.5 Q145 424 126.5 417.5 Q108 411 94 403 L69 463 Z M211 62 Q239 62 261 69.5 Q283 77 299 88.5 Q315 100 325.5 114 Q336 128 341 141 L341 224 Q327 225 312.5 225.5 Q298 226 284 226 Q253 226 223.5 222.5 Q194 219 171.5 209.5 Q149 200 135.5 183.5 Q122 167 122 142 Q122 107 147 84.5 Q172 62 211 62 Z M141 720 Q159 684 189 663.5 Q219 643 253 643 Q287 643 314.5 663 Q342 683 359 720 L401 702 Q398 678 385.5 654.5 Q373 631 353.5 613 Q334 595 308 584 Q282 573 252 573 Q224 573 199 581.5 Q174 590 153.5 606.5 Q133 623 118 645.5 Q103 668 96 697 L141 720 Z " />
<glyph glyph-name="Aogonek" unicode="&#x104;" horiz-adv-x="585" d="M418 194 L160 194 L90 0 L8 0 L273 711 L311 711 L577 0 L555 0 Q529 -16 513.5 -37.5 Q498 -59 498 -88 Q498 -108 511.5 -123 Q525 -138 550 -138 Q569 -138 590 -129 L601 -171 Q586 -183 561 -189 Q536 -195 515 -195 Q471 -195 443.5 -171.5 Q416 -148 416 -107 Q416 -72 437.5 -44.5 Q459 -17 497 0 L490 0 L418 194 Z M187 266 L393 266 L315 479 L290 585 L289 585 L264 477 L187 266 Z " />
<glyph glyph-name="aogonek" unicode="&#x105;" horiz-adv-x="496" d="M69 463 Q107 486 157.5 497 Q208 508 263 508 Q315 508 346.5 494 Q378 480 394.5 457.5 Q411 435 416.5 408 Q422 381 422 354 Q422 294 419 237 Q416 180 416 129 Q416 92 419 59 Q422 26 430 -2 L407 -2 Q382 -18 368 -39.5 Q354 -61 354 -87 Q354 -107 367 -122.5 Q380 -138 405 -138 Q424 -138 445 -128 L456 -171 Q441 -183 416 -189 Q391 -195 370 -195 Q325 -195 298 -171 Q271 -147 271 -106 Q271 -67 297 -38.5 Q323 -10 368 7 L350 68 L345 68 Q336 54 322.5 40.5 Q309 27 290 16.5 Q271 6 246 -1 Q221 -8 189 -8 Q157 -8 129.5 2 Q102 12 82 30.5 Q62 49 50.5 75 Q39 101 39 134 Q39 178 57 207.5 Q75 237 107.5 254.5 Q140 272 185.5 279.5 Q231 287 286 287 Q300 287 313.5 287 Q327 287 341 285 Q344 315 344 339 Q344 394 322 416 Q300 438 242 438 Q225 438 205.5 436 Q186 434 165.5 429.5 Q145 425 126.5 419 Q108 413 94 405 L69 463 Z M211 62 Q239 62 261 69.5 Q283 77 299 88.5 Q315 100 325.5 114 Q336 128 341 141 L341 224 Q327 225 312.5 225.5 Q298 226 284 226 Q253 226 223.5 222.5 Q194 219 171.5 209.5 Q149 200 135.5 183.5 Q122 167 122 142 Q122 107 147 84.5 Q172 62 211 62 Z " />
<glyph glyph-name="Cacute" unicode="&#x106;" horiz-adv-x="571" d="M533 29 Q503 6 457 -3 Q411 -12 359 -12 Q296 -12 241 9.5 Q186 31 145 75 Q104 119 80 187.5 Q56 256 56 350 Q56 448 82.5 516.5 Q109 585 152.5 628.5 Q196 672 250 692 Q304 712 360 712 Q420 712 458 705.5 Q496 699 523 688 L503 615 Q455 638 366 638 Q325 638 285 623 Q245 608 213.5 574 Q182 540 163 485 Q144 430 144 350 Q144 278 162 224 Q180 170 211.5 134 Q243 98 285.5 80 Q328 62 378 62 Q423 62 456.5 71 Q490 80 513 94 L533 29 Z M417 870 L531 870 L531 849 L368 752 L299 752 L417 870 Z " />
<glyph glyph-name="cacute" unicode="&#x107;" horiz-adv-x="451" d="M418 33 Q388 11 347 -0.5 Q306 -12 261 -12 Q203 -12 163 6.5 Q123 25 97.5 59.5 Q72 94 60.5 142.5 Q49 191 49 250 Q49 377 105 444.5 Q161 512 266 512 Q314 512 347.5 504.5 Q381 497 408 483 L385 414 Q362 427 334 434.5 Q306 442 274 442 Q132 442 132 250 Q132 212 139.5 177.5 Q147 143 164.5 116.5 Q182 90 210.5 74 Q239 58 281 58 Q317 58 345.5 69 Q374 80 392 94 L418 33 Z M290 720 L379 720 L379 699 L278 571 L231 571 L290 720 Z " />
<glyph glyph-name="Ccircumflex" unicode="&#x108;" horiz-adv-x="571" d="M533 29 Q503 6 457 -3 Q411 -12 359 -12 Q296 -12 241 9.5 Q186 31 145 75 Q104 119 80 187.5 Q56 256 56 350 Q56 448 82.5 516.5 Q109 585 152.5 628.5 Q196 672 250 692 Q304 712 360 712 Q420 712 458 705.5 Q496 699 523 688 L503 615 Q455 638 366 638 Q325 638 285 623 Q245 608 213.5 574 Q182 540 163 485 Q144 430 144 350 Q144 278 162 224 Q180 170 211.5 134 Q243 98 285.5 80 Q328 62 378 62 Q423 62 456.5 71 Q490 80 513 94 L533 29 Z M320 870 L380 870 L507 768 L507 747 L426 747 L366 796 L349 831 L330 797 L266 747 L187 747 L187 769 L320 870 Z " />
<glyph glyph-name="ccircumflex" unicode="&#x109;" horiz-adv-x="451" d="M418 33 Q388 11 347 -0.5 Q306 -12 261 -12 Q203 -12 163 6.5 Q123 25 97.5 59.5 Q72 94 60.5 142.5 Q49 191 49 250 Q49 377 105 444.5 Q161 512 266 512 Q314 512 347.5 504.5 Q381 497 408 483 L385 414 Q362 427 334 434.5 Q306 442 274 442 Q132 442 132 250 Q132 212 139.5 177.5 Q147 143 164.5 116.5 Q182 90 210.5 74 Q239 58 281 58 Q317 58 345.5 69 Q374 80 392 94 L418 33 Z M237 732 L269 732 L380 550 L308 550 L269 616 L248 674 L226 616 L181 550 L114 550 L237 732 Z " />
<glyph glyph-name="Ccaron" unicode="&#x10c;" horiz-adv-x="571" d="M533 29 Q503 6 457 -3 Q411 -12 359 -12 Q296 -12 241 9.5 Q186 31 145 75 Q104 119 80 187.5 Q56 256 56 350 Q56 448 82.5 516.5 Q109 585 152.5 628.5 Q196 672 250 692 Q304 712 360 712 Q420 712 458 705.5 Q496 699 523 688 L503 615 Q455 638 366 638 Q325 638 285 623 Q245 608 213.5 574 Q182 540 163 485 Q144 430 144 350 Q144 278 162 224 Q180 170 211.5 134 Q243 98 285.5 80 Q328 62 378 62 Q423 62 456.5 71 Q490 80 513 94 L533 29 Z M382 746 L324 746 L197 849 L197 870 L279 870 L338 820 L355 786 L374 819 L437 870 L515 870 L515 848 L382 746 Z " />
<glyph glyph-name="ccaron" unicode="&#x10d;" horiz-adv-x="451" d="M418 33 Q388 11 347 -0.5 Q306 -12 261 -12 Q203 -12 163 6.5 Q123 25 97.5 59.5 Q72 94 60.5 142.5 Q49 191 49 250 Q49 377 105 444.5 Q161 512 266 512 Q314 512 347.5 504.5 Q381 497 408 483 L385 414 Q362 427 334 434.5 Q306 442 274 442 Q132 442 132 250 Q132 212 139.5 177.5 Q147 143 164.5 116.5 Q182 90 210.5 74 Q239 58 281 58 Q317 58 345.5 69 Q374 80 392 94 L418 33 Z M270 550 L233 550 L118 732 L196 732 L235 666 L256 608 L278 666 L323 732 L393 732 L270 550 Z " />
<glyph glyph-name="Dcaron" unicode="&#x10e;" horiz-adv-x="654" d="M85 700 Q104 703 127.5 704.5 Q151 706 176.5 706.5 Q202 707 226.5 707.5 Q251 708 272 708 Q356 708 417.5 682 Q479 656 519 609.5 Q559 563 578.5 498 Q598 433 598 355 Q598 284 579.5 218.5 Q561 153 521 102.5 Q481 52 417 21.5 Q353 -9 262 -9 Q246 -9 220.5 -8.5 Q195 -8 168 -6.5 Q141 -5 118 -4 Q95 -3 85 -1 L85 700 Z M274 634 Q261 634 245.5 634 Q230 634 215 633 Q200 632 187.5 631 Q175 630 168 629 L168 69 Q173 68 187 67.5 Q201 67 216 66.5 Q231 66 245 65.5 Q259 65 264 65 Q334 65 381.5 89 Q429 113 457.5 153.5 Q486 194 498 246.5 Q510 299 510 355 Q510 404 499 453.5 Q488 503 461 543 Q434 583 388.5 608.5 Q343 634 274 634 Z M306 746 L248 746 L121 849 L121 870 L203 870 L262 820 L279 786 L298 819 L361 870 L439 870 L439 848 L306 746 Z " />
<glyph glyph-name="dcaron" unicode="&#x10f;" horiz-adv-x="589" d="M461 172 Q461 121 462 79.5 Q463 38 471 -2 L417 -2 L397 69 L393 69 Q373 34 335 11 Q297 -12 246 -12 Q146 -12 97.5 51 Q49 114 49 248 Q49 376 109.5 442.5 Q170 509 276 509 Q313 509 334.5 505 Q356 501 381 492 L381 700 L461 700 L461 172 Z M259 58 Q310 58 340 84.5 Q370 111 381 165 L381 413 Q363 427 340 433 Q317 439 279 439 Q210 439 171 393.5 Q132 348 132 248 Q132 207 138.5 172 Q145 137 160 112 Q175 87 199.5 72.5 Q224 58 259 58 Z M614 700 Q612 671 602 640.5 Q592 610 579.5 584 Q567 558 554 538 Q541 518 532 509 L499 527 Q516 563 525 608.5 Q534 654 534 700 L614 700 Z " />
<glyph glyph-name="Dcroat" unicode="&#x110;" horiz-adv-x="658" d="M-1 392 L89 392 L89 700 Q108 703 131.5 704.5 Q155 706 180.5 706.5 Q206 707 230.5 707.5 Q255 708 276 708 Q360 708 421.5 682 Q483 656 523 609.5 Q563 563 582.5 498 Q602 433 602 355 Q602 284 583.5 218.5 Q565 153 525 102.5 Q485 52 421 21.5 Q357 -9 266 -9 Q250 -9 224.5 -8.5 Q199 -8 172 -6.5 Q145 -5 122 -4 Q99 -3 89 -1 L89 332 L-1 332 L-1 392 Z M278 634 Q265 634 249.5 634 Q234 634 219 633 Q204 632 191.5 631 Q179 630 172 629 L172 392 L319 392 L319 332 L172 332 L172 69 Q177 68 191 67.5 Q205 67 220 66.5 Q235 66 249 65.5 Q263 65 268 65 Q338 65 385.5 89 Q433 113 461.5 153.5 Q490 194 502 246.5 Q514 299 514 355 Q514 404 503 453.5 Q492 503 465 543 Q438 583 392.5 608.5 Q347 634 278 634 Z " />
<glyph glyph-name="dslash" unicode="&#x111;" horiz-adv-x="540" d="M461 632 L542 632 L542 572 L461 572 L461 172 Q461 121 462 79.5 Q463 38 471 -2 L417 -2 L397 69 L393 69 Q373 34 335 11 Q297 -12 246 -12 Q146 -12 97.5 51 Q49 114 49 248 Q49 376 109.5 442.5 Q170 509 276 509 Q313 509 334.5 505 Q356 501 381 492 L381 572 L224 572 L224 632 L381 632 L381 700 L461 700 L461 632 Z M259 58 Q310 58 340 84.5 Q370 111 381 165 L381 414 Q363 428 340 433.5 Q317 439 279 439 Q210 439 171 393.5 Q132 348 132 248 Q132 207 138.5 172 Q145 137 160 111.5 Q175 86 199.5 72 Q224 58 259 58 Z " />
<glyph glyph-name="Emacron" unicode="&#x112;" horiz-adv-x="536" d="M85 700 L466 700 L466 626 L168 626 L168 397 L441 397 L441 323 L168 323 L168 74 L471 74 L471 0 L85 0 L85 700 Z M109 843 L425 843 L425 781 L109 781 L109 843 Z " />
<glyph glyph-name="emacron" unicode="&#x113;" horiz-adv-x="508" d="M442 40 Q412 16 366.5 2 Q321 -12 270 -12 Q213 -12 171 6.5 Q129 25 102 59.5 Q75 94 62 142 Q49 190 49 250 Q49 378 106 445 Q163 512 269 512 Q303 512 337 504.5 Q371 497 398 476 Q425 455 442 416.5 Q459 378 459 315 Q459 282 453 242 L132 242 Q132 198 141 164 Q150 130 169 106.5 Q188 83 218.5 70.5 Q249 58 293 58 Q327 58 361 70 Q395 82 412 98 L442 40 Z M270 442 Q211 442 175.5 411 Q140 380 133 305 L381 305 Q381 381 352 411.5 Q323 442 270 442 Z M107 643 L403 643 L403 581 L107 581 L107 643 Z " />
<glyph glyph-name="Edotaccent" unicode="&#x116;" horiz-adv-x="536" d="M85 700 L466 700 L466 626 L168 626 L168 397 L441 397 L441 323 L168 323 L168 74 L471 74 L471 0 L85 0 L85 700 Z M212 797 Q212 818 228.5 833.5 Q245 849 274 849 Q303 849 320.5 833.5 Q338 818 338 797 Q338 774 320.5 759 Q303 744 274 744 Q245 744 228.5 759 Q212 774 212 797 Z " />
<glyph glyph-name="edotaccent" unicode="&#x117;" horiz-adv-x="508" d="M442 40 Q412 16 366.5 2 Q321 -12 270 -12 Q213 -12 171 6.5 Q129 25 102 59.5 Q75 94 62 142 Q49 190 49 250 Q49 378 106 445 Q163 512 269 512 Q303 512 337 504.5 Q371 497 398 476 Q425 455 442 416.5 Q459 378 459 315 Q459 282 453 242 L132 242 Q132 198 141 164 Q150 130 169 106.5 Q188 83 218.5 70.5 Q249 58 293 58 Q327 58 361 70 Q395 82 412 98 L442 40 Z M270 442 Q211 442 175.5 411 Q140 380 133 305 L381 305 Q381 381 352 411.5 Q323 442 270 442 Z M216 652 Q216 675 231.5 691.5 Q247 708 271 708 Q295 708 312 691.5 Q329 675 329 652 Q329 629 312 614 Q295 599 271 599 Q247 599 231.5 614 Q216 629 216 652 Z " />
<glyph glyph-name="Eogonek" unicode="&#x118;" horiz-adv-x="536" d="M85 700 L466 700 L466 626 L168 626 L168 397 L441 397 L441 323 L168 323 L168 74 L471 74 L471 0 L435 0 Q409 -16 393.5 -37 Q378 -58 378 -87 Q378 -107 391 -122.5 Q404 -138 429 -138 Q448 -138 469 -128 L480 -171 Q465 -183 440 -189 Q415 -195 394 -195 Q349 -195 322 -171 Q295 -147 295 -106 Q295 -71 316 -44 Q337 -17 375 0 L85 0 L85 700 Z " />
<glyph glyph-name="eogonek" unicode="&#x119;" horiz-adv-x="508" d="M442 40 Q431 31 418 24 Q405 17 391 11 Q357 -6 338 -30.5 Q319 -55 318 -87 Q319 -108 332.5 -123 Q346 -138 371 -139 Q390 -138 411 -129 L422 -172 Q407 -184 381.5 -189.5 Q356 -195 335 -195 Q290 -194 263.5 -170.5 Q237 -147 236 -106 Q236 -76 251 -52 Q266 -28 292 -11 Q287 -12 281 -12 Q275 -12 270 -12 Q213 -12 171 6.5 Q129 25 102 59.5 Q75 94 62 142 Q49 190 49 250 Q49 378 106 445 Q163 512 269 512 Q303 512 337 504.5 Q371 497 398 476 Q425 455 442 416.5 Q459 378 459 315 Q459 282 453 242 L132 242 Q132 198 141 164 Q150 130 169 106 Q188 82 218.5 70 Q249 58 293 58 Q327 58 361 70 Q395 82 412 98 L442 40 Z M270 442 Q211 442 175.5 411 Q140 380 133 305 L381 305 Q381 381 352 411.5 Q323 442 270 442 Z " />
<glyph glyph-name="Ecaron" unicode="&#x11a;" horiz-adv-x="536" d="M85 700 L466 700 L466 626 L168 626 L168 397 L441 397 L441 323 L168 323 L168 74 L471 74 L471 0 L85 0 L85 700 Z M294 746 L236 746 L109 849 L109 870 L191 870 L250 820 L267 786 L286 819 L349 870 L427 870 L427 848 L294 746 Z " />
<glyph glyph-name="ecaron" unicode="&#x11b;" horiz-adv-x="508" d="M442 40 Q412 16 366.5 2 Q321 -12 270 -12 Q213 -12 171 6.5 Q129 25 102 59.5 Q75 94 62 142 Q49 190 49 250 Q49 378 106 445 Q163 512 269 512 Q303 512 337 504.5 Q371 497 398 476 Q425 455 442 416.5 Q459 378 459 315 Q459 282 453 242 L132 242 Q132 198 141 164 Q150 130 169 106.5 Q188 83 218.5 70.5 Q249 58 293 58 Q327 58 361 70 Q395 82 412 98 L442 40 Z M270 442 Q211 442 175.5 411 Q140 380 133 305 L381 305 Q381 381 352 411.5 Q323 442 270 442 Z M279 550 L242 550 L127 732 L205 732 L244 666 L265 608 L287 666 L332 732 L402 732 L279 550 Z " />
<glyph glyph-name="Gcircumflex" unicode="&#x11c;" horiz-adv-x="612" d="M321 349 L556 349 L556 41 Q540 29 517.5 19 Q495 9 469.5 2 Q444 -5 416.5 -8.5 Q389 -12 363 -12 Q296 -12 240 9.5 Q184 31 143 75.5 Q102 120 79 188.5 Q56 257 56 350 Q56 447 84 516 Q112 585 157 628.5 Q202 672 258 692 Q314 712 370 712 Q430 712 469 705.5 Q508 699 535 688 L514 615 Q466 638 377 638 Q335 638 293.5 623.5 Q252 609 219 575 Q186 541 165 486 Q144 431 144 350 Q144 276 161 222 Q178 168 208.5 132.5 Q239 97 282 79.5 Q325 62 376 62 Q440 62 485 87 L485 282 L321 302 L321 349 Z M331 870 L391 870 L518 768 L518 747 L437 747 L377 796 L360 831 L341 797 L277 747 L198 747 L198 769 L331 870 Z " />
<glyph glyph-name="gcircumflex" unicode="&#x11d;" horiz-adv-x="537" d="M460 -23 Q460 -120 408.5 -166 Q357 -212 256 -212 Q196 -212 159.5 -204.5 Q123 -197 97 -185 L118 -117 Q141 -126 169 -134 Q197 -142 242 -142 Q284 -142 310.5 -134.5 Q337 -127 353 -109.5 Q369 -92 375 -64.5 Q381 -37 381 1 L381 49 L377 49 Q357 20 326 4.5 Q295 -11 245 -11 Q144 -11 96.5 52 Q49 115 49 248 Q49 376 110 442.5 Q171 509 290 509 Q347 509 387.5 500 Q428 491 460 479 L460 -23 Z M259 59 Q310 59 339 84.5 Q368 110 380 164 L380 420 Q340 439 278 439 Q210 439 171 393 Q132 347 132 249 Q132 207 139 172 Q146 137 161 112 Q176 87 200 73 Q224 59 259 59 Z M260 732 L292 732 L403 550 L331 550 L292 616 L271 674 L249 616 L204 550 L137 550 L260 732 Z " />
<glyph glyph-name="Gbreve" unicode="&#x11e;" horiz-adv-x="612" d="M321 349 L556 349 L556 41 Q540 29 517.5 19 Q495 9 469.5 2 Q444 -5 416.5 -8.5 Q389 -12 363 -12 Q296 -12 240 9.5 Q184 31 143 75.5 Q102 120 79 188.5 Q56 257 56 350 Q56 447 84 516 Q112 585 157 628.5 Q202 672 258 692 Q314 712 370 712 Q430 712 469 705.5 Q508 699 535 688 L514 615 Q466 638 377 638 Q335 638 293.5 623.5 Q252 609 219 575 Q186 541 165 486 Q144 431 144 350 Q144 276 161 222 Q178 168 208.5 132.5 Q239 97 282 79.5 Q325 62 376 62 Q440 62 485 87 L485 282 L321 302 L321 349 Z M223 871 Q240 837 275 818.5 Q310 800 357 800 Q405 800 438 821 Q471 842 485 871 L525 852 Q516 823 499.5 800.5 Q483 778 460.5 762 Q438 746 411 738 Q384 730 356 730 Q329 730 302.5 737 Q276 744 253 758 Q230 772 211 794.5 Q192 817 180 847 L223 871 Z " />
<glyph glyph-name="gbreve" unicode="&#x11f;" horiz-adv-x="537" d="M460 -23 Q460 -120 408.5 -166 Q357 -212 256 -212 Q196 -212 159.5 -204.5 Q123 -197 97 -185 L118 -117 Q141 -126 169 -134 Q197 -142 242 -142 Q284 -142 310.5 -134.5 Q337 -127 353 -109.5 Q369 -92 375 -64.5 Q381 -37 381 1 L381 49 L377 49 Q357 20 326 4.5 Q295 -11 245 -11 Q144 -11 96.5 52 Q49 115 49 248 Q49 376 110 442.5 Q171 509 290 509 Q347 509 387.5 500 Q428 491 460 479 L460 -23 Z M259 59 Q310 59 339 84.5 Q368 110 380 164 L380 420 Q340 439 278 439 Q210 439 171 393 Q132 347 132 249 Q132 207 139 172 Q146 137 161 112 Q176 87 200 73 Q224 59 259 59 Z M161 720 Q179 684 209 663.5 Q239 643 273 643 Q307 643 334.5 663 Q362 683 379 720 L421 702 Q418 678 405.5 654.5 Q393 631 373.5 613 Q354 595 328 584 Q302 573 272 573 Q244 573 219 581.5 Q194 590 173.5 606.5 Q153 623 138 645.5 Q123 668 116 697 L161 720 Z " />
<glyph glyph-name="Gcommaaccent" unicode="&#x122;" horiz-adv-x="612" d="M321 349 L556 349 L556 41 Q540 29 517.5 19 Q495 9 469.5 2 Q444 -5 416.5 -8.5 Q389 -12 363 -12 Q296 -12 240 9.5 Q184 31 143 75.5 Q102 120 79 188.5 Q56 257 56 350 Q56 447 84 516 Q112 585 157 628.5 Q202 672 258 692 Q314 712 370 712 Q430 712 469 705.5 Q508 699 535 688 L514 615 Q466 638 377 638 Q335 638 293.5 623.5 Q252 609 219 575 Q186 541 165 486 Q144 431 144 350 Q144 276 161 222 Q178 168 208.5 132.5 Q239 97 282 79.5 Q325 62 376 62 Q440 62 485 87 L485 282 L321 302 L321 349 Z M294 -102 Q294 -81 309.5 -68 Q325 -55 345 -55 Q370 -55 389.5 -72.5 Q409 -90 409 -130 Q409 -156 400 -175.5 Q391 -195 378.5 -209.5 Q366 -224 352.5 -232.5 Q339 -241 329 -245 L301 -213 Q321 -202 333 -185 Q345 -168 345 -144 Q341 -145 335 -145 Q317 -145 305.5 -133 Q294 -121 294 -102 Z " />
<glyph glyph-name="gcommaaccent" unicode="&#x123;" horiz-adv-x="537" d="M460 -23 Q460 -120 408.5 -166 Q357 -212 256 -212 Q196 -212 159.5 -204.5 Q123 -197 97 -185 L118 -117 Q141 -126 169 -134 Q197 -142 242 -142 Q284 -142 310.5 -134.5 Q337 -127 353 -109.5 Q369 -92 375 -64.5 Q381 -37 381 1 L381 49 L377 49 Q357 20 326 4.5 Q295 -11 245 -11 Q144 -11 96.5 52 Q49 115 49 248 Q49 376 110 442.5 Q171 509 290 509 Q347 509 387.5 500 Q428 491 460 479 L460 -23 Z M259 59 Q310 59 339 84.5 Q368 110 380 164 L380 420 Q340 439 278 439 Q210 439 171 393 Q132 347 132 249 Q132 207 139 172 Q146 137 161 112 Q176 87 200 73 Q224 59 259 59 Z M345.004 608.994 Q345.004 587.995 329.505 574.996 Q314.006 561.997 294.007 561.997 Q269.008 561.997 249.509 579.496 Q230.011 596.995 230.011 636.992 Q230.011 662.99 239.01 682.489 Q248.01 701.988 260.509 716.487 Q273.008 730.986 286.507 739.486 Q300.006 747.985 310.006 751.985 L338.004 719.987 Q318.005 708.988 306.006 691.989 Q294.007 674.99 294.007 650.991 Q298.007 651.991 304.006 651.991 Q322.005 651.991 333.504 639.992 Q345.004 627.993 345.004 608.994 Z " />
<glyph glyph-name="Hcircumflex" unicode="&#x124;" horiz-adv-x="672" d="M504 321 L168 321 L168 0 L85 0 L85 700 L168 700 L168 395 L504 395 L504 700 L587 700 L587 0 L504 0 L504 321 Z M307 870 L367 870 L494 768 L494 747 L413 747 L353 796 L336 831 L317 797 L253 747 L174 747 L174 769 L307 870 Z " />
<glyph glyph-name="hcircumflex" unicode="&#x125;" horiz-adv-x="547" d="M398 0 L398 285 Q398 324 393.5 353.5 Q389 383 377 402.5 Q365 422 344.5 432 Q324 442 291 442 Q244 442 206 411.5 Q168 381 157 333 L157 0 L77 0 L77 700 L157 700 L157 444 L161 444 Q187 475 223.5 493.5 Q260 512 314 512 Q356 512 387 502.5 Q418 493 438.5 469 Q459 445 468.5 404.5 Q478 364 478 302 L478 0 L398 0 Z M262 870 L322 870 L449 768 L449 747 L368 747 L308 796 L291 831 L272 797 L208 747 L129 747 L129 769 L262 870 Z " />
<glyph glyph-name="Hbar" unicode="&#x126;" horiz-adv-x="677" d="M9 587 L88 587 L88 700 L171 700 L171 587 L507 587 L507 700 L590 700 L590 587 L669 587 L669 523 L590 523 L590 0 L507 0 L507 321 L171 321 L171 0 L88 0 L88 523 L9 523 L9 587 Z M507 395 L507 523 L171 523 L171 395 L507 395 Z " />
<glyph glyph-name="hbar" unicode="&#x127;" horiz-adv-x="549" d="M-1 632 L79 632 L79 700 L159 700 L159 632 L319 632 L319 572 L159 572 L159 444 L163 444 Q189 475 225.5 493.5 Q262 512 316 512 Q358 512 389 502.5 Q420 493 440.5 469 Q461 445 470.5 404.5 Q480 364 480 302 L480 0 L400 0 L400 285 Q400 324 395.5 353.5 Q391 383 379 402.5 Q367 422 346.5 432 Q326 442 293 442 Q246 442 208 411.5 Q170 381 159 333 L159 0 L79 0 L79 572 L-1 572 L-1 632 Z " />
<glyph glyph-name="Imacron" unicode="&#x12a;" horiz-adv-x="291" d="M104 700 L187 700 L187 0 L104 0 L104 700 Z M-11 843 L305 843 L305 781 L-11 781 L-11 843 Z " />
<glyph glyph-name="imacron" unicode="&#x12b;" horiz-adv-x="268" d="M94 500 L174 500 L174 0 L94 0 L94 500 Z M-13 643 L283 643 L283 581 L-13 581 L-13 643 Z " />
<glyph glyph-name="Iogonek" unicode="&#x12e;" horiz-adv-x="291" d="M104 700 L187 700 L187 0 L173 0 Q147 -16 132 -37.5 Q117 -59 117 -88 Q117 -108 130 -123.5 Q143 -139 168 -139 Q187 -139 208 -129 L219 -172 Q204 -184 179 -189.5 Q154 -195 133 -195 Q88 -195 61 -171.5 Q34 -148 34 -107 Q34 -72 55 -44.5 Q76 -17 114 0 L104 0 L104 700 Z " />
<glyph glyph-name="iogonek" unicode="&#x12f;" horiz-adv-x="269" d="M94 500 L174 500 L174 0 L156 0 Q131 -16 116.5 -38 Q102 -60 102 -88 Q102 -108 115 -123.5 Q128 -139 153 -139 Q172 -139 193 -129 L204 -172 Q189 -184 164 -189.5 Q139 -195 117 -195 Q72 -195 45.5 -171.5 Q19 -148 19 -107 Q19 -72 40 -44.5 Q61 -17 99 0 L94 0 L94 500 Z M77 652 Q77 675 92.5 691.5 Q108 708 132 708 Q156 708 173 691.5 Q190 675 190 652 Q190 629 173 614 Q156 599 132 599 Q108 599 92.5 614 Q77 629 77 652 Z " />
<glyph glyph-name="Idot" unicode="&#x130;" horiz-adv-x="291" d="M104 700 L187 700 L187 0 L104 0 L104 700 Z M84 797 Q84 818 100.5 833.5 Q117 849 146 849 Q175 849 192.5 833.5 Q210 818 210 797 Q210 774 192.5 759 Q175 744 146 744 Q117 744 100.5 759 Q84 774 84 797 Z " />
<glyph glyph-name="dotlessi" unicode="&#x131;" horiz-adv-x="268" d="M94 500 L174 500 L174 0 L94 0 L94 500 Z " />
<glyph glyph-name="Jcircumflex" unicode="&#x134;" horiz-adv-x="291" d="M112 700 L195 700 L195 154 Q195 74 159.5 32 Q124 -10 52 -10 Q44 -10 32 -9 Q20 -8 8 -6 Q-4 -4 -15.5 -1 Q-27 2 -34 6 L-18 77 Q10 64 43 64 Q85 64 98.5 93.5 Q112 123 112 174 L112 700 Z M125 870 L185 870 L312 768 L312 747 L231 747 L171 796 L154 831 L135 797 L71 747 L-8 747 L-8 769 L125 870 Z " />
<glyph glyph-name="jcircumflex" unicode="&#x135;" horiz-adv-x="267" d="M93 500 L173 500 L173 -27 Q173 -120 141 -166 Q109 -212 39 -212 Q31 -212 24 -211.5 Q17 -211 9 -210 L9 -142 Q37 -142 53.5 -133.5 Q70 -125 79 -107 Q88 -89 90.5 -61.5 Q93 -34 93 3 L93 500 Z M124 732 L156 732 L267 550 L195 550 L156 616 L135 674 L113 616 L68 550 L1 550 L124 732 Z " />
<glyph glyph-name="Kcommaaccent" unicode="&#x136;" horiz-adv-x="610" d="M215 324 L168 324 L168 0 L85 0 L85 700 L168 700 L168 374 L213 388 L448 700 L544 700 L310 399 L268 366 L319 326 L575 0 L470 0 L215 324 Z M232 -102 Q232 -81 247.5 -68 Q263 -55 283 -55 Q308 -55 327.5 -72.5 Q347 -90 347 -130 Q347 -156 338 -175.5 Q329 -195 316.5 -209.5 Q304 -224 290.5 -232.5 Q277 -241 267 -245 L239 -213 Q259 -202 271 -185 Q283 -168 283 -144 Q279 -145 273 -145 Q255 -145 243.5 -133 Q232 -121 232 -102 Z " />
<glyph glyph-name="kcommaaccent" unicode="&#x137;" horiz-adv-x="479" d="M203 225 L157 225 L157 0 L77 0 L77 700 L157 700 L157 274 L198 288 L353 500 L446 500 L293 299 L252 266 L302 226 L469 0 L370 0 L203 225 Z M183 -102 Q183 -81 198.5 -68 Q214 -55 234 -55 Q259 -55 278.5 -72.5 Q298 -90 298 -130 Q298 -156 289 -175.5 Q280 -195 267.5 -209.5 Q255 -224 241.5 -232.5 Q228 -241 218 -245 L190 -213 Q210 -202 222 -185 Q234 -168 234 -144 Q230 -145 224 -145 Q206 -145 194.5 -133 Q183 -121 183 -102 Z " />
<glyph glyph-name="Lacute" unicode="&#x139;" horiz-adv-x="517" d="M499 0 L85 0 L85 700 L168 700 L168 74 L499 74 L499 0 Z M231 870 L345 870 L345 849 L182 752 L113 752 L231 870 Z " />
<glyph glyph-name="lacute" unicode="&#x13a;" horiz-adv-x="292" d="M166 123 Q166 88 178 73 Q190 58 212 58 Q225 58 240 60 Q255 62 274 69 L283 6 Q267 -2 238.5 -7 Q210 -12 189 -12 Q144 -12 115 13.5 Q86 39 86 100 L86 700 L166 700 L166 123 Z M208 870 L322 870 L322 849 L159 752 L90 752 L208 870 Z " />
<glyph glyph-name="Lcommaaccent" unicode="&#x13b;" horiz-adv-x="517" d="M499 0 L85 0 L85 700 L168 700 L168 74 L499 74 L499 0 Z M192 -102 Q192 -81 207.5 -68 Q223 -55 243 -55 Q268 -55 287.5 -72.5 Q307 -90 307 -130 Q307 -156 298 -175.5 Q289 -195 276.5 -209.5 Q264 -224 250.5 -232.5 Q237 -241 227 -245 L199 -213 Q219 -202 231 -185 Q243 -168 243 -144 Q239 -145 233 -145 Q215 -145 203.5 -133 Q192 -121 192 -102 Z " />
<glyph glyph-name="lcommaaccent" unicode="&#x13c;" horiz-adv-x="292" d="M166 123 Q166 88 178 73 Q190 58 212 58 Q225 58 240 60 Q255 62 274 69 L283 6 Q267 -2 238.5 -7 Q210 -12 189 -12 Q144 -12 115 13.5 Q86 39 86 100 L86 700 L166 700 L166 123 Z M117 -102 Q117 -81 132.5 -68 Q148 -55 168 -55 Q193 -55 212.5 -72.5 Q232 -90 232 -130 Q232 -156 223 -175.5 Q214 -195 201.5 -209.5 Q189 -224 175.5 -232.5 Q162 -241 152 -245 L124 -213 Q144 -202 156 -185 Q168 -168 168 -144 Q164 -145 158 -145 Q140 -145 128.5 -133 Q117 -121 117 -102 Z " />
<glyph glyph-name="Lcaron" unicode="&#x13d;" horiz-adv-x="517" d="M499 0 L85 0 L85 700 L168 700 L168 74 L499 74 L499 0 Z M429 700 Q427 671 417 640.5 Q407 610 394.5 584 Q382 558 369 538 Q356 518 347 509 L314 527 Q331 563 340 608.5 Q349 654 349 700 L429 700 Z " />
<glyph glyph-name="lcaron" unicode="&#x13e;" horiz-adv-x="292" d="M166 123 Q166 88 178 73 Q190 58 212 58 Q225 58 240 60 Q255 62 274 69 L283 6 Q267 -2 238.5 -7 Q210 -12 189 -12 Q144 -12 115 13.5 Q86 39 86 100 L86 700 L166 700 L166 123 Z M321 700 Q319 671 309 640.5 Q299 610 286.5 584 Q274 558 261 538 Q248 518 239 509 L206 527 Q223 563 232 608.5 Q241 654 241 700 L321 700 Z " />
<glyph glyph-name="Lslash" unicode="&#x141;" horiz-adv-x="517" d="M15 287 L85 342 L85 700 L168 700 L168 407 L275 491 L275 411 L168 329 L168 74 L499 74 L499 0 L85 0 L85 265 L15 211 L15 287 Z " />
<glyph glyph-name="lslash" unicode="&#x142;" horiz-adv-x="292" d="M10 285 L86 344 L86 700 L166 700 L166 407 L270 489 L270 409 L166 329 L166 123 Q166 88 178 73 Q190 58 212 58 Q225 58 240 60 Q255 62 274 69 L283 6 Q267 -2 238.5 -7 Q210 -12 189 -12 Q144 -12 115 13.5 Q86 39 86 100 L86 267 L10 209 L10 285 Z " />
<glyph glyph-name="Nacute" unicode="&#x143;" horiz-adv-x="673" d="M211 458 L157 559 L153 559 L163 458 L163 0 L85 0 L85 711 L129 711 L464 244 L516 148 L521 148 L510 244 L510 700 L588 700 L588 -11 L544 -11 L211 458 Z M407 870 L521 870 L521 849 L358 752 L289 752 L407 870 Z " />
<glyph glyph-name="nacute" unicode="&#x144;" horiz-adv-x="547" d="M398 0 L398 285 Q398 363 375.5 402.5 Q353 442 293 442 Q240 442 205.5 413.5 Q171 385 157 342 L157 0 L77 0 L77 500 L133 500 L148 439 L152 439 Q176 471 216.5 491.5 Q257 512 313 512 Q354 512 385 502.5 Q416 493 436.5 469 Q457 445 467.5 404.5 Q478 364 478 302 L478 0 L398 0 Z M300 720 L389 720 L389 699 L288 571 L241 571 L300 720 Z " />
<glyph glyph-name="Ncommaaccent" unicode="&#x145;" horiz-adv-x="673" d="M211 458 L157 559 L153 559 L163 458 L163 0 L85 0 L85 711 L129 711 L464 244 L516 148 L521 148 L510 244 L510 700 L588 700 L588 -11 L544 -11 L211 458 Z M279 -102 Q279 -81 294.5 -68 Q310 -55 330 -55 Q355 -55 374.5 -72.5 Q394 -90 394 -130 Q394 -156 385 -175.5 Q376 -195 363.5 -209.5 Q351 -224 337.5 -232.5 Q324 -241 314 -245 L286 -213 Q306 -202 318 -185 Q330 -168 330 -144 Q326 -145 320 -145 Q302 -145 290.5 -133 Q279 -121 279 -102 Z " />
<glyph glyph-name="ncommaaccent" unicode="&#x146;" horiz-adv-x="547" d="M398 0 L398 285 Q398 363 375.5 402.5 Q353 442 293 442 Q240 442 205.5 413.5 Q171 385 157 342 L157 0 L77 0 L77 500 L133 500 L148 439 L152 439 Q176 471 216.5 491.5 Q257 512 313 512 Q354 512 385 502.5 Q416 493 436.5 469 Q457 445 467.5 404.5 Q478 364 478 302 L478 0 L398 0 Z M216 -102 Q216 -81 231.5 -68 Q247 -55 267 -55 Q292 -55 311.5 -72.5 Q331 -90 331 -130 Q331 -156 322 -175.5 Q313 -195 300.5 -209.5 Q288 -224 274.5 -232.5 Q261 -241 251 -245 L223 -213 Q243 -202 255 -185 Q267 -168 267 -144 Q263 -145 257 -145 Q239 -145 227.5 -133 Q216 -121 216 -102 Z " />
<glyph glyph-name="Ncaron" unicode="&#x147;" horiz-adv-x="673" d="M211 458 L157 559 L153 559 L163 458 L163 0 L85 0 L85 711 L129 711 L464 244 L516 148 L521 148 L510 244 L510 700 L588 700 L588 -11 L544 -11 L211 458 Z M364 746 L306 746 L179 849 L179 870 L261 870 L320 820 L337 786 L356 819 L419 870 L497 870 L497 848 L364 746 Z " />
<glyph glyph-name="ncaron" unicode="&#x148;" horiz-adv-x="547" d="M398 0 L398 285 Q398 363 375.5 402.5 Q353 442 293 442 Q240 442 205.5 413.5 Q171 385 157 342 L157 0 L77 0 L77 500 L133 500 L148 439 L152 439 Q176 471 216.5 491.5 Q257 512 313 512 Q354 512 385 502.5 Q416 493 436.5 469 Q457 445 467.5 404.5 Q478 364 478 302 L478 0 L398 0 Z M289 550 L252 550 L137 732 L215 732 L254 666 L275 608 L297 666 L342 732 L412 732 L289 550 Z " />
<glyph glyph-name="Omacron" unicode="&#x14c;" horiz-adv-x="684" d="M56 350 Q56 525 130 618.5 Q204 712 341 712 Q415 712 469 686 Q523 660 558.5 612.5 Q594 565 611 498.5 Q628 432 628 350 Q628 175 553.5 81.5 Q479 -12 341 -12 Q268 -12 214.5 14 Q161 40 125.5 87.5 Q90 135 73 201.5 Q56 268 56 350 Z M144 350 Q144 292 155.5 240 Q167 188 191 148.5 Q215 109 252.5 85.5 Q290 62 341 62 Q434 62 487 132.5 Q540 203 540 350 Q540 407 528.5 459.5 Q517 512 492.5 551.5 Q468 591 430.5 614.5 Q393 638 341 638 Q249 638 196.5 567.5 Q144 497 144 350 Z M190 843 L506 843 L506 781 L190 781 L190 843 Z " />
<glyph glyph-name="omacron" unicode="&#x14d;" horiz-adv-x="536" d="M49 250 Q49 377 105.5 444.5 Q162 512 268 512 Q324 512 365.5 493.5 Q407 475 434 440.5 Q461 406 474 357.5 Q487 309 487 250 Q487 123 430.5 55.5 Q374 -12 268 -12 Q212 -12 170.5 6.5 Q129 25 102 59.5 Q75 94 62 142.5 Q49 191 49 250 Z M132 250 Q132 212 139.5 177 Q147 142 163 116 Q179 90 205 74 Q231 58 268 58 Q404 57 404 250 Q404 289 396.5 324 Q389 359 373 385 Q357 411 331 426.5 Q305 442 268 442 Q132 443 132 250 Z M120 643 L416 643 L416 581 L120 581 L120 643 Z " />
<glyph glyph-name="Ohungarumlaut" unicode="&#x150;" horiz-adv-x="684" d="M56 350 Q56 525 130 618.5 Q204 712 341 712 Q415 712 469 686 Q523 660 558.5 612.5 Q594 565 611 498.5 Q628 432 628 350 Q628 175 553.5 81.5 Q479 -12 341 -12 Q268 -12 214.5 14 Q161 40 125.5 87.5 Q90 135 73 201.5 Q56 268 56 350 Z M144 350 Q144 292 155.5 240 Q167 188 191 148.5 Q215 109 252.5 85.5 Q290 62 341 62 Q434 62 487 132.5 Q540 203 540 350 Q540 407 528.5 459.5 Q517 512 492.5 551.5 Q468 591 430.5 614.5 Q393 638 341 638 Q249 638 196.5 567.5 Q144 497 144 350 Z M306 850 L399 850 L399 834 L299 741 L242 741 L306 850 Z M468 850 L567 850 L567 834 L424 741 L366 741 L468 850 Z " />
<glyph glyph-name="ohungarumlaut" unicode="&#x151;" horiz-adv-x="536" d="M49 250 Q49 377 105.5 444.5 Q162 512 268 512 Q324 512 365.5 493.5 Q407 475 434 440.5 Q461 406 474 357.5 Q487 309 487 250 Q487 123 430.5 55.5 Q374 -12 268 -12 Q212 -12 170.5 6.5 Q129 25 102 59.5 Q75 94 62 142.5 Q49 191 49 250 Z M132 250 Q132 212 139.5 177 Q147 142 163 116 Q179 90 205 74 Q231 58 268 58 Q404 57 404 250 Q404 289 396.5 324 Q389 359 373 385 Q357 411 331 426.5 Q305 442 268 442 Q132 443 132 250 Z M211 700 L289 700 L289 684 L218 571 L176 571 L211 700 Z M357 700 L443 700 L443 684 L329 571 L284 571 L357 700 Z " />
<glyph glyph-name="OE" unicode="&#x152;" horiz-adv-x="932" d="M481 618 Q453 629 416 633.5 Q379 638 341 638 Q249 638 196.5 567.5 Q144 497 144 350 Q144 292 155.5 240 Q167 188 192 148.5 Q217 109 256 85.5 Q295 62 349 62 Q378 62 408.5 64 Q439 66 481 79 L481 618 Z M481 0 Q456 -5 421 -8.5 Q386 -12 341 -12 Q268 -12 214.5 14 Q161 40 125.5 87.5 Q90 135 73 201.5 Q56 268 56 350 Q56 525 130 618.5 Q204 712 341 712 Q388 712 418.5 708.5 Q449 705 481 700 L862 700 L862 626 L564 626 L564 397 L837 397 L837 323 L564 323 L564 74 L867 74 L867 0 L481 0 Z " />
<glyph glyph-name="oe" unicode="&#x153;" horiz-adv-x="858" d="M132 250 Q132 212 139.5 177 Q147 142 163 115.5 Q179 89 205 73.5 Q231 58 268 58 Q403 57 403 250 Q403 289 396 324 Q389 359 373 385 Q357 411 331 426.5 Q305 442 268 442 Q132 443 132 250 Z M442 81 Q415 36 371.5 12 Q328 -12 268 -12 Q212 -12 170.5 6.5 Q129 25 102 59.5 Q75 94 62 142.5 Q49 191 49 250 Q49 377 105.5 444.5 Q162 512 268 512 Q331 512 374.5 486 Q418 460 444 420 Q470 462 514.5 487 Q559 512 619 512 Q653 512 687 504.5 Q721 497 748 476 Q775 455 792 416.5 Q809 378 809 315 Q809 298 808 280 Q807 262 804 242 L481 242 Q481 198 490 163.5 Q499 129 518 105 Q537 81 568 69 Q599 57 643 57 Q678 57 711.5 69.5 Q745 82 762 98 L792 40 Q762 16 716.5 2 Q671 -12 620 -12 Q558 -12 513 13 Q468 38 442 81 Z M620 443 Q562 443 526 411.5 Q490 380 483 305 L731 305 L731 314 Q731 383 701 413 Q671 443 620 443 Z " />
<glyph glyph-name="Racute" unicode="&#x154;" horiz-adv-x="595" d="M85 693 Q123 700 172.5 704 Q222 708 263 708 Q309 708 350.5 698 Q392 688 423.5 665 Q455 642 474 605 Q493 568 493 515 Q493 433 448 382 Q403 331 334 314 L382 277 L556 0 L459 0 L266 302 L168 317 L168 0 L85 0 L85 693 Z M265 636 Q252 636 238 636 Q224 636 211 635 Q198 634 186.5 633 Q175 632 168 630 L168 372 L246 372 Q315 372 360 406 Q405 440 405 512 Q405 566 368 601 Q331 636 265 636 Z M320 870 L434 870 L434 849 L271 752 L202 752 L320 870 Z " />
<glyph glyph-name="racute" unicode="&#x155;" horiz-adv-x="340" d="M313 423 Q283 433 256 433 Q213 433 188 409.5 Q163 386 157 350 L157 0 L77 0 L77 500 L133 500 L148 439 L152 439 Q171 473 197.5 491.5 Q224 510 265 510 Q294 510 330 500 L313 423 Z M195 720 L284 720 L284 699 L183 571 L136 571 L195 720 Z " />
<glyph glyph-name="Rcommaaccent" unicode="&#x156;" horiz-adv-x="595" d="M85 693 Q123 700 172.5 704 Q222 708 263 708 Q309 708 350.5 698 Q392 688 423.5 665 Q455 642 474 605 Q493 568 493 515 Q493 433 448 382 Q403 331 334 314 L382 277 L556 0 L459 0 L266 302 L168 317 L168 0 L85 0 L85 693 Z M265 636 Q252 636 238 636 Q224 636 211 635 Q198 634 186.5 633 Q175 632 168 630 L168 372 L246 372 Q315 372 360 406 Q405 440 405 512 Q405 566 368 601 Q331 636 265 636 Z M239 -102 Q239 -81 254.5 -68 Q270 -55 290 -55 Q315 -55 334.5 -72.5 Q354 -90 354 -130 Q354 -156 345 -175.5 Q336 -195 323.5 -209.5 Q311 -224 297.5 -232.5 Q284 -241 274 -245 L246 -213 Q266 -202 278 -185 Q290 -168 290 -144 Q286 -145 280 -145 Q262 -145 250.5 -133 Q239 -121 239 -102 Z " />
<glyph glyph-name="rcommaaccent" unicode="&#x157;" horiz-adv-x="340" d="M313 423 Q283 433 256 433 Q213 433 188 409.5 Q163 386 157 350 L157 0 L77 0 L77 500 L133 500 L148 439 L152 439 Q171 473 197.5 491.5 Q224 510 265 510 Q294 510 330 500 L313 423 Z M85 -102 Q85 -81 100.5 -68 Q116 -55 136 -55 Q161 -55 180.5 -72.5 Q200 -90 200 -130 Q200 -156 191 -175.5 Q182 -195 169.5 -209.5 Q157 -224 143.5 -232.5 Q130 -241 120 -245 L92 -213 Q112 -202 124 -185 Q136 -168 136 -144 Q132 -145 126 -145 Q108 -145 96.5 -133 Q85 -121 85 -102 Z " />
<glyph glyph-name="Rcaron" unicode="&#x158;" horiz-adv-x="595" d="M85 693 Q123 700 172.5 704 Q222 708 263 708 Q309 708 350.5 698 Q392 688 423.5 665 Q455 642 474 605 Q493 568 493 515 Q493 433 448 382 Q403 331 334 314 L382 277 L556 0 L459 0 L266 302 L168 317 L168 0 L85 0 L85 693 Z M265 636 Q252 636 238 636 Q224 636 211 635 Q198 634 186.5 633 Q175 632 168 630 L168 372 L246 372 Q315 372 360 406 Q405 440 405 512 Q405 566 368 601 Q331 636 265 636 Z M277 746 L219 746 L92 849 L92 870 L174 870 L233 820 L250 786 L269 819 L332 870 L410 870 L410 848 L277 746 Z " />
<glyph glyph-name="rcaron" unicode="&#x159;" horiz-adv-x="340" d="M313 423 Q283 433 256 433 Q213 433 188 409.5 Q163 386 157 350 L157 0 L77 0 L77 500 L133 500 L148 439 L152 439 Q171 473 197.5 491.5 Q224 510 265 510 Q294 510 330 500 L313 423 Z M206 550 L169 550 L54 732 L132 732 L171 666 L192 608 L214 666 L259 732 L329 732 L206 550 Z " />
<glyph glyph-name="Sacute" unicode="&#x15a;" horiz-adv-x="531" d="M401 178 Q401 220 376 246.5 Q351 273 313.5 293.5 Q276 314 232 332 Q188 350 150.5 375.5 Q113 401 88 438.5 Q63 476 63 534 Q63 616 120 664 Q177 712 282 712 Q343 712 393 703 Q443 694 471 680 L446 607 Q423 618 378.5 628 Q334 638 278 638 Q212 638 179 608.5 Q146 579 146 539 Q146 500 171 474 Q196 448 233.5 427.5 Q271 407 315 387 Q359 367 396.5 340.5 Q434 314 459 277 Q484 240 484 185 Q484 140 468 104 Q452 68 421 42 Q390 16 346 2 Q302 -12 246 -12 Q171 -12 122 -0.5 Q73 11 46 25 L74 100 Q97 87 142 74.5 Q187 62 243 62 Q276 62 305 68.5 Q334 75 355 89.5 Q376 104 388.5 126 Q401 148 401 178 Z M346 870 L460 870 L460 849 L297 752 L228 752 L346 870 Z " />
<glyph glyph-name="sacute" unicode="&#x15b;" horiz-adv-x="421" d="M297 136 Q297 166 279 183 Q261 200 234.5 211.5 Q208 223 176.5 233.5 Q145 244 118.5 260.5 Q92 277 74 303 Q56 329 56 373 Q56 445 97 478.5 Q138 512 211 512 Q265 512 301.5 502.5 Q338 493 365 480 L346 414 Q323 425 290.5 433.5 Q258 442 221 442 Q177 442 156.5 427 Q136 412 136 375 Q136 349 154 334.5 Q172 320 198.5 308.5 Q225 297 256.5 286 Q288 275 314.5 257 Q341 239 359 211.5 Q377 184 377 139 Q377 107 366.5 79 Q356 51 334 31 Q312 11 279.5 -0.5 Q247 -12 203 -12 Q146 -12 106 -1 Q66 10 39 25 L63 93 Q86 80 123 69 Q160 58 198 58 Q241 58 269 75 Q297 92 297 136 Z M236 720 L325 720 L325 699 L224 571 L177 571 L236 720 Z " />
<glyph glyph-name="Scircumflex" unicode="&#x15c;" horiz-adv-x="531" d="M401 178 Q401 220 376 246.5 Q351 273 313.5 293.5 Q276 314 232 332 Q188 350 150.5 375.5 Q113 401 88 438.5 Q63 476 63 534 Q63 616 120 664 Q177 712 282 712 Q343 712 393 703 Q443 694 471 680 L446 607 Q423 618 378.5 628 Q334 638 278 638 Q212 638 179 608.5 Q146 579 146 539 Q146 500 171 474 Q196 448 233.5 427.5 Q271 407 315 387 Q359 367 396.5 340.5 Q434 314 459 277 Q484 240 484 185 Q484 140 468 104 Q452 68 421 42 Q390 16 346 2 Q302 -12 246 -12 Q171 -12 122 -0.5 Q73 11 46 25 L74 100 Q97 87 142 74.5 Q187 62 243 62 Q276 62 305 68.5 Q334 75 355 89.5 Q376 104 388.5 126 Q401 148 401 178 Z M252 870 L312 870 L439 768 L439 747 L358 747 L298 796 L281 831 L262 797 L198 747 L119 747 L119 769 L252 870 Z " />
<glyph glyph-name="scircumflex" unicode="&#x15d;" horiz-adv-x="421" d="M297 136 Q297 166 279 183 Q261 200 234.5 211.5 Q208 223 176.5 233.5 Q145 244 118.5 260.5 Q92 277 74 303 Q56 329 56 373 Q56 445 97 478.5 Q138 512 211 512 Q265 512 301.5 502.5 Q338 493 365 480 L346 414 Q323 425 290.5 433.5 Q258 442 221 442 Q177 442 156.5 427 Q136 412 136 375 Q136 349 154 334.5 Q172 320 198.5 308.5 Q225 297 256.5 286 Q288 275 314.5 257 Q341 239 359 211.5 Q377 184 377 139 Q377 107 366.5 79 Q356 51 334 31 Q312 11 279.5 -0.5 Q247 -12 203 -12 Q146 -12 106 -1 Q66 10 39 25 L63 93 Q86 80 123 69 Q160 58 198 58 Q241 58 269 75 Q297 92 297 136 Z M201 732 L233 732 L344 550 L272 550 L233 616 L212 674 L190 616 L145 550 L78 550 L201 732 Z " />
<glyph glyph-name="Scedilla" unicode="&#x15e;" horiz-adv-x="531" d="M401 178 Q401 220 376 246.5 Q351 273 313.5 293.5 Q276 314 232 332 Q188 350 150.5 375.5 Q113 401 88 438.5 Q63 476 63 534 Q63 616 120 664 Q177 712 282 712 Q343 712 393 703 Q443 694 471 680 L446 607 Q423 618 378.5 628 Q334 638 278 638 Q212 638 179 608.5 Q146 579 146 539 Q146 500 171 474 Q196 448 233.5 427.5 Q271 407 315 387 Q359 367 396.5 340.5 Q434 314 459 277 Q484 240 484 185 Q484 106 435 55 Q386 4 298 -8 L279 -43 Q321 -51 339.5 -69 Q358 -87 358 -118 Q358 -157 326 -182.5 Q294 -208 236 -208 Q225 -208 214 -207 Q203 -206 191 -204 L200 -165 Q206 -166 211 -166 Q216 -166 221 -166 Q243 -166 255.5 -162 Q268 -158 274.5 -152.5 Q281 -147 282.5 -140 Q284 -133 284 -127 Q284 -99 198 -90 L239 -12 Q167 -11 119.5 0 Q72 11 46 25 L74 100 Q97 87 142 74.5 Q187 62 243 62 Q276 62 305 68.5 Q334 75 355 89.5 Q376 104 388.5 126 Q401 148 401 178 Z " />
<glyph glyph-name="scedilla" unicode="&#x15f;" horiz-adv-x="421" d="M297 136 Q297 166 279 183 Q261 200 234.5 211.5 Q208 223 176.5 233.5 Q145 244 118.5 260.5 Q92 277 74 303 Q56 329 56 373 Q56 445 97 478.5 Q138 512 211 512 Q265 512 301.5 502.5 Q338 493 365 480 L346 415 Q323 426 290.5 434 Q258 442 221 442 Q177 442 156.5 427 Q136 412 136 375 Q136 349 154 334.5 Q172 320 198.5 308.5 Q225 297 256.5 286 Q288 275 314.5 257 Q341 239 359 211.5 Q377 184 377 139 Q377 80 342 39 Q307 -2 235 -10 L217 -43 Q259 -51 277.5 -69 Q296 -87 296 -118 Q296 -157 264 -182.5 Q232 -208 174 -208 Q163 -208 152 -207 Q141 -206 129 -204 L138 -165 Q144 -166 149 -166 Q154 -166 159 -166 Q181 -166 193.5 -162 Q206 -158 212.5 -152.5 Q219 -147 220.5 -140 Q222 -133 222 -127 Q222 -99 136 -90 L178 -11 Q131 -9 97 1 Q63 11 39 25 L63 92 Q86 80 123 69.5 Q160 59 198 59 Q241 59 269 75.5 Q297 92 297 136 Z " />
<glyph glyph-name="Scaron" unicode="&#x160;" horiz-adv-x="531" d="M401 178 Q401 220 376 246.5 Q351 273 313.5 293.5 Q276 314 232 332 Q188 350 150.5 375.5 Q113 401 88 438.5 Q63 476 63 534 Q63 616 120 664 Q177 712 282 712 Q343 712 393 703 Q443 694 471 680 L446 607 Q423 618 378.5 628 Q334 638 278 638 Q212 638 179 608.5 Q146 579 146 539 Q146 500 171 474 Q196 448 233.5 427.5 Q271 407 315 387 Q359 367 396.5 340.5 Q434 314 459 277 Q484 240 484 185 Q484 140 468 104 Q452 68 421 42 Q390 16 346 2 Q302 -12 246 -12 Q171 -12 122 -0.5 Q73 11 46 25 L74 100 Q97 87 142 74.5 Q187 62 243 62 Q276 62 305 68.5 Q334 75 355 89.5 Q376 104 388.5 126 Q401 148 401 178 Z M322 746 L264 746 L137 849 L137 870 L219 870 L278 820 L295 786 L314 819 L377 870 L455 870 L455 848 L322 746 Z " />
<glyph glyph-name="scaron" unicode="&#x161;" horiz-adv-x="421" d="M297 136 Q297 166 279 183 Q261 200 234.5 211.5 Q208 223 176.5 233.5 Q145 244 118.5 260.5 Q92 277 74 303 Q56 329 56 373 Q56 445 97 478.5 Q138 512 211 512 Q265 512 301.5 502.5 Q338 493 365 480 L346 414 Q323 425 290.5 433.5 Q258 442 221 442 Q177 442 156.5 427 Q136 412 136 375 Q136 349 154 334.5 Q172 320 198.5 308.5 Q225 297 256.5 286 Q288 275 314.5 257 Q341 239 359 211.5 Q377 184 377 139 Q377 107 366.5 79 Q356 51 334 31 Q312 11 279.5 -0.5 Q247 -12 203 -12 Q146 -12 106 -1 Q66 10 39 25 L63 93 Q86 80 123 69 Q160 58 198 58 Q241 58 269 75 Q297 92 297 136 Z M225 550 L188 550 L73 732 L151 732 L190 666 L211 608 L233 666 L278 732 L348 732 L225 550 Z " />
<glyph glyph-name="&amp;#x162;" unicode="&#x162;" horiz-adv-x="555" d="M537 626 L319 626 L319 0 L236 0 L236 626 L18 626 L18 700 L537 700 L537 626 Z M218 -102 Q218 -81 233.5 -68 Q249 -55 269 -55 Q294 -55 313.5 -72.5 Q333 -90 333 -130 Q333 -156 324 -175.5 Q315 -195 302.5 -209.5 Q290 -224 276.5 -232.5 Q263 -241 253 -245 L225 -213 Q245 -202 257 -185 Q269 -168 269 -144 Q265 -145 259 -145 Q241 -145 229.5 -133 Q218 -121 218 -102 Z " />
<glyph glyph-name="&amp;#x21a;" unicode="&#x21a;" horiz-adv-x="555" d="M537 626 L319 626 L319 0 L236 0 L236 626 L18 626 L18 700 L537 700 L537 626 Z M218 -102 Q218 -81 233.5 -68 Q249 -55 269 -55 Q294 -55 313.5 -72.5 Q333 -90 333 -130 Q333 -156 324 -175.5 Q315 -195 302.5 -209.5 Q290 -224 276.5 -232.5 Q263 -241 253 -245 L225 -213 Q245 -202 257 -185 Q269 -168 269 -144 Q265 -145 259 -145 Q241 -145 229.5 -133 Q218 -121 218 -102 Z " />
<glyph glyph-name="&amp;#x163;" unicode="&#x163;" horiz-adv-x="339" d="M11 500 L89 500 L89 599 L169 622 L169 500 L305 500 L305 430 L169 430 L169 153 Q169 101 182 79.5 Q195 58 226 58 Q252 58 270 63.5 Q288 69 310 78 L328 17 Q301 4 269 -4 Q237 -12 200 -12 Q139 -12 114 22.5 Q89 57 89 138 L89 430 L11 430 L11 500 Z M130 -102 Q130 -81 145.5 -68 Q161 -55 181 -55 Q206 -55 225.5 -72.5 Q245 -90 245 -130 Q245 -156 236 -175.5 Q227 -195 214.5 -209.5 Q202 -224 188.5 -232.5 Q175 -241 165 -245 L137 -213 Q157 -202 169 -185 Q181 -168 181 -144 Q177 -145 171 -145 Q153 -145 141.5 -133 Q130 -121 130 -102 Z " />
<glyph glyph-name="&amp;#x21b;" unicode="&#x21b;" horiz-adv-x="339" d="M11 500 L89 500 L89 599 L169 622 L169 500 L305 500 L305 430 L169 430 L169 153 Q169 101 182 79.5 Q195 58 226 58 Q252 58 270 63.5 Q288 69 310 78 L328 17 Q301 4 269 -4 Q237 -12 200 -12 Q139 -12 114 22.5 Q89 57 89 138 L89 430 L11 430 L11 500 Z M130 -102 Q130 -81 145.5 -68 Q161 -55 181 -55 Q206 -55 225.5 -72.5 Q245 -90 245 -130 Q245 -156 236 -175.5 Q227 -195 214.5 -209.5 Q202 -224 188.5 -232.5 Q175 -241 165 -245 L137 -213 Q157 -202 169 -185 Q181 -168 181 -144 Q177 -145 171 -145 Q153 -145 141.5 -133 Q130 -121 130 -102 Z " />
<glyph glyph-name="Tcaron" unicode="&#x164;" horiz-adv-x="555" d="M537 626 L319 626 L319 0 L236 0 L236 626 L18 626 L18 700 L537 700 L537 626 Z M304 746 L246 746 L119 849 L119 870 L201 870 L260 820 L277 786 L296 819 L359 870 L437 870 L437 848 L304 746 Z " />
<glyph glyph-name="tcaron" unicode="&#x165;" horiz-adv-x="339" d="M11 500 L89 500 L89 599 L169 622 L169 500 L305 500 L305 430 L169 430 L169 153 Q169 101 182 79.5 Q195 58 226 58 Q252 58 270 63.5 Q288 69 310 78 L328 17 Q301 4 269 -4 Q237 -12 200 -12 Q139 -12 114 22.5 Q89 57 89 138 L89 430 L11 430 L11 500 Z M312 714 Q310 685 300 654.5 Q290 624 277.5 598 Q265 572 252 552 Q239 532 230 523 L197 541 Q214 577 223 622.5 Q232 668 232 714 L312 714 Z " />
<glyph glyph-name="Umacron" unicode="&#x16a;" horiz-adv-x="652" d="M487 700 L567 700 L567 233 Q567 170 550.5 124 Q534 78 503.5 48.5 Q473 19 430 5 Q387 -9 335 -9 Q211 -9 148 47 Q85 103 85 217 L85 700 L168 700 L168 256 Q168 203 178.5 166.5 Q189 130 210 107.5 Q231 85 262.5 75 Q294 65 336 65 Q417 65 452 109.5 Q487 154 487 256 L487 700 Z M170 843 L486 843 L486 781 L170 781 L170 843 Z " />
<glyph glyph-name="umacron" unicode="&#x16b;" horiz-adv-x="539" d="M149 500 L149 215 Q149 176 153.5 146.5 Q158 117 169 97.5 Q180 78 199 68 Q218 58 247 58 Q274 58 295 66.5 Q316 75 332.5 90 Q349 105 361.5 124.5 Q374 144 382 166 L382 500 L462 500 L462 142 Q462 106 464.5 67.5 Q467 29 473 0 L418 0 L398 79 L393 79 Q370 40 331 14 Q292 -12 232 -12 Q192 -12 161.5 -2.5 Q131 7 110.5 31 Q90 55 79.5 95.5 Q69 136 69 198 L69 500 L149 500 Z M122 643 L418 643 L418 581 L122 581 L122 643 Z " />
<glyph glyph-name="Ubreve" unicode="&#x16c;" horiz-adv-x="652" d="M487 700 L567 700 L567 233 Q567 170 550.5 124 Q534 78 503.5 48.5 Q473 19 430 5 Q387 -9 335 -9 Q211 -9 148 47 Q85 103 85 217 L85 700 L168 700 L168 256 Q168 203 178.5 166.5 Q189 130 210 107.5 Q231 85 262.5 75 Q294 65 336 65 Q417 65 452 109.5 Q487 154 487 256 L487 700 Z M197 871 Q214 837 249 818.5 Q284 800 331 800 Q379 800 412 821 Q445 842 459 871 L499 852 Q490 823 473.5 800.5 Q457 778 434.5 762 Q412 746 385 738 Q358 730 330 730 Q303 730 276.5 737 Q250 744 227 758 Q204 772 185 794.5 Q166 817 154 847 L197 871 Z " />
<glyph glyph-name="ubreve" unicode="&#x16d;" horiz-adv-x="539" d="M149 500 L149 215 Q149 176 153.5 146.5 Q158 117 169 97.5 Q180 78 199 68 Q218 58 247 58 Q274 58 295 66.5 Q316 75 332.5 90 Q349 105 361.5 124.5 Q374 144 382 166 L382 500 L462 500 L462 142 Q462 106 464.5 67.5 Q467 29 473 0 L418 0 L398 79 L393 79 Q370 40 331 14 Q292 -12 232 -12 Q192 -12 161.5 -2.5 Q131 7 110.5 31 Q90 55 79.5 95.5 Q69 136 69 198 L69 500 L149 500 Z M162 720 Q180 684 210 663.5 Q240 643 274 643 Q308 643 335.5 663 Q363 683 380 720 L422 702 Q419 678 406.5 654.5 Q394 631 374.5 613 Q355 595 329 584 Q303 573 273 573 Q245 573 220 581.5 Q195 590 174.5 606.5 Q154 623 139 645.5 Q124 668 117 697 L162 720 Z " />
<glyph glyph-name="Uring" unicode="&#x16e;" horiz-adv-x="652" d="M487 700 L567 700 L567 233 Q567 170 550.5 124 Q534 78 503.5 48.5 Q473 19 430 5 Q387 -9 335 -9 Q211 -9 148 47 Q85 103 85 217 L85 700 L168 700 L168 256 Q168 203 178.5 166.5 Q189 130 210 107.5 Q231 85 262.5 75 Q294 65 336 65 Q417 65 452 109.5 Q487 154 487 256 L487 700 Z M225 768 Q225 805 250 829 Q275 853 330 853 Q380 853 408 831.5 Q436 810 436 768 Q436 732 409.5 708.5 Q383 685 330 685 Q279 685 252 707.5 Q225 730 225 768 Z M286 768 Q286 751 296.5 739.5 Q307 728 330 728 Q352 728 363.5 739 Q375 750 375 768 Q375 787 364 798.5 Q353 810 330 810 Q308 810 297 798.5 Q286 787 286 768 Z " />
<glyph glyph-name="uring" unicode="&#x16f;" horiz-adv-x="539" d="M149 500 L149 215 Q149 176 153.5 146.5 Q158 117 169 97.5 Q180 78 199 68 Q218 58 247 58 Q274 58 295 66.5 Q316 75 332.5 90 Q349 105 361.5 124.5 Q374 144 382 166 L382 500 L462 500 L462 142 Q462 106 464.5 67.5 Q467 29 473 0 L418 0 L398 79 L393 79 Q370 40 331 14 Q292 -12 232 -12 Q192 -12 161.5 -2.5 Q131 7 110.5 31 Q90 55 79.5 95.5 Q69 136 69 198 L69 500 L149 500 Z M172 643 Q172 685 198.5 709.5 Q225 734 269 734 Q311 734 339 712 Q367 690 367 643 Q367 604 339 578.5 Q311 553 269 553 Q227 553 199.5 576.5 Q172 600 172 643 Z M226 643 Q226 623 239 612 Q252 601 269 601 Q288 601 300.5 611 Q313 621 313 643 Q313 665 299.5 675.5 Q286 686 269 686 Q252 686 239 676 Q226 666 226 643 Z " />
<glyph glyph-name="Uhungarumlaut" unicode="&#x170;" horiz-adv-x="652" d="M487 700 L567 700 L567 233 Q567 170 550.5 124 Q534 78 503.5 48.5 Q473 19 430 5 Q387 -9 335 -9 Q211 -9 148 47 Q85 103 85 217 L85 700 L168 700 L168 256 Q168 203 178.5 166.5 Q189 130 210 107.5 Q231 85 262.5 75 Q294 65 336 65 Q417 65 452 109.5 Q487 154 487 256 L487 700 Z M277 850 L370 850 L370 834 L270 741 L213 741 L277 850 Z M439 850 L538 850 L538 834 L395 741 L337 741 L439 850 Z " />
<glyph glyph-name="uhungarumlaut" unicode="&#x171;" horiz-adv-x="539" d="M149 500 L149 215 Q149 176 153.5 146.5 Q158 117 169 97.5 Q180 78 199 68 Q218 58 247 58 Q274 58 295 66.5 Q316 75 332.5 90 Q349 105 361.5 124.5 Q374 144 382 166 L382 500 L462 500 L462 142 Q462 106 464.5 67.5 Q467 29 473 0 L418 0 L398 79 L393 79 Q370 40 331 14 Q292 -12 232 -12 Q192 -12 161.5 -2.5 Q131 7 110.5 31 Q90 55 79.5 95.5 Q69 136 69 198 L69 500 L149 500 Z M210 700 L288 700 L288 684 L217 571 L175 571 L210 700 Z M356 700 L442 700 L442 684 L328 571 L283 571 L356 700 Z " />
<glyph glyph-name="Uogonek" unicode="&#x172;" horiz-adv-x="652" d="M487 700 L567 700 L567 233 Q565 136 529 80.5 Q493 25 428 4 Q398 -12 382 -35 Q366 -58 366 -87 Q367 -108 380 -122.5 Q393 -137 417 -138 Q438 -138 458 -129 L469 -172 Q455 -183 431 -189 Q407 -195 384 -195 Q339 -195 311.5 -171 Q284 -147 284 -106 Q284 -76 300 -51 Q316 -26 344 -9 L335 -9 Q211 -9 148 47 Q85 103 85 217 L85 700 L168 700 L168 256 Q168 203 178.5 166.5 Q189 130 210 107.5 Q231 85 262.5 75 Q294 65 336 65 Q416 65 451 109.5 Q486 154 487 256 L487 700 Z " />
<glyph glyph-name="uogonek" unicode="&#x173;" horiz-adv-x="539" d="M149 500 L149 215 Q149 176 153.5 146.5 Q158 117 169 97.5 Q180 78 199 68 Q218 58 247 58 Q274 58 295 66.5 Q316 75 332.5 90 Q349 105 361.5 124.5 Q374 144 382 166 L382 500 L462 500 L462 142 Q462 106 464.5 67.5 Q467 29 473 0 L455 0 Q425 -12 408.5 -36 Q392 -60 394 -91 Q397 -112 409.5 -125 Q422 -138 447 -138 Q466 -138 486 -129 L497 -172 Q482 -184 457.5 -189.5 Q433 -195 412 -195 Q368 -195 341.5 -173.5 Q315 -152 312 -110 Q312 -69 337.5 -39 Q363 -9 414 10 L397 79 L392 79 Q370 40 329.5 14 Q289 -12 232 -12 Q192 -12 161.5 -2.5 Q131 7 110.5 31 Q90 55 79.5 95.5 Q69 136 69 198 L69 500 L149 500 Z " />
<glyph glyph-name="Ydieresis" unicode="&#x178;" horiz-adv-x="558" d="M239 278 L8 700 L105 700 L269 394 L286 333 L287 333 L305 396 L462 700 L551 700 L322 279 L322 0 L239 0 L239 278 Z M133 794 Q133 815 148 828 Q163 841 187 841 Q210 841 224.5 828 Q239 815 239 794 Q239 774 224.5 761 Q210 748 187 748 Q163 748 148 761 Q133 774 133 794 Z M325 794 Q325 815 339.5 828 Q354 841 377 841 Q401 841 416 828 Q431 815 431 794 Q431 774 416 761 Q401 748 377 748 Q354 748 339.5 761 Q325 774 325 794 Z " />
<glyph glyph-name="Zacute" unicode="&#x179;" horiz-adv-x="545" d="M38 75 L391 586 L433 626 L38 626 L38 700 L508 700 L508 625 L153 111 L111 74 L508 74 L508 0 L38 0 L38 75 Z M329 870 L443 870 L443 849 L280 752 L211 752 L329 870 Z " />
<glyph glyph-name="zacute" unicode="&#x17a;" horiz-adv-x="447" d="M42 70 L273 388 L315 430 L42 430 L42 500 L398 500 L398 430 L165 109 L124 70 L398 70 L398 0 L42 0 L42 70 Z M236 720 L325 720 L325 699 L224 571 L177 571 L236 720 Z " />
<glyph glyph-name="Zdotaccent" unicode="&#x17b;" horiz-adv-x="545" d="M38 75 L391 586 L433 626 L38 626 L38 700 L508 700 L508 625 L153 111 L111 74 L508 74 L508 0 L38 0 L38 75 Z M211 797 Q211 818 227.5 833.5 Q244 849 273 849 Q302 849 319.5 833.5 Q337 818 337 797 Q337 774 319.5 759 Q302 744 273 744 Q244 744 227.5 759 Q211 774 211 797 Z " />
<glyph glyph-name="zdotaccent" unicode="&#x17c;" horiz-adv-x="447" d="M42 70 L273 388 L315 430 L42 430 L42 500 L398 500 L398 430 L165 109 L124 70 L398 70 L398 0 L42 0 L42 70 Z M173 652 Q173 675 188.5 691.5 Q204 708 228 708 Q252 708 269 691.5 Q286 675 286 652 Q286 629 269 614 Q252 599 228 599 Q204 599 188.5 614 Q173 629 173 652 Z " />
<glyph glyph-name="Zcaron" unicode="&#x17d;" horiz-adv-x="545" d="M38 75 L391 586 L433 626 L38 626 L38 700 L508 700 L508 625 L153 111 L111 74 L508 74 L508 0 L38 0 L38 75 Z M286 746 L228 746 L101 849 L101 870 L183 870 L242 820 L259 786 L278 819 L341 870 L419 870 L419 848 L286 746 Z " />
<glyph glyph-name="zcaron" unicode="&#x17e;" horiz-adv-x="447" d="M42 70 L273 388 L315 430 L42 430 L42 500 L398 500 L398 430 L165 109 L124 70 L398 70 L398 0 L42 0 L42 70 Z M235 550 L198 550 L83 732 L161 732 L200 666 L221 608 L243 666 L288 732 L358 732 L235 550 Z " />
<glyph glyph-name="longs" unicode="&#x17f;" horiz-adv-x="249" d="M22 500 L100 500 L100 528 Q100 621 132 663.5 Q164 706 244 706 Q276 706 300 702 Q324 698 351 687 L333 620 Q310 630 289.5 633 Q269 636 251 636 Q227 636 212.5 629.5 Q198 623 191 609.5 Q184 596 182 575.5 Q180 555 180 529 L180 0 L100 0 L100 431 L22 431 L22 500 Z " />
<glyph glyph-name="florin" unicode="&#x192;" horiz-adv-x="545" d="M316 430 L237 -34 Q231 -71 220 -102.5 Q209 -134 190.5 -157.5 Q172 -181 145 -194.5 Q118 -208 81 -208 Q52 -208 21 -201 Q-10 -194 -34 -184 L-13 -118 Q10 -128 30.5 -133 Q51 -138 75 -138 Q113 -138 132.5 -104.5 Q152 -71 165 8 L233 430 L148 430 L148 500 L244 500 L255 567 Q267 641 298.5 676.5 Q330 712 402 712 Q435 712 466.5 705 Q498 698 523 687 L500 622 Q452 642 408 642 Q389 642 377 636.5 Q365 631 357 619.5 Q349 608 343.5 588.5 Q338 569 334 541 L327 500 L447 500 L447 430 L316 430 Z " />
<glyph glyph-name="uni01F4" unicode="&#x1f4;" horiz-adv-x="612" d="M321 349 L556 349 L556 41 Q540 29 517.5 19 Q495 9 469.5 2 Q444 -5 416.5 -8.5 Q389 -12 363 -12 Q296 -12 240 9.5 Q184 31 143 75.5 Q102 120 79 188.5 Q56 257 56 350 Q56 447 84 516 Q112 585 157 628.5 Q202 672 258 692 Q314 712 370 712 Q430 712 469 705.5 Q508 699 535 688 L514 615 Q466 638 377 638 Q335 638 293.5 623.5 Q252 609 219 575 Q186 541 165 486 Q144 431 144 350 Q144 276 161 222 Q178 168 208.5 132.5 Q239 97 282 79.5 Q325 62 376 62 Q440 62 485 87 L485 282 L321 302 L321 349 Z M428 870 L542 870 L542 849 L379 752 L310 752 L428 870 Z " />
<glyph glyph-name="uni01F5" unicode="&#x1f5;" horiz-adv-x="537" d="M460 -23 Q460 -120 408.5 -166 Q357 -212 256 -212 Q196 -212 159.5 -204.5 Q123 -197 97 -185 L118 -117 Q141 -126 169 -134 Q197 -142 242 -142 Q284 -142 310.5 -134.5 Q337 -127 353 -109.5 Q369 -92 375 -64.5 Q381 -37 381 1 L381 49 L377 49 Q357 20 326 4.5 Q295 -11 245 -11 Q144 -11 96.5 52 Q49 115 49 248 Q49 376 110 442.5 Q171 509 290 509 Q347 509 387.5 500 Q428 491 460 479 L460 -23 Z M259 59 Q310 59 339 84.5 Q368 110 380 164 L380 420 Q340 439 278 439 Q210 439 171 393 Q132 347 132 249 Q132 207 139 172 Q146 137 161 112 Q176 87 200 73 Q224 59 259 59 Z M304 720 L393 720 L393 699 L292 571 L245 571 L304 720 Z " />
<glyph glyph-name="Scommaaccent" unicode="&#x218;" horiz-adv-x="531" d="M401 178 Q401 220 376 246.5 Q351 273 313.5 293.5 Q276 314 232 332 Q188 350 150.5 375.5 Q113 401 88 438.5 Q63 476 63 534 Q63 616 120 664 Q177 712 282 712 Q343 712 393 703 Q443 694 471 680 L446 607 Q423 618 378.5 628 Q334 638 278 638 Q212 638 179 608.5 Q146 579 146 539 Q146 500 171 474 Q196 448 233.5 427.5 Q271 407 315 387 Q359 367 396.5 340.5 Q434 314 459 277 Q484 240 484 185 Q484 140 468 104 Q452 68 421 42 Q390 16 346 2 Q302 -12 246 -12 Q171 -12 122 -0.5 Q73 11 46 25 L74 100 Q97 87 142 74.5 Q187 62 243 62 Q276 62 305 68.5 Q334 75 355 89.5 Q376 104 388.5 126 Q401 148 401 178 Z M203 -102 Q203 -81 218.5 -68 Q234 -55 254 -55 Q279 -55 298.5 -72.5 Q318 -90 318 -130 Q318 -156 309 -175.5 Q300 -195 287.5 -209.5 Q275 -224 261.5 -232.5 Q248 -241 238 -245 L210 -213 Q230 -202 242 -185 Q254 -168 254 -144 Q250 -145 244 -145 Q226 -145 214.5 -133 Q203 -121 203 -102 Z " />
<glyph glyph-name="scommaaccent" unicode="&#x219;" horiz-adv-x="421" d="M297 136 Q297 166 279 183 Q261 200 234.5 211.5 Q208 223 176.5 233.5 Q145 244 118.5 260.5 Q92 277 74 303 Q56 329 56 373 Q56 445 97 478.5 Q138 512 211 512 Q265 512 301.5 502.5 Q338 493 365 480 L346 414 Q323 425 290.5 433.5 Q258 442 221 442 Q177 442 156.5 427 Q136 412 136 375 Q136 349 154 334.5 Q172 320 198.5 308.5 Q225 297 256.5 286 Q288 275 314.5 257 Q341 239 359 211.5 Q377 184 377 139 Q377 107 366.5 79 Q356 51 334 31 Q312 11 279.5 -0.5 Q247 -12 203 -12 Q146 -12 106 -1 Q66 10 39 25 L63 93 Q86 80 123 69 Q160 58 198 58 Q241 58 269 75 Q297 92 297 136 Z M154 -102 Q154 -81 169.5 -68 Q185 -55 205 -55 Q230 -55 249.5 -72.5 Q269 -90 269 -130 Q269 -156 260 -175.5 Q251 -195 238.5 -209.5 Q226 -224 212.5 -232.5 Q199 -241 189 -245 L161 -213 Q181 -202 193 -185 Q205 -168 205 -144 Q201 -145 195 -145 Q177 -145 165.5 -133 Q154 -121 154 -102 Z " />
<glyph glyph-name="uni0237" unicode="&#x237;" horiz-adv-x="267" d="M93 500 L173 500 L173 -27 Q173 -120 141 -166 Q109 -212 39 -212 Q31 -212 24 -211.5 Q17 -211 9 -210 L9 -142 Q37 -142 53.5 -133.5 Q70 -125 79 -107 Q88 -89 90.5 -61.5 Q93 -34 93 3 L93 500 Z " />
<glyph glyph-name="afii57929" unicode="&#x2bc;" horiz-adv-x="194" d="M40 659 Q40 682 54.5 695 Q69 708 92 708 Q120 708 137.5 690.5 Q155 673 155 638 Q155 605 145.5 581 Q136 557 122.5 540.5 Q109 524 94 514 Q79 504 68 500 L43 534 Q66 546 79 564 Q92 582 92 611 Q88 610 81 610 Q62 610 51 623.5 Q40 637 40 659 Z " />
<glyph glyph-name="circumflex" unicode="&#x2c6;" horiz-adv-x="386" d="M183 732 L215 732 L326 550 L254 550 L215 616 L194 674 L172 616 L127 550 L60 550 L183 732 Z " />
<glyph glyph-name="caron" unicode="&#x2c7;" horiz-adv-x="395" d="M212 550 L175 550 L60 732 L138 732 L177 666 L198 608 L220 666 L265 732 L335 732 L212 550 Z " />
<glyph glyph-name="breve" unicode="&#x2d8;" horiz-adv-x="425" d="M105 720 Q123 684 153 663.5 Q183 643 217 643 Q251 643 278.5 663 Q306 683 323 720 L365 702 Q362 678 349.5 654.5 Q337 631 317.5 613 Q298 595 272 584 Q246 573 216 573 Q188 573 163 581.5 Q138 590 117.5 606.5 Q97 623 82 645.5 Q67 668 60 697 L105 720 Z " />
<glyph glyph-name="dotaccent" unicode="&#x2d9;" horiz-adv-x="233" d="M60 652 Q60 675 75.5 691.5 Q91 708 115 708 Q139 708 156 691.5 Q173 675 173 652 Q173 629 156 614 Q139 599 115 599 Q91 599 75.5 614 Q60 629 60 652 Z " />
<glyph glyph-name="ring" unicode="&#x2da;" horiz-adv-x="315" d="M60 643 Q60 685 86.5 709.5 Q113 734 157 734 Q199 734 227 712 Q255 690 255 643 Q255 604 227 578.5 Q199 553 157 553 Q115 553 87.5 576.5 Q60 600 60 643 Z M114 643 Q114 623 127 612 Q140 601 157 601 Q176 601 188.5 611 Q201 621 201 643 Q201 665 187.5 675.5 Q174 686 157 686 Q140 686 127 676 Q114 666 114 643 Z " />
<glyph glyph-name="ogonek" unicode="&#x2db;" horiz-adv-x="305" d="M218 10 Q183 -6 163 -30.5 Q143 -55 143 -87 Q143 -107 156 -122.5 Q169 -138 194 -138 Q213 -138 234 -128 L245 -171 Q230 -183 205 -189 Q180 -195 159 -195 Q114 -195 87 -171 Q60 -147 60 -106 Q60 -65 87.5 -36 Q115 -7 163 10 L218 10 Z " />
<glyph glyph-name="tilde" unicode="&#x2dc;" horiz-adv-x="399" d="M60 656 Q89 689 113 701.5 Q137 714 157 714 Q174 714 188.5 707.5 Q203 701 216.5 693.5 Q230 686 242.5 680 Q255 674 269 674 Q291 674 315 698 L339 655 Q313 626 291.5 615.5 Q270 605 252 605 Q236 605 222 611 Q208 617 194.5 624.5 Q181 632 167.5 638.5 Q154 645 140 645 Q127 645 113.5 638 Q100 631 83 614 L60 656 Z " />
<glyph glyph-name="hungarumlaut" unicode="&#x2dd;" horiz-adv-x="387" d="M95 700 L173 700 L173 684 L102 571 L60 571 L95 700 Z M241 700 L327 700 L327 684 L213 571 L168 571 L241 700 Z " />
<glyph glyph-name="acutecomb" unicode="&#x301;" horiz-adv-x="2" d="M-231 720 L-142 720 L-142 699 L-243 571 L-290 571 L-231 720 Z " />
<glyph glyph-name="&amp;#x394;" unicode="&#x394;" horiz-adv-x="568" d="M14 0 L14 37 L268 711 L302 711 L558 37 L558 0 L14 0 Z M106 72 L461 72 L306 475 L282 580 L281 580 L253 473 L106 72 Z " />
<glyph glyph-name="&amp;#x2206;" unicode="&#x2206;" horiz-adv-x="568" d="M14 0 L14 37 L268 711 L302 711 L558 37 L558 0 L14 0 Z M106 72 L461 72 L306 475 L282 580 L281 580 L253 473 L106 72 Z " />
<glyph glyph-name="&amp;#x3a9;" unicode="&#x3a9;" horiz-adv-x="802" d="M76 70 L192 70 L286 60 L286 86 L232 96 Q200 111 171.5 137.5 Q143 164 122 199.5 Q101 235 88.5 279.5 Q76 324 76 376 Q76 454 99 516 Q122 578 164 621.5 Q206 665 266 688.5 Q326 712 400 712 Q478 712 538.5 687 Q599 662 641 617 Q683 572 704.5 509.5 Q726 447 726 372 Q726 318 712 274 Q698 230 675.5 195.5 Q653 161 625.5 136.5 Q598 112 571 97 L514 86 L514 60 L610 70 L726 70 L726 0 L439 0 L439 125 Q469 131 503.5 147 Q538 163 568 192.5 Q598 222 618 267.5 Q638 313 638 377 Q638 425 624.5 471.5 Q611 518 582 555 Q553 592 507.5 615 Q462 638 399 638 Q286 638 225 571.5 Q164 505 164 374 Q164 311 182.5 266.5 Q201 222 230 192 Q259 162 294 146 Q329 130 362 125 L362 0 L76 0 L76 70 Z " />
<glyph glyph-name="&amp;#x2126;" unicode="&#x2126;" horiz-adv-x="802" d="M76 70 L192 70 L286 60 L286 86 L232 96 Q200 111 171.5 137.5 Q143 164 122 199.5 Q101 235 88.5 279.5 Q76 324 76 376 Q76 454 99 516 Q122 578 164 621.5 Q206 665 266 688.5 Q326 712 400 712 Q478 712 538.5 687 Q599 662 641 617 Q683 572 704.5 509.5 Q726 447 726 372 Q726 318 712 274 Q698 230 675.5 195.5 Q653 161 625.5 136.5 Q598 112 571 97 L514 86 L514 60 L610 70 L726 70 L726 0 L439 0 L439 125 Q469 131 503.5 147 Q538 163 568 192.5 Q598 222 618 267.5 Q638 313 638 377 Q638 425 624.5 471.5 Q611 518 582 555 Q553 592 507.5 615 Q462 638 399 638 Q286 638 225 571.5 Q164 505 164 374 Q164 311 182.5 266.5 Q201 222 230 192 Q259 162 294 146 Q329 130 362 125 L362 0 L76 0 L76 70 Z " />
<glyph glyph-name="pi" unicode="&#x3c0;" horiz-adv-x="664" d="M514 116 Q514 88 523 77 Q532 66 546 66 Q556 66 568.5 68 Q581 70 590 72 L609 18 Q593 11 569.5 3.5 Q546 -4 516 -4 Q466 -4 450 25 Q434 54 434 106 L434 430 L244 430 L244 0 L164 0 L164 430 L150 430 Q129 430 116 418.5 Q103 407 89 385 L36 417 Q55 455 83 477.5 Q111 500 164 500 L597 500 L597 430 L514 430 L514 116 Z " />
<glyph glyph-name="afii10023" unicode="&#x401;" horiz-adv-x="536" d="M85 700 L466 700 L466 626 L168 626 L168 397 L441 397 L441 323 L168 323 L168 74 L471 74 L471 0 L85 0 L85 700 Z M120 794 Q120 815 135 828 Q150 841 174 841 Q197 841 211.5 828 Q226 815 226 794 Q226 774 211.5 761 Q197 748 174 748 Q150 748 135 761 Q120 774 120 794 Z M312 794 Q312 815 326.5 828 Q341 841 364 841 Q388 841 403 828 Q418 815 418 794 Q418 774 403 761 Q388 748 364 748 Q341 748 326.5 761 Q312 774 312 794 Z " />
<glyph glyph-name="afii10051" unicode="&#x402;" horiz-adv-x="728" d="M319 0 L236 0 L236 626 L18 626 L18 700 L537 700 L537 626 L319 626 L319 415 Q331 419 366.5 427.5 Q402 436 458 436 Q498 436 536.5 426.5 Q575 417 605 393 Q635 369 653.5 328.5 Q672 288 672 226 Q672 106 611 49 Q550 -8 439 -8 Q406 -8 391.5 -7.5 Q377 -7 369 -5 L369 67 Q382 65 397.5 64.5 Q413 64 442 64 Q584 64 584 220 Q584 262 572 290 Q560 318 539.5 334.5 Q519 351 491.5 357.5 Q464 364 432 364 Q414 364 396.5 361.5 Q379 359 363.5 355.5 Q348 352 336.5 348 Q325 344 319 342 L319 0 Z " />
<glyph glyph-name="afii10052" unicode="&#x403;" horiz-adv-x="442" d="M460 626 L168 626 L168 0 L85 0 L85 700 L460 700 L460 626 Z M315 870 L429 870 L429 849 L266 752 L197 752 L315 870 Z " />
<glyph glyph-name="afii10053" unicode="&#x404;" horiz-adv-x="583" d="M544 29 Q514 6 465.5 -3 Q417 -12 365 -12 Q302 -12 246 9.5 Q190 31 147.5 75 Q105 119 80.5 187.5 Q56 256 56 350 Q56 448 83.5 516.5 Q111 585 155 628.5 Q199 672 254 692 Q309 712 365 712 Q425 712 466 705.5 Q507 699 534 688 L514 614 Q491 625 454 631.5 Q417 638 372 638 Q333 638 295.5 625.5 Q258 613 226.5 584.5 Q195 556 173.5 510 Q152 464 145 398 L451 398 L451 324 L144 324 Q147 258 167.5 209 Q188 160 220.5 127.5 Q253 95 295 78.5 Q337 62 384 62 Q429 62 465 71 Q501 80 523 94 L544 29 Z " />
<glyph glyph-name="afii10054" unicode="&#x405;" horiz-adv-x="531" d="M401 178 Q401 220 376 246.5 Q351 273 313.5 293.5 Q276 314 232 332 Q188 350 150.5 375.5 Q113 401 88 438.5 Q63 476 63 534 Q63 616 120 664 Q177 712 282 712 Q343 712 393 703 Q443 694 471 680 L446 607 Q423 618 378.5 628 Q334 638 278 638 Q212 638 179 608.5 Q146 579 146 539 Q146 500 171 474 Q196 448 233.5 427.5 Q271 407 315 387 Q359 367 396.5 340.5 Q434 314 459 277 Q484 240 484 185 Q484 140 468 104 Q452 68 421 42 Q390 16 346 2 Q302 -12 246 -12 Q171 -12 122 -0.5 Q73 11 46 25 L74 100 Q97 87 142 74.5 Q187 62 243 62 Q276 62 305 68.5 Q334 75 355 89.5 Q376 104 388.5 126 Q401 148 401 178 Z " />
<glyph glyph-name="afii10055" unicode="&#x406;" horiz-adv-x="291" d="M104 700 L187 700 L187 0 L104 0 L104 700 Z " />
<glyph glyph-name="afii10056" unicode="&#x407;" horiz-adv-x="293" d="M32 793 Q32 815 46.5 828 Q61 841 83 841 Q104 841 118.5 828 Q133 815 133 793 Q133 771 118.5 758.5 Q104 746 83 746 Q61 746 46.5 758.5 Q32 771 32 793 Z M161 793 Q161 815 175.5 828 Q190 841 211 841 Q233 841 247.5 828 Q262 815 262 793 Q262 771 247.5 758.5 Q233 746 211 746 Q190 746 175.5 758.5 Q161 771 161 793 Z M105 700 L188 700 L188 0 L105 0 L105 700 Z " />
<glyph glyph-name="afii10057" unicode="&#x408;" horiz-adv-x="291" d="M112 700 L195 700 L195 154 Q195 74 159.5 32 Q124 -10 52 -10 Q44 -10 32 -9 Q20 -8 8 -6 Q-4 -4 -15.5 -1 Q-27 2 -34 6 L-18 77 Q10 64 43 64 Q85 64 98.5 93.5 Q112 123 112 174 L112 700 Z " />
<glyph glyph-name="afii10058" unicode="&#x409;" horiz-adv-x="926" d="M456 626 L247 626 Q237 426 220.5 293.5 Q204 161 171 87 Q149 39 119 17 Q89 -5 54 -5 Q36 -5 23 -2.5 Q10 0 -2 5 L9 77 Q19 74 30 74 Q47 74 63.5 85 Q80 96 96 126 Q110 153 122.5 198 Q135 243 144.5 312 Q154 381 160 476.5 Q166 572 169 700 L539 700 L539 428 Q544 429 556 430.5 Q568 432 582 433 Q596 434 611 435 Q626 436 638 436 Q686 436 731.5 426.5 Q777 417 812.5 393 Q848 369 870 328.5 Q892 288 892 226 Q892 166 871 122 Q850 78 813 49 Q776 20 726.5 6 Q677 -8 619 -8 Q605 -8 585 -7.5 Q565 -7 542.5 -5.5 Q520 -4 497.5 -1 Q475 2 456 7 L456 626 Z M630 64 Q666 64 697.5 73.5 Q729 83 753 102.5 Q777 122 790.5 151.5 Q804 181 804 220 Q804 262 789 290 Q774 318 749.5 334.5 Q725 351 693 357.5 Q661 364 627 364 Q618 364 605 363 Q592 362 579 361 Q566 360 555 358 Q544 356 539 355 L539 70 Q553 67 579 65.5 Q605 64 630 64 Z " />
<glyph glyph-name="afii10059" unicode="&#x40a;" horiz-adv-x="974" d="M504 336 L168 336 L168 0 L85 0 L85 700 L168 700 L168 410 L504 410 L504 700 L587 700 L587 409 Q592 410 604 411.5 Q616 413 630.5 414 Q645 415 660 416 Q675 417 687 417 Q734 417 779.5 409 Q825 401 860.5 379 Q896 357 918 318 Q940 279 940 217 Q940 157 919 114 Q898 71 861 44 Q824 17 774.5 4.5 Q725 -8 667 -8 Q653 -8 633 -7.5 Q613 -7 590.5 -5.5 Q568 -4 545.5 -1 Q523 2 504 6 L504 336 Z M678 64 Q714 64 746 72 Q778 80 801.5 98 Q825 116 838.5 143.5 Q852 171 852 210 Q852 252 837.5 278.5 Q823 305 798.5 320 Q774 335 742 340 Q710 345 675 345 Q666 345 653 344 Q640 343 627 342 Q614 341 603 339 Q592 337 587 336 L587 70 Q601 67 627 65.5 Q653 64 678 64 Z " />
<glyph glyph-name="afii10060" unicode="&#x40b;" horiz-adv-x="750" d="M319 0 L236 0 L236 626 L18 626 L18 700 L537 700 L537 626 L319 626 L319 395 Q346 410 390.5 425 Q435 440 491 440 Q533 440 568.5 430.5 Q604 421 629 398.5 Q654 376 668 338 Q682 300 682 244 L682 0 L599 0 L599 229 Q599 366 475 366 Q427 366 386 353.5 Q345 341 319 320 L319 0 Z " />
<glyph glyph-name="afii10061" unicode="&#x40c;" horiz-adv-x="610" d="M215 324 L168 324 L168 0 L85 0 L85 700 L168 700 L168 374 L213 388 L448 700 L544 700 L310 399 L268 366 L319 326 L575 0 L470 0 L215 324 Z M341 870 L455 870 L455 849 L292 752 L223 752 L341 870 Z " />
<glyph glyph-name="afii10062" unicode="&#x40e;" horiz-adv-x="553" d="M282 331 L308 242 L313 242 L333 334 L467 700 L552 700 L375 245 Q348 174 327.5 126.5 Q307 79 286 49.5 Q265 20 241 7.5 Q217 -5 182 -5 Q149 -5 129.5 0.5 Q110 6 93 17 L118 86 Q138 75 155 72 Q172 69 186 69 Q214 69 233 97.5 Q252 126 266 182 L7 700 L103 700 L282 331 Z M201 870 Q205 833 229 813 Q253 793 293 793 Q333 793 356.5 813 Q380 833 385 869 L456 852 Q445 798 405.5 766.5 Q366 735 292 735 Q221 735 175.5 762.5 Q130 790 122 850 L201 870 Z " />
<glyph glyph-name="afii10145" unicode="&#x40f;" horiz-adv-x="659" d="M85 0 L85 700 L168 700 L168 74 L491 74 L491 700 L574 700 L574 0 L372 0 L357 -179 L305 -179 L285 0 L85 0 Z " />
<glyph glyph-name="afii10017" unicode="&#x410;" horiz-adv-x="585" d="M418 194 L160 194 L90 0 L8 0 L273 711 L311 711 L577 0 L490 0 L418 194 Z M187 266 L393 266 L315 479 L290 585 L289 585 L264 477 L187 266 Z " />
<glyph glyph-name="afii10018" unicode="&#x411;" horiz-adv-x="550" d="M85 700 L465 700 L465 626 L168 626 L168 416 Q185 419 210 422 Q235 425 258 425 Q309 425 355 415.5 Q401 406 436 383 Q471 360 491.5 320.5 Q512 281 512 221 Q512 161 491 117.5 Q470 74 435 46.5 Q400 19 353.5 5.5 Q307 -8 256 -8 Q239 -8 217.5 -7.5 Q196 -7 172.5 -5 Q149 -3 126.5 -0.5 Q104 2 85 7 L85 700 Z M266 64 Q298 64 327 73 Q356 82 377.5 99.5 Q399 117 411.5 144 Q424 171 424 207 Q424 253 409.5 281.5 Q395 310 371 326 Q347 342 315.5 347.5 Q284 353 250 353 Q241 353 229 352 Q217 351 205 350 Q193 349 183 347.5 Q173 346 168 345 L168 70 Q175 68 186.5 67 Q198 66 211.5 65 Q225 64 239 64 Q253 64 266 64 Z " />
<glyph glyph-name="afii10019" unicode="&#x412;" horiz-adv-x="584" d="M507 540 Q507 515 499 489 Q491 463 475 440.5 Q459 418 434 401 Q409 384 375 375 L375 371 Q405 366 432.5 354 Q460 342 481 321 Q502 300 515 270 Q528 240 528 199 Q528 145 505.5 105.5 Q483 66 446.5 41 Q410 16 363 4 Q316 -8 267 -8 Q250 -8 227 -8 Q204 -8 179 -6.5 Q154 -5 129 -2.5 Q104 0 85 5 L85 694 Q122 700 171 704 Q220 708 278 708 Q317 708 357.5 701.5 Q398 695 431 676.5 Q464 658 485.5 625 Q507 592 507 540 Z M275 64 Q307 64 337 71.5 Q367 79 390 95.5 Q413 112 426.5 136 Q440 160 440 193 Q440 234 423.5 259 Q407 284 380.5 298 Q354 312 321 317 Q288 322 255 322 L168 322 L168 71 Q175 69 188 68 Q201 67 216 66 Q231 65 247 64.5 Q263 64 275 64 Z M220 392 Q237 392 261 393 Q285 394 301 396 Q325 404 346 415.5 Q367 427 383.5 442.5 Q400 458 409.5 478.5 Q419 499 419 523 Q419 556 406.5 577.5 Q394 599 373 612 Q352 625 325 630.5 Q298 636 270 636 Q237 636 209.5 634.5 Q182 633 168 630 L168 392 L220 392 Z " />
<glyph glyph-name="afii10020" unicode="&#x413;" horiz-adv-x="442" d="M460 626 L168 626 L168 0 L85 0 L85 700 L460 700 L460 626 Z " />
<glyph glyph-name="afii10021" unicode="&#x414;" horiz-adv-x="669" d="M641 -129 L584 -129 L569 0 L78 0 L63 -129 L5 -129 L5 74 L76 74 Q84 85 100.5 125.5 Q117 166 133.5 241.5 Q150 317 163 430.5 Q176 544 176 700 L550 700 L550 74 L641 74 L641 -129 Z M467 74 L467 626 L254 626 Q251 516 242.5 428 Q234 340 222 272.5 Q210 205 195 156 Q180 107 164 74 L467 74 Z " />
<glyph glyph-name="afii10022" unicode="&#x415;" horiz-adv-x="536" d="M85 700 L466 700 L466 626 L168 626 L168 397 L441 397 L441 323 L168 323 L168 74 L471 74 L471 0 L85 0 L85 700 Z " />
<glyph glyph-name="afii10024" unicode="&#x416;" horiz-adv-x="806" d="M358 700 L438 700 L438 374 L481 388 L684 700 L776 700 L574 396 L534 364 L584 323 L807 0 L705 0 L484 324 L438 324 L438 0 L358 0 L358 336 L316 322 L95 0 L-1 0 L220 313 L268 351 L222 386 L13 700 L110 700 L313 386 L358 386 L358 700 Z " />
<glyph glyph-name="afii10025" unicode="&#x417;" horiz-adv-x="541" d="M139 331 L139 401 L155 401 Q164 401 177 401 Q190 401 203.5 402 Q217 403 229.5 403.5 Q242 404 250 406 Q276 410 299 419.5 Q322 429 339 444 Q356 459 366 479 Q376 499 376 523 Q376 556 365 578 Q354 600 334.5 613.5 Q315 627 289.5 632.5 Q264 638 235 638 Q181 638 143 630.5 Q105 623 82 612 L60 678 Q80 689 132 700.5 Q184 712 249 712 Q289 712 327.5 703.5 Q366 695 396.5 675.5 Q427 656 445.5 622.5 Q464 589 464 540 Q464 490 431 444.5 Q398 399 332 379 L332 375 Q403 365 444 322 Q485 279 485 207 Q485 150 462.5 108.5 Q440 67 403.5 40 Q367 13 319.5 0.5 Q272 -12 223 -12 Q157 -12 114.5 -4.5 Q72 3 44 14 L65 89 Q88 78 129.5 70 Q171 62 230 62 Q261 62 291 70.5 Q321 79 344.5 96.5 Q368 114 382.5 140 Q397 166 397 202 Q397 265 353 294.5 Q309 324 238 329 Q226 330 215.5 330.5 Q205 331 194 331 L139 331 Z " />
<glyph glyph-name="afii10026" unicode="&#x418;" horiz-adv-x="681" d="M513 474 L519 554 L515 554 L472 472 L134 0 L85 0 L85 700 L168 700 L168 220 L161 141 L165 141 L209 223 L547 700 L596 700 L596 0 L513 0 L513 474 Z " />
<glyph glyph-name="afii10027" unicode="&#x419;" horiz-adv-x="681" d="M513 474 L519 554 L515 554 L472 472 L134 0 L85 0 L85 700 L168 700 L168 220 L161 141 L165 141 L209 223 L547 700 L596 700 L596 0 L513 0 L513 474 Z M258 870 Q262 833 286 813 Q310 793 350 793 Q390 793 413.5 813 Q437 833 442 869 L513 852 Q502 798 462.5 766.5 Q423 735 349 735 Q278 735 232.5 762.5 Q187 790 179 850 L258 870 Z " />
<glyph glyph-name="afii10028" unicode="&#x41a;" horiz-adv-x="610" d="M215 324 L168 324 L168 0 L85 0 L85 700 L168 700 L168 374 L213 388 L448 700 L544 700 L310 399 L268 366 L319 326 L575 0 L470 0 L215 324 Z " />
<glyph glyph-name="afii10029" unicode="&#x41b;" horiz-adv-x="624" d="M456 626 L247 626 Q237 426 220.5 293.5 Q204 161 171 87 Q149 39 119 17 Q89 -5 54 -5 Q36 -5 23 -2.5 Q10 0 -2 5 L9 77 Q19 74 30 74 Q47 74 63.5 85 Q80 96 96 126 Q110 153 122.5 198 Q135 243 144.5 312 Q154 381 160 476.5 Q166 572 169 700 L539 700 L539 0 L456 0 L456 626 Z " />
<glyph glyph-name="afii10030" unicode="&#x41c;" horiz-adv-x="791" d="M623 470 L633 575 L628 575 L590 479 L408 163 L383 163 L190 480 L154 575 L149 575 L163 471 L163 0 L85 0 L85 700 L147 700 L366 342 L399 264 L401 264 L432 344 L641 700 L706 700 L706 0 L623 0 L623 470 Z " />
<glyph glyph-name="afii10031" unicode="&#x41d;" horiz-adv-x="672" d="M504 321 L168 321 L168 0 L85 0 L85 700 L168 700 L168 395 L504 395 L504 700 L587 700 L587 0 L504 0 L504 321 Z " />
<glyph glyph-name="afii10032" unicode="&#x41e;" horiz-adv-x="684" d="M56 350 Q56 525 130 618.5 Q204 712 341 712 Q415 712 469 686 Q523 660 558.5 612.5 Q594 565 611 498.5 Q628 432 628 350 Q628 175 553.5 81.5 Q479 -12 341 -12 Q268 -12 214.5 14 Q161 40 125.5 87.5 Q90 135 73 201.5 Q56 268 56 350 Z M144 350 Q144 292 155.5 240 Q167 188 191 148.5 Q215 109 252.5 85.5 Q290 62 341 62 Q434 62 487 132.5 Q540 203 540 350 Q540 407 528.5 459.5 Q517 512 492.5 551.5 Q468 591 430.5 614.5 Q393 638 341 638 Q249 638 196.5 567.5 Q144 497 144 350 Z " />
<glyph glyph-name="afii10033" unicode="&#x41f;" horiz-adv-x="659" d="M491 626 L168 626 L168 0 L85 0 L85 700 L574 700 L574 0 L491 0 L491 626 Z " />
<glyph glyph-name="afii10034" unicode="&#x420;" horiz-adv-x="559" d="M85 693 Q123 702 167 705 Q211 708 254 708 Q300 708 347.5 699 Q395 690 434 666 Q473 642 497.5 600 Q522 558 522 493 Q522 429 499 385 Q476 341 438 313.5 Q400 286 351 274 Q302 262 250 262 Q245 262 233.5 262 Q222 262 209.5 262.5 Q197 263 185 264 Q173 265 168 266 L168 0 L85 0 L85 693 Z M256 636 Q230 636 206 635 Q182 634 168 630 L168 340 Q173 338 184 337.5 Q195 337 207 336.5 Q219 336 230 336 Q241 336 246 336 Q280 336 313.5 342.5 Q347 349 374 366 Q401 383 417.5 414 Q434 445 434 493 Q434 534 418.5 561.5 Q403 589 377.5 605.5 Q352 622 320 629 Q288 636 256 636 Z " />
<glyph glyph-name="afii10035" unicode="&#x421;" horiz-adv-x="571" d="M533 29 Q503 6 457 -3 Q411 -12 359 -12 Q296 -12 241 9.5 Q186 31 145 75 Q104 119 80 187.5 Q56 256 56 350 Q56 448 82.5 516.5 Q109 585 152.5 628.5 Q196 672 250 692 Q304 712 360 712 Q420 712 458 705.5 Q496 699 523 688 L503 615 Q455 638 366 638 Q325 638 285 623 Q245 608 213.5 574 Q182 540 163 485 Q144 430 144 350 Q144 278 162 224 Q180 170 211.5 134 Q243 98 285.5 80 Q328 62 378 62 Q423 62 456.5 71 Q490 80 513 94 L533 29 Z " />
<glyph glyph-name="afii10036" unicode="&#x422;" horiz-adv-x="555" d="M537 626 L319 626 L319 0 L236 0 L236 626 L18 626 L18 700 L537 700 L537 626 Z " />
<glyph glyph-name="afii10037" unicode="&#x423;" horiz-adv-x="553" d="M282 331 L308 242 L313 242 L333 334 L467 700 L552 700 L375 245 Q348 174 327.5 126.5 Q307 79 286 49.5 Q265 20 241 7.5 Q217 -5 182 -5 Q149 -5 129.5 0.5 Q110 6 93 17 L118 86 Q138 75 155 72 Q172 69 186 69 Q214 69 233 97.5 Q252 126 266 182 L7 700 L103 700 L282 331 Z " />
<glyph glyph-name="afii10038" unicode="&#x424;" horiz-adv-x="780" d="M349 78 Q332 75 309.5 74 Q287 73 267 73 Q220 73 178.5 89 Q137 105 106.5 139 Q76 173 58.5 225.5 Q41 278 41 350 Q41 418 58.5 471.5 Q76 525 108.5 562 Q141 599 186 618.5 Q231 638 286 638 Q299 638 318.5 637 Q338 636 349 634 L349 720 L431 720 L431 631 Q449 636 473.5 637 Q498 638 514 638 Q562 638 603 620.5 Q644 603 674.5 568.5 Q705 534 722 481.5 Q739 429 739 360 Q739 289 719.5 235 Q700 181 667 145 Q634 109 590 91 Q546 73 496 73 Q485 73 463.5 74.5 Q442 76 431 80 L431 -20 L349 -20 L349 78 Z M502 568 Q488 568 466 567 Q444 566 430 561 L430 146 Q440 144 456.5 143.5 Q473 143 489 143 Q523 143 552.5 156 Q582 169 604.5 196 Q627 223 640 264 Q653 305 653 360 Q653 406 642.5 444.5 Q632 483 612.5 511 Q593 539 565 553.5 Q537 568 502 568 Z M282 143 Q287 143 295.5 143 Q304 143 314 143.5 Q324 144 333.5 145.5 Q343 147 350 149 L350 564 Q338 566 320.5 567 Q303 568 289 568 Q255 568 225.5 554.5 Q196 541 174 513.5 Q152 486 139.5 445 Q127 404 127 350 Q127 302 138 263.5 Q149 225 169.5 198 Q190 171 218.5 157 Q247 143 282 143 Z " />
<glyph glyph-name="afii10039" unicode="&#x425;" horiz-adv-x="618" d="M259 356 L46 700 L146 700 L288 463 L313 406 L337 463 L487 700 L579 700 L359 363 L589 0 L492 0 L334 251 L307 311 L281 251 L119 0 L26 0 L259 356 Z " />
<glyph glyph-name="afii10040" unicode="&#x426;" horiz-adv-x="687" d="M659 -129 L602 -129 L587 0 L85 0 L85 700 L168 700 L168 74 L483 74 L483 700 L566 700 L566 74 L659 74 L659 -129 Z " />
<glyph glyph-name="afii10041" unicode="&#x427;" horiz-adv-x="605" d="M158 700 L158 468 Q158 331 282 331 Q329 331 370 343.5 Q411 356 437 377 L437 700 L520 700 L520 0 L437 0 L437 302 Q410 287 366 272 Q322 257 265 257 Q223 257 188 266.5 Q153 276 128 298.5 Q103 321 89 359 Q75 397 75 453 L75 700 L158 700 Z " />
<glyph glyph-name="afii10042" unicode="&#x428;" horiz-adv-x="877" d="M85 0 L85 700 L168 700 L168 74 L397 74 L397 700 L480 700 L480 74 L709 74 L709 700 L792 700 L792 0 L85 0 Z " />
<glyph glyph-name="afii10043" unicode="&#x429;" horiz-adv-x="913" d="M85 0 L85 700 L168 700 L168 74 L397 74 L397 700 L480 700 L480 74 L709 74 L709 700 L792 700 L792 74 L885 74 L885 -129 L827 -129 L812 0 L85 0 Z " />
<glyph glyph-name="afii10044" unicode="&#x42a;" horiz-adv-x="630" d="M159 626 L-1 626 L-1 700 L242 700 L242 428 Q247 429 259 430.5 Q271 432 285.5 433 Q300 434 315 435 Q330 436 342 436 Q389 436 434.5 426.5 Q480 417 516 393 Q552 369 574 328.5 Q596 288 596 226 Q596 166 575 122 Q554 78 517 49 Q480 20 430.5 6 Q381 -8 323 -8 Q309 -8 289 -7.5 Q269 -7 246.5 -5.5 Q224 -4 201 -1 Q178 2 159 7 L159 626 Z M334 64 Q370 64 401.5 73.5 Q433 83 456.5 102.5 Q480 122 494 151.5 Q508 181 508 220 Q508 262 493 290 Q478 318 453 334.5 Q428 351 396 357.5 Q364 364 330 364 Q321 364 308 363 Q295 362 282 361 Q269 360 258 358 Q247 356 242 355 L242 70 Q256 67 282 65.5 Q308 64 334 64 Z " />
<glyph glyph-name="afii10045" unicode="&#x42b;" horiz-adv-x="769" d="M601 700 L684 700 L684 0 L601 0 L601 700 Z M85 700 L168 700 L168 428 Q173 429 183 430.5 Q193 432 205 433 Q217 434 229.5 435 Q242 436 254 436 Q301 436 345.5 426.5 Q390 417 424 393 Q458 369 478.5 328.5 Q499 288 499 226 Q499 166 480 121.5 Q461 77 426.5 48.5 Q392 20 344 6 Q296 -8 238 -8 Q224 -8 205.5 -7.5 Q187 -7 166.5 -5.5 Q146 -4 125 -1 Q104 2 85 7 L85 700 Z M245 64 Q317 64 364 103 Q411 142 411 220 Q411 262 397 290 Q383 318 359.5 334.5 Q336 351 305.5 357.5 Q275 364 241 364 Q223 364 201 361 Q179 358 168 355 L168 70 Q195 64 245 64 Z " />
<glyph glyph-name="afii10046" unicode="&#x42c;" horiz-adv-x="555" d="M85 700 L168 700 L168 428 Q173 429 185 430.5 Q197 432 211 433 Q225 434 240 435 Q255 436 267 436 Q315 436 360.5 426.5 Q406 417 441.5 393 Q477 369 499 328.5 Q521 288 521 226 Q521 166 500 122 Q479 78 442 49 Q405 20 355.5 6 Q306 -8 248 -8 Q234 -8 214 -7.5 Q194 -7 171.5 -5.5 Q149 -4 126.5 -1 Q104 2 85 7 L85 700 Z M259 64 Q295 64 326.5 73.5 Q358 83 382 102.5 Q406 122 419.5 151.5 Q433 181 433 220 Q433 262 418 290 Q403 318 378.5 334.5 Q354 351 322 357.5 Q290 364 256 364 Q247 364 234 363 Q221 362 208 361 Q195 360 184 358 Q173 356 168 355 L168 70 Q182 67 208 65.5 Q234 64 259 64 Z " />
<glyph glyph-name="afii10047" unicode="&#x42d;" horiz-adv-x="577" d="M150 395 L438 395 Q433 456 414 502.5 Q395 549 365 579.5 Q335 610 295.5 624 Q256 638 210 638 Q163 638 126.5 630 Q90 622 67 608 L45 673 Q76 691 122 701.5 Q168 712 220 712 Q284 712 339 692 Q394 672 434.5 628.5 Q475 585 498 516 Q521 447 521 350 Q521 252 495 183 Q469 114 424.5 70.5 Q380 27 321.5 7.5 Q263 -12 199 -12 Q149 -12 110.5 -5 Q72 2 45 13 L67 86 Q90 75 127 68.5 Q164 62 204 62 Q244 62 284.5 74.5 Q325 87 358 118 Q391 149 413 199 Q435 249 439 321 L150 321 L150 395 Z " />
<glyph glyph-name="afii10048" unicode="&#x42e;" horiz-adv-x="893" d="M168 395 L292 395 Q300 548 369 630 Q438 712 566 712 Q639 712 691 686 Q743 660 775 612.5 Q807 565 822 498.5 Q837 432 837 350 Q837 175 770 81.5 Q703 -12 566 -12 Q497 -12 446 11.5 Q395 35 361.5 78.5 Q328 122 311 183.5 Q294 245 291 321 L168 321 L168 0 L85 0 L85 700 L168 700 L168 395 Z M379 350 Q379 292 389 240 Q399 188 421 148.5 Q443 109 478.5 85.5 Q514 62 566 62 Q659 62 704 132 Q749 202 749 350 Q749 407 740 459.5 Q731 512 709.5 551.5 Q688 591 653 614.5 Q618 638 566 638 Q473 638 426 567.5 Q379 497 379 350 Z " />
<glyph glyph-name="afii10049" unicode="&#x42f;" horiz-adv-x="569" d="M484 0 L401 0 L401 305 L298 283 L124 0 L26 0 L182 249 L243 292 Q207 300 176.5 316.5 Q146 333 123.5 358.5 Q101 384 88.5 418 Q76 452 76 496 Q76 557 96.5 597.5 Q117 638 152.5 662.5 Q188 687 235.5 697.5 Q283 708 336 708 Q370 708 408.5 705 Q447 702 484 693 L484 0 Z M332 636 Q299 636 269 629.5 Q239 623 215.5 607 Q192 591 178 564 Q164 537 164 496 Q164 458 177.5 431 Q191 404 214 386.5 Q237 369 267.5 361 Q298 353 333 353 L401 353 L401 630 Q387 633 372 634.5 Q357 636 332 636 Z " />
<glyph glyph-name="afii10065" unicode="&#x430;" horiz-adv-x="496" d="M69 463 Q107 486 157.5 497 Q208 508 263 508 Q315 508 346.5 494 Q378 480 394.5 457.5 Q411 435 416.5 408 Q422 381 422 354 Q422 294 419 237 Q416 180 416 129 Q416 92 419 59 Q422 26 430 -2 L371 -2 L350 68 L345 68 Q336 54 322.5 40.5 Q309 27 290 16.5 Q271 6 246 -1 Q221 -8 189 -8 Q157 -8 129.5 2 Q102 12 82 30.5 Q62 49 50.5 75 Q39 101 39 134 Q39 178 57 207.5 Q75 237 107.5 254.5 Q140 272 185.5 279.5 Q231 287 286 287 Q300 287 313.5 287 Q327 287 341 285 Q344 315 344 339 Q344 394 322 416 Q300 438 242 438 Q225 438 205.5 435.5 Q186 433 165.5 428.5 Q145 424 126.5 417.5 Q108 411 94 403 L69 463 Z M211 62 Q239 62 261 69.5 Q283 77 299 88.5 Q315 100 325.5 114 Q336 128 341 141 L341 224 Q327 225 312.5 225.5 Q298 226 284 226 Q253 226 223.5 222.5 Q194 219 171.5 209.5 Q149 200 135.5 183.5 Q122 167 122 142 Q122 107 147 84.5 Q172 62 211 62 Z " />
<glyph glyph-name="afii10066" unicode="&#x431;" horiz-adv-x="536" d="M123 411 Q156 459 196 478.5 Q236 498 296 498 Q388 498 437.5 438 Q487 378 487 261 Q487 126 429.5 57 Q372 -12 269 -12 Q159 -12 104 64 Q49 140 49 303 Q49 389 57.5 450 Q66 511 82.5 553 Q99 595 122.5 620 Q146 645 175.5 659.5 Q205 674 240 680 Q275 686 315 690 Q367 695 396.5 701.5 Q426 708 444 725 L453 653 Q443 644 431 638 Q419 632 402 628 Q385 624 361.5 621 Q338 618 307 616 Q264 613 231.5 605.5 Q199 598 175.5 576.5 Q152 555 138.5 515.5 Q125 476 120 411 L123 411 Z M132 249 Q132 211 140 176 Q148 141 164.5 114.5 Q181 88 207 73 Q233 58 268 58 Q337 58 370.5 107.5 Q404 157 404 254 Q404 292 397 324 Q390 356 375 379.5 Q360 403 337 415.5 Q314 428 282 428 Q204 429 168 382.5 Q132 336 132 249 Z " />
<glyph glyph-name="afii10067" unicode="&#x432;" horiz-adv-x="499" d="M77 499 Q112 501 150.5 504 Q189 507 246 507 Q345 507 388 476.5 Q431 446 431 384 Q431 349 410.5 315.5 Q390 282 343 266 L343 262 Q402 251 426 221 Q450 191 450 141 Q450 63 394 28 Q338 -7 226 -7 Q184 -7 148 -4.5 Q112 -2 77 1 L77 499 Z M157 67 Q176 65 194.5 64 Q213 63 238 63 Q305 63 337.5 82 Q370 101 370 147 Q370 183 342.5 205.5 Q315 228 245 228 L157 228 L157 67 Z M255 289 Q273 289 290 295 Q307 301 320.5 311.5 Q334 322 342.5 336 Q351 350 351 366 Q351 406 327 421.5 Q303 437 243 437 Q211 437 192.5 436 Q174 435 157 434 L157 289 L255 289 Z " />
<glyph glyph-name="afii10068" unicode="&#x433;" horiz-adv-x="369" d="M369 430 L157 430 L157 0 L77 0 L77 500 L369 500 L369 430 Z " />
<glyph glyph-name="afii10069" unicode="&#x434;" horiz-adv-x="541" d="M519 -127 L465 -127 L450 0 L74 0 L59 -127 L5 -127 L5 70 L64 70 Q72 81 85 109.5 Q98 138 110.5 189.5 Q123 241 132.5 317.5 Q142 394 144 500 L446 500 L446 70 L519 70 L519 -127 Z M366 70 L366 430 L216 430 Q214 388 209 338.5 Q204 289 195.5 239.5 Q187 190 174 146 Q161 102 144 70 L366 70 Z " />
<glyph glyph-name="afii10070" unicode="&#x435;" horiz-adv-x="508" d="M442 40 Q412 16 366.5 2 Q321 -12 270 -12 Q213 -12 171 6.5 Q129 25 102 59.5 Q75 94 62 142 Q49 190 49 250 Q49 378 106 445 Q163 512 269 512 Q303 512 337 504.5 Q371 497 398 476 Q425 455 442 416.5 Q459 378 459 315 Q459 282 453 242 L132 242 Q132 198 141 164 Q150 130 169 106.5 Q188 83 218.5 70.5 Q249 58 293 58 Q327 58 361 70 Q395 82 412 98 L442 40 Z M270 442 Q211 442 175.5 411 Q140 380 133 305 L381 305 Q381 381 352 411.5 Q323 442 270 442 Z " />
<glyph glyph-name="afii10072" unicode="&#x436;" horiz-adv-x="659" d="M240 221 L93 0 L1 0 L159 229 L193 259 L142 297 L12 500 L97 500 L235 284 L287 284 L287 500 L365 500 L365 274 L412 288 L551 500 L635 500 L499 297 L460 265 L511 225 L659 0 L564 0 L417 225 L365 225 L365 0 L287 0 L287 235 L240 221 Z " />
<glyph glyph-name="afii10073" unicode="&#x437;" horiz-adv-x="441" d="M125 223 L125 288 L195 288 Q213 288 230.5 294 Q248 300 262 310.5 Q276 321 284.5 335.5 Q293 350 293 366 Q293 405 266 421 Q239 437 185 437 Q146 437 113.5 425 Q81 413 63 402 L40 464 Q70 481 110.5 494 Q151 507 207 507 Q373 507 373 384 Q373 349 350.5 315.5 Q328 282 286 268 L286 264 Q345 253 368.5 222 Q392 191 392 140 Q392 108 379 81 Q366 54 340 34 Q314 14 274.5 2.5 Q235 -9 183 -9 Q132 -9 98.5 0 Q65 9 38 22 L61 88 Q84 75 116.5 68 Q149 61 187 61 Q248 61 280 82 Q312 103 312 146 Q312 182 282 202.5 Q252 223 183 223 L125 223 Z " />
<glyph glyph-name="afii10074" unicode="&#x438;" horiz-adv-x="546" d="M389 296 L392 358 L389 358 L348 294 L123 0 L77 0 L77 500 L157 500 L157 195 L154 136 L158 136 L197 198 L422 500 L469 500 L469 0 L389 0 L389 296 Z " />
<glyph glyph-name="afii10075" unicode="&#x439;" horiz-adv-x="546" d="M389 296 L392 358 L389 358 L348 294 L123 0 L77 0 L77 500 L157 500 L157 195 L154 136 L158 136 L197 198 L422 500 L469 500 L469 0 L389 0 L389 296 Z M192 702 Q202 656 226.5 638 Q251 620 283 620 Q315 620 340 639 Q365 658 374 701 L434 682 Q425 624 382.5 593 Q340 562 281 562 Q254 562 227.5 569 Q201 576 180 590 Q159 604 144 626 Q129 648 124 678 L192 702 Z " />
<glyph glyph-name="afii10076" unicode="&#x43a;" horiz-adv-x="478" d="M203 225 L157 225 L157 0 L77 0 L77 500 L157 500 L157 274 L200 288 L360 500 L447 500 L292 299 L250 266 L302 226 L469 0 L370 0 L203 225 Z " />
<glyph glyph-name="afii10077" unicode="&#x43b;" horiz-adv-x="503" d="M346 430 L201 430 Q198 388 195 339.5 Q192 291 186 242.5 Q180 194 170 149.5 Q160 105 144.5 71 Q129 37 106.5 16.5 Q84 -4 53 -4 Q34 -4 20 -2 Q6 0 -5 5 L7 72 Q19 68 33 68 Q53 68 69 85 Q85 102 97 149.5 Q109 197 117 281 Q125 365 128 500 L426 500 L426 0 L346 0 L346 430 Z " />
<glyph glyph-name="afii10078" unicode="&#x43c;" horiz-adv-x="645" d="M490 297 L496 392 L491 392 L455 315 L334 119 L306 119 L180 315 L147 392 L143 392 L151 298 L151 0 L77 0 L77 500 L156 500 L296 276 L325 218 L327 218 L357 278 L488 500 L568 500 L568 0 L490 0 L490 297 Z " />
<glyph glyph-name="afii10079" unicode="&#x43d;" horiz-adv-x="540" d="M383 221 L157 221 L157 0 L77 0 L77 500 L157 500 L157 291 L383 291 L383 500 L463 500 L463 0 L383 0 L383 221 Z " />
<glyph glyph-name="afii10080" unicode="&#x43e;" horiz-adv-x="536" d="M49 250 Q49 377 105.5 444.5 Q162 512 268 512 Q324 512 365.5 493.5 Q407 475 434 440.5 Q461 406 474 357.5 Q487 309 487 250 Q487 123 430.5 55.5 Q374 -12 268 -12 Q212 -12 170.5 6.5 Q129 25 102 59.5 Q75 94 62 142.5 Q49 191 49 250 Z M132 250 Q132 212 139.5 177 Q147 142 163 116 Q179 90 205 74 Q231 58 268 58 Q404 57 404 250 Q404 289 396.5 324 Q389 359 373 385 Q357 411 331 426.5 Q305 442 268 442 Q132 443 132 250 Z " />
<glyph glyph-name="afii10081" unicode="&#x43f;" horiz-adv-x="535" d="M378 430 L157 430 L157 0 L77 0 L77 500 L458 500 L458 0 L378 0 L378 430 Z " />
<glyph glyph-name="afii10082" unicode="&#x440;" horiz-adv-x="541" d="M77 500 L132 500 L147 440 L151 440 Q174 475 210.5 493.5 Q247 512 294 512 Q394 512 443 453 Q492 394 492 260 Q492 197 475.5 146.5 Q459 96 429 61 Q399 26 356.5 7 Q314 -12 262 -12 Q225 -12 203.5 -7.5 Q182 -3 157 8 L157 -200 L77 -200 L77 500 Z M279 442 Q228 442 198.5 415.5 Q169 389 157 335 L157 87 Q175 73 198 65.5 Q221 58 259 58 Q328 58 368.5 109.5 Q409 161 409 261 Q409 302 402 335.5 Q395 369 379.5 392.5 Q364 416 339.5 429 Q315 442 279 442 Z " />
<glyph glyph-name="afii10083" unicode="&#x441;" horiz-adv-x="451" d="M418 33 Q388 11 347 -0.5 Q306 -12 261 -12 Q203 -12 163 6.5 Q123 25 97.5 59.5 Q72 94 60.5 142.5 Q49 191 49 250 Q49 377 105 444.5 Q161 512 266 512 Q314 512 347.5 504.5 Q381 497 408 483 L385 414 Q362 427 334 434.5 Q306 442 274 442 Q132 442 132 250 Q132 212 139.5 177.5 Q147 143 164.5 116.5 Q182 90 210.5 74 Q239 58 281 58 Q317 58 345.5 69 Q374 80 392 94 L418 33 Z " />
<glyph glyph-name="afii10084" unicode="&#x442;" horiz-adv-x="397" d="M395 430 L239 430 L239 0 L159 0 L159 430 L3 430 L3 500 L395 500 L395 430 Z " />
<glyph glyph-name="afii10085" unicode="&#x443;" horiz-adv-x="466" d="M224 176 L252 80 L257 80 L279 177 L376 500 L457 500 L309 51 Q292 2 275.5 -44 Q259 -90 239 -126 Q219 -162 194 -183.5 Q169 -205 136 -205 Q100 -205 77 -195 L91 -126 Q104 -131 116 -131 Q144 -131 170 -101.5 Q196 -72 213 0 L12 500 L104 500 L224 176 Z " />
<glyph glyph-name="afii10086" unicode="&#x444;" horiz-adv-x="680" d="M302 -4 Q285 -10 266.5 -11 Q248 -12 233 -12 Q142 -12 93 52 Q44 116 44 250 Q44 378 98 443 Q152 508 254 508 Q282 508 302 504 L302 700 L378 700 L378 503 Q396 506 410 507 Q424 508 437 508 Q536 508 586 450.5 Q636 393 636 260 Q636 197 622.5 146.5 Q609 96 583 61 Q557 26 519.5 7 Q482 -12 433 -12 Q424 -12 406.5 -10.5 Q389 -9 378 -5 L378 -200 L302 -200 L302 -4 Z M422 442 Q410 442 400.5 441.5 Q391 441 377 437 L377 57 Q387 55 399.5 54.5 Q412 54 427 54 Q491 54 523.5 107 Q556 160 556 260 Q556 345 526.5 393.5 Q497 442 422 442 Z M253 54 Q265 54 277 55 Q289 56 303 59 L303 438 Q291 440 280.5 441 Q270 442 255 442 Q193 442 158.5 395.5 Q124 349 124 250 Q124 208 131.5 172 Q139 136 155 109.5 Q171 83 195.5 68.5 Q220 54 253 54 Z " />
<glyph glyph-name="afii10087" unicode="&#x445;" horiz-adv-x="515" d="M208 256 L40 500 L138 500 L233 362 L261 305 L290 362 L387 500 L477 500 L308 260 L487 0 L392 0 L286 152 L256 212 L225 152 L117 0 L28 0 L208 256 Z " />
<glyph glyph-name="afii10088" unicode="&#x446;" horiz-adv-x="548" d="M526 -127 L472 -127 L457 0 L77 0 L77 500 L157 500 L157 70 L374 70 L374 500 L454 500 L454 70 L526 70 L526 -127 Z " />
<glyph glyph-name="afii10089" unicode="&#x447;" horiz-adv-x="490" d="M129 500 L129 364 Q129 337 132 315.5 Q135 294 144 278.5 Q153 263 170 254.5 Q187 246 215 246 Q260 246 289 256 Q318 266 333 278 L333 500 L413 500 L413 0 L333 0 L333 210 Q317 200 285.5 188 Q254 176 199 176 Q162 176 134 184 Q106 192 87 212 Q68 232 58.5 265 Q49 298 49 348 L49 500 L129 500 Z " />
<glyph glyph-name="afii10090" unicode="&#x448;" horiz-adv-x="736" d="M77 0 L77 500 L157 500 L157 70 L328 70 L328 500 L408 500 L408 70 L579 70 L579 500 L659 500 L659 0 L77 0 Z " />
<glyph glyph-name="afii10091" unicode="&#x449;" horiz-adv-x="753" d="M731 -130 L677 -130 L662 0 L77 0 L77 500 L157 500 L157 70 L328 70 L328 500 L408 500 L408 70 L579 70 L579 500 L659 500 L659 70 L731 70 L731 -130 Z " />
<glyph glyph-name="afii10092" unicode="&#x44a;" horiz-adv-x="497" d="M191 70 Q230 64 261 64 Q324 64 354 88.5 Q384 113 384 158 Q384 198 355 224 Q326 250 264 250 Q247 250 228 249 Q209 248 191 243 L191 70 Z M191 309 Q215 313 236.5 314.5 Q258 316 278 316 Q330 316 366 304.5 Q402 293 424.5 273 Q447 253 457 225.5 Q467 198 467 167 Q467 76 412.5 35 Q358 -6 243 -6 Q210 -6 178 -4.5 Q146 -3 111 0 L111 430 L1 430 L1 500 L191 500 L191 309 Z " />
<glyph glyph-name="afii10093" unicode="&#x44b;" horiz-adv-x="660" d="M157 70 Q194 64 228 64 Q291 64 316 88.5 Q341 113 341 158 Q341 198 316.5 224 Q292 250 231 250 Q214 250 194 249 Q174 248 157 243 L157 70 Z M157 309 Q181 313 203 314.5 Q225 316 245 316 Q296 316 330.5 304.5 Q365 293 386 273 Q407 253 415.5 225.5 Q424 198 424 167 Q424 76 373.5 35 Q323 -6 210 -6 Q146 -6 77 0 L77 500 L157 500 L157 309 Z M503 500 L583 500 L583 0 L503 0 L503 500 Z " />
<glyph glyph-name="afii10094" unicode="&#x44c;" horiz-adv-x="464" d="M157 70 Q194 64 228 64 Q291 64 321 88.5 Q351 113 351 158 Q351 198 322 224 Q293 250 231 250 Q214 250 194 249 Q174 248 157 243 L157 70 Z M157 309 Q181 313 203 314.5 Q225 316 245 316 Q297 316 333 304.5 Q369 293 391.5 273 Q414 253 424 225.5 Q434 198 434 167 Q434 76 379.5 35 Q325 -6 210 -6 Q146 -6 77 0 L77 500 L157 500 L157 309 Z " />
<glyph glyph-name="afii10095" unicode="&#x44d;" horiz-adv-x="465" d="M121 285 L333 285 Q328 356 291.5 399 Q255 442 188 442 Q147 442 116.5 431 Q86 420 67 407 L39 468 Q70 489 110 500.5 Q150 512 203 512 Q314 512 365 443 Q416 374 416 250 Q416 122 357 55 Q298 -12 193 -12 Q146 -12 106.5 -4.5 Q67 3 40 18 L63 86 Q86 73 119.5 65.5 Q153 58 185 58 Q325 57 334 219 L121 219 L121 285 Z " />
<glyph glyph-name="afii10096" unicode="&#x44e;" horiz-adv-x="719" d="M465 -12 Q411 -12 372.5 4.5 Q334 21 309.5 51.5 Q285 82 272.5 125.5 Q260 169 257 221 L157 221 L157 0 L77 0 L77 500 L157 500 L157 291 L258 291 Q266 398 316.5 455 Q367 512 467 512 Q522 512 560.5 493.5 Q599 475 623.5 440.5 Q648 406 659 357.5 Q670 309 670 250 Q670 123 619.5 55.5 Q569 -12 465 -12 Z M336 250 Q336 211 342 176 Q348 141 363 114.5 Q378 88 403.5 73 Q429 58 467 58 Q531 58 559 104.5 Q587 151 587 250 Q587 289 581.5 324 Q576 359 562 385.5 Q548 412 525 427 Q502 442 466 442 Q397 442 366.5 395.5 Q336 349 336 250 Z " />
<glyph glyph-name="afii10097" unicode="&#x44f;" horiz-adv-x="475" d="M326 207 L249 195 L117 0 L20 0 L140 171 L180 208 Q128 216 91.5 250 Q55 284 55 342 Q55 387 70.5 419 Q86 451 115 472 Q144 493 184 502.5 Q224 512 274 512 Q311 512 343 507 Q375 502 406 496 L406 0 L326 0 L326 207 Z M326 432 Q313 437 297 439.5 Q281 442 269 442 Q205 442 171.5 419 Q138 396 138 346 Q138 301 173.5 276.5 Q209 252 267 252 Q268 252 270 252 Q272 252 278 252 Q284 252 295 252.5 Q306 253 326 254 L326 432 Z " />
<glyph glyph-name="afii10071" unicode="&#x451;" horiz-adv-x="508" d="M442 40 Q412 16 366.5 2 Q321 -12 270 -12 Q213 -12 171 6.5 Q129 25 102 59.5 Q75 94 62 142 Q49 190 49 250 Q49 378 106 445 Q163 512 269 512 Q303 512 337 504.5 Q371 497 398 476 Q425 455 442 416.5 Q459 378 459 315 Q459 282 453 242 L132 242 Q132 198 141 164 Q150 130 169 106.5 Q188 83 218.5 70.5 Q249 58 293 58 Q327 58 361 70 Q395 82 412 98 L442 40 Z M270 442 Q211 442 175.5 411 Q140 380 133 305 L381 305 Q381 381 352 411.5 Q323 442 270 442 Z M119 634 Q119 657 132.5 671 Q146 685 168 685 Q190 685 203.5 671 Q217 657 217 634 Q217 613 203.5 599 Q190 585 168 585 Q146 585 132.5 599 Q119 613 119 634 Z M311 634 Q311 657 324.5 671 Q338 685 360 685 Q383 685 396.5 671 Q410 657 410 634 Q410 613 396.5 599 Q383 585 360 585 Q338 585 324.5 599 Q311 613 311 634 Z " />
<glyph glyph-name="afii10099" unicode="&#x452;" horiz-adv-x="548" d="M-2 500 L78 500 L78 700 L158 700 L158 500 L318 500 L318 440 L158 440 L158 292 L162 292 Q188 323 224.5 341.5 Q261 360 315 360 Q357 360 388 350.5 Q419 341 439.5 317 Q460 293 469.5 252.5 Q479 212 479 150 L479 -27 Q479 -120 447 -166 Q415 -212 345 -212 Q337 -212 330 -211.5 Q323 -211 315 -210 L315 -142 Q343 -142 359.5 -133.5 Q376 -125 385 -107.5 Q394 -90 396.5 -63 Q399 -36 399 0 L399 132 Q399 171 394.5 201 Q390 231 378 250.5 Q366 270 345.5 280 Q325 290 292 290 Q245 290 207 259.5 Q169 229 158 181 L158 0 L78 0 L78 440 L-2 440 L-2 500 Z " />
<glyph glyph-name="afii10100" unicode="&#x453;" horiz-adv-x="369" d="M369 430 L157 430 L157 0 L77 0 L77 500 L369 500 L369 430 Z M240 720 L329 720 L329 699 L228 571 L181 571 L240 720 Z " />
<glyph glyph-name="afii10101" unicode="&#x454;" horiz-adv-x="472" d="M438 33 Q408 11 365 -0.5 Q322 -12 277 -12 Q219 -12 176.5 6.5 Q134 25 105.5 59.5 Q77 94 63 142.5 Q49 191 49 250 Q49 313 66 362 Q83 411 113.5 444 Q144 477 187 494.5 Q230 512 282 512 Q330 512 366 504.5 Q402 497 429 483 L406 414 Q383 427 352.5 434.5 Q322 442 290 442 Q221 443 179.5 403.5 Q138 364 130 286 L366 286 L366 220 L129 220 Q132 187 143.5 157 Q155 127 175.5 105 Q196 83 226 70.5 Q256 58 298 58 Q333 58 363.5 69 Q394 80 412 94 L438 33 Z " />
<glyph glyph-name="afii10102" unicode="&#x455;" horiz-adv-x="421" d="M297 136 Q297 166 279 183 Q261 200 234.5 211.5 Q208 223 176.5 233.5 Q145 244 118.5 260.5 Q92 277 74 303 Q56 329 56 373 Q56 445 97 478.5 Q138 512 211 512 Q265 512 301.5 502.5 Q338 493 365 480 L346 414 Q323 425 290.5 433.5 Q258 442 221 442 Q177 442 156.5 427 Q136 412 136 375 Q136 349 154 334.5 Q172 320 198.5 308.5 Q225 297 256.5 286 Q288 275 314.5 257 Q341 239 359 211.5 Q377 184 377 139 Q377 107 366.5 79 Q356 51 334 31 Q312 11 279.5 -0.5 Q247 -12 203 -12 Q146 -12 106 -1 Q66 10 39 25 L63 93 Q86 80 123 69 Q160 58 198 58 Q241 58 269 75 Q297 92 297 136 Z " />
<glyph glyph-name="afii10103" unicode="&#x456;" horiz-adv-x="268" d="M94 500 L174 500 L174 0 L94 0 L94 500 Z M77 652 Q77 675 92.5 691.5 Q108 708 132 708 Q156 708 173 691.5 Q190 675 190 652 Q190 629 173 614 Q156 599 132 599 Q108 599 92.5 614 Q77 629 77 652 Z " />
<glyph glyph-name="afii10104" unicode="&#x457;" horiz-adv-x="278" d="M29 633 Q29 656 41.5 669.5 Q54 683 77 683 Q99 683 112 669.5 Q125 656 125 633 Q125 612 112 598 Q99 584 77 584 Q54 584 41.5 598 Q29 612 29 633 Z M154 633 Q154 656 166.5 669.5 Q179 683 201 683 Q224 683 237 669.5 Q250 656 250 633 Q250 612 237 598 Q224 584 201 584 Q179 584 166.5 598 Q154 612 154 633 Z M98 500 L178 500 L178 0 L98 0 L98 500 Z " />
<glyph glyph-name="afii10105" unicode="&#x458;" horiz-adv-x="267" d="M93 500 L173 500 L173 -27 Q173 -120 141 -166 Q109 -212 39 -212 Q31 -212 24 -211.5 Q17 -211 9 -210 L9 -142 Q37 -142 53.5 -133.5 Q70 -125 79 -107 Q88 -89 90.5 -61.5 Q93 -34 93 3 L93 500 Z M76 652 Q76 675 91.5 691.5 Q107 708 131 708 Q155 708 172 691.5 Q189 675 189 652 Q189 629 172 614 Q155 599 131 599 Q107 599 91.5 614 Q76 629 76 652 Z " />
<glyph glyph-name="afii10106" unicode="&#x459;" horiz-adv-x="733" d="M426 309 Q450 313 472 314.5 Q494 316 514 316 Q566 316 602 304.5 Q638 293 660.5 273 Q683 253 693 225.5 Q703 198 703 167 Q703 76 648.5 35 Q594 -6 479 -6 Q415 -6 346 0 L346 430 L201 430 Q198 388 195 339.5 Q192 291 186 242.5 Q180 194 170 149.5 Q160 105 144.5 71 Q129 37 106.5 16.5 Q84 -4 53 -4 Q34 -4 20 -2 Q6 0 -5 5 L7 72 Q19 68 33 68 Q53 68 69 85 Q85 102 97 149.5 Q109 197 117 281 Q125 365 128 500 L426 500 L426 309 Z M426 69 Q463 63 497 63 Q560 63 590 88 Q620 113 620 158 Q620 198 591 224 Q562 250 500 250 Q483 250 463 249 Q443 248 426 243 L426 69 Z " />
<glyph glyph-name="afii10107" unicode="&#x45a;" horiz-adv-x="770" d="M463 70 Q500 64 534 64 Q597 64 627 88.5 Q657 113 657 158 Q657 198 628 224 Q599 250 537 250 Q520 250 500.5 248.5 Q481 247 463 243 L463 70 Z M463 309 Q487 313 509 314.5 Q531 316 551 316 Q603 316 639 304.5 Q675 293 697.5 273 Q720 253 730 225.5 Q740 198 740 167 Q740 76 685.5 35 Q631 -6 516 -6 Q452 -6 383 0 L383 223 L157 223 L157 0 L77 0 L77 500 L157 500 L157 293 L383 293 L383 500 L463 500 L463 309 Z " />
<glyph glyph-name="afii10108" unicode="&#x45b;" horiz-adv-x="548" d="M-2 500 L78 500 L78 700 L158 700 L158 500 L318 500 L318 440 L158 440 L158 292 L162 292 Q188 323 224.5 341.5 Q261 360 315 360 Q357 360 388 350.5 Q419 341 439.5 317 Q460 293 469.5 252.5 Q479 212 479 150 L479 0 L399 0 L399 132 Q399 171 394.5 201 Q390 231 378 250.5 Q366 270 345.5 280 Q325 290 292 290 Q245 290 207 259.5 Q169 229 158 181 L158 0 L78 0 L78 440 L-2 440 L-2 500 Z " />
<glyph glyph-name="afii10109" unicode="&#x45c;" horiz-adv-x="478" d="M203 225 L157 225 L157 0 L77 0 L77 500 L157 500 L157 274 L200 288 L360 500 L447 500 L292 299 L250 266 L302 226 L469 0 L370 0 L203 225 Z M256 720 L345 720 L345 699 L244 571 L197 571 L256 720 Z " />
<glyph glyph-name="afii10110" unicode="&#x45e;" horiz-adv-x="466" d="M224 176 L252 80 L257 80 L279 177 L376 500 L457 500 L309 51 Q292 2 275.5 -44 Q259 -90 239 -126 Q219 -162 194 -183.5 Q169 -205 136 -205 Q100 -205 77 -195 L91 -126 Q104 -131 116 -131 Q144 -131 170 -101.5 Q196 -72 213 0 L12 500 L104 500 L224 176 Z M157 702 Q167 656 191.5 638 Q216 620 248 620 Q280 620 305 639 Q330 658 339 701 L399 682 Q390 624 347.5 593 Q305 562 246 562 Q219 562 192.5 569 Q166 576 145 590 Q124 604 109 626 Q94 648 89 678 L157 702 Z " />
<glyph glyph-name="afii10193" unicode="&#x45f;" horiz-adv-x="535" d="M77 0 L77 500 L157 500 L157 70 L378 70 L378 500 L458 500 L458 0 L312 0 L297 -179 L245 -179 L225 0 L77 0 Z " />
<glyph glyph-name="afii10146" unicode="&#x462;" horiz-adv-x="619" d="M0 620 L149 620 L149 721 L232 721 L232 620 L439 620 L439 550 L232 550 L232 427 Q237 428 249 429.5 Q261 431 275 432 Q289 433 304 434 Q319 435 331 435 Q379 435 424.5 425.5 Q470 416 505.5 392.5 Q541 369 563 328.5 Q585 288 585 226 Q585 166 564 122 Q543 78 506 49 Q469 20 419.5 6 Q370 -8 312 -8 Q298 -8 278 -7.5 Q258 -7 235.5 -5.5 Q213 -4 190.5 -1 Q168 2 149 7 L149 550 L0 550 L0 620 Z M323 64 Q359 64 390.5 73.5 Q422 83 446 102.5 Q470 122 483.5 151.5 Q497 181 497 220 Q497 262 482 290 Q467 318 442.5 334 Q418 350 386 356.5 Q354 363 320 363 Q311 363 298 362 Q285 361 272 360 Q259 359 248 357 Q237 355 232 354 L232 70 Q246 67 272 65.5 Q298 64 323 64 Z " />
<glyph glyph-name="afii10194" unicode="&#x463;" horiz-adv-x="497" d="M1 500 L110 500 L110 700 L190 700 L190 500 L350 500 L350 434 L190 434 L190 309 Q214 313 236 314.5 Q258 316 278 316 Q330 316 366 304.5 Q402 293 424.5 273 Q447 253 457 225.5 Q467 198 467 167 Q467 76 412.5 35 Q358 -6 243 -6 Q179 -6 110 0 L110 434 L1 434 L1 500 Z M190 70 Q229 64 261 64 Q324 64 354 88.5 Q384 113 384 158 Q384 198 355 224 Q326 250 264 250 Q247 250 227.5 249 Q208 248 190 243 L190 70 Z " />
<glyph glyph-name="afii10147" unicode="&#x472;" horiz-adv-x="684" d="M56 350 Q56 525 130 618.5 Q204 712 341 712 Q415 712 469 686 Q523 660 558.5 612.5 Q594 565 611 498.5 Q628 432 628 350 Q628 175 553.5 81.5 Q479 -12 341 -12 Q268 -12 214.5 14 Q161 40 125.5 87.5 Q90 135 73 201.5 Q56 268 56 350 Z M540 392 Q532 511 477.5 574.5 Q423 638 341 638 Q305 638 271 625.5 Q237 613 210 584 Q183 555 165.5 508 Q148 461 144 392 L540 392 Z M144 318 Q152 189 206.5 125.5 Q261 62 341 62 Q378 62 413 74 Q448 86 475 115.5 Q502 145 519.5 194 Q537 243 540 318 L144 318 Z " />
<glyph glyph-name="afii10195" unicode="&#x473;" horiz-adv-x="536" d="M49 250 Q49 377 105.5 444.5 Q162 512 268 512 Q324 512 365.5 493.5 Q407 475 434 440.5 Q461 406 474 357.5 Q487 309 487 250 Q487 123 430.5 55.5 Q374 -12 268 -12 Q212 -12 170.5 6.5 Q129 25 102 59.5 Q75 94 62 142.5 Q49 191 49 250 Z M404 281 Q396 366 360.5 404 Q325 442 268 442 Q242 442 218.5 434 Q195 426 176.5 407 Q158 388 146 357 Q134 326 132 281 L404 281 Z M132 217 Q137 139 175 98.5 Q213 58 268 58 Q293 58 316.5 66 Q340 74 358.5 92 Q377 110 389 140.5 Q401 171 404 217 L132 217 Z " />
<glyph glyph-name="afii10148" unicode="&#x474;" horiz-adv-x="598" d="M304 -11 L267 -11 L-2 700 L88 700 L266 219 L290 113 L292 113 L308 221 Q327 287 347.5 353.5 Q368 420 389 492 Q412 570 432.5 613.5 Q453 657 474 677.5 Q495 698 517 702.5 Q539 707 565 707 Q600 707 620 701.5 Q640 696 657 685 L633 615 Q613 626 595.5 629.5 Q578 633 564 633 Q536 633 517 607 Q498 581 478 520 L304 -11 Z " />
<glyph glyph-name="afii10196" unicode="&#x475;" horiz-adv-x="507" d="M261 -11 L227 -11 L10 500 L102 500 L222 207 L250 112 L251 112 L276 209 Q290 245 298.5 266 Q307 287 311.5 299 Q316 311 318 316 Q320 321 322 325 Q338 368 352 401.5 Q366 435 382.5 458.5 Q399 482 420.5 494.5 Q442 507 472 507 Q490 507 504 505 Q518 503 530 498 L518 424 Q509 428 500.5 430.5 Q492 433 484 433 Q467 433 450 418 Q433 403 413 356 L261 -11 Z " />
<glyph glyph-name="uni048A" unicode="&#x48a;" horiz-adv-x="690" d="M513 474 L519 554 L515 554 L472 472 L134 0 L85 0 L85 700 L168 700 L168 220 L161 141 L165 141 L209 223 L547 700 L596 700 L596 70 L700 70 L700 48 L609 -130 L555 -130 L600 0 L513 0 L513 474 Z M256 870 Q260 833 284 813 Q308 793 348 793 Q388 793 411.5 813 Q435 833 440 869 L511 852 Q500 798 460.5 766.5 Q421 735 347 735 Q276 735 230.5 762.5 Q185 790 177 850 L256 870 Z " />
<glyph glyph-name="uni048B" unicode="&#x48b;" horiz-adv-x="561" d="M389 296 L392 358 L389 358 L348 294 L123 0 L77 0 L77 500 L157 500 L157 195 L154 136 L158 136 L197 198 L422 500 L469 500 L469 70 L569 70 L569 48 L478 -130 L424 -130 L469 0 L389 0 L389 296 Z M192 702 Q202 656 226.5 638 Q251 620 283 620 Q315 620 340 639 Q365 658 374 701 L434 682 Q425 624 382.5 593 Q340 562 281 562 Q254 562 227.5 569 Q201 576 180 590 Q159 604 144 626 Q129 648 124 678 L192 702 Z " />
<glyph glyph-name="uni048C" unicode="&#x48c;" horiz-adv-x="561" d="M0 700 L91 700 L91 780 L174 780 L174 700 L320 700 L320 638 L174 638 L174 428 Q179 429 191 430.5 Q203 432 217 433 Q231 434 246 435 Q261 436 273 436 Q321 436 366.5 426.5 Q412 417 447.5 393 Q483 369 505 328.5 Q527 288 527 226 Q527 166 506 122 Q485 78 448 49 Q411 20 361.5 6 Q312 -8 254 -8 Q240 -8 220 -7.5 Q200 -7 177.5 -5.5 Q155 -4 132.5 -1 Q110 2 91 7 L91 638 L0 638 L0 700 Z M265 64 Q301 64 332.5 73.5 Q364 83 388 102.5 Q412 122 425.5 151.5 Q439 181 439 220 Q439 262 424 290 Q409 318 384.5 334.5 Q360 351 328 357.5 Q296 364 262 364 Q253 364 240 363 Q227 362 214 361 Q201 360 190 358 Q179 356 174 355 L174 70 Q188 67 214 65.5 Q240 64 265 64 Z " />
<glyph glyph-name="uni048D" unicode="&#x48d;" horiz-adv-x="497" d="M1 500 L110 500 L110 700 L190 700 L190 500 L350 500 L350 434 L190 434 L190 309 Q214 313 236 314.5 Q258 316 278 316 Q330 316 366 304.5 Q402 293 424.5 273 Q447 253 457 225.5 Q467 198 467 167 Q467 76 412.5 35 Q358 -6 243 -6 Q179 -6 110 0 L110 434 L1 434 L1 500 Z M190 70 Q229 64 261 64 Q324 64 354 88.5 Q384 113 384 158 Q384 198 355 224 Q326 250 264 250 Q247 250 227.5 249 Q208 248 190 243 L190 70 Z " />
<glyph glyph-name="uni048E" unicode="&#x48e;" horiz-adv-x="559" d="M85 693 Q123 702 167 705 Q211 708 254 708 Q300 708 347.5 699 Q395 690 434 666 Q473 642 497.5 600 Q522 558 522 493 Q522 418 490.5 370 Q459 322 409 296 L477 198 L431 165 L354 275 Q306 262 250 262 Q245 262 233.5 262 Q222 262 209.5 262.5 Q197 263 185 264 Q173 265 168 266 L168 0 L85 0 L85 693 Z M291 462 L362 359 Q394 376 414 407.5 Q434 439 434 493 Q434 534 418.5 561.5 Q403 589 377.5 605.5 Q352 622 320 629 Q288 636 256 636 Q230 636 206 635 Q182 634 168 630 L168 340 Q173 338 184 337.5 Q195 337 207 336.5 Q219 336 230 336 Q241 336 246 336 Q263 336 279 337 Q295 338 312 342 L248 435 L291 462 Z " />
<glyph glyph-name="uni048F" unicode="&#x48f;" horiz-adv-x="541" d="M77 500 L132 500 L147 440 L151 440 Q174 475 210.5 493.5 Q247 512 294 512 Q394 512 443 453 Q492 394 492 260 Q492 185 470 129 Q448 73 407 38 L460 -24 L418 -61 L359 8 Q316 -12 262 -12 Q225 -12 203.5 -7.5 Q182 -3 157 8 L157 -200 L77 -200 L77 500 Z M297 163 L355 94 Q381 120 395 161.5 Q409 203 409 261 Q409 302 402 335.5 Q395 369 379.5 393 Q364 417 339.5 429.5 Q315 442 279 442 Q228 442 198.5 415.5 Q169 389 157 335 L157 86 Q175 72 198 65 Q221 58 259 58 Q290 57 313 67 L258 132 L297 163 Z " />
<glyph glyph-name="afii10050" unicode="&#x490;" horiz-adv-x="442" d="M460 626 L168 626 L168 0 L85 0 L85 700 L388 700 L404 834 L460 834 L460 626 Z " />
<glyph glyph-name="afii10098" unicode="&#x491;" horiz-adv-x="369" d="M157 430 L157 0 L77 0 L77 500 L297 500 L313 634 L369 634 L369 430 L157 430 Z " />
<glyph glyph-name="uni0492" unicode="&#x492;" horiz-adv-x="482" d="M481 626 L189 626 L189 385 L404 385 L404 319 L189 319 L189 0 L106 0 L106 319 L10 319 L10 385 L106 385 L106 700 L481 700 L481 626 Z " />
<glyph glyph-name="uni0493" unicode="&#x493;" horiz-adv-x="385" d="M382 430 L170 430 L170 279 L339 279 L339 219 L170 219 L170 0 L90 0 L90 219 L0 219 L0 279 L90 279 L90 500 L382 500 L382 430 Z " />
<glyph glyph-name="uni0494" unicode="&#x494;" horiz-adv-x="577" d="M168 0 L85 0 L85 700 L460 700 L460 626 L168 626 L168 355 Q180 359 215.5 367.5 Q251 376 306 376 Q346 376 384.5 365 Q423 354 453.5 327 Q484 300 502.5 253.5 Q521 207 521 136 Q521 -1 460.5 -64.5 Q400 -128 288 -128 Q255 -128 240.5 -127.5 Q226 -127 218 -125 L218 -51 Q231 -53 246.5 -53.5 Q262 -54 291 -54 Q433 -54 433 129 Q433 180 421 213.5 Q409 247 388.5 267.5 Q368 288 340.5 296 Q313 304 281 304 Q263 304 245.5 301.5 Q228 299 212.5 295.5 Q197 292 185.5 288 Q174 284 168 282 L168 0 Z " />
<glyph glyph-name="uni0495" unicode="&#x495;" horiz-adv-x="535" d="M157 0 L77 0 L77 500 L368 500 L368 430 L157 430 L157 252 Q168 257 198 265 Q228 273 282 273 Q322 273 358 261.5 Q394 250 421 223.5 Q448 197 464 153.5 Q480 110 480 45 Q480 -86 427.5 -147.5 Q375 -209 263 -209 Q230 -209 215.5 -208.5 Q201 -208 193 -206 L193 -136 Q206 -138 221.5 -138.5 Q237 -139 266 -139 Q336 -139 368 -93.5 Q400 -48 400 35 Q400 124 361 163.5 Q322 203 260 203 Q224 203 196 195 Q168 187 157 182 L157 0 Z " />
<glyph glyph-name="uni0496" unicode="&#x496;" horiz-adv-x="819" d="M358 700 L438 700 L438 374 L481 388 L684 700 L776 700 L574 396 L534 364 L584 323 L756 74 L814 74 L814 -129 L756 -129 L741 0 L705 0 L484 324 L438 324 L438 0 L358 0 L358 336 L316 322 L95 0 L-1 0 L220 313 L268 351 L222 386 L13 700 L110 700 L313 386 L358 386 L358 700 Z " />
<glyph glyph-name="uni0497" unicode="&#x497;" horiz-adv-x="693" d="M240 221 L93 0 L1 0 L159 229 L193 259 L142 297 L12 500 L97 500 L235 284 L287 284 L287 500 L365 500 L365 274 L412 288 L551 500 L635 500 L499 297 L460 265 L511 225 L613 70 L688 70 L688 -127 L634 -127 L619 0 L564 0 L417 225 L365 225 L365 0 L287 0 L287 235 L240 221 Z " />
<glyph glyph-name="uni0498" unicode="&#x498;" horiz-adv-x="541" d="M139 331 L139 401 L155 401 Q164 401 177 401 Q190 401 203.5 402 Q217 403 229.5 403.5 Q242 404 250 406 Q276 410 299 419.5 Q322 429 339 444 Q356 459 366 479 Q376 499 376 523 Q376 556 365 578 Q354 600 334.5 613.5 Q315 627 289.5 632.5 Q264 638 235 638 Q181 638 143 630.5 Q105 623 82 612 L60 678 Q80 689 132 700.5 Q184 712 249 712 Q289 712 327.5 703.5 Q366 695 396.5 675.5 Q427 656 445.5 622.5 Q464 589 464 540 Q464 490 431 444.5 Q398 399 332 379 L332 375 Q403 365 444 322 Q485 279 485 207 Q485 155 466.5 116.5 Q448 78 417.5 51.5 Q387 25 346.5 9.5 Q306 -6 262 -10 L248 -179 L196 -179 L177 -11 Q131 -9 99 -2 Q67 5 44 14 L65 89 Q88 78 129.5 70.5 Q171 63 230 63 Q261 63 291 71.5 Q321 80 344.5 97 Q368 114 382.5 140 Q397 166 397 202 Q397 265 353 294.5 Q309 324 238 329 Q226 330 215.5 330.5 Q205 331 194 331 L139 331 Z " />
<glyph glyph-name="uni0499" unicode="&#x499;" horiz-adv-x="441" d="M125 223 L125 288 L195 288 Q213 288 230.5 294 Q248 300 262 310.5 Q276 321 284.5 335.5 Q293 350 293 366 Q293 405 266 421 Q239 437 185 437 Q146 437 113.5 425 Q81 413 63 402 L40 464 Q70 481 110.5 494 Q151 507 207 507 Q373 507 373 384 Q373 349 350.5 315.5 Q328 282 286 268 L286 264 Q345 253 368.5 222 Q392 191 392 140 Q392 86 354.5 46.5 Q317 7 241 -5 L227 -179 L175 -179 L156 -8 Q116 -6 88.5 2.5 Q61 11 38 22 L61 88 Q84 75 116.5 68 Q149 61 187 61 Q248 61 280 82 Q312 103 312 146 Q312 182 282 202.5 Q252 223 183 223 L125 223 Z " />
<glyph glyph-name="uni049A" unicode="&#x49a;" horiz-adv-x="615" d="M215 324 L168 324 L168 0 L85 0 L85 700 L168 700 L168 374 L213 388 L448 700 L544 700 L310 399 L268 366 L319 326 L517 74 L606 74 L606 -129 L548 -129 L533 0 L470 0 L215 324 Z " />
<glyph glyph-name="uni049B" unicode="&#x49b;" horiz-adv-x="506" d="M203 225 L157 225 L157 0 L77 0 L77 500 L157 500 L157 274 L200 288 L360 500 L447 500 L292 299 L250 266 L302 226 L417 70 L496 70 L496 -127 L442 -127 L427 0 L370 0 L203 225 Z " />
<glyph glyph-name="uni049C" unicode="&#x49c;" horiz-adv-x="685" d="M222 324 L168 324 L168 0 L85 0 L85 700 L168 700 L168 374 L222 379 L222 505 L288 505 L288 386 L311 388 L525 700 L620 700 L404 399 L363 366 L413 326 L650 0 L546 0 L314 324 L288 324 L288 195 L222 195 L222 324 Z " />
<glyph glyph-name="uni049D" unicode="&#x49d;" horiz-adv-x="541" d="M205 225 L157 225 L157 0 L77 0 L77 500 L157 500 L157 274 L205 279 L205 402 L268 402 L268 285 L294 288 L425 500 L509 500 L383 299 L339 266 L391 226 L529 0 L435 0 L297 225 L268 225 L268 98 L205 98 L205 225 Z " />
<glyph glyph-name="uni049E" unicode="&#x49e;" horiz-adv-x="664" d="M0 636 L139 636 L139 700 L222 700 L222 636 L344 636 L344 570 L222 570 L222 374 L271 388 L503 700 L598 700 L367 399 L323 366 L375 326 L629 0 L523 0 L271 324 L222 324 L222 0 L139 0 L139 568 L0 568 L0 636 Z " />
<glyph glyph-name="uni049F" unicode="&#x49f;" horiz-adv-x="481" d="M-2 613 L79 613 L79 700 L159 700 L159 613 L318 613 L318 553 L159 553 L159 274 L200 288 L355 500 L448 500 L295 299 L254 266 L304 226 L471 0 L372 0 L205 225 L159 225 L159 0 L79 0 L79 553 L-2 553 L-2 613 Z " />
<glyph glyph-name="uni04A0" unicode="&#x4a0;" horiz-adv-x="685" d="M161 626 L0 626 L0 700 L244 700 L244 374 L288 388 L523 700 L620 700 L385 399 L344 366 L394 326 L651 0 L545 0 L290 324 L244 324 L244 0 L161 0 L161 626 Z " />
<glyph glyph-name="uni04A1" unicode="&#x4a1;" horiz-adv-x="512" d="M191 274 L233 288 L394 500 L480 500 L325 299 L284 266 L336 226 L503 0 L404 0 L237 225 L191 225 L191 0 L111 0 L111 430 L1 430 L1 500 L191 500 L191 274 Z " />
<glyph glyph-name="uni04A2" unicode="&#x4a2;" horiz-adv-x="707" d="M504 321 L168 321 L168 0 L85 0 L85 700 L168 700 L168 395 L504 395 L504 700 L587 700 L587 74 L679 74 L679 -129 L621 -129 L606 0 L504 0 L504 321 Z " />
<glyph glyph-name="uni04A3" unicode="&#x4a3;" horiz-adv-x="546" d="M383 221 L157 221 L157 0 L77 0 L77 500 L157 500 L157 291 L383 291 L383 500 L463 500 L463 70 L536 70 L536 -127 L482 -127 L467 0 L383 0 L383 221 Z " />
<glyph glyph-name="uni04A4" unicode="&#x4a4;" horiz-adv-x="861" d="M879 626 L587 626 L587 0 L504 0 L504 321 L168 321 L168 0 L85 0 L85 700 L168 700 L168 395 L504 395 L504 700 L879 700 L879 626 Z " />
<glyph glyph-name="uni04A5" unicode="&#x4a5;" horiz-adv-x="675" d="M675 430 L463 430 L463 0 L383 0 L383 221 L157 221 L157 0 L77 0 L77 500 L157 500 L157 291 L383 291 L383 500 L675 500 L675 430 Z " />
</font>
</defs>
</svg>
