<?xml version="1.0" encoding="UTF-8"?>
<svg xmlns="http://www.w3.org/2000/svg" xmlns:xlink="http://www.w3.org/1999/xlink" version="1.2" >
<font id="HeliosLight">
<font-face  font-family="HeliosLight" units-per-em="1000" ascent="720" descent="-204" font-style="normal" font-weight="400" font-stretch="normal" cap-height="720" x-height="518" underline-position="-61" underline-thickness="58" />
<missing-glyph  horiz-adv-x="500" d="" />
<glyph glyph-name="&amp;#x20;" unicode="&#x20;" horiz-adv-x="278" d="" />
<glyph glyph-name="&amp;#xa0;" unicode="&#xa0;" horiz-adv-x="278" d="" />
<glyph glyph-name="numbersign" unicode="&#x23;" horiz-adv-x="556" d="M227 427 L205 287 L343 287 L363 427 L227 427 Z M504 228 L393 228 L361 0 L302 0 L333 228 L196 228 L162 0 L103 0 L137 228 L27 228 L27 287 L146 287 L167 427 L55 427 L55 486 L175 486 L207 698 L267 698 L235 486 L371 486 L402 698 L461 698 L430 486 L530 486 L530 427 L422 427 L402 287 L504 287 L504 228 Z " />
<glyph glyph-name="dollar" unicode="&#x24;" horiz-adv-x="556" d="M302 -95 L255 -95 L255 -19 Q213 -19 174 -3.5 Q135 12 105 38 Q75 64 57.5 99 Q40 134 40 173 L40 203 L102 203 Q102 169 113 139.5 Q124 110 144.5 87.5 Q165 65 193 51 Q221 37 255 35 L255 332 Q214 342 177.5 355.5 Q141 369 114 390.5 Q87 412 71.5 444 Q56 476 56 523 Q56 565 72 598.5 Q88 632 115 655.5 Q142 679 178 692 Q214 705 255 705 L255 766 L302 766 L302 705 Q343 705 378 693.5 Q413 682 439 659.5 Q465 637 480 604 Q495 571 497 529 L432 529 Q432 557 422 579.5 Q412 602 394 618 Q376 634 352.5 642.5 Q329 651 302 651 L302 385 Q351 373 391 359 Q431 345 459 322 Q487 299 502.5 262.5 Q518 226 518 169 Q518 125 499 90 Q480 55 449.5 31 Q419 7 380 -6 Q341 -19 302 -19 L302 -95 Z M302 35 Q333 35 360.5 46 Q388 57 409 76 Q430 95 442 121.5 Q454 148 454 180 Q454 217 442 241.5 Q430 266 409.5 281.5 Q389 297 361.5 306 Q334 315 302 322 L302 35 Z M255 651 Q227 651 202.5 642 Q178 633 159.5 616.5 Q141 600 130.5 577 Q120 554 120 526 Q120 493 130.5 471 Q141 449 159.5 434.5 Q178 420 202.5 411 Q227 402 255 394 L255 651 Z " />
<glyph glyph-name="percent" unicode="&#x25;" horiz-adv-x="889" d="M271 -14 L219 -14 L616 705 L668 705 L271 -14 Z M232 641 Q210 641 190.5 632.5 Q171 624 156 609 Q141 594 132.5 574 Q124 554 124 532 Q124 510 132.5 490.5 Q141 471 156 456 Q171 441 190.5 432.5 Q210 424 232 424 Q254 424 273.5 432.5 Q293 441 308 456 Q323 471 332 490.5 Q341 510 341 532 Q341 554 332.5 573.5 Q324 593 309 608 Q294 623 274 632 Q254 641 232 641 Z M232 698 Q266 698 296.5 685 Q327 672 349.5 649.5 Q372 627 385 596.5 Q398 566 398 532 Q398 498 385 468 Q372 438 349.5 415.5 Q327 393 296.5 380 Q266 367 232 367 Q198 367 168 380 Q138 393 115.5 415.5 Q93 438 80 468 Q67 498 67 532 Q67 566 80 596 Q93 626 115.5 648.5 Q138 671 168 684.5 Q198 698 232 698 Z M658 274 Q636 274 616.5 265.5 Q597 257 582 242 Q567 227 558.5 207 Q550 187 550 165 Q550 143 558.5 123.5 Q567 104 582 89 Q597 74 616.5 65.5 Q636 57 658 57 Q680 57 699.5 65.5 Q719 74 734 89 Q749 104 758 123.5 Q767 143 767 165 Q767 187 758.5 206.5 Q750 226 735 241 Q720 256 700 265 Q680 274 658 274 Z M658 331 Q692 331 722.5 318 Q753 305 775.5 282.5 Q798 260 811 229.5 Q824 199 824 165 Q824 131 811 101 Q798 71 775.5 48.5 Q753 26 722.5 13 Q692 0 658 0 Q624 0 594 13 Q564 26 541.5 48.5 Q519 71 506 101 Q493 131 493 165 Q493 199 506 229 Q519 259 541.5 281.5 Q564 304 594 317.5 Q624 331 658 331 Z " />
<glyph glyph-name="ampersand" unicode="&#x26;" horiz-adv-x="667" d="M577 326 Q575 277 564.5 228.5 Q554 180 527 138 L644 0 L563 0 L493 85 Q446 29 392 5 Q338 -19 266 -19 Q219 -19 178 -3.5 Q137 12 106.5 40 Q76 68 58.5 107.5 Q41 147 41 195 Q41 235 55 269 Q69 303 92.5 331 Q116 359 147 380.5 Q178 402 213 418 Q184 452 160 491.5 Q136 531 136 579 Q136 613 149 639.5 Q162 666 184 684 Q206 702 235.5 711 Q265 720 298 720 Q331 720 359 709 Q387 698 407 679 Q427 660 438 634.5 Q449 609 449 581 Q449 549 439.5 524.5 Q430 500 412 479 Q394 458 367.5 439 Q341 420 307 400 L488 186 Q507 218 512.5 253.5 Q518 289 518 326 L577 326 Z M293 666 Q274 666 257 660 Q240 654 226.5 643 Q213 632 205 616 Q197 600 197 580 Q197 564 205 545 Q213 526 224.5 508 Q236 490 249 473.5 Q262 457 272 445 Q329 477 357 507.5 Q385 538 385 576 Q385 593 379 609 Q373 625 361 638 Q349 651 332 658.5 Q315 666 293 666 Z M249 375 Q219 361 193.5 341.5 Q168 322 149.5 298 Q131 274 120 246.5 Q109 219 109 190 Q109 154 121.5 125.5 Q134 97 155.5 77 Q177 57 206.5 46 Q236 35 271 35 Q329 35 373.5 61.5 Q418 88 454 131 L249 375 Z " />
<glyph glyph-name="quotesingle" unicode="&#x27;" horiz-adv-x="222" d="M85 720 L137 720 L137 494 L85 494 L85 720 Z " />
<glyph glyph-name="parenleft" unicode="&#x28;" horiz-adv-x="333" d="M277 739 Q205 635 164 517 Q123 399 123 272 Q123 147 165.5 29.5 Q208 -88 277 -191 L226 -191 Q185 -134 153 -80.5 Q121 -27 99 28.5 Q77 84 66 144.5 Q55 205 55 276 Q55 345 66.5 405.5 Q78 466 100 522 Q122 578 153.5 631.5 Q185 685 226 739 L277 739 Z " />
<glyph glyph-name="parenright" unicode="&#x29;" horiz-adv-x="333" d="M107 739 Q148 682 180 628.5 Q212 575 233.5 519.5 Q255 464 266.5 403.5 Q278 343 278 272 Q278 203 266.5 142.5 Q255 82 233 26 Q211 -30 179 -83.5 Q147 -137 107 -191 L56 -191 Q128 -87 169 30.5 Q210 148 210 275 Q210 400 167.5 518 Q125 636 56 739 L107 739 Z " />
<glyph glyph-name="asterisk" unicode="&#x2a;" horiz-adv-x="389" d="M173 603 L173 720 L215 720 L215 603 L329 645 L344 601 L230 564 L305 458 L266 434 L192 542 L114 436 L79 463 L156 564 L44 604 L62 646 L173 603 Z " />
<glyph glyph-name="plus" unicode="&#x2b;" horiz-adv-x="660" d="M300 500 L360 500 L360 280 L580 280 L580 220 L360 220 L360 0 L300 0 L300 220 L80 220 L80 280 L300 280 L300 500 Z " />
<glyph glyph-name="comma" unicode="&#x2c;" horiz-adv-x="278" d="M175 88 L175 -30 Q175 -74 154.5 -100.5 Q134 -127 102 -137 L102 -100 Q114 -92 125 -78 Q136 -64 136 -34 L136 0 L102 0 L102 88 L175 88 Z " />
<glyph glyph-name="&amp;#x2d;" unicode="&#x2d;" horiz-adv-x="333" d="M293 280 L293 220 L40 220 L40 280 L293 280 Z " />
<glyph glyph-name="&amp;#xad;" unicode="&#xad;" horiz-adv-x="333" d="M293 280 L293 220 L40 220 L40 280 L293 280 Z " />
<glyph glyph-name="period" unicode="&#x2e;" horiz-adv-x="278" d="M102 0 L102 88 L175 88 L175 0 L102 0 Z " />
<glyph glyph-name="slash" unicode="&#x2f;" horiz-adv-x="278" d="M53 -90 L-3 -90 L232 739 L288 739 L53 -90 Z " />
<glyph glyph-name="zero" unicode="0" horiz-adv-x="556" d="M278 705 Q330 705 368 689.5 Q406 674 432.5 647 Q459 620 475.5 584 Q492 548 501 507.5 Q510 467 513 424 Q516 381 516 340 Q516 270 506 206 Q496 142 469.5 93 Q443 44 397 15 Q351 -14 278 -14 Q205 -14 158.5 15 Q112 44 85.5 93.5 Q59 143 49 208.5 Q39 274 39 347 Q39 414 48 478 Q57 542 82.5 592.5 Q108 643 155 674 Q202 705 278 705 Z M452 347 Q452 404 445.5 458.5 Q439 513 420 556 Q401 599 366.5 625 Q332 651 276 651 Q223 651 189.5 624.5 Q156 598 137 554 Q118 510 110.5 454 Q103 398 103 340 Q103 272 111.5 216.5 Q120 161 140 122 Q160 83 193.5 61.5 Q227 40 278 40 Q335 40 369.5 68 Q404 96 422 140 Q440 184 446 239 Q452 294 452 347 Z " />
<glyph glyph-name="one" unicode="1" horiz-adv-x="556" d="M366 705 L366 0 L302 0 L302 524 L120 524 L120 566 Q160 569 192.5 574 Q225 579 249.5 593 Q274 607 290.5 633.5 Q307 660 315 705 L366 705 Z " />
<glyph glyph-name="two" unicode="2" horiz-adv-x="556" d="M69 474 Q69 526 85 568.5 Q101 611 131 641.5 Q161 672 203.5 688.5 Q246 705 298 705 Q351 705 391.5 689.5 Q432 674 459.5 648 Q487 622 501 586 Q515 550 515 510 Q515 463 499.5 427 Q484 391 458.5 363 Q433 335 400.5 313 Q368 291 334 271.5 Q300 252 267 234 Q234 216 208 196 Q191 183 175 168.5 Q159 154 146 137 Q133 120 125 99.5 Q117 79 116 54 L509 54 L509 0 L48 0 Q48 51 58.5 92 Q69 133 103 172 Q140 214 179.5 244 Q219 274 257 297.5 Q295 321 329 340.5 Q363 360 389 383 Q415 406 430 435.5 Q445 465 445 506 Q445 540 433 567 Q421 594 400 613 Q379 632 351 641.5 Q323 651 290 651 Q255 651 227 636.5 Q199 622 179 598 Q159 574 148 542 Q137 510 137 474 L69 474 Z " />
<glyph glyph-name="three" unicode="3" horiz-adv-x="556" d="M58 500 Q58 531 67.5 566.5 Q77 602 102.5 633 Q128 664 172.5 684.5 Q217 705 286 705 Q328 705 364.5 694.5 Q401 684 428 662.5 Q455 641 471 608 Q487 575 487 531 Q487 476 462.5 436 Q438 396 387 374 Q425 362 449.5 342.5 Q474 323 488 299.5 Q502 276 507 250 Q512 224 512 200 Q512 156 497 117.5 Q482 79 453 49.5 Q424 20 381.5 3 Q339 -14 285 -14 Q224 -14 179 -3 Q134 8 104 33.5 Q74 59 57 100.5 Q40 142 34 204 L98 204 Q98 123 146.5 81.5 Q195 40 273 40 Q311 40 343 53 Q375 66 398.5 87.5 Q422 109 435 138 Q448 167 448 199 Q448 242 430 269 Q412 296 381 312 Q350 328 308.5 334 Q267 340 221 340 L221 392 Q266 392 303 398 Q340 404 366.5 419 Q393 434 408 460 Q423 486 423 527 Q423 560 411 583.5 Q399 607 378.5 622 Q358 637 330.5 644 Q303 651 273 651 Q239 651 211.5 640 Q184 629 164 608.5 Q144 588 133 560.5 Q122 533 122 500 L58 500 Z " />
<glyph glyph-name="four" unicode="4" horiz-adv-x="556" d="M99 228 L358 228 L358 602 L99 228 Z M422 698 L422 228 L520 228 L520 174 L422 174 L422 0 L358 0 L358 174 L36 174 L36 229 L364 698 L422 698 Z " />
<glyph glyph-name="five" unicode="5" horiz-adv-x="556" d="M468 698 L468 644 L172 644 L128 407 Q149 420 166.5 429 Q184 438 202 443.5 Q220 449 239.5 451 Q259 453 283 453 Q331 453 372 437 Q413 421 443 391 Q473 361 489.5 317.5 Q506 274 506 220 Q506 164 487.5 120.5 Q469 77 438 47 Q407 17 366.5 1.5 Q326 -14 283 -14 Q233 -14 189.5 -4 Q146 6 113 29.5 Q80 53 59.5 90.5 Q39 128 35 183 L99 183 Q109 111 156.5 75.5 Q204 40 273 40 Q312 40 343.5 54 Q375 68 397 92.5 Q419 117 430.5 149.5 Q442 182 442 220 Q442 259 429.5 292 Q417 325 394.5 349 Q372 373 339.5 386 Q307 399 267 399 Q219 399 181 381.5 Q143 364 114 326 L61 333 L118 698 L468 698 Z " />
<glyph glyph-name="six" unicode="6" horiz-adv-x="556" d="M288 388 Q251 388 221.5 374 Q192 360 171.5 336 Q151 312 140 280.5 Q129 249 129 213 Q129 183 137.5 152.5 Q146 122 165.5 97 Q185 72 215 56 Q245 40 289 40 Q334 40 364.5 55.5 Q395 71 414 96.5 Q433 122 441.5 153.5 Q450 185 450 217 Q450 299 410.5 343.5 Q371 388 288 388 Z M437 532 Q426 586 393 618.5 Q360 651 303 651 Q238 651 200.5 620 Q163 589 143 541.5 Q123 494 116 438 Q109 382 105 332 Q120 352 136.5 372 Q153 392 174 407.5 Q195 423 223 432.5 Q251 442 290 442 Q397 442 455.5 381.5 Q514 321 514 215 Q514 108 455 47 Q396 -14 288 -14 Q235 -14 190 3.5 Q145 21 112 61 Q79 101 60 165.5 Q41 230 41 323 Q41 386 52 453.5 Q63 521 91.5 577 Q120 633 169.5 669 Q219 705 297 705 Q381 705 437 661 Q493 617 503 532 L437 532 Z " />
<glyph glyph-name="seven" unicode="7" horiz-adv-x="556" d="M59 698 L508 698 L508 638 Q432 552 379 461.5 Q326 371 292 285.5 Q258 200 241.5 126 Q225 52 222 0 L152 0 Q157 76 182.5 161.5 Q208 247 246 331 Q284 415 332 493.5 Q380 572 431 634 L59 634 L59 698 Z " />
<glyph glyph-name="eight" unicode="8" horiz-adv-x="556" d="M167 379 Q141 395 122.5 409.5 Q104 424 92 441 Q80 458 74.5 479.5 Q69 501 69 533 Q69 569 85 600.5 Q101 632 128.5 655.5 Q156 679 192.5 692 Q229 705 270 705 Q310 705 348.5 695 Q387 685 417 664 Q447 643 465 610.5 Q483 578 483 533 Q483 478 460.5 439 Q438 400 387 375 Q445 354 478.5 308 Q512 262 512 200 Q512 148 494.5 108 Q477 68 444.5 41 Q412 14 366 0 Q320 -14 264 -14 Q226 -14 186.5 -1 Q147 12 115.5 38 Q84 64 64 103 Q44 142 44 194 Q44 257 75.5 306.5 Q107 356 167 379 Z M276 651 Q246 651 220 643 Q194 635 174.5 619 Q155 603 144 579 Q133 555 133 524 Q133 491 145.5 467.5 Q158 444 179 429 Q200 414 227 406.5 Q254 399 283 399 Q312 399 337 406.5 Q362 414 380 431 Q398 448 408.5 474 Q419 500 419 538 Q419 592 384 621.5 Q349 651 276 651 Z M279 345 Q242 345 211 336 Q180 327 157 308.5 Q134 290 121 261.5 Q108 233 108 194 Q108 161 120.5 133 Q133 105 155.5 84.5 Q178 64 210.5 52 Q243 40 283 40 Q318 40 348 51.5 Q378 63 400.5 84 Q423 105 435.5 134 Q448 163 448 198 Q448 235 435 262.5 Q422 290 399 308.5 Q376 327 345 336 Q314 345 279 345 Z " />
<glyph glyph-name="nine" unicode="9" horiz-adv-x="556" d="M268 651 Q187 651 146 602 Q105 553 105 470 Q105 389 147.5 344 Q190 299 268 299 Q305 299 334.5 313 Q364 327 384.5 351 Q405 375 415.5 406.5 Q426 438 426 474 Q426 552 384.5 601.5 Q343 651 268 651 Z M118 155 Q129 98 162.5 69 Q196 40 255 40 Q318 40 355.5 71 Q393 102 413.5 149 Q434 196 441.5 250.5 Q449 305 451 353 L449 355 Q417 301 369.5 273 Q322 245 259 245 Q209 245 169 261 Q129 277 100.5 307 Q72 337 56.5 379 Q41 421 41 472 Q41 522 55 564.5 Q69 607 97 638.5 Q125 670 167.5 687.5 Q210 705 268 705 Q339 705 386.5 677 Q434 649 462.5 601 Q491 553 503 488 Q515 423 515 349 Q515 259 496 191.5 Q477 124 442.5 78 Q408 32 361 9 Q314 -14 258 -14 Q217 -14 181 -4 Q145 6 118 27 Q91 48 74 80 Q57 112 53 155 L118 155 Z " />
<glyph glyph-name="colon" unicode="&#x3a;" horiz-adv-x="278" d="M102 404 L102 492 L175 492 L175 404 L102 404 Z M102 0 L102 88 L175 88 L175 0 L102 0 Z " />
<glyph glyph-name="&amp;#x3b;" unicode="&#x3b;" horiz-adv-x="278" d="M102 404 L102 492 L175 492 L175 404 L102 404 Z M175 88 L175 -30 Q175 -74 154.5 -100.5 Q134 -127 102 -137 L102 -100 Q114 -92 125 -78 Q136 -64 136 -34 L136 0 L102 0 L102 88 L175 88 Z " />
<glyph glyph-name="&amp;#x37e;" unicode="&#x37e;" horiz-adv-x="278" d="M102 404 L102 492 L175 492 L175 404 L102 404 Z M175 88 L175 -30 Q175 -74 154.5 -100.5 Q134 -127 102 -137 L102 -100 Q114 -92 125 -78 Q136 -64 136 -34 L136 0 L102 0 L102 88 L175 88 Z " />
<glyph glyph-name="less" unicode="&#x3c;" horiz-adv-x="660" d="M580 58 L580 -6 L80 229 L80 282 L580 505 L580 441 L159 255 L580 58 Z " />
<glyph glyph-name="equal" unicode="&#x3d;" horiz-adv-x="660" d="M580 124 L80 124 L80 184 L580 184 L580 124 Z M580 318 L80 318 L80 378 L580 378 L580 318 Z " />
<glyph glyph-name="greater" unicode="&#x3e;" horiz-adv-x="660" d="M580 229 L80 -6 L80 58 L501 255 L80 441 L80 505 L580 282 L580 229 Z " />
<glyph glyph-name="question" unicode="&#x3f;" horiz-adv-x="500" d="M219 0 L219 88 L292 88 L292 0 L219 0 Z M225 182 Q225 209 226.5 234 Q228 259 233 282 Q238 305 249 326 Q260 347 280 368 Q302 391 326 413 Q350 435 370 457.5 Q390 480 403.5 504 Q417 528 417 556 Q417 583 406.5 606.5 Q396 630 376 647.5 Q356 665 327 675 Q298 685 261 685 Q224 685 195.5 672 Q167 659 147.5 636.5 Q128 614 118 583 Q108 552 108 516 L47 516 Q47 566 62.5 607 Q78 648 106.5 677.5 Q135 707 174.5 723 Q214 739 263 739 Q314 739 354.5 725.5 Q395 712 423 687.5 Q451 663 466 628 Q481 593 481 551 Q481 507 462 475.5 Q443 444 416 416 Q389 388 358.5 361 Q328 334 304 301 Q298 292 293.5 278 Q289 264 287 247.5 Q285 231 284 214 Q283 197 283 182 L225 182 Z " />
<glyph glyph-name="at" unicode="&#x40;" horiz-adv-x="800" d="M337 196 Q371 196 401 223.5 Q431 251 453.5 291 Q476 331 489 375.5 Q502 420 502 454 Q502 483 483 505 Q464 527 433 527 Q393 527 361 502.5 Q329 478 306.5 441.5 Q284 405 271.5 363.5 Q259 322 259 288 Q259 252 279 224 Q299 196 337 196 Z M743 167 Q719 123 684 88.5 Q649 54 606.5 30 Q564 6 516 -6.5 Q468 -19 419 -19 Q339 -19 269.5 11 Q200 41 149 93 Q98 145 69 214.5 Q40 284 40 363 Q40 441 70 509.5 Q100 578 151.5 629 Q203 680 271 709.5 Q339 739 415 739 Q487 739 550 715.5 Q613 692 659.5 650 Q706 608 733 550 Q760 492 760 423 Q760 364 738.5 311 Q717 258 683.5 218.5 Q650 179 608.5 156 Q567 133 527 133 Q501 133 475.5 144.5 Q450 156 441 183 Q418 160 386 146.5 Q354 133 322 133 Q290 133 264 145 Q238 157 220 177.5 Q202 198 192.5 225 Q183 252 183 283 Q183 333 201 386.5 Q219 440 251.5 484.5 Q284 529 329.5 557.5 Q375 586 431 586 Q466 586 497 569 Q528 552 543 520 L558 566 L625 566 Q598 485 579 428.5 Q560 372 547.5 334 Q535 296 528 273 Q521 250 517.5 237.5 Q514 225 513 219.5 Q512 214 512 211 Q512 198 518 190.5 Q524 183 541 183 Q572 183 601 206 Q630 229 652 264.5 Q674 300 687 343 Q700 386 700 426 Q700 487 677 536 Q654 585 615 619 Q576 653 525 671 Q474 689 417 689 Q348 689 289.5 662.5 Q231 636 189 590.5 Q147 545 123.5 484.5 Q100 424 100 356 Q100 288 124.5 229 Q149 170 192 126 Q235 82 293 56.5 Q351 31 419 31 Q458 31 495.5 40 Q533 49 567.5 66.5 Q602 84 631.5 109.5 Q661 135 684 167 L743 167 Z " />
<glyph glyph-name="A" unicode="A" horiz-adv-x="651" d="M183 284 L465 284 L324 662 L183 284 Z M365 720 L641 0 L571 0 L488 226 L160 226 L75 0 L5 0 L288 720 L365 720 Z " />
<glyph glyph-name="B" unicode="B" horiz-adv-x="663" d="M81 720 L341 720 Q404 720 449 707 Q494 694 522.5 670 Q551 646 564 612.5 Q577 579 577 539 Q577 501 567 473.5 Q557 446 541 427.5 Q525 409 504.5 398.5 Q484 388 462 384 L462 382 Q537 371 573.5 323 Q610 275 610 203 Q610 147 592.5 108 Q575 69 544 45 Q513 21 469.5 10.5 Q426 0 375 0 L81 0 L81 720 Z M149 402 L321 402 Q374 402 410 411 Q446 420 468 437.5 Q490 455 499.5 480.5 Q509 506 509 539 Q509 573 498 596.5 Q487 620 463 634.5 Q439 649 400.5 655.5 Q362 662 306 662 L149 662 L149 402 Z M149 58 L322 58 Q378 58 419.5 63 Q461 68 488 83.5 Q515 99 528.5 127.5 Q542 156 542 203 Q542 248 527 275.5 Q512 303 484 318 Q456 333 417 338.5 Q378 344 330 344 L149 344 L149 58 Z " />
<glyph glyph-name="C" unicode="C" horiz-adv-x="727" d="M597 511 Q576 603 519 642 Q462 681 370 681 Q305 681 258 655 Q211 629 180.5 585 Q150 541 135.5 483.5 Q121 426 121 362 Q121 302 133.5 244 Q146 186 175 140.5 Q204 95 253 67 Q302 39 376 39 Q422 39 460 54 Q498 69 526.5 95.5 Q555 122 574.5 158 Q594 194 604 237 L675 237 Q663 185 640 138.5 Q617 92 579.5 57 Q542 22 488.5 1.5 Q435 -19 363 -19 Q280 -19 221 11.5 Q162 42 124.5 94 Q87 146 70 214.5 Q53 283 53 360 Q53 463 78.5 535 Q104 607 149 652.5 Q194 698 255 718.5 Q316 739 388 739 Q443 739 490.5 724.5 Q538 710 574.5 681 Q611 652 634.5 609.5 Q658 567 667 511 L597 511 Z " />
<glyph glyph-name="D" unicode="D" horiz-adv-x="722" d="M149 58 L312 58 Q358 58 398.5 63.5 Q439 69 481 91 Q517 109 540 140 Q563 171 576.5 207.5 Q590 244 595.5 284 Q601 324 601 361 Q601 400 596 440.5 Q591 481 577 517.5 Q563 554 539 584.5 Q515 615 477 635 Q445 652 401 657 Q357 662 312 662 L149 662 L149 58 Z M81 720 L327 720 Q357 720 386 718.5 Q415 717 443 711.5 Q471 706 497.5 695 Q524 684 549 666 Q585 640 608 602.5 Q631 565 644.5 523.5 Q658 482 663.5 439.5 Q669 397 669 361 Q669 325 664.5 288 Q660 251 650 215.5 Q640 180 623.5 147.5 Q607 115 582 88 Q557 60 527.5 43 Q498 26 465.5 16.5 Q433 7 398 3.5 Q363 0 327 0 L81 0 L81 720 Z " />
<glyph glyph-name="E" unicode="E" horiz-adv-x="611" d="M560 720 L560 662 L149 662 L149 411 L520 411 L520 353 L149 353 L149 58 L570 58 L570 0 L81 0 L81 720 L560 720 Z " />
<glyph glyph-name="F" unicode="F" horiz-adv-x="563" d="M545 720 L545 662 L149 662 L149 411 L509 411 L509 353 L149 353 L149 0 L81 0 L81 720 L545 720 Z " />
<glyph glyph-name="G" unicode="G" horiz-adv-x="776" d="M617 511 Q608 551 586.5 583 Q565 615 535 636.5 Q505 658 468 669.5 Q431 681 391 681 Q320 681 269 656 Q218 631 185 585.5 Q152 540 136.5 476.5 Q121 413 121 337 Q121 277 138.5 223 Q156 169 189.5 128 Q223 87 271.5 63 Q320 39 382 39 Q434 39 479.5 56 Q525 73 558.5 107.5 Q592 142 611 193.5 Q630 245 630 314 L387 314 L387 372 L695 372 L695 0 L637 0 L637 123 Q618 91 593.5 64.5 Q569 38 537 19.5 Q505 1 463 -9 Q421 -19 368 -19 Q300 -19 242 5 Q184 29 142 76.5 Q100 124 76.5 196 Q53 268 53 364 Q53 443 73 511.5 Q93 580 134.5 630.5 Q176 681 238.5 710 Q301 739 386 739 Q443 739 492.5 725 Q542 711 581.5 682.5 Q621 654 648 611.5 Q675 569 687 511 L617 511 Z " />
<glyph glyph-name="H" unicode="H" horiz-adv-x="724" d="M149 411 L575 411 L575 720 L643 720 L643 0 L575 0 L575 353 L149 353 L149 0 L81 0 L81 720 L149 720 L149 411 Z " />
<glyph glyph-name="I" unicode="I" horiz-adv-x="230" d="M149 0 L81 0 L81 720 L149 720 L149 0 Z " />
<glyph glyph-name="J" unicode="J" horiz-adv-x="500" d="M419 720 L419 197 Q419 92 370 36.5 Q321 -19 216 -19 Q155 -19 118 1.5 Q81 22 60.5 56.5 Q40 91 33 135.5 Q26 180 26 228 L94 228 Q94 195 96.5 161.5 Q99 128 111.5 102 Q124 76 150.5 59.5 Q177 43 224 43 Q294 43 322.5 83 Q351 123 351 199 L351 720 L419 720 Z " />
<glyph glyph-name="K" unicode="K" horiz-adv-x="663" d="M149 357 L506 720 L595 720 L311 433 L645 0 L562 0 L262 391 L149 278 L149 0 L81 0 L81 720 L149 720 L149 357 Z " />
<glyph glyph-name="L" unicode="L" horiz-adv-x="556" d="M149 58 L535 58 L535 0 L81 0 L81 720 L149 720 L149 58 Z " />
<glyph glyph-name="M" unicode="M" horiz-adv-x="839" d="M185 720 L421 85 L423 85 L655 720 L758 720 L758 0 L690 0 L690 642 L688 642 L452 0 L388 0 L151 642 L149 642 L149 0 L81 0 L81 720 L185 720 Z " />
<glyph glyph-name="N" unicode="N" horiz-adv-x="725" d="M158 720 L574 91 L576 91 L576 720 L644 720 L644 0 L565 0 L151 628 L149 628 L149 0 L81 0 L81 720 L158 720 Z " />
<glyph glyph-name="O" unicode="O" horiz-adv-x="777" d="M389 39 Q459 39 509.5 65.5 Q560 92 592.5 136 Q625 180 640.5 238 Q656 296 656 359 Q656 434 637.5 493.5 Q619 553 584 595 Q549 637 499 659 Q449 681 387 681 Q318 681 267.5 654 Q217 627 184.5 582.5 Q152 538 136.5 480 Q121 422 121 359 Q121 295 136.5 237 Q152 179 184.5 135 Q217 91 267.5 65 Q318 39 389 39 Z M53 359 Q53 437 74.5 506.5 Q96 576 138 627.5 Q180 679 242 709 Q304 739 385 739 Q469 739 532.5 709.5 Q596 680 638.5 628.5 Q681 577 702.5 507.5 Q724 438 724 359 Q724 281 702.5 212.5 Q681 144 639 92.5 Q597 41 534 11 Q471 -19 388 -19 Q305 -19 242 11 Q179 41 137 92.5 Q95 144 74 212.5 Q53 281 53 359 Z " />
<glyph glyph-name="P" unicode="P" horiz-adv-x="632" d="M149 376 L299 376 Q347 376 386 381.5 Q425 387 453 402 Q481 417 496 444.5 Q511 472 511 517 Q511 564 497.5 592.5 Q484 621 457 636.5 Q430 652 388.5 657 Q347 662 291 662 L149 662 L149 376 Z M149 0 L81 0 L81 720 L339 720 Q409 720 455.5 704 Q502 688 529.5 660 Q557 632 568 595.5 Q579 559 579 519 Q579 459 557 420 Q535 381 499 358.5 Q463 336 416 327 Q369 318 319 318 L149 318 L149 0 Z " />
<glyph glyph-name="Q" unicode="Q" horiz-adv-x="777" d="M566 107 Q612 151 634 217.5 Q656 284 656 359 Q656 440 635.5 500 Q615 560 579 600.5 Q543 641 494 661 Q445 681 387 681 Q318 681 267.5 654 Q217 627 184.5 582 Q152 537 136.5 479 Q121 421 121 359 Q121 295 136.5 237 Q152 179 184.5 135 Q217 91 267.5 65 Q318 39 389 39 Q427 39 458 47.5 Q489 56 515 71 L433 134 L469 181 L566 107 Z M712 -6 L674 -52 L568 30 Q531 7 486.5 -6 Q442 -19 388 -19 Q305 -19 242 11 Q179 41 137 92.5 Q95 144 74 212.5 Q53 281 53 359 Q53 434 73.5 502.5 Q94 571 135 623.5 Q176 676 238.5 707.5 Q301 739 385 739 Q461 739 523.5 714 Q586 689 630.5 641 Q675 593 699.5 522 Q724 451 724 359 Q724 271 697 196 Q670 121 616 68 L712 -6 Z " />
<glyph glyph-name="R" unicode="R" horiz-adv-x="680" d="M149 0 L81 0 L81 720 L363 720 Q482 720 545 675.5 Q608 631 608 531 Q608 463 580.5 423 Q553 383 491 355 Q522 344 540.5 323 Q559 302 568.5 275.5 Q578 249 580.5 218.5 Q583 188 583 160 Q583 92 591.5 52.5 Q600 13 613 7 L613 0 L538 0 Q532 10 528 27 Q524 44 521 65 Q518 86 516.5 108.5 Q515 131 515 152 Q515 210 505 245 Q495 280 475.5 298 Q456 316 427.5 321.5 Q399 327 363 327 L149 327 L149 0 Z M149 385 L361 385 Q399 385 431.5 393 Q464 401 488 418.5 Q512 436 526 463 Q540 490 540 528 Q540 568 525.5 594 Q511 620 486.5 635 Q462 650 430.5 656 Q399 662 365 662 L149 662 L149 385 Z " />
<glyph glyph-name="S" unicode="S" horiz-adv-x="627" d="M109 215 Q113 167 130.5 133.5 Q148 100 175.5 79 Q203 58 239 48.5 Q275 39 316 39 Q364 39 399 51 Q434 63 456 83.5 Q478 104 488.5 131 Q499 158 499 188 Q499 230 480 256 Q461 282 430.5 298.5 Q400 315 360.5 325 Q321 335 279.5 344.5 Q238 354 198.5 367 Q159 380 128.5 402 Q98 424 79 458.5 Q60 493 60 546 Q60 583 75.5 618 Q91 653 121.5 680 Q152 707 198 723 Q244 739 304 739 Q365 739 410.5 722 Q456 705 486 675.5 Q516 646 531 607 Q546 568 546 524 L481 524 Q481 565 466.5 595 Q452 625 427 644 Q402 663 370 672 Q338 681 304 681 Q257 681 223.5 669 Q190 657 168 637.5 Q146 618 136 593 Q126 568 126 543 Q126 502 145 477.5 Q164 453 195 437.5 Q226 422 265.5 412.5 Q305 403 346.5 394 Q388 385 427.5 372.5 Q467 360 498 337.5 Q529 315 548 280 Q567 245 567 191 Q567 91 498 36 Q429 -19 304 -19 Q248 -19 200 -4.5 Q152 10 117 39.5 Q82 69 62.5 112.5 Q43 156 43 215 L109 215 Z " />
<glyph glyph-name="T" unicode="T" horiz-adv-x="556" d="M312 0 L244 0 L244 662 L16 662 L16 720 L540 720 L540 662 L312 662 L312 0 Z " />
<glyph glyph-name="U" unicode="U" horiz-adv-x="720" d="M149 720 L149 291 Q149 157 199 98 Q249 39 360 39 Q418 39 458.5 54.5 Q499 70 524 101.5 Q549 133 560 180 Q571 227 571 291 L571 720 L639 720 L639 271 Q639 130 569.5 55.5 Q500 -19 360 -19 Q219 -19 150 57 Q81 133 81 271 L81 720 L149 720 Z " />
<glyph glyph-name="V" unicode="V" horiz-adv-x="611" d="M89 720 L306 80 L522 720 L593 720 L343 0 L268 0 L18 720 L89 720 Z " />
<glyph glyph-name="W" unicode="W" horiz-adv-x="889" d="M82 720 L237 96 L239 96 L406 720 L482 720 L646 96 L648 96 L805 720 L875 720 L686 0 L611 0 L444 636 L442 636 L275 0 L200 0 L14 720 L82 720 Z " />
<glyph glyph-name="X" unicode="X" horiz-adv-x="611" d="M107 720 L304 417 L502 720 L581 720 L345 370 L592 0 L514 0 L304 318 L95 0 L18 0 L266 370 L28 720 L107 720 Z " />
<glyph glyph-name="Y" unicode="Y" horiz-adv-x="611" d="M90 720 L302 373 L519 720 L598 720 L337 314 L337 0 L269 0 L269 309 L12 720 L90 720 Z " />
<glyph glyph-name="Z" unicode="Z" horiz-adv-x="611" d="M576 720 L576 663 L115 58 L579 58 L579 0 L31 0 L31 57 L492 662 L70 662 L70 720 L576 720 Z " />
<glyph glyph-name="bracketleft" unicode="&#x5b;" horiz-adv-x="333" d="M282 739 L282 689 L155 689 L155 -141 L282 -141 L282 -191 L91 -191 L91 739 L282 739 Z " />
<glyph glyph-name="backslash" unicode="&#x5c;" horiz-adv-x="278" d="M-46 739 L14 739 L324 0 L264 0 L-46 739 Z " />
<glyph glyph-name="bracketright" unicode="&#x5d;" horiz-adv-x="333" d="M242 739 L242 -191 L51 -191 L51 -141 L178 -141 L178 689 L51 689 L51 739 L242 739 Z " />
<glyph glyph-name="asciicircum" unicode="&#x5e;" horiz-adv-x="660" d="M73 245 L303 698 L355 698 L586 245 L529 245 L328 637 L131 245 L73 245 Z " />
<glyph glyph-name="underscore" unicode="&#x5f;" horiz-adv-x="500" d="M0 -119 L0 -61 L500 -61 L500 -119 L0 -119 Z " />
<glyph glyph-name="grave" unicode="&#x60;" horiz-adv-x="333" d="M45 713 L123 713 L234 574 L183 574 L45 713 Z " />
<glyph glyph-name="a" unicode="a" horiz-adv-x="558" d="M72 361 Q75 407 93 439.5 Q111 472 139.5 492.5 Q168 513 205.5 522.5 Q243 532 285 532 Q324 532 358.5 523.5 Q393 515 418.5 496.5 Q444 478 458.5 447 Q473 416 473 371 L473 89 Q473 64 478.5 52 Q484 40 500 40 Q506 40 515.5 42.5 Q525 45 536 49 L536 2 Q525 -2 511 -5 Q497 -8 489 -8 Q452 -8 435 8 Q418 24 413 72 L411 72 Q376 30 327 8 Q278 -14 221 -14 Q187 -14 155.5 -5 Q124 4 100 23 Q76 42 62 69.5 Q48 97 48 135 Q48 267 229 291 L344 306 Q382 311 397.5 324.5 Q413 338 413 373 Q413 419 383.5 448.5 Q354 478 284 478 Q253 478 227 472.5 Q201 467 181.5 453.5 Q162 440 149.5 417.5 Q137 395 133 361 L72 361 Z M413 272 Q393 261 353.5 254 Q314 247 258 243 Q189 238 150.5 212 Q112 186 112 133 Q112 109 121.5 91.5 Q131 74 146.5 62.5 Q162 51 182.5 45.5 Q203 40 224 40 Q260 40 294 49 Q328 58 354.5 76.5 Q381 95 397 123.5 Q413 152 413 191 L413 272 Z " />
<glyph glyph-name="b" unicode="b" horiz-adv-x="596" d="M132 0 L72 0 L72 720 L132 720 L132 435 Q161 483 211.5 507.5 Q262 532 317 532 Q376 532 419.5 509.5 Q463 487 491.5 449.5 Q520 412 534 362 Q548 312 548 258 Q548 201 535 151 Q522 101 493.5 64.5 Q465 28 421 7 Q377 -14 314 -14 Q289 -14 263 -7 Q237 0 212.5 13 Q188 26 167.5 45.5 Q147 65 134 91 L132 91 L132 0 Z M307 478 Q229 478 180.5 420 Q132 362 132 252 Q132 210 143.5 171.5 Q155 133 177 104 Q199 75 232 57.5 Q265 40 307 40 Q345 40 377.5 56 Q410 72 433.5 100.5 Q457 129 470.5 167.5 Q484 206 484 250 Q484 297 474 338.5 Q464 380 442 411 Q420 442 386.5 460 Q353 478 307 478 Z " />
<glyph glyph-name="c" unicode="c" horiz-adv-x="557" d="M440 355 Q424 413 385 445.5 Q346 478 286 478 Q240 478 207 459 Q174 440 153 408.5 Q132 377 122 337.5 Q112 298 112 258 Q112 217 121.5 178 Q131 139 152 108 Q173 77 206 58.5 Q239 40 286 40 Q353 40 393.5 77 Q434 114 445 179 L509 179 Q501 136 483.5 100.5 Q466 65 438.5 39.5 Q411 14 373 0 Q335 -14 286 -14 Q224 -14 179 7 Q134 28 105 64.5 Q76 101 62 151 Q48 201 48 258 Q48 312 63.5 361.5 Q79 411 109 449 Q139 487 183.5 509.5 Q228 532 286 532 Q376 532 431.5 489 Q487 446 501 355 L440 355 Z " />
<glyph glyph-name="d" unicode="d" horiz-adv-x="596" d="M464 720 L524 720 L524 0 L464 0 L464 91 L462 91 Q449 65 428.5 45.5 Q408 26 383.5 13 Q359 0 333 -7 Q307 -14 282 -14 Q219 -14 175 7 Q131 28 102.5 64.5 Q74 101 61 151 Q48 201 48 258 Q48 312 62 362 Q76 412 104.5 449.5 Q133 487 176.5 509.5 Q220 532 279 532 Q334 532 384.5 507.5 Q435 483 464 435 L464 720 Z M287 478 Q209 478 160.5 420 Q112 362 112 252 Q112 210 123.5 171.5 Q135 133 157 104 Q179 75 212 57.5 Q245 40 287 40 Q325 40 357.5 56 Q390 72 413.5 100.5 Q437 129 450.5 167.5 Q464 206 464 250 Q464 297 454 338.5 Q444 380 422 411 Q400 442 366.5 460 Q333 478 287 478 Z " />
<glyph glyph-name="e" unicode="e" horiz-adv-x="562" d="M112 245 Q112 203 123 166 Q134 129 156 101 Q178 73 210.5 56.5 Q243 40 286 40 Q345 40 387 71 Q429 102 443 159 L510 159 Q499 122 481 90.5 Q463 59 436 35.5 Q409 12 372 -1 Q335 -14 286 -14 Q224 -14 179 7 Q134 28 105 64.5 Q76 101 62 150.5 Q48 200 48 257 Q48 314 64.5 364 Q81 414 111.5 451.5 Q142 489 186 510.5 Q230 532 286 532 Q393 532 453.5 459 Q514 386 514 245 L112 245 Z M450 295 Q450 333 439.5 366.5 Q429 400 408.5 424.5 Q388 449 357 463.5 Q326 478 286 478 Q246 478 215.5 463 Q185 448 163.5 423 Q142 398 129 365 Q116 332 112 295 L450 295 Z " />
<glyph glyph-name="f" unicode="f" horiz-adv-x="278" d="M20 468 L20 518 L97 518 L97 600 Q97 662 122 697 Q147 732 207 732 Q221 732 233 731 Q245 730 257 726 L257 675 Q237 680 221 680 Q198 680 185 671.5 Q172 663 166 649 Q160 635 158.5 617.5 Q157 600 157 582 L157 518 L257 518 L257 468 L157 468 L157 0 L97 0 L97 468 L20 468 Z " />
<glyph glyph-name="g" unicode="g" horiz-adv-x="596" d="M524 518 L524 50 Q524 -2 513.5 -49.5 Q503 -97 476 -133 Q449 -169 402 -190.5 Q355 -212 281 -212 Q224 -212 183 -197.5 Q142 -183 116 -161 Q90 -139 76.5 -112.5 Q63 -86 62 -63 L126 -63 Q133 -92 148 -110.5 Q163 -129 183.5 -139.5 Q204 -150 229 -154 Q254 -158 281 -158 Q342 -158 378.5 -137 Q415 -116 434 -82 Q453 -48 458.5 -4.5 Q464 39 464 83 Q435 35 384.5 10.5 Q334 -14 279 -14 Q220 -14 176.5 8.5 Q133 31 104.5 68.5 Q76 106 62 156 Q48 206 48 260 Q48 317 61 367 Q74 417 102.5 453.5 Q131 490 175 511 Q219 532 282 532 Q307 532 333 525 Q359 518 383.5 505 Q408 492 428.5 472 Q449 452 462 427 L464 427 L464 518 L524 518 Z M287 478 Q209 478 160.5 420 Q112 362 112 252 Q112 210 123.5 171.5 Q135 133 157 104 Q179 75 212 57.5 Q245 40 287 40 Q325 40 357.5 56 Q390 72 413.5 100.5 Q437 129 450.5 167.5 Q464 206 464 250 Q464 297 454 338.5 Q444 380 422 411 Q400 442 366.5 460 Q333 478 287 478 Z " />
<glyph glyph-name="h" unicode="h" horiz-adv-x="555" d="M132 446 Q168 484 206.5 508 Q245 532 299 532 Q384 532 433.5 485 Q483 438 483 339 L483 0 L423 0 L423 338 Q423 408 392 443 Q361 478 289 478 Q247 478 217 461.5 Q187 445 168.5 418 Q150 391 141 356 Q132 321 132 284 L132 0 L72 0 L72 720 L132 720 L132 446 Z " />
<glyph glyph-name="i" unicode="i" horiz-adv-x="204" d="M72 631 L72 720 L132 720 L132 631 L72 631 Z M132 0 L72 0 L72 518 L132 518 L132 0 Z " />
<glyph glyph-name="j" unicode="j" horiz-adv-x="220" d="M88 631 L88 720 L148 720 L148 631 L88 631 Z M148 518 L148 -69 Q148 -102 145 -127 Q142 -152 131.5 -169.5 Q121 -187 100.5 -195.5 Q80 -204 44 -204 Q22 -204 5 -200 L5 -147 Q10 -148 19 -148.5 Q28 -149 30 -149 Q65 -149 76.5 -130.5 Q88 -112 88 -77 L88 518 L148 518 Z " />
<glyph glyph-name="k" unicode="k" horiz-adv-x="504" d="M132 272 L386 518 L468 518 L274 331 L491 0 L424 0 L230 289 L132 196 L132 0 L72 0 L72 720 L132 720 L132 272 Z " />
<glyph glyph-name="l" unicode="l" horiz-adv-x="204" d="M132 0 L72 0 L72 720 L132 720 L132 0 Z " />
<glyph glyph-name="m" unicode="m" horiz-adv-x="848" d="M132 440 L134 440 Q157 485 200 508.5 Q243 532 294 532 Q330 532 355 524 Q380 516 397.5 502.5 Q415 489 426.5 471 Q438 453 446 432 Q472 483 515.5 507.5 Q559 532 615 532 Q668 532 699.5 514.5 Q731 497 748 468.5 Q765 440 770.5 403 Q776 366 776 327 L776 0 L716 0 L716 358 Q716 414 692.5 446 Q669 478 605 478 Q568 478 540 463.5 Q512 449 493 423 Q474 397 464 360.5 Q454 324 454 279 L454 0 L394 0 L394 358 Q394 414 370.5 446 Q347 478 283 478 Q243 478 214.5 461.5 Q186 445 167.5 417.5 Q149 390 140.5 354 Q132 318 132 279 L132 0 L72 0 L72 518 L132 518 L132 440 Z " />
<glyph glyph-name="n" unicode="n" horiz-adv-x="555" d="M132 446 Q168 484 206.5 508 Q245 532 299 532 Q384 532 433.5 485 Q483 438 483 339 L483 0 L423 0 L423 338 Q423 408 392 443 Q361 478 289 478 Q247 478 217 461.5 Q187 445 168.5 418 Q150 391 141 356 Q132 321 132 284 L132 0 L72 0 L72 518 L132 518 L132 446 Z " />
<glyph glyph-name="o" unicode="o" horiz-adv-x="576" d="M288 478 Q241 478 207.5 459.5 Q174 441 153 410.5 Q132 380 122 340.5 Q112 301 112 259 Q112 211 123.5 170.5 Q135 130 157 101 Q179 72 212 56 Q245 40 288 40 Q335 40 368.5 58.5 Q402 77 423 108 Q444 139 454 178 Q464 217 464 259 Q464 305 454.5 345 Q445 385 424 414.5 Q403 444 369.5 461 Q336 478 288 478 Z M288 532 Q349 532 394 510.5 Q439 489 469 452.5 Q499 416 513.5 366 Q528 316 528 259 Q528 197 511 147 Q494 97 462.5 61 Q431 25 386.5 5.5 Q342 -14 288 -14 Q238 -14 194.5 3 Q151 20 118.5 54.5 Q86 89 67 140 Q48 191 48 259 Q48 316 63 365.5 Q78 415 108 452 Q138 489 183 510.5 Q228 532 288 532 Z " />
<glyph glyph-name="p" unicode="p" horiz-adv-x="596" d="M132 -204 L72 -204 L72 518 L132 518 L132 427 L134 427 Q147 452 167.5 472 Q188 492 212.5 505 Q237 518 263 525 Q289 532 314 532 Q377 532 421 511 Q465 490 493.5 453.5 Q522 417 535 367 Q548 317 548 260 Q548 206 534 156 Q520 106 491.5 68.5 Q463 31 419.5 8.5 Q376 -14 317 -14 Q262 -14 211.5 10.5 Q161 35 132 83 L132 -204 Z M307 478 Q229 478 180.5 420 Q132 362 132 252 Q132 210 143.5 171.5 Q155 133 177 104 Q199 75 232 57.5 Q265 40 307 40 Q345 40 377.5 56 Q410 72 433.5 100.5 Q457 129 470.5 167.5 Q484 206 484 250 Q484 297 474 338.5 Q464 380 442 411 Q420 442 386.5 460 Q353 478 307 478 Z " />
<glyph glyph-name="q" unicode="q" horiz-adv-x="596" d="M524 518 L524 -204 L464 -204 L464 83 Q435 35 384.5 10.5 Q334 -14 279 -14 Q220 -14 176.5 8.5 Q133 31 104.5 68.5 Q76 106 62 156 Q48 206 48 260 Q48 317 61 367 Q74 417 102.5 453.5 Q131 490 175 511 Q219 532 282 532 Q307 532 333 525 Q359 518 383.5 505 Q408 492 428.5 472 Q449 452 462 427 L464 427 L464 518 L524 518 Z M287 478 Q209 478 160.5 420 Q112 362 112 252 Q112 210 123.5 171.5 Q135 133 157 104 Q179 75 212 57.5 Q245 40 287 40 Q325 40 357.5 56 Q390 72 413.5 100.5 Q437 129 450.5 167.5 Q464 206 464 250 Q464 297 454 338.5 Q444 380 422 411 Q400 442 366.5 460 Q333 478 287 478 Z " />
<glyph glyph-name="r" unicode="r" horiz-adv-x="330" d="M132 421 L134 421 Q159 483 198.5 507.5 Q238 532 303 532 L303 467 Q252 467 219 450 Q186 433 166.5 404 Q147 375 139.5 336 Q132 297 132 254 L132 0 L72 0 L72 518 L132 518 L132 421 Z " />
<glyph glyph-name="s" unicode="s" horiz-adv-x="492" d="M112 389 Q112 354 136.5 335.5 Q161 317 198 305.5 Q235 294 278 285 Q321 276 358 259.5 Q395 243 419.5 215 Q444 187 444 137 Q444 100 428 71.5 Q412 43 384 24 Q356 5 317.5 -4.5 Q279 -14 233 -14 Q187 -14 151.5 -0.5 Q116 13 91 37 Q66 61 52 93 Q38 125 36 162 L97 162 Q111 95 147.5 67.5 Q184 40 252 40 Q285 40 309 48 Q333 56 348.5 69.5 Q364 83 372 100 Q380 117 380 136 Q380 173 355.5 192 Q331 211 294 221.5 Q257 232 214 239.5 Q171 247 134 262 Q97 277 72.5 305 Q48 333 48 384 Q48 449 95.5 490.5 Q143 532 230 532 Q314 532 366.5 494.5 Q419 457 430 369 L369 369 Q361 429 323.5 453.5 Q286 478 229 478 Q172 478 142 453.5 Q112 429 112 389 Z " />
<glyph glyph-name="t" unicode="t" horiz-adv-x="278" d="M254 -2 Q243 -4 225 -9 Q207 -14 185 -14 Q140 -14 116.5 8.5 Q93 31 93 89 L93 468 L20 468 L20 518 L93 518 L93 662 L153 662 L153 518 L250 518 L250 468 L153 468 L153 113 Q153 94 154 80 Q155 66 160 57 Q165 48 175.5 44 Q186 40 205 40 Q217 40 229.5 42 Q242 44 254 47 L254 -2 Z " />
<glyph glyph-name="u" unicode="u" horiz-adv-x="555" d="M132 518 L132 178 Q132 111 163 75.5 Q194 40 265 40 Q302 40 331.5 54.5 Q361 69 381 95 Q401 121 412 157 Q423 193 423 236 L423 518 L483 518 L483 0 L423 0 L423 72 L422 72 Q393 36 354 11 Q315 -14 256 -14 Q204 -14 169 0.5 Q134 15 112.5 41 Q91 67 81.5 101.5 Q72 136 72 177 L72 518 L132 518 Z " />
<glyph glyph-name="v" unicode="v" horiz-adv-x="500" d="M82 518 L250 74 L418 518 L483 518 L282 0 L215 0 L17 518 L82 518 Z " />
<glyph glyph-name="w" unicode="w" horiz-adv-x="722" d="M75 518 L209 76 L329 518 L396 518 L510 80 L646 518 L707 518 L539 0 L475 0 L362 435 L360 435 L245 0 L173 0 L15 518 L75 518 Z " />
<glyph glyph-name="x" unicode="x" horiz-adv-x="500" d="M108 518 L251 312 L398 518 L474 518 L287 268 L481 0 L409 0 L252 224 L91 0 L18 0 L217 268 L34 518 L108 518 Z " />
<glyph glyph-name="y" unicode="y" horiz-adv-x="490" d="M85 518 L251 73 L417 518 L482 518 L289 7 Q271 -42 254.5 -81 Q238 -120 219.5 -147.5 Q201 -175 178.5 -189.5 Q156 -204 125 -204 Q109 -204 94.5 -202 Q80 -200 68 -197 L68 -141 Q80 -143 92.5 -145 Q105 -147 118 -147 Q133 -147 145 -141 Q157 -135 168.5 -119 Q180 -103 192 -75 Q204 -47 219 -4 L18 518 L85 518 Z " />
<glyph glyph-name="z" unicode="z" horiz-adv-x="500" d="M454 518 L454 465 L110 50 L467 50 L467 0 L33 0 L33 53 L377 468 L56 468 L56 518 L454 518 Z " />
<glyph glyph-name="braceleft" unicode="&#x7b;" horiz-adv-x="333" d="M285 741 Q237 727 217 699 Q197 671 197 620 L197 414 Q197 358 180.5 324 Q164 290 115 279 L115 277 Q141 270 157 256.5 Q173 243 182 224 Q191 205 194 181 Q197 157 197 128 L197 -64 Q197 -109 215 -141 Q233 -173 283 -186 L283 -187 Q238 -187 209 -178.5 Q180 -170 163 -151 Q146 -132 139.5 -101 Q133 -70 133 -25 L133 157 Q133 182 130.5 201 Q128 220 119.5 234 Q111 248 95 258.5 Q79 269 51 277 L51 279 Q102 289 117.5 319 Q133 349 133 395 L133 599 Q133 637 140 664.5 Q147 692 164.5 709.5 Q182 727 211 735 Q240 743 285 743 L285 741 Z " />
<glyph glyph-name="bar" unicode="&#x7c;" horiz-adv-x="222" d="M81 739 L141 739 L141 0 L81 0 L81 739 Z " />
<glyph glyph-name="braceright" unicode="&#x7d;" horiz-adv-x="333" d="M51 743 Q96 743 125 735 Q154 727 171.5 709.5 Q189 692 196 664.5 Q203 637 203 599 L203 395 Q203 349 218.5 319 Q234 289 285 279 L285 277 Q257 269 241 258.5 Q225 248 216.5 234 Q208 220 205.5 201 Q203 182 203 157 L203 -25 Q203 -70 196.5 -101 Q190 -132 173 -151 Q156 -170 127 -178.5 Q98 -187 53 -187 L53 -186 Q103 -173 121 -141 Q139 -109 139 -64 L139 128 Q139 157 142 181 Q145 205 154 224 Q163 243 179 256.5 Q195 270 221 277 L221 279 Q196 285 180 296 Q164 307 155 324 Q146 341 142.5 363.5 Q139 386 139 414 L139 620 Q139 671 119 699 Q99 727 51 741 L51 743 Z " />
<glyph glyph-name="asciitilde" unicode="&#x7e;" horiz-adv-x="660" d="M221 324 Q249 324 279 312.5 Q309 301 338 287.5 Q367 274 393.5 263 Q420 252 441 252 Q458 252 473 260.5 Q488 269 500.5 282 Q513 295 523 310 Q533 325 540 339 L580 305 Q569 285 555.5 265.5 Q542 246 524.5 230.5 Q507 215 486 205.5 Q465 196 440 196 Q416 196 385 207 Q354 218 323.5 231.5 Q293 245 265.5 256.5 Q238 268 221 268 Q188 268 163 242.5 Q138 217 113 174 L80 221 Q91 237 104.5 255 Q118 273 135 288.5 Q152 304 173 314 Q194 324 221 324 Z " />
<glyph glyph-name="quotesinglbase" unicode="&#x201a;" horiz-adv-x="278" d="M175 88 L175 -30 Q175 -74 154.5 -100.5 Q134 -127 102 -137 L102 -100 Q114 -92 125 -78 Q136 -64 136 -34 L136 0 L102 0 L102 88 L175 88 Z " />
<glyph glyph-name="quotedblbase" unicode="&#x201e;" horiz-adv-x="389" d="M152 88 L152 -30 Q152 -74 131.5 -100.5 Q111 -127 79 -137 L79 -100 Q91 -92 102 -78 Q113 -64 113 -34 L113 0 L79 0 L79 88 L152 88 Z M303 88 L303 -30 Q303 -74 282.5 -100.5 Q262 -127 230 -137 L230 -100 Q242 -92 253 -78 Q264 -64 264 -34 L264 0 L230 0 L230 88 L303 88 Z " />
<glyph glyph-name="ellipsis" unicode="&#x2026;" horiz-adv-x="1000" d="M797 0 L797 88 L870 88 L870 0 L797 0 Z M464 0 L464 88 L537 88 L537 0 L464 0 Z M131 0 L131 88 L204 88 L204 0 L131 0 Z " />
<glyph glyph-name="dagger" unicode="&#x2020;" horiz-adv-x="556" d="M308 720 L308 490 L519 490 L519 436 L308 436 L308 -166 L248 -166 L248 436 L37 436 L37 490 L248 490 L248 720 L308 720 Z " />
<glyph glyph-name="sterling" unicode="&#xa3;" horiz-adv-x="556" d="M350 365 L350 323 L199 323 Q204 307 206.5 289 Q209 271 209 254 Q209 198 180 151 Q151 104 114 67 L116 65 Q135 75 158 83.5 Q181 92 205 92 Q237 92 260.5 85.5 Q284 79 304.5 71 Q325 63 344.5 56.5 Q364 50 388 50 Q423 50 448 67 Q473 84 496 107 L530 56 Q508 36 489 22.5 Q470 9 450.5 1 Q431 -7 408.5 -10.5 Q386 -14 356 -14 Q338 -14 319 -7 Q300 0 279 8 Q258 16 233.5 23 Q209 30 179 30 Q150 30 124.5 19 Q99 8 74 -3 L39 55 Q83 87 114 133 Q145 179 145 235 Q145 281 124 323 L25 323 L25 365 L106 365 Q100 379 90.5 394 Q81 409 73 427.5 Q65 446 59 469 Q53 492 53 522 Q53 561 67 594.5 Q81 628 109 652.5 Q137 677 178.5 691 Q220 705 276 705 Q325 705 367 690 Q409 675 439 647 Q469 619 486 578.5 Q503 538 503 488 L437 488 Q434 567 391.5 609 Q349 651 277 651 Q247 651 218 643 Q189 635 166.5 618.5 Q144 602 130.5 577 Q117 552 117 519 Q117 496 123.5 476.5 Q130 457 140 438.5 Q150 420 162 402 Q174 384 184 365 L350 365 Z " />
<glyph glyph-name="perthousand" unicode="&#x2030;" horiz-adv-x="1287" d="M1054 274 Q1032 274 1012.5 265.5 Q993 257 978 242 Q963 227 954.5 207 Q946 187 946 165 Q946 143 954.5 123.5 Q963 104 978 89 Q993 74 1012.5 65.5 Q1032 57 1054 57 Q1076 57 1095.5 65.5 Q1115 74 1130 89 Q1145 104 1154 123.5 Q1163 143 1163 165 Q1163 187 1154.5 206.5 Q1146 226 1131 241 Q1116 256 1096 265 Q1076 274 1054 274 Z M1054 331 Q1088 331 1118.5 318 Q1149 305 1171.5 282.5 Q1194 260 1207 229.5 Q1220 199 1220 165 Q1220 131 1207 101 Q1194 71 1171.5 48.5 Q1149 26 1118.5 13 Q1088 0 1054 0 Q1020 0 990 13 Q960 26 937.5 48.5 Q915 71 902 101 Q889 131 889 165 Q889 199 902 229 Q915 259 937.5 281.5 Q960 304 990 317.5 Q1020 331 1054 331 Z M271 -14 L219 -14 L616 705 L668 705 L271 -14 Z M232 641 Q210 641 190.5 632.5 Q171 624 156 609 Q141 594 132.5 574 Q124 554 124 532 Q124 510 132.5 490.5 Q141 471 156 456 Q171 441 190.5 432.5 Q210 424 232 424 Q254 424 273.5 432.5 Q293 441 308 456 Q323 471 332 490.5 Q341 510 341 532 Q341 554 332.5 573.5 Q324 593 309 608 Q294 623 274 632 Q254 641 232 641 Z M232 698 Q266 698 296.5 685 Q327 672 349.5 649.5 Q372 627 385 596.5 Q398 566 398 532 Q398 498 385 468 Q372 438 349.5 415.5 Q327 393 296.5 380 Q266 367 232 367 Q198 367 168 380 Q138 393 115.5 415.5 Q93 438 80 468 Q67 498 67 532 Q67 566 80 596 Q93 626 115.5 648.5 Q138 671 168 684.5 Q198 698 232 698 Z M658 274 Q636 274 616.5 265.5 Q597 257 582 242 Q567 227 558.5 207 Q550 187 550 165 Q550 143 558.5 123.5 Q567 104 582 89 Q597 74 616.5 65.5 Q636 57 658 57 Q680 57 699.5 65.5 Q719 74 734 89 Q749 104 758 123.5 Q767 143 767 165 Q767 187 758.5 206.5 Q750 226 735 241 Q720 256 700 265 Q680 274 658 274 Z M658 331 Q692 331 722.5 318 Q753 305 775.5 282.5 Q798 260 811 229.5 Q824 199 824 165 Q824 131 811 101 Q798 71 775.5 48.5 Q753 26 722.5 13 Q692 0 658 0 Q624 0 594 13 Q564 26 541.5 48.5 Q519 71 506 101 Q493 131 493 165 Q493 199 506 229 Q519 259 541.5 281.5 Q564 304 594 317.5 Q624 331 658 331 Z " />
<glyph glyph-name="quoteleft" unicode="&#x2018;" horiz-adv-x="222" d="M69 495 L69 613 Q69 657 89.5 683.5 Q110 710 142 720 L142 683 Q130 675 119 661 Q108 647 108 617 L108 583 L142 583 L142 495 L69 495 Z " />
<glyph glyph-name="quoteright" unicode="&#x2019;" horiz-adv-x="222" d="M153 720 L153 602 Q153 558 132.5 531.5 Q112 505 80 495 L80 532 Q92 540 103 554 Q114 568 114 598 L114 632 L80 632 L80 720 L153 720 Z " />
<glyph glyph-name="quotedblleft" unicode="&#x201c;" horiz-adv-x="389" d="M86 495 L86 613 Q86 657 106.5 683.5 Q127 710 159 720 L159 683 Q147 675 136 661 Q125 647 125 617 L125 583 L159 583 L159 495 L86 495 Z M237 495 L237 613 Q237 657 257.5 683.5 Q278 710 310 720 L310 683 Q298 675 287 661 Q276 647 276 617 L276 583 L310 583 L310 495 L237 495 Z " />
<glyph glyph-name="quotedblright" unicode="&#x201d;" horiz-adv-x="389" d="M152 720 L152 602 Q152 558 131.5 531.5 Q111 505 79 495 L79 532 Q91 540 102 554 Q113 568 113 598 L113 632 L79 632 L79 720 L152 720 Z M303 720 L303 602 Q303 558 282.5 531.5 Q262 505 230 495 L230 532 Q242 540 253 554 Q264 568 264 598 L264 632 L230 632 L230 720 L303 720 Z " />
<glyph glyph-name="bullet" unicode="&#x2022;" horiz-adv-x="500" d="M430 359 Q430 322 416 289.5 Q402 257 377 232.5 Q352 208 319 194 Q286 180 249 180 Q212 180 179.5 194 Q147 208 122.5 232.5 Q98 257 84 289.5 Q70 322 70 359 Q70 396 84 429 Q98 462 122.5 487 Q147 512 179.5 526 Q212 540 249 540 Q286 540 319 526 Q352 512 377 487 Q402 462 416 429 Q430 396 430 359 Z " />
<glyph glyph-name="endash" unicode="&#x2013;" horiz-adv-x="500" d="M500 220 L0 220 L0 280 L500 280 L500 220 Z " />
<glyph glyph-name="emdash" unicode="&#x2014;" horiz-adv-x="1000" d="M0 220 L0 280 L1000 280 L1000 220 L0 220 Z " />
<glyph glyph-name="trademark" unicode="&#x2122;" horiz-adv-x="940" d="M349 720 L349 680 L215 680 L215 299 L163 299 L163 680 L29 680 L29 720 L349 720 Z M523 720 L643 409 L645 409 L763 720 L859 720 L859 299 L807 299 L807 676 L805 676 L660 299 L626 299 L481 676 L479 676 L479 299 L427 299 L427 720 L523 720 Z " />
<glyph glyph-name="currency" unicode="&#xa4;" horiz-adv-x="556" d="M282 481 Q243 481 209.5 467.5 Q176 454 151.5 429.5 Q127 405 113 372 Q99 339 99 300 Q99 263 113 230.5 Q127 198 151.5 174 Q176 150 208 136 Q240 122 276 122 Q313 122 346 136 Q379 150 404 174.5 Q429 199 443 232 Q457 265 457 303 Q457 339 443.5 371 Q430 403 406 427.5 Q382 452 350 466.5 Q318 481 282 481 Z M75 152 Q51 187 39 222 Q27 257 27 300 Q27 345 38 380 Q49 415 75 451 L32 494 L84 547 L128 504 Q162 530 201 541.5 Q240 553 282 553 Q324 553 359 540 Q394 527 428 504 L472 547 L524 494 L481 451 Q507 414 518 377.5 Q529 341 529 295 Q529 253 516.5 220 Q504 187 481 152 L524 110 L472 57 L428 100 Q360 50 273 50 Q231 50 196 63.5 Q161 77 128 100 L84 57 L32 110 L75 152 Z " />
<glyph glyph-name="section" unicode="&#xa7;" horiz-adv-x="556" d="M402 560 Q402 623 372 654 Q342 685 278 685 Q230 685 198 661.5 Q166 638 166 588 Q166 554 191.5 527 Q217 500 255 475.5 Q293 451 337 427.5 Q381 404 419 377 Q457 350 482.5 316.5 Q508 283 508 240 Q508 211 499 188.5 Q490 166 475 147.5 Q460 129 440 114 Q420 99 398 84 Q424 62 440 34.5 Q456 7 456 -26 Q456 -64 442 -93 Q428 -122 404 -141.5 Q380 -161 348 -171 Q316 -181 280 -181 Q238 -181 203.5 -167.5 Q169 -154 145 -130 Q121 -106 108 -73 Q95 -40 95 0 L155 0 Q155 -62 186.5 -94.5 Q218 -127 281 -127 Q302 -127 322 -121 Q342 -115 357.5 -103 Q373 -91 382.5 -73.5 Q392 -56 392 -33 Q392 -10 382 9 Q372 28 356 44.5 Q340 61 320 75.5 Q300 90 281 102 L150 184 Q102 213 75 248.5 Q48 284 48 335 Q48 386 79 423 Q110 460 155 479 Q132 505 117 531 Q102 557 102 594 Q102 623 113.5 649.5 Q125 676 148 696 Q171 716 205 727.5 Q239 739 283 739 Q367 739 411.5 690.5 Q456 642 456 560 L402 560 Z M190 447 Q150 430 126 405 Q102 380 102 343 Q102 324 110 308 Q118 292 130 278.5 Q142 265 157 253.5 Q172 242 187 232 L365 117 Q381 126 397 137 Q413 148 426 162 Q439 176 446.5 192.5 Q454 209 454 230 Q454 250 445.5 266.5 Q437 283 423.5 296.5 Q410 310 394 321 Q378 332 363 341 L190 447 Z " />
<glyph glyph-name="copyright" unicode="&#xa9;" horiz-adv-x="800" d="M593 292 Q590 258 574.5 230.5 Q559 203 535 184 Q511 165 481 155 Q451 145 418 145 Q370 145 331.5 162 Q293 179 265.5 208 Q238 237 223 277 Q208 317 208 364 Q208 411 222 450.5 Q236 490 263 519 Q290 548 328.5 564.5 Q367 581 415 581 Q484 581 533 544 Q582 507 593 438 L539 438 Q531 483 496 510 Q461 537 416 537 Q378 537 350 523.5 Q322 510 303.5 486.5 Q285 463 275.5 431.5 Q266 400 266 365 Q266 331 276 299 Q286 267 305.5 242.5 Q325 218 353 203.5 Q381 189 418 189 Q440 189 460.5 196 Q481 203 497.5 216.5 Q514 230 525 249 Q536 268 539 292 L593 292 Z M401 31 Q470 31 528.5 56.5 Q587 82 629 126.5 Q671 171 695 231 Q719 291 719 361 Q719 430 695 490 Q671 550 629 594 Q587 638 528.5 663.5 Q470 689 401 689 Q332 689 273 663.5 Q214 638 171.5 594 Q129 550 105 490 Q81 430 81 361 Q81 291 105 231 Q129 171 171.5 126.5 Q214 82 273 56.5 Q332 31 401 31 Z M401 -19 Q322 -19 253 11 Q184 41 132.5 92.5 Q81 144 51 213 Q21 282 21 361 Q21 439 51 508 Q81 577 132.5 628 Q184 679 253 709 Q322 739 401 739 Q479 739 548 709 Q617 679 668.5 628 Q720 577 749.5 508 Q779 439 779 361 Q779 282 749.5 213 Q720 144 668.5 92.5 Q617 41 548 11 Q479 -19 401 -19 Z " />
<glyph glyph-name="guillemotleft" unicode="&#xab;" horiz-adv-x="556" d="M113 291 L259 404 L259 341 L155 259 L259 179 L259 117 L113 228 L113 291 Z M297 291 L443 404 L443 341 L339 259 L443 179 L443 117 L297 228 L297 291 Z " />
<glyph glyph-name="logicalnot" unicode="&#xac;" horiz-adv-x="660" d="M516 220 L80 220 L80 280 L580 280 L580 14 L516 14 L516 220 Z " />
<glyph glyph-name="registered" unicode="&#xae;" horiz-adv-x="800" d="M312 385 L429 385 Q451 385 471 388 Q491 391 506 399 Q521 407 530 422 Q539 437 539 461 Q539 486 529.5 500.5 Q520 515 505 522.5 Q490 530 471 532.5 Q452 535 433 535 L312 535 L312 385 Z M260 572 L445 572 Q529 572 562 542 Q595 512 595 460 Q595 398 557.5 371 Q520 344 462 344 L590 149 L528 149 L407 344 L312 344 L312 149 L260 149 L260 572 Z M401 31 Q470 31 528.5 56.5 Q587 82 629 126.5 Q671 171 695 231 Q719 291 719 361 Q719 430 695 490 Q671 550 629 594 Q587 638 528.5 663.5 Q470 689 401 689 Q332 689 273 663.5 Q214 638 171.5 594 Q129 550 105 490 Q81 430 81 361 Q81 291 105 231 Q129 171 171.5 126.5 Q214 82 273 56.5 Q332 31 401 31 Z M401 -19 Q322 -19 253 11 Q184 41 132.5 92.5 Q81 144 51 213 Q21 282 21 361 Q21 439 51 508 Q81 577 132.5 628 Q184 679 253 709 Q322 739 401 739 Q479 739 548 709 Q617 679 668.5 628 Q720 577 749.5 508 Q779 439 779 361 Q779 282 749.5 213 Q720 144 668.5 92.5 Q617 41 548 11 Q479 -19 401 -19 Z " />
<glyph glyph-name="degree" unicode="&#xb0;" horiz-adv-x="400" d="M311 555 Q311 577 302 597 Q293 617 278 632 Q263 647 243 656 Q223 665 200 665 Q177 665 157.5 656 Q138 647 123 632 Q108 617 99.5 597 Q91 577 91 555 Q91 532 99.5 512 Q108 492 123 477 Q138 462 158 453.5 Q178 445 201 445 Q223 445 243 453.5 Q263 462 278 477 Q293 492 302 512 Q311 532 311 555 Z M351 555 Q351 524 339 496.5 Q327 469 306.5 449 Q286 429 259 417 Q232 405 201 405 Q170 405 142.5 417 Q115 429 95 449 Q75 469 63 496.5 Q51 524 51 555 Q51 585 63 612.5 Q75 640 95 660.5 Q115 681 142.5 693 Q170 705 201 705 Q232 705 259 693 Q286 681 306.5 660.5 Q327 640 339 613 Q351 586 351 555 Z " />
<glyph glyph-name="plusminus" unicode="&#xb1;" horiz-adv-x="660" d="M80 152 L580 152 L580 92 L80 92 L80 152 Z M300 592 L360 592 L360 422 L580 422 L580 362 L360 362 L360 192 L300 192 L300 362 L80 362 L80 422 L300 422 L300 592 Z " />
<glyph glyph-name="&amp;#xb5;" unicode="&#xb5;" horiz-adv-x="555" d="M132 518 L132 178 Q132 111 163 75.5 Q194 40 265 40 Q302 40 331.5 54.5 Q361 69 381 95 Q401 121 412 157 Q423 193 423 236 L423 518 L483 518 L483 0 L423 0 L423 72 L422 72 Q392 34 353 10 Q314 -14 256 -14 Q214 -14 183 -4 Q152 6 132 18 L132 -204 L72 -204 L72 518 L132 518 Z " />
<glyph glyph-name="&amp;#x3bc;" unicode="&#x3bc;" horiz-adv-x="555" d="M132 518 L132 178 Q132 111 163 75.5 Q194 40 265 40 Q302 40 331.5 54.5 Q361 69 381 95 Q401 121 412 157 Q423 193 423 236 L423 518 L483 518 L483 0 L423 0 L423 72 L422 72 Q392 34 353 10 Q314 -14 256 -14 Q214 -14 183 -4 Q152 6 132 18 L132 -204 L72 -204 L72 518 L132 518 Z " />
<glyph glyph-name="paragraph" unicode="&#xb6;" horiz-adv-x="650" d="M506 -146 L446 -146 L446 653 L318 653 L318 -146 L258 -146 L258 336 Q220 336 185 351 Q150 366 123.5 392 Q97 418 81.5 452.5 Q66 487 66 526 Q66 620 124.5 670 Q183 720 289 720 L506 720 L506 -146 Z " />
<glyph glyph-name="&amp;#xb7;" unicode="&#xb7;" horiz-adv-x="278" d="M139 398 Q159 398 173 384 Q187 370 187 350 Q187 330 173 315.5 Q159 301 139 301 Q119 301 104.5 315.5 Q90 330 90 350 Q90 370 105 384 Q120 398 139 398 Z " />
<glyph glyph-name="&amp;#x2219;" unicode="&#x2219;" horiz-adv-x="278" d="M139 398 Q159 398 173 384 Q187 370 187 350 Q187 330 173 315.5 Q159 301 139 301 Q119 301 104.5 315.5 Q90 330 90 350 Q90 370 105 384 Q120 398 139 398 Z " />
<glyph glyph-name="guillemotright" unicode="&#xbb;" horiz-adv-x="556" d="M259 230 L113 117 L113 180 L217 262 L113 342 L113 404 L259 293 L259 230 Z M443 230 L297 117 L297 180 L401 262 L297 342 L297 404 L443 293 L443 230 Z " />
<glyph glyph-name="quotedbl" unicode="&#x22;" horiz-adv-x="278" d="M168 720 L220 720 L220 494 L168 494 L168 720 Z M57 720 L109 720 L109 494 L57 494 L57 720 Z " />
<glyph glyph-name="exclam" unicode="&#x21;" horiz-adv-x="333" d="M130 0 L130 88 L203 88 L203 0 L130 0 Z M130 496 L130 720 L203 720 L203 496 L189 181 L144 181 L130 496 Z " />
<glyph glyph-name="afii10051" unicode="&#x402;" horiz-adv-x="778" d="M312 405 Q321 406 340 407 Q359 408 381 409 Q403 410 423.5 410.5 Q444 411 456 411 Q534 411 585 394 Q636 377 666.5 347.5 Q697 318 709.5 279.5 Q722 241 722 199 Q722 144 704 106 Q686 68 654.5 44.5 Q623 21 578.5 10.5 Q534 0 482 0 L399 0 L399 58 L429 58 Q490 58 532.5 64.5 Q575 71 602 86.5 Q629 102 641.5 129 Q654 156 654 197 Q654 283 601 318 Q548 353 433 353 Q415 353 397 352.5 Q379 352 362.5 350.5 Q346 349 332.5 347.5 Q319 346 312 345 L312 0 L244 0 L244 662 L16 662 L16 720 L540 720 L540 662 L312 662 L312 405 Z " />
<glyph glyph-name="afii10052" unicode="&#x403;" horiz-adv-x="563" d="M267 788 L399 954 L491 954 L327 788 L267 788 Z M545 720 L545 662 L149 662 L149 0 L81 0 L81 720 L545 720 Z " />
<glyph glyph-name="afii10100" unicode="&#x453;" horiz-adv-x="404" d="M182 575 L282 700 L352 700 L228 575 L182 575 Z M392 518 L392 468 L132 468 L132 0 L72 0 L72 518 L392 518 Z " />
<glyph glyph-name="afii10058" unicode="&#x409;" horiz-adv-x="1029" d="M546 58 L688 58 Q744 58 785.5 63 Q827 68 854 83.5 Q881 99 894.5 127.5 Q908 156 908 203 Q908 248 892 277 Q876 306 848 323 Q820 340 781 346.5 Q742 353 697 353 L546 353 L546 58 Z M546 720 L546 411 L717 411 Q767 411 813.5 401 Q860 391 896 366.5 Q932 342 954 301.5 Q976 261 976 201 Q976 160 965 124 Q954 88 926.5 60 Q899 32 852.5 16 Q806 0 736 0 L478 0 L478 662 L202 662 L202 350 Q202 252 194 183 Q186 114 169.5 70 Q153 26 128 6 Q103 -14 69 -14 Q55 -14 44 -12.5 Q33 -11 16 -6 L16 49 Q27 47 40 45.5 Q53 44 63 44 Q98 44 116 128.5 Q134 213 134 401 L134 720 L546 720 Z " />
<glyph glyph-name="afii10059" unicode="&#x40a;" horiz-adv-x="1041" d="M558 58 L700 58 Q756 58 797.5 63 Q839 68 866 83.5 Q893 99 906.5 127.5 Q920 156 920 203 Q920 248 904 277 Q888 306 860 323 Q832 340 793 346.5 Q754 353 709 353 L558 353 L558 58 Z M149 411 L490 411 L490 720 L558 720 L558 411 L729 411 Q779 411 825.5 401 Q872 391 908 366.5 Q944 342 966 301.5 Q988 261 988 201 Q988 160 977 124 Q966 88 938.5 60 Q911 32 864.5 16 Q818 0 748 0 L490 0 L490 353 L149 353 L149 0 L81 0 L81 720 L149 720 L149 411 Z " />
<glyph glyph-name="afii10061" unicode="&#x40c;" horiz-adv-x="663" d="M248 786 L380 952 L472 952 L308 786 L248 786 Z M149 357 L506 720 L595 720 L311 433 L645 0 L562 0 L262 391 L149 278 L149 0 L81 0 L81 720 L149 720 L149 357 Z " />
<glyph glyph-name="afii10060" unicode="&#x40b;" horiz-adv-x="778" d="M312 405 Q321 406 340 407 Q359 408 381 409 Q403 410 423.5 410.5 Q444 411 456 411 Q534 411 585 394 Q636 377 666.5 347.5 Q697 318 709.5 279.5 Q722 241 722 199 L722 0 L654 0 L654 197 Q654 283 601 318 Q548 353 433 353 Q415 353 397 352.5 Q379 352 362.5 350.5 Q346 349 332.5 347.5 Q319 346 312 345 L312 0 L244 0 L244 662 L16 662 L16 720 L540 720 L540 662 L312 662 L312 405 Z " />
<glyph glyph-name="afii10145" unicode="&#x40f;" horiz-adv-x="724" d="M149 58 L575 58 L575 720 L643 720 L643 0 L396 0 L396 -165 L328 -165 L328 0 L81 0 L81 720 L149 720 L149 58 Z " />
<glyph glyph-name="afii10099" unicode="&#x452;" horiz-adv-x="555" d="M132 720 L132 644 L301 644 L301 590 L132 590 L132 446 Q165 481 205 506.5 Q245 532 299 532 Q345 532 380.5 521 Q416 510 439.5 483.5 Q463 457 475 413 Q487 369 487 304 Q487 184 470.5 107 Q454 30 422 -16 Q390 -62 343 -82 Q296 -102 234 -109 L234 -55 Q288 -49 324 -30 Q360 -11 382 31 Q404 73 413.5 143.5 Q423 214 423 323 Q423 361 417 390 Q411 419 396 438.5 Q381 458 355 468 Q329 478 289 478 Q245 478 215.5 460.5 Q186 443 167 416.5 Q148 390 140 357.5 Q132 325 132 295 L132 0 L72 0 L72 590 L5 590 L5 644 L72 644 L72 720 L132 720 Z " />
<glyph glyph-name="afii10106" unicode="&#x459;" horiz-adv-x="824" d="M444 50 L579 50 Q647 50 679.5 76 Q712 102 712 149 Q712 197 677.5 224 Q643 251 592 251 L444 251 L444 50 Z M444 518 L444 301 L596 301 Q638 301 671 290 Q704 279 727.5 258.5 Q751 238 763.5 210 Q776 182 776 149 Q776 97 755 67.5 Q734 38 705.5 23 Q677 8 648 4 Q619 0 604 0 L384 0 L384 468 L171 468 L171 371 Q171 344 170.5 313 Q170 282 168.5 252 Q167 222 165 195.5 Q163 169 161 150 Q152 72 125.5 34 Q99 -4 51 -4 Q41 -4 29 -2.5 Q17 -1 7 3 L7 52 Q16 50 27 49 Q38 48 43 48 Q67 48 86 82 Q93 94 98 120.5 Q103 147 106 197 Q109 247 110 325 Q111 403 111 518 L444 518 Z " />
<glyph glyph-name="afii10107" unicode="&#x45a;" horiz-adv-x="835" d="M455 50 L590 50 Q658 50 690.5 76 Q723 102 723 149 Q723 197 688.5 224 Q654 251 603 251 L455 251 L455 50 Z M135 301 L395 301 L395 518 L455 518 L455 301 L607 301 Q649 301 682 290 Q715 279 738.5 258.5 Q762 238 774.5 210 Q787 182 787 149 Q787 97 766 67.5 Q745 38 716.5 23 Q688 8 659 4 Q630 0 615 0 L395 0 L395 251 L135 251 L135 0 L75 0 L75 518 L135 518 L135 301 Z " />
<glyph glyph-name="afii10109" unicode="&#x45c;" horiz-adv-x="504" d="M227 575 L327 700 L397 700 L273 575 L227 575 Z M132 272 L386 518 L468 518 L274 331 L491 0 L424 0 L230 289 L132 196 L132 0 L72 0 L72 518 L132 518 L132 272 Z " />
<glyph glyph-name="afii10108" unicode="&#x45b;" horiz-adv-x="555" d="M132 720 L132 644 L301 644 L301 590 L132 590 L132 446 Q168 484 206.5 508 Q245 532 299 532 Q384 532 433.5 485 Q483 438 483 339 L483 0 L423 0 L423 338 Q423 408 392 443 Q361 478 289 478 Q247 478 217 461.5 Q187 445 168.5 418 Q150 391 141 356 Q132 321 132 284 L132 0 L72 0 L72 590 L5 590 L5 644 L72 644 L72 720 L132 720 Z " />
<glyph glyph-name="afii10193" unicode="&#x45f;" horiz-adv-x="552" d="M132 50 L420 50 L420 518 L480 518 L480 0 L306 0 L306 -136 L246 -136 L246 0 L72 0 L72 518 L132 518 L132 50 Z " />
<glyph glyph-name="afii10062" unicode="&#x40e;" horiz-adv-x="580" d="M212 929 Q220 887 247.5 867.5 Q275 848 317 848 Q359 848 386 867.5 Q413 887 424 929 L461 929 Q454 866 414 834.5 Q374 803 312 803 Q252 803 215 836 Q178 869 173 929 L212 929 Z M75 720 L289 199 L509 720 L584 720 L311 93 Q297 61 282.5 40 Q268 19 251 5.5 Q234 -8 212.5 -13.5 Q191 -19 163 -19 Q139 -19 121 -14 L121 43 Q127 41 137.5 40 Q148 39 159 39 Q192 39 208.5 51 Q225 63 238 90 L252 119 L4 720 L75 720 Z " />
<glyph glyph-name="afii10110" unicode="&#x45e;" horiz-adv-x="490" d="M161 697 Q169 655 196.5 635.5 Q224 616 266 616 Q308 616 335 635.5 Q362 655 373 697 L410 697 Q403 634 363 602.5 Q323 571 261 571 Q201 571 164 604 Q127 637 122 697 L161 697 Z M85 518 L251 73 L417 518 L482 518 L289 7 Q271 -42 254.5 -81 Q238 -120 219.5 -147.5 Q201 -175 178.5 -189.5 Q156 -204 125 -204 Q109 -204 94.5 -202 Q80 -200 68 -197 L68 -141 Q80 -143 92.5 -145 Q105 -147 118 -147 Q133 -147 145 -141 Q157 -135 168.5 -119 Q180 -103 192 -75 Q204 -47 219 -4 L18 518 L85 518 Z " />
<glyph glyph-name="afii10057" unicode="&#x408;" horiz-adv-x="500" d="M419 720 L419 197 Q419 92 370 36.5 Q321 -19 216 -19 Q155 -19 118 1.5 Q81 22 60.5 56.5 Q40 91 33 135.5 Q26 180 26 228 L94 228 Q94 195 96.5 161.5 Q99 128 111.5 102 Q124 76 150.5 59.5 Q177 43 224 43 Q294 43 322.5 83 Q351 123 351 199 L351 720 L419 720 Z " />
<glyph glyph-name="afii10050" unicode="&#x490;" horiz-adv-x="563" d="M477 720 L477 850 L545 850 L545 662 L149 662 L149 0 L81 0 L81 720 L477 720 Z " />
<glyph glyph-name="brokenbar" unicode="&#xa6;" horiz-adv-x="222" d="M81 739 L141 739 L141 443 L81 443 L81 739 Z M81 296 L141 296 L141 0 L81 0 L81 296 Z " />
<glyph glyph-name="afii10023" unicode="&#x401;" horiz-adv-x="611" d="M363 786 L363 875 L423 875 L423 786 L363 786 Z M204 786 L204 875 L264 875 L264 786 L204 786 Z M560 720 L560 662 L149 662 L149 411 L520 411 L520 353 L149 353 L149 58 L570 58 L570 0 L81 0 L81 720 L560 720 Z " />
<glyph glyph-name="afii10053" unicode="&#x404;" horiz-adv-x="722" d="M592 511 Q571 603 514 642 Q457 681 365 681 Q305 681 258.5 658.5 Q212 636 180.5 598.5 Q149 561 132.5 512.5 Q116 464 116 411 L424 411 L424 353 L116 353 Q116 291 129.5 234.5 Q143 178 173 134.5 Q203 91 251.5 65 Q300 39 371 39 Q417 39 455 54 Q493 69 521.5 95.5 Q550 122 569.5 158 Q589 194 599 237 L670 237 Q658 185 635 138.5 Q612 92 574.5 57 Q537 22 483.5 1.5 Q430 -19 358 -19 Q275 -19 216 11.5 Q157 42 119.5 94 Q82 146 65 214.5 Q48 283 48 360 Q48 463 73.5 535 Q99 607 144 652.5 Q189 698 250 718.5 Q311 739 383 739 Q438 739 485.5 724.5 Q533 710 569.5 681 Q606 652 629.5 609.5 Q653 567 662 511 L592 511 Z " />
<glyph glyph-name="afii10056" unicode="&#x407;" horiz-adv-x="230" d="M170 786 L170 875 L230 875 L230 786 L170 786 Z M0 786 L0 875 L60 875 L60 786 L0 786 Z M149 0 L81 0 L81 720 L149 720 L149 0 Z " />
<glyph glyph-name="afii10103" unicode="&#x456;" horiz-adv-x="204" d="M72 631 L72 720 L132 720 L132 631 L72 631 Z M132 0 L72 0 L72 518 L132 518 L132 0 Z " />
<glyph glyph-name="afii10098" unicode="&#x491;" horiz-adv-x="404" d="M332 518 L332 615 L392 615 L392 468 L132 468 L132 0 L72 0 L72 518 L332 518 Z " />
<glyph glyph-name="afii10071" unicode="&#x451;" horiz-adv-x="562" d="M334 597 L334 686 L394 686 L394 597 L334 597 Z M180 597 L180 686 L240 686 L240 597 L180 597 Z M112 245 Q112 203 123 166 Q134 129 156 101 Q178 73 210.5 56.5 Q243 40 286 40 Q345 40 387 71 Q429 102 443 159 L510 159 Q499 122 481 90.5 Q463 59 436 35.5 Q409 12 372 -1 Q335 -14 286 -14 Q224 -14 179 7 Q134 28 105 64.5 Q76 101 62 150.5 Q48 200 48 257 Q48 314 64.5 364 Q81 414 111.5 451.5 Q142 489 186 510.5 Q230 532 286 532 Q393 532 453.5 459 Q514 386 514 245 L112 245 Z M450 295 Q450 333 439.5 366.5 Q429 400 408.5 424.5 Q388 449 357 463.5 Q326 478 286 478 Q246 478 215.5 463 Q185 448 163.5 423 Q142 398 129 365 Q116 332 112 295 L450 295 Z " />
<glyph glyph-name="afii61352" unicode="&#x2116;" horiz-adv-x="1079" d="M869 156 Q837 156 808.5 166.5 Q780 177 759 197.5 Q738 218 725.5 248.5 Q713 279 713 320 Q713 354 722.5 384 Q732 414 751.5 436 Q771 458 800.5 471 Q830 484 869 484 Q908 484 937.5 471 Q967 458 986.5 436 Q1006 414 1015.5 384 Q1025 354 1025 320 Q1025 246 982.5 201 Q940 156 869 156 Z M752 320 Q752 262 782 224 Q812 186 869 186 Q900 186 922 197.5 Q944 209 958 228 Q972 247 979 271 Q986 295 986 320 Q986 347 979.5 371.5 Q973 396 958.5 414.5 Q944 433 922 443.5 Q900 454 869 454 Q838 454 816 442.5 Q794 431 779.5 412 Q765 393 758.5 369 Q752 345 752 320 Z M713 91 L1025 91 L1025 52 L713 52 L713 91 Z M156 720 L572 91 L574 91 L574 720 L642 720 L642 0 L563 0 L149 628 L147 628 L147 0 L79 0 L79 720 L156 720 Z " />
<glyph glyph-name="afii10101" unicode="&#x454;" horiz-adv-x="557" d="M440 355 Q424 413 385 445.5 Q346 478 286 478 Q245 478 214.5 462.5 Q184 447 163 422 Q142 397 130 365.5 Q118 334 115 301 L318 301 L318 251 L112 251 Q112 211 122.5 173 Q133 135 154.5 105.5 Q176 76 208.5 58 Q241 40 286 40 Q353 40 393.5 77 Q434 114 445 179 L509 179 Q501 136 483.5 100.5 Q466 65 438.5 39.5 Q411 14 373 0 Q335 -14 286 -14 Q224 -14 179 7 Q134 28 105 64.5 Q76 101 62 151 Q48 201 48 258 Q48 312 63.5 361.5 Q79 411 109 449 Q139 487 183.5 509.5 Q228 532 286 532 Q376 532 431.5 489 Q487 446 501 355 L440 355 Z " />
<glyph glyph-name="afii10105" unicode="&#x458;" horiz-adv-x="220" d="M88 631 L88 720 L148 720 L148 631 L88 631 Z M148 518 L148 -69 Q148 -102 145 -127 Q142 -152 131.5 -169.5 Q121 -187 100.5 -195.5 Q80 -204 44 -204 Q22 -204 5 -200 L5 -147 Q10 -148 19 -148.5 Q28 -149 30 -149 Q65 -149 76.5 -130.5 Q88 -112 88 -77 L88 518 L148 518 Z " />
<glyph glyph-name="afii10054" unicode="&#x405;" horiz-adv-x="627" d="M109 215 Q113 167 130.5 133.5 Q148 100 175.5 79 Q203 58 239 48.5 Q275 39 316 39 Q364 39 399 51 Q434 63 456 83.5 Q478 104 488.5 131 Q499 158 499 188 Q499 230 480 256 Q461 282 430.5 298.5 Q400 315 360.5 325 Q321 335 279.5 344.5 Q238 354 198.5 367 Q159 380 128.5 402 Q98 424 79 458.5 Q60 493 60 546 Q60 583 75.5 618 Q91 653 121.5 680 Q152 707 198 723 Q244 739 304 739 Q365 739 410.5 722 Q456 705 486 675.5 Q516 646 531 607 Q546 568 546 524 L481 524 Q481 565 466.5 595 Q452 625 427 644 Q402 663 370 672 Q338 681 304 681 Q257 681 223.5 669 Q190 657 168 637.5 Q146 618 136 593 Q126 568 126 543 Q126 502 145 477.5 Q164 453 195 437.5 Q226 422 265.5 412.5 Q305 403 346.5 394 Q388 385 427.5 372.5 Q467 360 498 337.5 Q529 315 548 280 Q567 245 567 191 Q567 91 498 36 Q429 -19 304 -19 Q248 -19 200 -4.5 Q152 10 117 39.5 Q82 69 62.5 112.5 Q43 156 43 215 L109 215 Z " />
<glyph glyph-name="afii10102" unicode="&#x455;" horiz-adv-x="492" d="M112 389 Q112 354 136.5 335.5 Q161 317 198 305.5 Q235 294 278 285 Q321 276 358 259.5 Q395 243 419.5 215 Q444 187 444 137 Q444 100 428 71.5 Q412 43 384 24 Q356 5 317.5 -4.5 Q279 -14 233 -14 Q187 -14 151.5 -0.5 Q116 13 91 37 Q66 61 52 93 Q38 125 36 162 L97 162 Q111 95 147.5 67.5 Q184 40 252 40 Q285 40 309 48 Q333 56 348.5 69.5 Q364 83 372 100 Q380 117 380 136 Q380 173 355.5 192 Q331 211 294 221.5 Q257 232 214 239.5 Q171 247 134 262 Q97 277 72.5 305 Q48 333 48 384 Q48 449 95.5 490.5 Q143 532 230 532 Q314 532 366.5 494.5 Q419 457 430 369 L369 369 Q361 429 323.5 453.5 Q286 478 229 478 Q172 478 142 453.5 Q112 429 112 389 Z " />
<glyph glyph-name="afii10104" unicode="&#x457;" horiz-adv-x="204" d="M144 610 L144 699 L204 699 L204 610 L144 610 Z M0 610 L0 699 L60 699 L60 610 L0 610 Z M132 0 L72 0 L72 518 L132 518 L132 0 Z " />
<glyph glyph-name="afii10017" unicode="&#x410;" horiz-adv-x="651" d="M183 284 L465 284 L324 662 L183 284 Z M365 720 L641 0 L571 0 L488 226 L160 226 L75 0 L5 0 L288 720 L365 720 Z " />
<glyph glyph-name="afii10018" unicode="&#x411;" horiz-adv-x="632" d="M149 58 L291 58 Q347 58 388.5 63 Q430 68 457 83.5 Q484 99 497.5 127.5 Q511 156 511 203 Q511 248 495 277 Q479 306 451 323 Q423 340 384 346.5 Q345 353 300 353 L149 353 L149 58 Z M527 720 L527 662 L149 662 L149 411 L320 411 Q370 411 416.5 401 Q463 391 499 366.5 Q535 342 557 301.5 Q579 261 579 201 Q579 160 568 124 Q557 88 529.5 60 Q502 32 455.5 16 Q409 0 339 0 L81 0 L81 720 L527 720 Z " />
<glyph glyph-name="afii10019" unicode="&#x412;" horiz-adv-x="663" d="M81 720 L341 720 Q404 720 449 707 Q494 694 522.5 670 Q551 646 564 612.5 Q577 579 577 539 Q577 501 567 473.5 Q557 446 541 427.5 Q525 409 504.5 398.5 Q484 388 462 384 L462 382 Q537 371 573.5 323 Q610 275 610 203 Q610 147 592.5 108 Q575 69 544 45 Q513 21 469.5 10.5 Q426 0 375 0 L81 0 L81 720 Z M149 402 L321 402 Q374 402 410 411 Q446 420 468 437.5 Q490 455 499.5 480.5 Q509 506 509 539 Q509 573 498 596.5 Q487 620 463 634.5 Q439 649 400.5 655.5 Q362 662 306 662 L149 662 L149 402 Z M149 58 L322 58 Q378 58 419.5 63 Q461 68 488 83.5 Q515 99 528.5 127.5 Q542 156 542 203 Q542 248 527 275.5 Q512 303 484 318 Q456 333 417 338.5 Q378 344 330 344 L149 344 L149 58 Z " />
<glyph glyph-name="afii10020" unicode="&#x413;" horiz-adv-x="563" d="M545 720 L545 662 L149 662 L149 0 L81 0 L81 720 L545 720 Z " />
<glyph glyph-name="afii10021" unicode="&#x414;" horiz-adv-x="694" d="M230 662 L230 432 Q230 368 224.5 316 Q219 264 209 219.5 Q199 175 184 135.5 Q169 96 150 58 L545 58 L545 662 L230 662 Z M613 720 L613 58 L668 58 L668 -165 L600 -165 L600 0 L94 0 L94 -165 L26 -165 L26 58 L79 58 Q99 101 114.5 138.5 Q130 176 140.5 220.5 Q151 265 156.5 322 Q162 379 162 460 L162 720 L613 720 Z " />
<glyph glyph-name="afii10022" unicode="&#x415;" horiz-adv-x="611" d="M560 720 L560 662 L149 662 L149 411 L520 411 L520 353 L149 353 L149 58 L570 58 L570 0 L81 0 L81 720 L560 720 Z " />
<glyph glyph-name="afii10024" unicode="&#x416;" horiz-adv-x="999" d="M534 348 L870 720 L950 720 L676 419 L990 0 L912 0 L631 373 L534 266 L534 0 L466 0 L466 266 L369 373 L88 0 L10 0 L324 419 L50 720 L130 720 L466 348 L466 720 L534 720 L534 348 Z " />
<glyph glyph-name="afii10025" unicode="&#x417;" horiz-adv-x="637" d="M63 523 Q63 571 78.5 611 Q94 651 125 679 Q156 707 201 722.5 Q246 738 305 738 Q359 738 405.5 726.5 Q452 715 485.5 692 Q519 669 538 634 Q557 599 557 553 Q557 496 531.5 451 Q506 406 445 380 Q479 371 505 352 Q531 333 548.5 308 Q566 283 575 254.5 Q584 226 584 196 Q584 97 518 39 Q452 -19 315 -19 Q257 -19 207.5 -4.5 Q158 10 122 39 Q86 68 65.5 112 Q45 156 45 215 L111 215 Q119 118 172 78.5 Q225 39 318 39 Q373 39 411 51 Q449 63 472.5 83.5 Q496 104 506 131 Q516 158 516 188 Q516 224 504 254.5 Q492 285 468.5 306.5 Q445 328 411.5 340.5 Q378 353 336 353 L277 353 L277 411 L321 411 Q400 411 444.5 442.5 Q489 474 489 549 Q489 583 474 608 Q459 633 434 649 Q409 665 375.5 672.5 Q342 680 305 680 Q269 680 237.5 671.5 Q206 663 182 644 Q158 625 144 595 Q130 565 130 523 L63 523 Z " />
<glyph glyph-name="afii10026" unicode="&#x418;" horiz-adv-x="725" d="M149 91 L151 91 L567 720 L644 720 L644 0 L576 0 L576 628 L574 628 L160 0 L81 0 L81 720 L149 720 L149 91 Z " />
<glyph glyph-name="afii10027" unicode="&#x419;" horiz-adv-x="725" d="M264 929 Q272 887 299.5 867.5 Q327 848 369 848 Q411 848 438 867.5 Q465 887 476 929 L513 929 Q506 866 466 834.5 Q426 803 364 803 Q304 803 267 836 Q230 869 225 929 L264 929 Z M149 91 L151 91 L567 720 L644 720 L644 0 L576 0 L576 628 L574 628 L160 0 L81 0 L81 720 L149 720 L149 91 Z " />
<glyph glyph-name="afii10028" unicode="&#x41a;" horiz-adv-x="663" d="M149 357 L506 720 L595 720 L311 433 L645 0 L562 0 L262 391 L149 278 L149 0 L81 0 L81 720 L149 720 L149 357 Z " />
<glyph glyph-name="afii10029" unicode="&#x41b;" horiz-adv-x="694" d="M613 720 L613 0 L545 0 L545 662 L202 662 L202 350 Q202 252 194 183 Q186 114 169.5 70 Q153 26 128 6 Q103 -14 69 -14 Q55 -14 44 -12.5 Q33 -11 16 -6 L16 49 Q27 47 40 45.5 Q53 44 63 44 Q98 44 116 128.5 Q134 213 134 401 L134 720 L613 720 Z " />
<glyph glyph-name="afii10030" unicode="&#x41c;" horiz-adv-x="839" d="M185 720 L421 85 L423 85 L655 720 L758 720 L758 0 L690 0 L690 642 L688 642 L452 0 L388 0 L151 642 L149 642 L149 0 L81 0 L81 720 L185 720 Z " />
<glyph glyph-name="afii10031" unicode="&#x41d;" horiz-adv-x="724" d="M149 411 L575 411 L575 720 L643 720 L643 0 L575 0 L575 353 L149 353 L149 0 L81 0 L81 720 L149 720 L149 411 Z " />
<glyph glyph-name="afii10032" unicode="&#x41e;" horiz-adv-x="777" d="M389 39 Q459 39 509.5 65.5 Q560 92 592.5 136 Q625 180 640.5 238 Q656 296 656 359 Q656 434 637.5 493.5 Q619 553 584 595 Q549 637 499 659 Q449 681 387 681 Q318 681 267.5 654 Q217 627 184.5 582.5 Q152 538 136.5 480 Q121 422 121 359 Q121 295 136.5 237 Q152 179 184.5 135 Q217 91 267.5 65 Q318 39 389 39 Z M53 359 Q53 437 74.5 506.5 Q96 576 138 627.5 Q180 679 242 709 Q304 739 385 739 Q469 739 532.5 709.5 Q596 680 638.5 628.5 Q681 577 702.5 507.5 Q724 438 724 359 Q724 281 702.5 212.5 Q681 144 639 92.5 Q597 41 534 11 Q471 -19 388 -19 Q305 -19 242 11 Q179 41 137 92.5 Q95 144 74 212.5 Q53 281 53 359 Z " />
<glyph glyph-name="afii10033" unicode="&#x41f;" horiz-adv-x="724" d="M643 720 L643 0 L575 0 L575 662 L149 662 L149 0 L81 0 L81 720 L643 720 Z " />
<glyph glyph-name="afii10034" unicode="&#x420;" horiz-adv-x="632" d="M149 376 L299 376 Q347 376 386 381.5 Q425 387 453 402 Q481 417 496 444.5 Q511 472 511 517 Q511 564 497.5 592.5 Q484 621 457 636.5 Q430 652 388.5 657 Q347 662 291 662 L149 662 L149 376 Z M149 0 L81 0 L81 720 L339 720 Q409 720 455.5 704 Q502 688 529.5 660 Q557 632 568 595.5 Q579 559 579 519 Q579 459 557 420 Q535 381 499 358.5 Q463 336 416 327 Q369 318 319 318 L149 318 L149 0 Z " />
<glyph glyph-name="afii10035" unicode="&#x421;" horiz-adv-x="727" d="M597 511 Q576 603 519 642 Q462 681 370 681 Q305 681 258 655 Q211 629 180.5 585 Q150 541 135.5 483.5 Q121 426 121 362 Q121 302 133.5 244 Q146 186 175 140.5 Q204 95 253 67 Q302 39 376 39 Q422 39 460 54 Q498 69 526.5 95.5 Q555 122 574.5 158 Q594 194 604 237 L675 237 Q663 185 640 138.5 Q617 92 579.5 57 Q542 22 488.5 1.5 Q435 -19 363 -19 Q280 -19 221 11.5 Q162 42 124.5 94 Q87 146 70 214.5 Q53 283 53 360 Q53 463 78.5 535 Q104 607 149 652.5 Q194 698 255 718.5 Q316 739 388 739 Q443 739 490.5 724.5 Q538 710 574.5 681 Q611 652 634.5 609.5 Q658 567 667 511 L597 511 Z " />
<glyph glyph-name="afii10036" unicode="&#x422;" horiz-adv-x="556" d="M312 0 L244 0 L244 662 L16 662 L16 720 L540 720 L540 662 L312 662 L312 0 Z " />
<glyph glyph-name="afii10037" unicode="&#x423;" horiz-adv-x="580" d="M75 720 L289 199 L509 720 L584 720 L311 93 Q297 61 282.5 40 Q268 19 251 5.5 Q234 -8 212.5 -13.5 Q191 -19 163 -19 Q139 -19 121 -14 L121 43 Q127 41 137.5 40 Q148 39 159 39 Q192 39 208.5 51 Q225 63 238 90 L252 119 L4 720 L75 720 Z " />
<glyph glyph-name="afii10038" unicode="&#x424;" horiz-adv-x="840" d="M454 129 L501 129 Q552 129 592.5 147 Q633 165 661 197 Q689 229 704 272 Q719 315 719 365 Q719 415 704 458 Q689 501 661 532.5 Q633 564 592.5 582 Q552 600 501 600 L454 600 L454 129 Z M386 600 L339 600 Q288 600 247.5 582 Q207 564 179 532.5 Q151 501 136 458 Q121 415 121 365 Q121 315 136 272 Q151 229 179 197 Q207 165 247.5 147 Q288 129 339 129 L386 129 L386 600 Z M454 720 L454 658 L503 658 Q567 658 619 635 Q671 612 708.5 572 Q746 532 766.5 478 Q787 424 787 363 Q787 300 766.5 246.5 Q746 193 708.5 154 Q671 115 619 93 Q567 71 503 71 L454 71 L454 0 L386 0 L386 71 L337 71 Q273 71 221 93 Q169 115 131.5 154 Q94 193 73.5 246.5 Q53 300 53 363 Q53 424 73.5 478 Q94 532 131.5 572 Q169 612 221 635 Q273 658 337 658 L386 658 L386 720 L454 720 Z " />
<glyph glyph-name="afii10039" unicode="&#x425;" horiz-adv-x="611" d="M107 720 L304 417 L502 720 L581 720 L345 370 L592 0 L514 0 L304 318 L95 0 L18 0 L266 370 L28 720 L107 720 Z " />
<glyph glyph-name="afii10040" unicode="&#x426;" horiz-adv-x="724" d="M149 58 L575 58 L575 720 L643 720 L643 58 L698 58 L698 -165 L630 -165 L630 0 L81 0 L81 720 L149 720 L149 58 Z " />
<glyph glyph-name="afii10041" unicode="&#x427;" horiz-adv-x="675" d="M143 720 L143 526 Q143 481 158.5 453.5 Q174 426 201.5 411 Q229 396 268.5 390.5 Q308 385 356 385 Q382 385 402.5 386 Q423 387 442 388.5 Q461 390 480.5 392.5 Q500 395 526 398 L526 720 L594 720 L594 0 L526 0 L526 338 Q502 334 472.5 332 Q443 330 412 329 Q381 328 351 327.5 Q321 327 294 327 Q243 327 202.5 338.5 Q162 350 133.5 375.5 Q105 401 90 441.5 Q75 482 75 539 L75 720 L143 720 Z " />
<glyph glyph-name="afii10042" unicode="&#x428;" horiz-adv-x="966" d="M149 58 L449 58 L449 720 L517 720 L517 58 L817 58 L817 720 L885 720 L885 0 L81 0 L81 720 L149 720 L149 58 Z " />
<glyph glyph-name="afii10043" unicode="&#x429;" horiz-adv-x="966" d="M149 58 L449 58 L449 720 L517 720 L517 58 L817 58 L817 720 L885 720 L885 58 L940 58 L940 -165 L872 -165 L872 0 L81 0 L81 720 L149 720 L149 58 Z " />
<glyph glyph-name="afii10044" unicode="&#x42a;" horiz-adv-x="693" d="M210 58 L352 58 Q408 58 449.5 63 Q491 68 518 83.5 Q545 99 558.5 127.5 Q572 156 572 203 Q572 248 556 277 Q540 306 512 323 Q484 340 445 346.5 Q406 353 361 353 L210 353 L210 58 Z M210 720 L210 411 L381 411 Q431 411 477.5 401 Q524 391 560 366.5 Q596 342 618 301.5 Q640 261 640 201 Q640 160 629 124 Q618 88 590.5 60 Q563 32 516.5 16 Q470 0 400 0 L142 0 L142 662 L-7 662 L-7 720 L210 720 Z " />
<glyph glyph-name="afii10045" unicode="&#x42b;" horiz-adv-x="859" d="M778 0 L710 0 L710 720 L778 720 L778 0 Z M149 58 L291 58 Q347 58 388.5 63 Q430 68 457 83.5 Q484 99 497.5 127.5 Q511 156 511 203 Q511 248 495 277 Q479 306 451 323 Q423 340 384 346.5 Q345 353 300 353 L149 353 L149 58 Z M149 411 L320 411 Q370 411 416.5 401 Q463 391 499 366.5 Q535 342 557 301.5 Q579 261 579 201 Q579 160 568 124 Q557 88 529.5 60 Q502 32 455.5 16 Q409 0 339 0 L81 0 L81 720 L149 720 L149 411 Z " />
<glyph glyph-name="afii10046" unicode="&#x42c;" horiz-adv-x="632" d="M149 58 L291 58 Q347 58 388.5 63 Q430 68 457 83.5 Q484 99 497.5 127.5 Q511 156 511 203 Q511 248 495 277 Q479 306 451 323 Q423 340 384 346.5 Q345 353 300 353 L149 353 L149 58 Z M149 411 L320 411 Q370 411 416.5 401 Q463 391 499 366.5 Q535 342 557 301.5 Q579 261 579 201 Q579 160 568 124 Q557 88 529.5 60 Q502 32 455.5 16 Q409 0 339 0 L81 0 L81 720 L149 720 L149 411 Z " />
<glyph glyph-name="afii10047" unicode="&#x42d;" horiz-adv-x="723" d="M56 511 Q65 567 88.5 609.5 Q112 652 148.5 681 Q185 710 232 724.5 Q279 739 335 739 Q407 739 468 718.5 Q529 698 574 652.5 Q619 607 644.5 535 Q670 463 670 360 Q670 283 653 214.5 Q636 146 598.5 94 Q561 42 502 11.5 Q443 -19 360 -19 Q288 -19 234.5 1.5 Q181 22 143.5 57 Q106 92 83 138.5 Q60 185 48 237 L119 237 Q129 194 148.5 158 Q168 122 196.5 95.5 Q225 69 262.5 54 Q300 39 347 39 Q418 39 466.5 65 Q515 91 545 134.5 Q575 178 588.5 234.5 Q602 291 602 353 L294 353 L294 411 L602 411 Q594 466 577 515.5 Q560 565 530 601.5 Q500 638 456.5 659.5 Q413 681 353 681 Q261 681 204 642 Q147 603 126 511 L56 511 Z " />
<glyph glyph-name="afii10048" unicode="&#x42e;" horiz-adv-x="1003" d="M615 39 Q685 39 735.5 65.5 Q786 92 818.5 136 Q851 180 866.5 238 Q882 296 882 359 Q882 434 863.5 493.5 Q845 553 810 595 Q775 637 725 659 Q675 681 613 681 Q544 681 493.5 654 Q443 627 410.5 582.5 Q378 538 362.5 480 Q347 422 347 359 Q347 295 362.5 237 Q378 179 410.5 135 Q443 91 493.5 65 Q544 39 615 39 Z M279 411 Q288 481 313 541 Q338 601 379 645 Q420 689 478 714 Q536 739 611 739 Q695 739 758.5 709.5 Q822 680 864.5 628.5 Q907 577 928.5 507.5 Q950 438 950 359 Q950 281 928.5 212.5 Q907 144 865 92.5 Q823 41 760 11 Q697 -19 614 -19 Q533 -19 470.5 9.5 Q408 38 365.5 88 Q323 138 301 206 Q279 274 279 353 L149 353 L149 0 L81 0 L81 720 L149 720 L149 411 L279 411 Z " />
<glyph glyph-name="afii10049" unicode="&#x42f;" horiz-adv-x="632" d="M483 662 L341 662 Q285 662 243.5 657 Q202 652 175 636.5 Q148 621 134.5 592.5 Q121 564 121 517 Q121 472 136 444.5 Q151 417 179 402 Q207 387 246 381.5 Q285 376 333 376 L483 376 L483 662 Z M305 318 L104 0 L23 0 L231 324 Q194 330 161.5 343.5 Q129 357 105 380 Q81 403 67 437 Q53 471 53 519 Q53 559 64 595.5 Q75 632 102.5 660 Q130 688 176.5 704 Q223 720 293 720 L551 720 L551 0 L483 0 L483 318 L305 318 Z " />
<glyph glyph-name="afii10065" unicode="&#x430;" horiz-adv-x="558" d="M72 361 Q75 407 93 439.5 Q111 472 139.5 492.5 Q168 513 205.5 522.5 Q243 532 285 532 Q324 532 358.5 523.5 Q393 515 418.5 496.5 Q444 478 458.5 447 Q473 416 473 371 L473 89 Q473 64 478.5 52 Q484 40 500 40 Q506 40 515.5 42.5 Q525 45 536 49 L536 2 Q525 -2 511 -5 Q497 -8 489 -8 Q452 -8 435 8 Q418 24 413 72 L411 72 Q376 30 327 8 Q278 -14 221 -14 Q187 -14 155.5 -5 Q124 4 100 23 Q76 42 62 69.5 Q48 97 48 135 Q48 267 229 291 L344 306 Q382 311 397.5 324.5 Q413 338 413 373 Q413 419 383.5 448.5 Q354 478 284 478 Q253 478 227 472.5 Q201 467 181.5 453.5 Q162 440 149.5 417.5 Q137 395 133 361 L72 361 Z M413 272 Q393 261 353.5 254 Q314 247 258 243 Q189 238 150.5 212 Q112 186 112 133 Q112 109 121.5 91.5 Q131 74 146.5 62.5 Q162 51 182.5 45.5 Q203 40 224 40 Q260 40 294 49 Q328 58 354.5 76.5 Q381 95 397 123.5 Q413 152 413 191 L413 272 Z " />
<glyph glyph-name="afii10066" unicode="&#x431;" horiz-adv-x="583" d="M295 40 Q342 40 375.5 58.5 Q409 77 430 108 Q451 139 461 178 Q471 217 471 259 Q471 305 461.5 345 Q452 385 431 414.5 Q410 444 376.5 461 Q343 478 295 478 Q248 478 214.5 460.5 Q181 443 160 414 Q139 385 129 346.5 Q119 308 119 266 Q119 221 130 180 Q141 139 163.5 108 Q186 77 218.5 58.5 Q251 40 295 40 Z M119 432 Q147 478 190 505 Q233 532 299 532 Q358 532 402.5 510.5 Q447 489 476.5 452.5 Q506 416 520.5 366 Q535 316 535 259 Q535 197 518 147 Q501 97 469.5 61 Q438 25 393.5 5.5 Q349 -14 295 -14 Q235 -14 190 8 Q145 30 115 69.5 Q85 109 70 164 Q55 219 55 285 Q55 349 62 413.5 Q69 478 91 531.5 Q113 585 154 623.5 Q195 662 264 675 Q309 684 339.5 690.5 Q370 697 389.5 704 Q409 711 417.5 719 Q426 727 426 739 L489 739 Q489 713 474 695 Q459 677 432.5 664 Q406 651 370 642 Q334 633 291 625 Q254 618 225.5 605 Q197 592 176 569 Q155 546 141 512.5 Q127 479 119 432 Z " />
<glyph glyph-name="afii10067" unicode="&#x432;" horiz-adv-x="522" d="M72 518 L313 518 Q346 518 371.5 507.5 Q397 497 415 480.5 Q433 464 442 443.5 Q451 423 451 402 Q451 354 431 321 Q411 288 370 274 Q412 263 443 231 Q474 199 474 148 Q474 111 461.5 83.5 Q449 56 428 37.5 Q407 19 379.5 9.5 Q352 0 323 0 L72 0 L72 518 Z M132 295 L286 295 Q306 295 325 300 Q344 305 358.5 315.5 Q373 326 382 342 Q391 358 391 380 Q391 428 361.5 448 Q332 468 273 468 L132 468 L132 295 Z M132 50 L299 50 Q350 50 380 75 Q410 100 410 145 Q410 173 399.5 192 Q389 211 372 223 Q355 235 331.5 240 Q308 245 283 245 L132 245 L132 50 Z " />
<glyph glyph-name="afii10068" unicode="&#x433;" horiz-adv-x="404" d="M392 518 L392 468 L132 468 L132 0 L72 0 L72 518 L392 518 Z " />
<glyph glyph-name="afii10069" unicode="&#x434;" horiz-adv-x="553" d="M185 468 L185 354 Q185 312 183.5 274 Q182 236 176 199.5 Q170 163 158.5 126 Q147 89 128 50 L409 50 L409 468 L185 468 Z M469 518 L469 50 L521 50 L521 -135 L461 -135 L461 0 L78 0 L78 -135 L18 -135 L18 50 L64 50 Q85 88 97.5 128 Q110 168 116 207.5 Q122 247 124 286 Q126 325 126 361 L126 518 L469 518 Z " />
<glyph glyph-name="afii10070" unicode="&#x435;" horiz-adv-x="562" d="M112 245 Q112 203 123 166 Q134 129 156 101 Q178 73 210.5 56.5 Q243 40 286 40 Q345 40 387 71 Q429 102 443 159 L510 159 Q499 122 481 90.5 Q463 59 436 35.5 Q409 12 372 -1 Q335 -14 286 -14 Q224 -14 179 7 Q134 28 105 64.5 Q76 101 62 150.5 Q48 200 48 257 Q48 314 64.5 364 Q81 414 111.5 451.5 Q142 489 186 510.5 Q230 532 286 532 Q393 532 453.5 459 Q514 386 514 245 L112 245 Z M450 295 Q450 333 439.5 366.5 Q429 400 408.5 424.5 Q388 449 357 463.5 Q326 478 286 478 Q246 478 215.5 463 Q185 448 163.5 423 Q142 398 129 365 Q116 332 112 295 L450 295 Z " />
<glyph glyph-name="afii10072" unicode="&#x436;" horiz-adv-x="734" d="M105 518 L337 262 L337 518 L397 518 L397 262 L629 518 L707 518 L521 314 L728 0 L660 0 L477 272 L397 190 L397 0 L337 0 L337 190 L257 272 L74 0 L6 0 L213 314 L27 518 L105 518 Z " />
<glyph glyph-name="afii10073" unicode="&#x437;" horiz-adv-x="505" d="M54 370 Q57 406 73 436 Q89 466 114.5 487.5 Q140 509 173 520.5 Q206 532 244 532 Q294 532 330.5 520.5 Q367 509 391 490.5 Q415 472 426.5 447.5 Q438 423 438 397 Q438 348 408.5 316.5 Q379 285 340 278 Q388 267 422.5 230 Q457 193 457 137 Q457 62 402 24 Q347 -14 250 -14 Q153 -14 99 32.5 Q45 79 37 162 L96 162 Q102 104 142.5 72 Q183 40 253 40 Q319 40 356 66.5 Q393 93 393 136 Q393 166 383 187.5 Q373 209 355.5 223 Q338 237 315 244 Q292 251 267 251 L214 251 L214 301 L279 301 Q297 301 314.5 308 Q332 315 346.5 327 Q361 339 369.5 355.5 Q378 372 378 391 Q378 438 342 458 Q306 478 246 478 Q187 478 156.5 452.5 Q126 427 112 370 L54 370 Z " />
<glyph glyph-name="afii10074" unicode="&#x438;" horiz-adv-x="566" d="M132 80 L428 518 L494 518 L494 0 L434 0 L434 438 L139 0 L72 0 L72 518 L132 518 L132 80 Z " />
<glyph glyph-name="afii10075" unicode="&#x439;" horiz-adv-x="566" d="M178 697 Q186 655 213.5 635.5 Q241 616 283 616 Q325 616 352 635.5 Q379 655 390 697 L427 697 Q420 634 380 602.5 Q340 571 278 571 Q218 571 181 604 Q144 637 139 697 L178 697 Z M132 80 L428 518 L494 518 L494 0 L434 0 L434 438 L139 0 L72 0 L72 518 L132 518 L132 80 Z " />
<glyph glyph-name="afii10076" unicode="&#x43a;" horiz-adv-x="504" d="M132 272 L386 518 L468 518 L274 331 L491 0 L424 0 L230 289 L132 196 L132 0 L72 0 L72 518 L132 518 L132 272 Z " />
<glyph glyph-name="afii10077" unicode="&#x43b;" horiz-adv-x="553" d="M470 518 L470 0 L410 0 L410 468 L171 468 L171 371 Q171 344 170.5 313 Q170 282 168.5 252 Q167 222 165 195.5 Q163 169 161 150 Q152 72 125.5 34 Q99 -4 51 -4 Q41 -4 29 -2.5 Q17 -1 7 3 L7 52 Q16 50 27 49 Q38 48 43 48 Q67 48 86 82 Q93 94 98 120.5 Q103 147 106 197 Q109 247 110 325 Q111 403 111 518 L470 518 Z " />
<glyph glyph-name="afii10078" unicode="&#x43c;" horiz-adv-x="649" d="M150 518 L325 68 L499 518 L577 518 L577 0 L517 0 L517 424 L352 0 L297 0 L132 424 L132 0 L72 0 L72 518 L150 518 Z " />
<glyph glyph-name="afii10079" unicode="&#x43d;" horiz-adv-x="558" d="M135 301 L423 301 L423 518 L483 518 L483 0 L423 0 L423 251 L135 251 L135 0 L75 0 L75 518 L135 518 L135 301 Z " />
<glyph glyph-name="afii10080" unicode="&#x43e;" horiz-adv-x="576" d="M288 478 Q241 478 207.5 459.5 Q174 441 153 410.5 Q132 380 122 340.5 Q112 301 112 259 Q112 211 123.5 170.5 Q135 130 157 101 Q179 72 212 56 Q245 40 288 40 Q335 40 368.5 58.5 Q402 77 423 108 Q444 139 454 178 Q464 217 464 259 Q464 305 454.5 345 Q445 385 424 414.5 Q403 444 369.5 461 Q336 478 288 478 Z M288 532 Q349 532 394 510.5 Q439 489 469 452.5 Q499 416 513.5 366 Q528 316 528 259 Q528 197 511 147 Q494 97 462.5 61 Q431 25 386.5 5.5 Q342 -14 288 -14 Q238 -14 194.5 3 Q151 20 118.5 54.5 Q86 89 67 140 Q48 191 48 259 Q48 316 63 365.5 Q78 415 108 452 Q138 489 183 510.5 Q228 532 288 532 Z " />
<glyph glyph-name="afii10081" unicode="&#x43f;" horiz-adv-x="552" d="M480 518 L480 0 L420 0 L420 468 L132 468 L132 0 L72 0 L72 518 L480 518 Z " />
<glyph glyph-name="afii10082" unicode="&#x440;" horiz-adv-x="596" d="M132 -204 L72 -204 L72 518 L132 518 L132 427 L134 427 Q147 452 167.5 472 Q188 492 212.5 505 Q237 518 263 525 Q289 532 314 532 Q377 532 421 511 Q465 490 493.5 453.5 Q522 417 535 367 Q548 317 548 260 Q548 206 534 156 Q520 106 491.5 68.5 Q463 31 419.5 8.5 Q376 -14 317 -14 Q262 -14 211.5 10.5 Q161 35 132 83 L132 -204 Z M307 478 Q229 478 180.5 420 Q132 362 132 252 Q132 210 143.5 171.5 Q155 133 177 104 Q199 75 232 57.5 Q265 40 307 40 Q345 40 377.5 56 Q410 72 433.5 100.5 Q457 129 470.5 167.5 Q484 206 484 250 Q484 297 474 338.5 Q464 380 442 411 Q420 442 386.5 460 Q353 478 307 478 Z " />
<glyph glyph-name="afii10083" unicode="&#x441;" horiz-adv-x="557" d="M440 355 Q424 413 385 445.5 Q346 478 286 478 Q240 478 207 459 Q174 440 153 408.5 Q132 377 122 337.5 Q112 298 112 258 Q112 217 121.5 178 Q131 139 152 108 Q173 77 206 58.5 Q239 40 286 40 Q353 40 393.5 77 Q434 114 445 179 L509 179 Q501 136 483.5 100.5 Q466 65 438.5 39.5 Q411 14 373 0 Q335 -14 286 -14 Q224 -14 179 7 Q134 28 105 64.5 Q76 101 62 151 Q48 201 48 258 Q48 312 63.5 361.5 Q79 411 109 449 Q139 487 183.5 509.5 Q228 532 286 532 Q376 532 431.5 489 Q487 446 501 355 L440 355 Z " />
<glyph glyph-name="afii10084" unicode="&#x442;" horiz-adv-x="436" d="M422 518 L422 468 L248 468 L248 0 L188 0 L188 468 L14 468 L14 518 L422 518 Z " />
<glyph glyph-name="afii10085" unicode="&#x443;" horiz-adv-x="490" d="M85 518 L251 73 L417 518 L482 518 L289 7 Q271 -42 254.5 -81 Q238 -120 219.5 -147.5 Q201 -175 178.5 -189.5 Q156 -204 125 -204 Q109 -204 94.5 -202 Q80 -200 68 -197 L68 -141 Q80 -143 92.5 -145 Q105 -147 118 -147 Q133 -147 145 -141 Q157 -135 168.5 -119 Q180 -103 192 -75 Q204 -47 219 -4 L18 518 L85 518 Z " />
<glyph glyph-name="afii10086" unicode="&#x444;" horiz-adv-x="870" d="M612 40 Q651 40 678.5 58.5 Q706 77 724 107.5 Q742 138 750 178 Q758 218 758 261 Q758 300 749.5 339 Q741 378 723 408.5 Q705 439 677.5 458.5 Q650 478 612 478 Q577 478 549.5 460.5 Q522 443 503 413 Q484 383 474.5 343.5 Q465 304 465 261 Q465 219 473.5 179 Q482 139 500 108.5 Q518 78 545.5 59 Q573 40 612 40 Z M465 739 L465 440 Q486 477 526.5 504.5 Q567 532 621 532 Q672 532 710 509.5 Q748 487 772.5 449.5 Q797 412 809.5 362.5 Q822 313 822 259 Q822 203 810.5 153.5 Q799 104 774.5 66.5 Q750 29 712 7.5 Q674 -14 621 -14 Q570 -14 530.5 7 Q491 28 465 75 L465 -204 L405 -204 L405 77 Q379 30 339.5 8 Q300 -14 249 -14 Q196 -14 158 8 Q120 30 95.5 67.5 Q71 105 59.5 155 Q48 205 48 261 Q48 315 60.5 364 Q73 413 97.5 450.5 Q122 488 160 510 Q198 532 249 532 Q303 532 343.5 505.5 Q384 479 405 442 L405 739 L465 739 Z M258 40 Q297 40 324.5 59 Q352 78 370 108.5 Q388 139 396.5 179 Q405 219 405 261 Q405 304 395 343.5 Q385 383 366.5 413 Q348 443 320.5 460.5 Q293 478 258 478 Q220 478 192.5 458.5 Q165 439 147 408.5 Q129 378 120.5 339 Q112 300 112 261 Q112 218 120 178 Q128 138 146 107.5 Q164 77 191.5 58.5 Q219 40 258 40 Z " />
<glyph glyph-name="afii10087" unicode="&#x445;" horiz-adv-x="500" d="M108 518 L251 312 L398 518 L474 518 L287 268 L481 0 L409 0 L252 224 L91 0 L18 0 L217 268 L34 518 L108 518 Z " />
<glyph glyph-name="afii10088" unicode="&#x446;" horiz-adv-x="560" d="M132 50 L420 50 L420 518 L480 518 L480 50 L532 50 L532 -136 L472 -136 L472 0 L72 0 L72 518 L132 518 L132 50 Z " />
<glyph glyph-name="afii10089" unicode="&#x447;" horiz-adv-x="510" d="M115 518 L115 376 Q115 330 146 305 Q177 280 229 280 Q268 280 292.5 281 Q317 282 333 284 Q349 286 359 289 Q369 292 378 296 L378 518 L438 518 L438 0 L378 0 L378 245 Q342 234 302.5 230 Q263 226 218 226 Q185 226 155.5 236 Q126 246 103.5 266 Q81 286 68 315 Q55 344 55 383 L55 518 L115 518 Z " />
<glyph glyph-name="afii10090" unicode="&#x448;" horiz-adv-x="848" d="M132 50 L394 50 L394 518 L454 518 L454 50 L716 50 L716 518 L776 518 L776 0 L72 0 L72 518 L132 518 L132 50 Z " />
<glyph glyph-name="afii10091" unicode="&#x449;" horiz-adv-x="856" d="M132 50 L394 50 L394 518 L454 518 L454 50 L716 50 L716 518 L776 518 L776 50 L828 50 L828 -136 L768 -136 L768 0 L72 0 L72 518 L132 518 L132 50 Z " />
<glyph glyph-name="afii10092" unicode="&#x44a;" horiz-adv-x="539" d="M159 50 L294 50 Q362 50 394.5 76 Q427 102 427 149 Q427 197 392.5 224 Q358 251 307 251 L159 251 L159 50 Z M159 518 L159 301 L311 301 Q353 301 386 290 Q419 279 442.5 258.5 Q466 238 478.5 210 Q491 182 491 149 Q491 97 470 67.5 Q449 38 420.5 23 Q392 8 363 4 Q334 0 319 0 L99 0 L99 468 L-11 468 L-11 518 L159 518 Z " />
<glyph glyph-name="afii10093" unicode="&#x44b;" horiz-adv-x="701" d="M629 0 L569 0 L569 518 L629 518 L629 0 Z M132 50 L267 50 Q335 50 367.5 76 Q400 102 400 149 Q400 197 365.5 224 Q331 251 280 251 L132 251 L132 50 Z M132 301 L284 301 Q326 301 359 290 Q392 279 415.5 258.5 Q439 238 451.5 210 Q464 182 464 149 Q464 97 443 67.5 Q422 38 393.5 23 Q365 8 336 4 Q307 0 292 0 L72 0 L72 518 L132 518 L132 301 Z " />
<glyph glyph-name="afii10094" unicode="&#x44c;" horiz-adv-x="512" d="M132 50 L267 50 Q335 50 367.5 76 Q400 102 400 149 Q400 197 365.5 224 Q331 251 280 251 L132 251 L132 50 Z M132 301 L284 301 Q326 301 359 290 Q392 279 415.5 258.5 Q439 238 451.5 210 Q464 182 464 149 Q464 97 443 67.5 Q422 38 393.5 23 Q365 8 336 4 Q307 0 292 0 L72 0 L72 518 L132 518 L132 301 Z " />
<glyph glyph-name="afii10095" unicode="&#x44d;" horiz-adv-x="555" d="M54 355 Q68 435 123.5 483.5 Q179 532 269 532 Q327 532 371.5 509.5 Q416 487 446 449 Q476 411 491.5 361.5 Q507 312 507 258 Q507 201 493 151 Q479 101 450 64.5 Q421 28 376 7 Q331 -14 269 -14 Q220 -14 182 0 Q144 14 116.5 39.5 Q89 65 71.5 100.5 Q54 136 46 179 L110 179 Q121 114 161.5 77 Q202 40 269 40 Q314 40 346.5 58 Q379 76 400.5 106 Q422 136 432.5 174 Q443 212 443 251 L237 251 L237 301 L440 301 Q437 334 425 366 Q413 398 392 422.5 Q371 447 340.5 462.5 Q310 478 269 478 Q209 478 170 445.5 Q131 413 115 355 L54 355 Z " />
<glyph glyph-name="afii10096" unicode="&#x44e;" horiz-adv-x="766" d="M654 259 Q654 305 644.5 345 Q635 385 614 414.5 Q593 444 559.5 461 Q526 478 478 478 Q431 478 397.5 459.5 Q364 441 343 410.5 Q322 380 312 340.5 Q302 301 302 259 Q302 211 313.5 170.5 Q325 130 347 101 Q369 72 402 56 Q435 40 478 40 Q525 40 558.5 58.5 Q592 77 613 108 Q634 139 644 178 Q654 217 654 259 Z M132 301 L241 301 Q246 350 263 392 Q280 434 309.5 465 Q339 496 381 514 Q423 532 478 532 Q539 532 584 510.5 Q629 489 659 452.5 Q689 416 703.5 366 Q718 316 718 259 Q718 197 701 147 Q684 97 652.5 61 Q621 25 576.5 5.5 Q532 -14 478 -14 Q430 -14 386.5 2 Q343 18 310 51 Q277 84 257.5 134 Q238 184 238 251 L132 251 L132 0 L72 0 L72 518 L132 518 L132 301 Z " />
<glyph glyph-name="afii10097" unicode="&#x44f;" horiz-adv-x="512" d="M380 468 L245 468 Q177 468 144.5 442 Q112 416 112 369 Q112 321 146.5 296 Q181 271 232 271 L380 271 L380 468 Z M237 221 L112 0 L45 0 L176 226 Q111 242 79.5 278.5 Q48 315 48 369 Q48 421 69 450.5 Q90 480 118.5 495 Q147 510 176 514 Q205 518 220 518 L440 518 L440 0 L380 0 L380 221 L237 221 Z " />
</font>
</svg>
